<svg width="227" height="39" viewBox="0 0 227 39" fill="none" xmlns="http://www.w3.org/2000/svg">
<g clip-path="url(#clip0)">
<path d="M207.483 16.5215C207.25 16.5215 207.061 16.7102 207.061 16.943V24.9102C207.061 25.1429 207.25 25.3318 207.483 25.3318C207.716 25.3318 207.904 25.1429 207.904 24.9102V16.943C207.904 16.7102 207.716 16.5215 207.483 16.5215Z" fill="#757575"/>
<path d="M202.509 16.5215C202.276 16.5215 202.087 16.7102 202.087 16.943V24.9102C202.087 25.1429 202.276 25.3318 202.509 25.3318C202.741 25.3318 202.93 25.1429 202.93 24.9102V16.943C202.93 16.7102 202.741 16.5215 202.509 16.5215Z" fill="#757575"/>
<path d="M198.883 15.3588V25.7447C198.883 26.3586 199.108 26.9351 199.502 27.3487C199.893 27.7635 200.438 27.999 201.008 28H208.984C209.554 27.999 210.099 27.7635 210.49 27.3487C210.883 26.9351 211.108 26.3586 211.108 25.7447V15.3588C211.89 15.1513 212.396 14.3961 212.292 13.594C212.187 12.7921 211.504 12.1923 210.695 12.1921H208.537V11.6652C208.539 11.222 208.364 10.7965 208.05 10.4835C207.737 10.1706 207.31 9.99643 206.867 10.0001H203.124C202.681 9.99643 202.255 10.1706 201.941 10.4835C201.627 10.7965 201.452 11.222 201.455 11.6652V12.1921H199.296C198.488 12.1923 197.804 12.7921 197.7 13.594C197.595 14.3961 198.102 15.1513 198.883 15.3588ZM208.984 27.1569H201.008C200.287 27.1569 199.726 26.5378 199.726 25.7447V15.3958H210.265V25.7447C210.265 26.5378 209.704 27.1569 208.984 27.1569ZM202.298 11.6652C202.295 11.4457 202.381 11.2344 202.537 11.0794C202.693 10.9245 202.904 10.8394 203.124 10.8431H206.867C207.087 10.8394 207.299 10.9245 207.454 11.0794C207.61 11.2342 207.696 11.4457 207.694 11.6652V12.1921H202.298V11.6652ZM199.296 13.0352H210.695C211.114 13.0352 211.454 13.3749 211.454 13.794C211.454 14.213 211.114 14.5527 210.695 14.5527H199.296C198.877 14.5527 198.538 14.213 198.538 13.794C198.538 13.3749 198.877 13.0352 199.296 13.0352Z" fill="#757575"/>
<path d="M204.996 16.5215C204.763 16.5215 204.574 16.7102 204.574 16.943V24.9102C204.574 25.1429 204.763 25.3318 204.996 25.3318C205.229 25.3318 205.417 25.1429 205.417 24.9102V16.943C205.417 16.7102 205.229 16.5215 204.996 16.5215Z" fill="#757575"/>
</g>
<rect x="183.5" y="0.5" width="42.6758" height="37.0219" stroke="#BCC6CA"/>
<path d="M151.428 18.1206C151.651 17.8974 151.651 17.5346 151.428 17.3113C151.205 17.0881 150.842 17.0881 150.619 17.3113L147.591 20.3392C147.074 20.8555 146.795 21.5253 146.795 22.2509C146.795 22.9764 147.074 23.6462 147.591 24.1625C148.651 25.223 150.367 25.223 151.414 24.1625L158.251 17.3253C158.963 16.6137 159.354 15.6648 159.354 14.6602C159.354 13.6555 158.963 12.7067 158.251 11.995C156.772 10.516 154.386 10.516 152.907 11.995L146.084 18.8183C145.163 19.7392 144.661 20.9532 144.661 22.2509C144.661 23.5485 145.163 24.7764 146.084 25.6834C147.005 26.6044 148.219 27.1067 149.516 27.1067C150.814 27.1067 152.042 26.6044 152.949 25.6834L155.977 22.6555C156.2 22.4323 156.2 22.0695 155.977 21.8462C155.754 21.623 155.391 21.623 155.167 21.8462L152.14 24.8741C151.442 25.5718 150.507 25.9625 149.516 25.9625C148.526 25.9625 147.591 25.5718 146.893 24.8741C146.195 24.1764 145.805 23.2416 145.805 22.2509C145.805 21.2602 146.195 20.3253 146.893 19.6276L153.716 12.8043C154.219 12.302 154.874 12.0369 155.572 12.0369C156.27 12.0369 156.94 12.316 157.428 12.8043C157.93 13.3067 158.195 13.9625 158.195 14.6602C158.195 15.3578 157.916 16.0276 157.428 16.516L150.591 23.3532C149.991 23.9532 149 23.9532 148.386 23.3532C148.093 23.0602 147.926 22.6695 147.926 22.2509C147.926 21.8323 148.093 21.4416 148.386 21.1485L151.428 18.1206Z" fill="#757575"/>
<rect x="130.5" y="0.5" width="42.6758" height="37.0219" stroke="#BCC6CA"/>
<path d="M114.894 14.6895H114.432V13.6599C114.432 12.1938 113.238 11 111.772 11H106.187C104.721 11 103.527 12.1938 103.527 13.6599V14.6895H103.106C101.64 14.6895 100.446 15.8833 100.446 17.3494V21.6396C100.446 23.1057 101.64 24.2995 103.106 24.2995H103.524V27.6719C103.524 28.4031 104.12 29 104.852 29H113.1C113.831 29 114.428 28.4031 114.428 27.6719V24.2995H114.894C116.36 24.2995 117.554 23.1057 117.554 21.6396V17.3494C117.554 15.8833 116.36 14.6895 114.894 14.6895ZM104.531 13.6599C104.531 12.7496 105.273 12.0073 106.183 12.0073H111.764C112.675 12.0073 113.417 12.7496 113.417 13.6599V14.6895H104.531V13.6599ZM113.421 27.6794C113.421 27.8547 113.275 28.0002 113.1 28.0002H104.852C104.676 28.0002 104.531 27.8547 104.531 27.6794V22.1171H113.421V27.6794ZM116.547 21.6433C116.547 22.5536 115.805 23.296 114.894 23.296H114.432V22.1171H115.096C115.376 22.1171 115.599 21.8933 115.599 21.6135C115.599 21.3337 115.376 21.1098 115.096 21.1098H102.785C102.505 21.1098 102.281 21.3337 102.281 21.6135C102.281 21.8933 102.505 22.1171 102.785 22.1171H103.527V23.296H103.106C102.195 23.296 101.453 22.5536 101.453 21.6433V17.3532C101.453 16.4429 102.195 15.7005 103.106 15.7005H114.894C115.805 15.7005 116.547 16.4429 116.547 17.3532V21.6433Z" fill="#757575"/>
<path d="M105.751 24.5942H112.164C112.443 24.5942 112.667 24.3703 112.667 24.0905C112.667 23.8107 112.443 23.5869 112.164 23.5869H105.751C105.471 23.5869 105.247 23.8107 105.247 24.0905C105.247 24.3703 105.475 24.5942 105.751 24.5942Z" fill="#757575"/>
<path d="M112.205 25.6465H105.788C105.508 25.6465 105.284 25.8703 105.284 26.1501C105.284 26.4299 105.508 26.6537 105.788 26.6537H112.201C112.481 26.6537 112.705 26.4299 112.705 26.1501C112.705 25.8703 112.481 25.6465 112.205 25.6465Z" fill="#757575"/>
<path d="M114.883 16.667H113.861C113.581 16.667 113.357 16.8908 113.357 17.1706C113.357 17.4504 113.581 17.6742 113.861 17.6742H114.883C115.163 17.6742 115.387 17.4504 115.387 17.1706C115.387 16.8908 115.163 16.667 114.883 16.667Z" fill="#757575"/>
<rect x="87.5" y="0.5" width="42.6758" height="37.0219" stroke="#BCC6CA"/>
<path d="M66.9575 17.6414C66.8299 17.532 66.684 17.459 66.5198 17.4043C66.3557 17.3678 66.1733 17.3496 65.9545 17.3496H65.1156C64.9697 17.3496 64.8785 17.3861 64.8055 17.4408C64.7508 17.4955 64.7144 17.6049 64.7144 17.7508V20.1034C64.7144 20.2128 64.7144 20.2858 64.7508 20.3587C64.7691 20.4317 64.8055 20.4682 64.8603 20.5046C64.915 20.5411 65.0061 20.5594 65.1338 20.5594H65.9727C66.1186 20.5594 66.2463 20.5411 66.3739 20.5229C66.4834 20.5046 66.5928 20.4682 66.7022 20.4317C66.8116 20.377 66.9028 20.3223 66.9758 20.2493C67.0852 20.1399 67.1764 20.0305 67.2493 19.9028C67.3223 19.7752 67.377 19.6293 67.4134 19.4651C67.4499 19.301 67.4682 19.1369 67.4682 18.9362C67.4682 18.3709 67.304 17.9332 66.9575 17.6414ZM66.4834 19.9028C66.4286 19.9393 66.3739 19.9758 66.3192 19.994C66.2463 20.0122 66.1916 20.0305 66.1368 20.0305C66.0821 20.0305 65.991 20.0305 65.8815 20.0305H65.3891V17.842H65.8268C66.0274 17.842 66.1916 17.8603 66.3375 17.915C66.4834 17.9514 66.5928 18.0609 66.684 18.225C66.7751 18.3891 66.8299 18.6262 66.8299 18.9362C66.8116 19.4104 66.7022 19.7204 66.4834 19.9028Z" fill="#757575"/>
<path d="M72.7569 13.5927L72.7387 13.5745V13.5562L69.2737 10.0912L69.2554 10.0729C69.2554 10.0729 69.2372 10.0729 69.2372 10.0547C69.2372 10.0547 69.2189 10.0547 69.2189 10.0365C69.1642 10 69.1095 10 69.0366 10H60.4469C60.1186 10 59.8086 10.1277 59.5898 10.3465L59.5715 10.3647C59.3527 10.5836 59.2068 10.9119 59.2068 11.2401V26.7599C59.2068 27.1064 59.3527 27.4164 59.5715 27.6353C59.7904 27.8541 60.1186 28 60.4469 28H71.5533C71.8998 28 72.2098 27.8541 72.4287 27.6353C72.6475 27.4164 72.7934 27.0881 72.7934 26.7599V13.7751C72.7934 13.7021 72.7752 13.6474 72.7569 13.5927ZM69.3831 11.3131L71.4439 13.3739H69.9302C69.7843 13.3739 69.6384 13.3191 69.5472 13.2097C69.456 13.1185 69.3831 12.9726 69.3831 12.8267V11.3131ZM72.0092 26.7599C72.0092 26.8875 71.9545 26.997 71.8633 27.0881C71.7721 27.1793 71.6627 27.234 71.5351 27.234H60.4469C60.3192 27.234 60.2098 27.1793 60.1186 27.1064C60.0275 27.0152 59.991 26.9058 59.991 26.7781V11.2219C59.991 11.0942 60.0457 10.9848 60.1369 10.8936L60.1551 10.8754C60.2463 10.8024 60.3557 10.7477 60.4651 10.7477H68.6354V12.8085C68.6354 13.1733 68.7813 13.5015 69.0366 13.7568C69.2737 13.9939 69.6202 14.1398 69.9849 14.1398H72.0092V26.7599Z" fill="#757575"/>
<path d="M63.8755 17.6052C63.7843 17.5141 63.6749 17.4593 63.529 17.4229C63.4013 17.3864 63.2007 17.3682 62.9636 17.3682H62.1247C61.9788 17.3682 61.8694 17.4046 61.8147 17.4593C61.7417 17.5141 61.7235 17.6235 61.7235 17.7694V20.2496C61.7235 20.3773 61.76 20.4685 61.8147 20.5414C61.8694 20.6144 61.9606 20.6326 62.0518 20.6326C62.143 20.6326 62.2159 20.5961 62.2889 20.5232C62.3436 20.4502 62.38 20.359 62.38 20.2314V19.3195H62.9819C63.3831 19.3195 63.6749 19.2283 63.8755 19.0642C64.0761 18.9001 64.1855 18.6448 64.1855 18.3165C64.1855 18.1706 64.1673 18.0247 64.1126 17.897C64.0396 17.7876 63.9667 17.6782 63.8755 17.6052ZM63.4378 18.6265C63.3831 18.6995 63.3101 18.7542 63.2007 18.7907C63.0913 18.8271 62.9636 18.8454 62.8177 18.8454H62.38V17.8606H62.8177C63.1095 17.8606 63.2919 17.9153 63.4013 18.0065C63.4925 18.0976 63.529 18.2071 63.529 18.353C63.5108 18.4624 63.4925 18.5536 63.4378 18.6265Z" fill="#757575"/>
<path d="M68.4347 17.3311C68.3252 17.3493 68.2523 17.3675 68.1976 17.404C68.1429 17.4222 68.0882 17.477 68.0699 17.5317C68.0334 17.5864 68.0334 17.6593 68.0334 17.7687V20.2308C68.0334 20.3584 68.0699 20.4678 68.1246 20.5225C68.1793 20.5955 68.2705 20.6137 68.3617 20.6137C68.4529 20.6137 68.5258 20.5773 68.5988 20.5225C68.6535 20.4496 68.69 20.3584 68.69 20.2308V19.173H69.766C69.8572 19.173 69.9301 19.1548 69.9848 19.1001C70.0395 19.0636 70.0578 18.9906 70.0578 18.9177C70.0578 18.8447 70.0395 18.79 69.9848 18.7353C69.9301 18.6988 69.8572 18.6624 69.766 18.6624H68.69V17.8417H69.9666C70.076 17.8417 70.1489 17.8235 70.2037 17.7687C70.2584 17.714 70.2766 17.6593 70.2766 17.5864C70.2766 17.5134 70.2584 17.4587 70.2037 17.404C70.1489 17.3493 70.076 17.3311 69.9666 17.3311H68.4347Z" fill="#757575"/>
<rect x="44.5" y="0.5" width="42.6758" height="37.0219" stroke="#BCC6CA"/>
<path d="M30.6224 23.9008C30.5312 23.9008 30.4399 23.8641 30.3687 23.7898L26.1013 19.3827C25.9522 19.2292 25.9448 18.9704 26.085 18.8062C26.2252 18.6405 26.4588 18.6332 26.6093 18.7883L30.8768 23.1954C31.0258 23.3489 31.0333 23.6077 30.8931 23.7718C30.8197 23.8575 30.7218 23.9008 30.6224 23.9008Z" fill="#757575"/>
<path d="M16.3772 23.9018C16.2785 23.9018 16.1799 23.8586 16.1065 23.7728C15.9663 23.6087 15.9737 23.3499 16.1228 23.1964L20.3917 18.7893C20.5415 18.6358 20.7766 18.6424 20.9161 18.8073C21.0562 18.9714 21.0488 19.2302 20.8997 19.3837L16.6308 23.7908C16.5596 23.8651 16.4684 23.9018 16.3772 23.9018Z" fill="#757575"/>
<path d="M33.1459 28H13.8541C12.8321 28 12 27.0848 12 25.9589V12.0411C12 10.9152 12.8321 10 13.8541 10H33.1459C34.1679 10 35 10.9152 35 12.0411V25.9589C35 27.0848 34.1679 28 33.1459 28ZM13.8541 10.8164C13.2408 10.8164 12.7416 11.3659 12.7416 12.0411V25.9589C12.7416 26.6341 13.2408 27.1836 13.8541 27.1836H33.1459C33.7592 27.1836 34.2584 26.6341 34.2584 25.9589V12.0411C34.2584 11.3659 33.7592 10.8164 33.1459 10.8164H13.8541Z" fill="#757575"/>
<path d="M23.5002 21.0512C23.007 21.0512 22.5138 20.8707 22.1385 20.5107L12.6158 11.3658C12.4615 11.218 12.4452 10.96 12.5794 10.7894C12.7152 10.6195 12.9488 10.604 13.103 10.7502L22.6258 19.8943C23.0997 20.349 23.9007 20.349 24.3739 19.8943L33.8848 10.7649C34.0383 10.6171 34.2719 10.6334 34.4084 10.8041C34.5426 10.9747 34.527 11.2319 34.3728 11.3805L24.8619 20.5099C24.4859 20.8707 23.9934 21.0512 23.5002 21.0512Z" fill="#757575"/>
<rect x="1.47632" y="0.5" width="42.6758" height="37.0219" stroke="#BCC6CA"/>
<defs>
<clipPath id="clip0">
<rect width="18" height="18" fill="white" transform="translate(196 10)"/>
</clipPath>
</defs>
</svg>