<svg width="18" height="18" viewBox="0 0 18 18" fill="none" xmlns="http://www.w3.org/2000/svg">
<path d="M8.42809 8.12063C8.65134 7.89737 8.65134 7.53458 8.42809 7.31133C8.20483 7.08807 7.84204 7.08807 7.61878 7.31133L4.59088 10.3392C4.0746 10.8555 3.79553 11.5253 3.79553 12.2509C3.79553 12.9764 4.0746 13.6462 4.59088 14.1625C5.65134 15.223 7.36762 15.223 8.41413 14.1625L15.2513 7.32528C15.963 6.61365 16.3537 5.66481 16.3537 4.66016C16.3537 3.65551 15.963 2.70667 15.2513 1.99504C13.7723 0.515975 11.3862 0.515975 9.90716 1.99504L3.0839 8.8183C2.16297 9.73923 1.66064 10.9532 1.66064 12.2509C1.66064 13.5485 2.16297 14.7764 3.0839 15.6834C4.00483 16.6044 5.21878 17.1067 6.51646 17.1067C7.81413 17.1067 9.04204 16.6044 9.94902 15.6834L12.9769 12.6555C13.2002 12.4323 13.2002 12.0695 12.9769 11.8462C12.7537 11.623 12.3909 11.623 12.1676 11.8462L9.13971 14.8741C8.44204 15.5718 7.50716 15.9625 6.51646 15.9625C5.52576 15.9625 4.59088 15.5718 3.8932 14.8741C3.19553 14.1764 2.80483 13.2416 2.80483 12.2509C2.80483 11.2602 3.19553 10.3253 3.8932 9.6276L10.7165 2.80435C11.2188 2.30202 11.8746 2.03691 12.5723 2.03691C13.2699 2.03691 13.9397 2.31597 14.4281 2.80435C14.9304 3.30667 15.1955 3.96249 15.1955 4.66016C15.1955 5.35784 14.9165 6.0276 14.4281 6.51598L7.59088 13.3532C6.99088 13.9532 6.00018 13.9532 5.38623 13.3532C5.0932 13.0602 4.92576 12.6695 4.92576 12.2509C4.92576 11.8323 5.0932 11.4416 5.38623 11.1485L8.42809 8.12063Z" fill="#757575"/>
</svg>
