<svg width="30" height="30" viewBox="0 0 30 30" fill="none" xmlns="http://www.w3.org/2000/svg">
<g clip-path="url(#clip0)">
<path d="M21.1875 13.5266L14.4111 20.3031C13.1088 21.6053 10.9993 21.6053 9.69705 20.3031C8.3948 19.0008 8.3948 16.8913 9.69706 15.589L17.0628 8.22333C17.8759 7.41015 19.1959 7.41015 20.009 8.22333C20.8222 9.0365 20.8222 10.3564 20.009 11.1696L13.8218 17.3568C13.4978 17.6809 12.9674 17.6809 12.6433 17.3568C12.3192 17.0327 12.3192 16.5024 12.6433 16.1783L18.2413 10.5803L17.3574 9.69647L11.7594 15.2944C10.9463 16.1076 10.9463 17.4275 11.7594 18.2407C12.5726 19.0538 13.8926 19.0538 14.7057 18.2407L20.8929 12.0535C22.1952 10.7512 22.1952 8.6417 20.8929 7.33944C19.5907 6.03719 17.4811 6.03719 16.1789 7.33944L8.81317 14.7051C7.02183 16.4965 7.02183 19.3956 8.81317 21.187C10.6045 22.9783 13.5036 22.9783 15.295 21.1869L22.0714 14.4105L21.1875 13.5266Z" fill="#757575"/>
</g>
<defs>
<clipPath id="clip0">
<rect width="20" height="20" fill="white" transform="translate(0.858398 14.9998) rotate(-45)"/>
</clipPath>
</defs>
</svg>
