<svg width="424" height="368" viewBox="0 0 424 368" fill="none" xmlns="http://www.w3.org/2000/svg">
<g clip-path="url(#clip0)">
<path d="M243.625 221.72L194.539 236.352L203.532 266.515L252.618 251.883L243.625 221.72Z" fill="url(#paint0_linear)"/>
<path d="M242.786 222.782L195.363 236.918L203.756 265.071L251.179 250.935L242.786 222.782Z" fill="white"/>
<g opacity="0.6">
<path opacity="0.6" d="M199.417 242.86L205.452 241.062L204.12 236.597L198.085 238.395L199.417 242.86Z" fill="#008FFF"/>
<path opacity="0.6" d="M206.957 250.069L230.122 243.164L229.69 241.716L206.525 248.622L206.957 250.069Z" fill="#008FFF"/>
<path opacity="0.6" d="M214.168 251.335L231.06 246.3L230.772 245.335L213.88 250.37L214.168 251.335Z" fill="#008FFF"/>
</g>
<path d="M320.121 150.212L314.104 181.106L364.38 190.897L370.397 160.002L320.121 150.212Z" fill="url(#paint1_linear)"/>
<path d="M319.796 151.572L314.214 180.362L362.709 189.764L368.292 160.974L319.796 151.572Z" fill="white"/>
<g opacity="0.6">
<path opacity="0.6" d="M321.369 158.282L327.55 159.485L328.441 154.912L322.26 153.708L321.369 158.282Z" fill="#008FFF"/>
<path opacity="0.6" d="M324.705 168.164L348.433 172.784L348.721 171.301L324.994 166.681L324.705 168.164Z" fill="#008FFF"/>
<path opacity="0.6" d="M330.508 172.633L347.81 176.002L348.002 175.013L330.701 171.644L330.508 172.633Z" fill="#008FFF"/>
</g>
<path d="M351.387 211.205L322.509 223.73L342.893 270.717L371.77 258.191L351.387 211.205Z" fill="url(#paint2_linear)"/>
<path d="M350.919 212.095L323.966 223.786L343.658 269.18L370.612 257.49L350.919 212.095Z" fill="white"/>
<g opacity="0.6">
<path opacity="0.6" d="M345.43 216.81L347.937 222.587L352.211 220.733L349.705 214.956L345.43 216.81Z" fill="#47E6B1"/>
<path opacity="0.6" d="M339.17 225.157L348.79 247.331L350.176 246.73L340.556 224.555L339.17 225.157Z" fill="#47E6B1"/>
<path opacity="0.6" d="M338.768 232.467L345.783 248.636L346.707 248.235L339.692 232.066L338.768 232.467Z" fill="#47E6B1"/>
</g>
<path d="M211.132 73.3456L162.046 87.9775L171.039 118.141L220.125 103.509L211.132 73.3456Z" fill="url(#paint3_linear)"/>
<path d="M210.292 74.4127L162.87 88.5488L171.263 116.702L218.686 102.566L210.292 74.4127Z" fill="white"/>
<g opacity="0.6">
<path opacity="0.6" d="M166.896 94.5001L172.931 92.7012L171.6 88.2362L165.565 90.0352L166.896 94.5001Z" fill="#F55F44"/>
<path opacity="0.6" d="M174.44 101.708L197.606 94.8027L197.174 93.355L174.009 100.26L174.44 101.708Z" fill="#F55F44"/>
<path opacity="0.6" d="M181.648 102.975L198.539 97.9395L198.251 96.9743L181.36 102.009L181.648 102.975Z" fill="#F55F44"/>
</g>
<path d="M287.616 1.84466L281.599 32.7393L331.875 42.5294L337.892 11.6348L287.616 1.84466Z" fill="url(#paint4_linear)"/>
<path d="M288.083 2.73634L282.467 31.5723L331.04 41.0306L336.656 12.1947L288.083 2.73634Z" fill="white"/>
<g opacity="0.6">
<path opacity="0.6" d="M288.862 9.91742L295.043 11.1211L295.934 6.54785L289.753 5.34418L288.862 9.91742Z" fill="#008FFF"/>
<path opacity="0.6" d="M292.199 19.7996L315.926 24.4199L316.215 22.9371L292.488 18.3168L292.199 19.7996Z" fill="#008FFF"/>
<path opacity="0.6" d="M298.002 24.2648L315.303 27.6338L315.496 26.6452L298.195 23.2763L298.002 24.2648Z" fill="#008FFF"/>
</g>
<path d="M318.876 62.8427L289.998 75.3682L310.381 122.355L339.259 109.829L318.876 62.8427Z" fill="url(#paint5_linear)"/>
<path d="M318.413 63.7301L291.459 75.4209L311.152 120.815L338.105 109.124L318.413 63.7301Z" fill="white"/>
<g opacity="0.6">
<path opacity="0.6" d="M312.925 68.4477L315.431 74.2246L319.706 72.3705L317.2 66.5936L312.925 68.4477Z" fill="#47E6B1"/>
<path opacity="0.6" d="M306.661 76.7942L316.28 98.9688L317.666 98.3676L308.047 76.193L306.661 76.7942Z" fill="#47E6B1"/>
<path opacity="0.6" d="M306.261 84.1084L313.275 100.277L314.199 99.8766L307.185 83.7076L306.261 84.1084Z" fill="#47E6B1"/>
</g>
<path d="M73.2272 185.006L24.1411 199.638L33.1339 229.801L82.2201 215.169L73.2272 185.006Z" fill="url(#paint6_linear)"/>
<path d="M72.392 186.071L24.9692 200.207L33.3628 228.36L80.7856 214.224L72.392 186.071Z" fill="white"/>
<g opacity="0.6">
<path opacity="0.6" d="M29.0187 206.178L35.0537 204.379L33.7225 199.914L27.6875 201.713L29.0187 206.178Z" fill="#008FFF"/>
<path opacity="0.6" d="M36.563 213.386L59.7285 206.48L59.2969 205.033L36.1314 211.938L36.563 213.386Z" fill="#008FFF"/>
<path opacity="0.6" d="M43.775 214.651L60.6665 209.616L60.3788 208.651L43.4872 213.686L43.775 214.651Z" fill="#008FFF"/>
</g>
<path d="M149.726 113.514L143.709 144.408L193.985 154.198L200.002 123.304L149.726 113.514Z" fill="url(#paint7_linear)"/>
<path d="M149.654 114.65L144.072 143.44L192.568 152.842L198.15 124.052L149.654 114.65Z" fill="white"/>
<g opacity="0.6">
<path opacity="0.6" d="M150.968 121.581L157.149 122.785L158.04 118.212L151.858 117.008L150.968 121.581Z" fill="#F55F44"/>
<path opacity="0.6" d="M154.309 131.465L178.037 136.085L178.325 134.602L154.598 129.982L154.309 131.465Z" fill="#F55F44"/>
<path opacity="0.6" d="M160.112 135.934L177.413 139.303L177.606 138.314L160.304 134.945L160.112 135.934Z" fill="#F55F44"/>
</g>
<path d="M180.988 174.509L152.11 187.034L172.494 234.021L201.371 221.495L180.988 174.509Z" fill="url(#paint8_linear)"/>
<path d="M180.525 175.396L153.571 187.087L173.264 232.481L200.217 220.79L180.525 175.396Z" fill="white"/>
<g opacity="0.6">
<path opacity="0.6" d="M175.033 180.115L177.54 185.892L181.814 184.037L179.308 178.261L175.033 180.115Z" fill="#47E6B1"/>
<path opacity="0.6" d="M168.774 188.456L178.394 210.631L179.78 210.03L170.16 187.855L168.774 188.456Z" fill="#47E6B1"/>
<path opacity="0.6" d="M168.373 195.769L175.388 211.938L176.312 211.537L169.297 195.368L168.373 195.769Z" fill="#47E6B1"/>
</g>
<path d="M79.0026 96.4042L29.9165 111.036L38.9093 141.199L87.9954 126.567L79.0026 96.4042Z" fill="url(#paint9_linear)"/>
<path d="M79.0443 96.9953L31.5386 111.345L40.0588 139.547L87.5646 125.198L79.0443 96.9953Z" fill="white"/>
<g opacity="0.6">
<path opacity="0.6" d="M34.7799 117.578L40.8149 115.779L39.4838 111.314L33.4487 113.113L34.7799 117.578Z" fill="#008FFF"/>
<path opacity="0.6" d="M42.3198 124.787L65.4854 117.882L65.0537 116.434L41.8882 123.339L42.3198 124.787Z" fill="#008FFF"/>
<path opacity="0.6" d="M49.5313 126.053L66.4229 121.018L66.1351 120.052L49.2436 125.088L49.5313 126.053Z" fill="#008FFF"/>
</g>
<path d="M155.085 25.2785L149.104 56.124L199.3 65.8552L205.281 35.0097L155.085 25.2785Z" fill="url(#paint10_linear)"/>
<path d="M155.961 25.8047L150.345 54.6406L198.917 64.099L204.533 35.2631L155.961 25.8047Z" fill="white"/>
<g opacity="0.6">
<path opacity="0.6" d="M156.74 32.9858L162.921 34.1895L163.812 29.6162L157.631 28.4125L156.74 32.9858Z" fill="#008FFF"/>
<path opacity="0.6" d="M160.078 42.8631L183.805 47.4834L184.094 46.0006L160.367 41.3803L160.078 42.8631Z" fill="#008FFF"/>
<path opacity="0.6" d="M165.875 47.3322L183.176 50.7012L183.369 49.7126L166.068 46.3437L165.875 47.3322Z" fill="#F55F44"/>
</g>
<path d="M186.757 85.9121L157.879 98.4375L178.263 145.424L207.141 132.898L186.757 85.9121Z" fill="url(#paint11_linear)"/>
<path d="M186.29 86.8014L159.336 98.4922L179.028 143.886L205.982 132.196L186.29 86.8014Z" fill="white"/>
<g opacity="0.6">
<path opacity="0.6" d="M180.805 91.5171L183.312 97.2939L187.586 95.4398L185.08 89.663L180.805 91.5171Z" fill="#47E6B1"/>
<path opacity="0.6" d="M174.541 99.8635L184.161 122.038L185.547 121.437L175.927 99.2624L174.541 99.8635Z" fill="#47E6B1"/>
<path opacity="0.6" d="M174.143 107.167L181.158 123.336L182.082 122.935L175.067 106.766L174.143 107.167Z" fill="#47E6B1"/>
</g>
<path opacity="0.25" d="M31.2428 32.6239C32.7199 32.6239 33.9173 31.4266 33.9173 29.9496C33.9173 28.4727 32.7199 27.2754 31.2428 27.2754C29.7658 27.2754 28.5684 28.4727 28.5684 29.9496C28.5684 31.4266 29.7658 32.6239 31.2428 32.6239Z" fill="#535461"/>
<path opacity="0.25" d="M310.454 266.853C311.931 266.853 313.129 265.656 313.129 264.179C313.129 262.702 311.931 261.505 310.454 261.505C308.977 261.505 307.78 262.702 307.78 264.179C307.78 265.656 308.977 266.853 310.454 266.853Z" fill="#535461"/>
<path opacity="0.25" d="M74.2155 253.555C75.6926 253.555 76.89 252.357 76.89 250.88C76.89 249.403 75.6926 248.206 74.2155 248.206C72.7384 248.206 71.541 249.403 71.541 250.88C71.541 252.357 72.7384 253.555 74.2155 253.555Z" fill="#535461"/>
<path opacity="0.25" d="M335.317 216.331C336.794 216.331 337.992 215.134 337.992 213.657C337.992 212.18 336.794 210.982 335.317 210.982C333.84 210.982 332.643 212.18 332.643 213.657C332.643 215.134 333.84 216.331 335.317 216.331Z" fill="#535461"/>
<path opacity="0.25" d="M360.482 93.6571C361.959 93.6571 363.157 92.4598 363.157 90.9828C363.157 89.5059 361.959 88.3086 360.482 88.3086C359.005 88.3086 357.808 89.5059 357.808 90.9828C357.808 92.4598 359.005 93.6571 360.482 93.6571Z" fill="#535461"/>
<path opacity="0.25" d="M163.031 2.38091H160.654V0H159.681V2.38091H157.305V3.34892H159.681V5.72494H160.654V3.34892H163.031V2.38091Z" fill="#535461"/>
<path opacity="0.25" d="M71.5262 38.8184H69.15V36.4424H68.177V38.8184H65.8008V39.7913H68.177V42.1673H69.15V39.7913H71.5262V38.8184Z" fill="#535461"/>
<path opacity="0.25" d="M34.3036 174.599H31.9273V172.223H30.9544V174.599H28.5781V175.572H30.9544V177.948H31.9273V175.572H34.3036V174.599Z" fill="#535461"/>
<path opacity="0.25" d="M28.9598 77.7686H26.5787V75.3877H25.6106V77.7686H23.2295V78.7366H25.6106V81.1175H26.5787V78.7366H28.9598V77.7686Z" fill="#535461"/>
<path opacity="0.25" d="M5.72544 144.307H3.34921V141.926H2.38112V144.307H0V145.275H2.38112V147.651H3.34921V145.275H5.72544V144.307Z" fill="#535461"/>
<path opacity="0.25" d="M424 109.996H421.624V107.62H420.651V109.996H418.274V110.969H420.651V113.345H421.624V110.969H424V109.996Z" fill="#535461"/>
<path opacity="0.25" d="M341.16 140.929H338.783V138.548H337.81V140.929H335.434V141.897H337.81V144.278H338.783V141.897H341.16V140.929Z" fill="#535461"/>
<path opacity="0.25" d="M270.421 57.504H268.04V55.1279H267.072V57.504H264.69V58.4769H267.072V60.8529H268.04V58.4769H270.421V57.504Z" fill="#535461"/>
<path d="M133.919 193.475C132.208 199.028 134.775 205.594 139.786 208.518C141.884 209.74 144.304 210.361 146.343 211.686C150.768 214.565 152.513 220.09 153.951 225.17C155.599 231.012 157.256 237.187 155.745 243.063C154.767 246.808 152.592 250.123 151.345 253.789C150.304 256.859 149.942 260.119 150.284 263.342C150.465 265.054 150.895 266.833 152.064 268.094C153.755 269.918 156.464 270.192 158.909 270.632C164.086 271.615 168.957 273.811 173.122 277.04C177.286 280.27 180.626 284.44 182.867 289.21" stroke="url(#paint12_linear)" stroke-width="2" stroke-miterlimit="10"/>
<path d="M134.443 193.475C132.731 199.028 135.298 205.594 140.31 208.518C142.407 209.74 144.828 210.361 146.867 211.686C151.291 214.565 153.037 220.09 154.474 225.17C156.122 231.012 157.78 237.187 156.269 243.063C155.291 246.808 153.115 250.123 151.868 253.789C150.827 256.859 150.465 260.119 150.807 263.342C150.988 265.054 151.419 266.833 152.587 268.094C154.279 269.918 156.987 270.192 159.432 270.632C164.61 271.615 169.481 273.811 173.645 277.04C177.81 280.27 181.149 284.44 183.39 289.21" stroke="#535461" stroke-width="2" stroke-miterlimit="10"/>
<path d="M199.212 151.978C194.992 157.844 190.612 164.2 190.25 171.421C189.697 182.533 198.562 191.622 202.556 202.016C204.274 206.593 205.052 211.47 204.842 216.355C204.632 221.24 203.439 226.032 201.334 230.445C199.378 234.449 196.635 238.424 196.973 242.858C197.178 245.566 198.532 248.026 199.623 250.514C202.299 256.75 203.466 263.529 203.031 270.301C202.596 277.072 200.571 283.646 197.119 289.489" stroke="url(#paint13_linear)" stroke-width="2" stroke-miterlimit="10"/>
<path d="M199.735 151.978C195.515 157.844 191.135 164.2 190.773 171.421C190.22 182.533 199.085 191.622 203.079 202.016C204.798 206.593 205.576 211.47 205.367 216.354C205.158 221.239 203.966 226.031 201.862 230.445C199.906 234.449 197.163 238.424 197.5 242.858C197.706 245.566 199.06 248.026 200.151 250.514C202.826 256.75 203.994 263.529 203.559 270.301C203.124 277.072 201.099 283.646 197.647 289.489" stroke="#535461" stroke-width="2" stroke-miterlimit="10"/>
<path d="M258.451 204.905L260.49 221.528C260.759 223.737 260.979 226.148 259.806 228.03C258.681 229.814 256.574 230.665 254.916 231.985C249.538 236.312 250.027 244.623 251.865 251.287C253.704 257.95 256.403 265.108 253.821 271.517C252.755 274.162 250.887 276.406 249.465 278.85C247.08 283.094 246.135 287.997 246.77 292.823" stroke="url(#paint14_linear)" stroke-width="2" stroke-miterlimit="10"/>
<path d="M258.94 204.905L260.979 221.528C261.248 223.737 261.468 226.148 260.295 228.03C259.17 229.814 257.063 230.665 255.405 231.985C250.027 236.312 250.516 244.623 252.354 251.287C254.193 257.95 256.892 265.108 254.31 271.517C253.244 274.162 251.377 276.406 249.954 278.85C247.569 283.094 246.624 287.997 247.26 292.823" stroke="#535461" stroke-width="2" stroke-miterlimit="10"/>
<g opacity="0.7">
<path opacity="0.7" d="M311.364 136.524C311.358 128.744 309.511 121.076 305.975 114.145C302.439 107.215 297.314 101.219 291.018 96.648C284.722 92.0766 277.434 89.059 269.749 87.8417C262.064 86.6244 254.201 87.2419 246.8 89.6437C247.208 86.8722 247.419 84.0752 247.431 81.2739C247.51 68.4534 242.591 56.1063 233.717 46.8517C224.844 37.5971 212.714 32.1629 199.901 31.7018C187.087 31.2408 174.598 35.789 165.082 44.3819C155.566 52.9748 149.773 64.9364 148.93 77.7294C141.528 75.3229 133.662 74.7017 125.974 75.9165C118.286 77.1313 110.995 80.1477 104.696 84.7191C98.3975 89.2905 93.2697 95.2873 89.732 102.219C86.1943 109.151 84.3471 116.822 84.3413 124.605C84.3413 149.343 102.559 184.528 126.316 190.762L130.008 192.874L128.003 199.747H139.884L137.303 192.864L140.98 190.762C159.334 185.946 174.379 163.848 180.275 142.635C183.501 144.786 187.052 146.402 190.792 147.421L194.484 149.533L192.479 156.407H204.36L201.779 149.523L205.456 147.421C208.184 146.687 210.811 145.62 213.279 144.243C216.452 168.028 233.325 197.073 254.711 202.681L258.402 204.793L256.398 211.667H268.279L265.697 204.783L269.374 202.681C293.166 196.447 311.364 161.262 311.364 136.524Z" fill="url(#paint15_linear)"/>
</g>
<path d="M141.757 197.224H130.262L132.272 190.326H139.171L141.757 197.224Z" fill="#F55F44"/>
<path d="M183.434 124.517C183.434 150.863 162.072 189.466 135.724 189.466C109.375 189.466 88.0132 150.844 88.0132 124.517C88.0132 111.864 93.0398 99.73 101.987 90.7834C110.935 81.8367 123.07 76.8105 135.724 76.8105C148.377 76.8105 160.512 81.8367 169.46 90.7834C178.407 99.73 183.434 111.864 183.434 124.517Z" fill="#F55F44"/>
<path d="M139.171 190.615H132.272L128.248 188.317H143.195L139.171 190.615Z" fill="#535461"/>
<path opacity="0.1" d="M118.479 87.4434C118.479 87.4434 98.3593 98.3652 95.499 120.199L118.479 87.4434Z" fill="white"/>
<path d="M204.15 155.287H192.655L194.665 148.389H201.564L204.15 155.287Z" fill="#4D8AF0"/>
<path d="M245.827 82.5744C245.827 108.921 224.465 147.524 198.117 147.524C171.768 147.524 150.396 108.926 150.396 82.5744C150.396 69.9219 155.423 57.7877 164.371 48.841C173.318 39.8943 185.453 34.8682 198.107 34.8682C210.76 34.8682 222.896 39.8943 231.843 48.841C240.791 57.7877 245.817 69.9219 245.817 82.5744H245.827Z" fill="#4D8AF0"/>
<path d="M201.563 148.678H194.665L190.641 146.375H205.587L201.563 148.678Z" fill="#535461"/>
<path opacity="0.1" d="M180.872 45.501C180.872 45.501 160.752 56.4229 157.892 78.2569L180.872 45.501Z" fill="white"/>
<path d="M266.02 208.758H254.52L256.534 201.864H263.428L266.02 208.758Z" fill="#3AD29F"/>
<path d="M307.697 136.049C307.697 162.396 286.335 200.999 259.987 200.999C233.638 200.999 212.276 162.376 212.276 136.049C212.276 123.397 217.303 111.262 226.25 102.316C235.198 93.369 247.333 88.3428 259.987 88.3428C272.64 88.3428 284.776 93.369 293.723 102.316C302.67 111.262 307.697 123.397 307.697 136.049Z" fill="#3AD29F"/>
<path d="M263.429 202.147H256.535L252.511 199.85H267.453L263.429 202.147Z" fill="#535461"/>
<path opacity="0.1" d="M242.737 98.9766C242.737 98.9766 222.617 109.898 219.757 131.732L242.737 98.9766Z" fill="white"/>
<path d="M276.33 281.096L144.386 287.692L148.44 368.775L280.384 362.179L276.33 281.096Z" fill="url(#paint16_linear)"/>
<path d="M273.47 282.436L146.166 288.951L150.034 364.523L277.338 358.008L273.47 282.436Z" fill="#EEEEEE"/>
<path d="M152.564 306.425L168.761 305.596L168.148 293.609L151.951 294.438L152.564 306.425Z" fill="#008FFF"/>
<path d="M167.042 329.068L229.236 325.885L229.037 321.998L166.843 325.181L167.042 329.068Z" fill="#008FFF"/>
<path d="M184.312 336.628L229.665 334.307L229.532 331.714L184.179 334.035L184.312 336.628Z" fill="#008FFF"/>
</g>
<defs>
<linearGradient id="paint0_linear" x1="228.075" y1="259.199" x2="219.084" y2="229.035" gradientUnits="userSpaceOnUse">
<stop stop-color="#808080" stop-opacity="0.25"/>
<stop offset="0.54" stop-color="#808080" stop-opacity="0.12"/>
<stop offset="1" stop-color="#808080" stop-opacity="0.1"/>
</linearGradient>
<linearGradient id="paint1_linear" x1="2577.06" y1="17927.4" x2="3207.3" y2="14690.8" gradientUnits="userSpaceOnUse">
<stop stop-color="#808080" stop-opacity="0.25"/>
<stop offset="0.54" stop-color="#808080" stop-opacity="0.12"/>
<stop offset="1" stop-color="#808080" stop-opacity="0.1"/>
</linearGradient>
<linearGradient id="paint2_linear" x1="-18082.1" y1="16093.7" x2="-15056.9" y2="14781.3" gradientUnits="userSpaceOnUse">
<stop stop-color="#808080" stop-opacity="0.25"/>
<stop offset="0.54" stop-color="#808080" stop-opacity="0.12"/>
<stop offset="1" stop-color="#808080" stop-opacity="0.1"/>
</linearGradient>
<linearGradient id="paint3_linear" x1="3398.09" y1="9077.88" x2="2819.23" y2="7135.95" gradientUnits="userSpaceOnUse">
<stop stop-color="#808080" stop-opacity="0.25"/>
<stop offset="0.54" stop-color="#808080" stop-opacity="0.12"/>
<stop offset="1" stop-color="#808080" stop-opacity="0.1"/>
</linearGradient>
<linearGradient id="paint4_linear" x1="1621.02" y1="2710.26" x2="2251.26" y2="-526.273" gradientUnits="userSpaceOnUse">
<stop stop-color="#808080" stop-opacity="0.25"/>
<stop offset="0.54" stop-color="#808080" stop-opacity="0.12"/>
<stop offset="1" stop-color="#808080" stop-opacity="0.1"/>
</linearGradient>
<linearGradient id="paint5_linear" x1="-18943.7" y1="6043.52" x2="-15918.5" y2="4731.17" gradientUnits="userSpaceOnUse">
<stop stop-color="#808080" stop-opacity="0.25"/>
<stop offset="0.54" stop-color="#808080" stop-opacity="0.12"/>
<stop offset="1" stop-color="#808080" stop-opacity="0.1"/>
</linearGradient>
<linearGradient id="paint6_linear" x1="-11664.1" y1="18226.2" x2="-12243.1" y2="16284" gradientUnits="userSpaceOnUse">
<stop stop-color="#808080" stop-opacity="0.25"/>
<stop offset="0.54" stop-color="#808080" stop-opacity="0.12"/>
<stop offset="1" stop-color="#808080" stop-opacity="0.1"/>
</linearGradient>
<linearGradient id="paint7_linear" x1="-8191.94" y1="15424.6" x2="-7561.7" y2="12188.1" gradientUnits="userSpaceOnUse">
<stop stop-color="#808080" stop-opacity="0.25"/>
<stop offset="0.54" stop-color="#808080" stop-opacity="0.12"/>
<stop offset="1" stop-color="#808080" stop-opacity="0.1"/>
</linearGradient>
<linearGradient id="paint8_linear" x1="-34201" y1="16150.4" x2="-31175.8" y2="14838" gradientUnits="userSpaceOnUse">
<stop stop-color="#808080" stop-opacity="0.25"/>
<stop offset="0.54" stop-color="#808080" stop-opacity="0.12"/>
<stop offset="1" stop-color="#808080" stop-opacity="0.1"/>
</linearGradient>
<linearGradient id="paint9_linear" x1="-10129.6" y1="12083.1" x2="-10708.5" y2="10141.1" gradientUnits="userSpaceOnUse">
<stop stop-color="#808080" stop-opacity="0.25"/>
<stop offset="0.54" stop-color="#808080" stop-opacity="0.12"/>
<stop offset="1" stop-color="#808080" stop-opacity="0.1"/>
</linearGradient>
<linearGradient id="paint10_linear" x1="-7112.27" y1="6137.42" x2="-6485.83" y2="2906.03" gradientUnits="userSpaceOnUse">
<stop stop-color="#808080" stop-opacity="0.25"/>
<stop offset="0.54" stop-color="#808080" stop-opacity="0.12"/>
<stop offset="1" stop-color="#808080" stop-opacity="0.1"/>
</linearGradient>
<linearGradient id="paint11_linear" x1="-32248.5" y1="9754" x2="-29223.4" y2="8441.65" gradientUnits="userSpaceOnUse">
<stop stop-color="#808080" stop-opacity="0.25"/>
<stop offset="0.54" stop-color="#808080" stop-opacity="0.12"/>
<stop offset="1" stop-color="#808080" stop-opacity="0.1"/>
</linearGradient>
<linearGradient id="paint12_linear" x1="21815" y1="54506.9" x2="26919.9" y2="54506.9" gradientUnits="userSpaceOnUse">
<stop stop-color="#808080" stop-opacity="0.25"/>
<stop offset="0.54" stop-color="#808080" stop-opacity="0.12"/>
<stop offset="1" stop-color="#808080" stop-opacity="0.1"/>
</linearGradient>
<linearGradient id="paint13_linear" x1="8313.09" y1="72361.8" x2="8781.46" y2="72361.8" gradientUnits="userSpaceOnUse">
<stop stop-color="#808080" stop-opacity="0.25"/>
<stop offset="0.54" stop-color="#808080" stop-opacity="0.12"/>
<stop offset="1" stop-color="#808080" stop-opacity="0.1"/>
</linearGradient>
<linearGradient id="paint14_linear" x1="9706.4" y1="51435.5" x2="10142.9" y2="51435.5" gradientUnits="userSpaceOnUse">
<stop stop-color="#808080" stop-opacity="0.25"/>
<stop offset="0.54" stop-color="#808080" stop-opacity="0.12"/>
<stop offset="1" stop-color="#808080" stop-opacity="0.1"/>
</linearGradient>
<linearGradient id="paint15_linear" x1="129728" y1="91216.2" x2="129728" y2="25054.8" gradientUnits="userSpaceOnUse">
<stop stop-color="#808080" stop-opacity="0.25"/>
<stop offset="0.54" stop-color="#808080" stop-opacity="0.12"/>
<stop offset="1" stop-color="#808080" stop-opacity="0.1"/>
</linearGradient>
<linearGradient id="paint16_linear" x1="648.988" y1="64065.3" x2="-23.3367" y2="50617.7" gradientUnits="userSpaceOnUse">
<stop stop-color="#808080" stop-opacity="0.25"/>
<stop offset="0.54" stop-color="#808080" stop-opacity="0.12"/>
<stop offset="1" stop-color="#808080" stop-opacity="0.1"/>
</linearGradient>
<clipPath id="clip0">
<rect width="424" height="368" fill="white"/>
</clipPath>
</defs>
</svg>
