<svg width="24" height="24" viewBox="0 0 24 24" fill="none" xmlns="http://www.w3.org/2000/svg">
<g clip-path="url(#clip0)">
<path d="M10.7598 21.2968C10.7598 20.1383 9.82069 19.1992 8.6624 19.1992C7.50391 19.1992 6.56482 20.1383 6.56482 21.2966C6.56482 22.4551 7.50391 23.3942 8.6624 23.3942C9.82007 23.3929 10.7585 22.4547 10.7598 21.2968ZM7.30878 21.2968C7.30878 20.5491 7.9147 19.9432 8.6624 19.9432C9.4099 19.9432 10.0158 20.5491 10.0158 21.2966C10.0158 22.0443 9.4099 22.6502 8.6624 22.6502C7.91512 22.6494 7.30961 22.0439 7.30878 21.2968Z" fill="black"/>
<path d="M16.4291 23.3942C17.5876 23.3944 18.5267 22.4553 18.5267 21.2968C18.5269 20.1383 17.5878 19.1992 16.4293 19.1992C15.2708 19.1992 14.3318 20.1383 14.3318 21.2968C14.3332 22.4545 15.2713 23.3927 16.4291 23.3942ZM16.4291 19.9432C17.1766 19.9432 17.7827 20.5491 17.7827 21.2966C17.783 22.0441 17.1768 22.6502 16.4293 22.6502C15.6818 22.6502 15.0757 22.0443 15.0757 21.2968C15.0765 20.5497 15.6821 19.9442 16.4291 19.9432Z" fill="black"/>
<path d="M0.371979 3.32991H2.64101C3.38766 3.32701 4.0243 3.87065 4.13806 4.6088L5.93422 15.9548C6.10381 17.0549 7.05286 17.8655 8.16609 17.8612H19.2686C19.4739 17.8612 19.6406 17.6945 19.6406 17.4892C19.6406 17.2837 19.4739 17.1172 19.2686 17.1172H8.16609C7.41944 17.1201 6.7828 16.5763 6.66905 15.8383L6.3637 13.9093H17.7346C18.6973 13.9089 19.5542 13.299 19.8697 12.3896L21.9793 6.30097C22.019 6.18721 22.0009 6.06142 21.9312 5.96324C21.8612 5.86526 21.7483 5.80693 21.6279 5.80693H5.08087L4.87288 4.49235C4.70329 3.39219 3.75424 2.5816 2.64101 2.58595H0.371979C0.166477 2.58595 0 2.75264 0 2.95793C0 3.16344 0.166477 3.32991 0.371979 3.32991ZM21.1052 6.5511L19.1669 12.1459C18.9551 12.756 18.3804 13.1651 17.7346 13.1653H6.2458L5.19857 6.55089L21.1052 6.5511Z" fill="black"/>
</g>
<defs>
<clipPath id="clip0">
<rect width="22" height="22" fill="white" transform="translate(0 2)"/>
</clipPath>
</defs>
</svg>
