<svg width="22" height="16" viewBox="0 0 22 16" fill="none" xmlns="http://www.w3.org/2000/svg">
<path d="M0.371979 1.32991H2.64101C3.38766 1.32701 4.0243 1.87065 4.13806 2.6088L5.93422 13.9548C6.10381 15.0549 7.05286 15.8655 8.16609 15.8612H19.2686C19.4739 15.8612 19.6406 15.6945 19.6406 15.4892C19.6406 15.2837 19.4739 15.1172 19.2686 15.1172H8.16609C7.41944 15.1201 6.7828 14.5763 6.66905 13.8383L6.3637 11.9093H17.7346C18.6973 11.9089 19.5542 11.299 19.8697 10.3896L21.9793 4.30097C22.019 4.18721 22.0009 4.06142 21.9312 3.96324C21.8612 3.86526 21.7483 3.80693 21.6279 3.80693H5.08087L4.87288 2.49235C4.70329 1.39219 3.75424 0.581596 2.64101 0.585955H0.371979C0.166477 0.585955 0 0.75264 0 0.957934C0 1.16344 0.166477 1.32991 0.371979 1.32991ZM21.1052 4.5511L19.1669 10.1459C18.9551 10.756 18.3804 11.1651 17.7346 11.1653H6.2458L5.19857 4.55089L21.1052 4.5511Z" fill="black"/>
</svg>