<svg width="244" height="244" viewBox="0 0 244 244" fill="none" xmlns="http://www.w3.org/2000/svg">
<path d="M2.90791 95.5222C7.8073 73.4857 18.7248 53.2407 34.4456 37.0398C50.1665 20.839 70.0741 9.31766 91.9533 3.75789L103.972 51.0547C90.8444 54.3906 78.8999 61.3034 69.4674 71.0239C60.0349 80.7444 53.4844 92.8914 50.5447 106.113L2.90791 95.5222Z" fill="#33A02C"/>
<path d="M122 0C145.881 2.84782e-07 169.238 7.009 189.173 20.1581C209.108 33.3071 224.746 52.0179 234.148 73.9708L189.289 93.1825C183.648 80.0107 174.265 68.7843 162.304 60.8948C150.343 53.0054 136.329 48.8 122 48.8V0Z" fill="#A6CEE3"/>
<path d="M234.148 73.9708C243.444 95.6775 246.241 119.616 242.2 142.881C238.158 166.146 227.452 187.738 211.38 205.038L175.628 171.823C185.271 161.443 191.695 148.487 194.12 134.528C196.545 120.569 194.867 106.206 189.289 93.1825L234.148 73.9708Z" fill="#1F78B4"/>
<path d="M211.38 205.038C195.309 222.336 174.564 234.599 151.661 240.339C128.759 246.08 104.682 245.051 82.3529 237.378L98.2117 191.227C111.609 195.831 126.055 196.448 139.797 193.004C153.538 189.559 165.985 182.202 175.628 171.823L211.38 205.038Z" fill="#B2DF8A"/>
<path d="M82.3529 237.378C53.7065 227.534 29.7465 207.386 15.1342 180.853L57.8805 157.312C66.6479 173.232 81.0239 185.321 98.2117 191.227L82.3529 237.378Z" fill="#33A02C"/>
<path d="M15.1342 180.853C1.36274 155.847 -3.20343 126.803 2.23059 98.7774L50.1383 108.066C46.8779 124.882 49.6176 142.308 57.8805 157.312L15.1342 180.853Z" fill="#FB9A99"/>
<path d="M2.23059 98.7774C7.23346 72.9753 20.435 49.4787 39.8701 31.7854L72.722 67.8712C61.061 78.4872 53.1401 92.5852 50.1383 108.066L2.23059 98.7774Z" fill="#E31A1C"/>
<path d="M39.8701 31.7854C51.8242 20.9025 65.8221 12.504 81.0502 7.07779L97.4301 53.0467C88.2933 56.3024 79.8945 61.3415 72.722 67.8712L39.8701 31.7854Z" fill="#FDBF6F"/>
<path d="M81.0502 7.07779C89.5417 4.05206 98.3423 1.97678 107.291 0.889946L113.175 49.334C107.805 49.9861 102.525 51.2312 97.4301 53.0467L81.0502 7.07779Z" fill="#FF7F00"/>
<path d="M107.291 0.889946C110.32 0.522059 113.362 0.267943 116.41 0.128132L118.646 48.8769C116.817 48.9608 114.992 49.1132 113.175 49.334L107.291 0.889946Z" fill="#CAB2D6"/>
<path d="M116.41 0.128132C118.272 0.0427218 120.136 -2.22287e-08 122 0V48.8C120.882 48.8 119.763 48.8256 118.646 48.8769L116.41 0.128132Z" fill="#6A3D9A"/>
</svg>
