<svg width="234" height="200" viewBox="0 0 234 200" fill="none" xmlns="http://www.w3.org/2000/svg">
<path d="M95.9441 187.502C82.8039 184.34 70.5445 178.26 60.076 169.711C49.6075 161.163 41.1986 150.367 35.4735 138.124C29.7484 125.881 26.8542 112.506 27.0056 98.9916C27.1571 85.4771 30.3503 72.1703 36.3483 60.0588L68.609 76.0353C65.0102 83.3022 63.0942 91.2863 63.0034 99.3949C62.9125 107.504 64.6491 115.529 68.0841 122.874C71.5191 130.22 76.5645 136.698 82.8456 141.827C89.1267 146.956 96.4823 150.604 104.366 152.501L95.9441 187.502Z" fill="#FFC100"/>
<path d="M117 10C129.562 10 141.984 12.6296 153.468 17.7197C164.953 22.8098 175.244 30.2475 183.681 39.5545C192.118 48.8614 198.512 59.8314 202.454 71.7586C206.396 83.6858 207.797 96.3061 206.568 108.807L170.741 105.284C171.478 97.7837 170.638 90.2115 168.273 83.0552C165.907 75.8988 162.071 69.3168 157.009 63.7327C151.947 58.1485 145.772 53.6859 138.881 50.6318C131.991 47.5778 124.537 46 117 46V10Z" fill="#FF7272"/>
<path d="M202.507 71.9197C209.148 92.1407 208.407 114.061 200.417 133.787C192.427 153.514 177.704 169.771 158.864 179.671L142.118 147.803C153.423 141.863 162.256 132.108 167.05 120.272C171.844 108.436 172.289 95.2844 168.304 83.1518L202.507 71.9197Z" fill="#008FFF"/>
<path d="M159.308 179.436C139.585 189.94 116.66 192.732 94.9931 187.268L103.796 152.361C116.796 155.639 130.551 153.964 142.385 147.661L159.308 179.436Z" fill="#5DC644"/>
<path d="M34.5841 63.8391C39.9664 51.5719 48.0193 40.661 58.1553 31.9023C68.2913 23.1436 80.2547 16.758 93.1727 13.2114C106.091 9.66485 119.637 9.04673 132.825 11.4022C146.012 13.7576 158.507 19.0272 169.399 26.8264L148.439 56.0958C141.904 51.4163 134.407 48.2546 126.495 46.8413C118.582 45.428 110.454 45.7989 102.704 47.9268C94.9528 50.0548 87.7748 53.8861 81.6932 59.1414C75.6116 64.3966 70.7798 70.9431 67.5504 78.3034L34.5841 63.8391Z" fill="#A0AEB4"/>
</svg>
