<svg width="738" height="199" viewBox="0 0 738 199" fill="none" xmlns="http://www.w3.org/2000/svg">
<g clip-path="url(#clip0)">
<rect width="738" height="199" fill="white"/>
<rect x="0.5" y="0.5" width="737" height="198" stroke="black" stroke-opacity="0.1"/>
<path d="M36.3984 41.6738H32.6807V47H31.5908V34.2031H35.748C37.1133 34.2031 38.1797 34.5342 38.9473 35.1963C39.7148 35.8584 40.0986 36.7842 40.0986 37.9736C40.0986 38.7939 39.8584 39.5176 39.3779 40.1445C38.8975 40.7715 38.2529 41.2051 37.4443 41.4453L40.6436 46.8857V47H39.4922L36.3984 41.6738ZM32.6807 40.751H35.9941C36.9023 40.751 37.6318 40.4932 38.1826 39.9775C38.7334 39.4619 39.0088 38.7939 39.0088 37.9736C39.0088 37.0713 38.7217 36.3711 38.1475 35.873C37.5732 35.375 36.7676 35.126 35.7305 35.126H32.6807V40.751ZM46.4795 47.1758C45.6709 47.1758 44.9385 46.9766 44.2822 46.5781C43.6318 46.1797 43.125 45.626 42.7617 44.917C42.3984 44.2021 42.2168 43.4023 42.2168 42.5176V42.1396C42.2168 41.2256 42.3926 40.4023 42.7441 39.6699C43.1016 38.9375 43.5967 38.3633 44.2295 37.9473C44.8623 37.5254 45.5479 37.3145 46.2861 37.3145C47.4404 37.3145 48.3545 37.71 49.0283 38.501C49.708 39.2861 50.0479 40.3613 50.0479 41.7266V42.3154H43.2627V42.5176C43.2627 43.5957 43.5703 44.4951 44.1855 45.2158C44.8066 45.9307 45.5859 46.2881 46.5234 46.2881C47.0859 46.2881 47.5811 46.1855 48.0088 45.9805C48.4424 45.7754 48.835 45.4473 49.1865 44.9961L49.8457 45.4971C49.0723 46.6162 47.9502 47.1758 46.4795 47.1758ZM46.2861 38.2109C45.4951 38.2109 44.8271 38.501 44.2822 39.0811C43.7432 39.6611 43.415 40.4404 43.2979 41.4189H49.002V41.3047C48.9727 40.3906 48.7119 39.6465 48.2197 39.0723C47.7275 38.498 47.083 38.2109 46.2861 38.2109ZM55.6113 46.2881C56.3438 46.2881 56.9561 46.083 57.4482 45.6729C57.9463 45.2568 58.2158 44.7207 58.2568 44.0645H59.2676C59.2383 44.6445 59.0566 45.1748 58.7227 45.6553C58.3887 46.1299 57.9434 46.502 57.3867 46.7715C56.8359 47.041 56.2441 47.1758 55.6113 47.1758C54.3633 47.1758 53.373 46.7422 52.6406 45.875C51.9141 45.0078 51.5508 43.8418 51.5508 42.377V42.0605C51.5508 41.123 51.7148 40.2939 52.043 39.5732C52.3711 38.8525 52.8398 38.2959 53.4492 37.9033C54.0645 37.5107 54.7822 37.3145 55.6025 37.3145C56.6455 37.3145 57.5039 37.625 58.1777 38.2461C58.8574 38.8672 59.2207 39.6846 59.2676 40.6982H58.2568C58.21 39.9541 57.9404 39.3535 57.4482 38.8965C56.9619 38.4395 56.3467 38.2109 55.6025 38.2109C54.6533 38.2109 53.915 38.5537 53.3877 39.2393C52.8662 39.9248 52.6055 40.8857 52.6055 42.1221V42.4297C52.6055 43.6426 52.8662 44.5889 53.3877 45.2686C53.915 45.9482 54.6562 46.2881 55.6113 46.2881ZM65.0596 47.1758C64.251 47.1758 63.5186 46.9766 62.8623 46.5781C62.2119 46.1797 61.7051 45.626 61.3418 44.917C60.9785 44.2021 60.7969 43.4023 60.7969 42.5176V42.1396C60.7969 41.2256 60.9727 40.4023 61.3242 39.6699C61.6816 38.9375 62.1768 38.3633 62.8096 37.9473C63.4424 37.5254 64.1279 37.3145 64.8662 37.3145C66.0205 37.3145 66.9346 37.71 67.6084 38.501C68.2881 39.2861 68.6279 40.3613 68.6279 41.7266V42.3154H61.8428V42.5176C61.8428 43.5957 62.1504 44.4951 62.7656 45.2158C63.3867 45.9307 64.166 46.2881 65.1035 46.2881C65.666 46.2881 66.1611 46.1855 66.5889 45.9805C67.0225 45.7754 67.415 45.4473 67.7666 44.9961L68.4258 45.4971C67.6523 46.6162 66.5303 47.1758 65.0596 47.1758ZM64.8662 38.2109C64.0752 38.2109 63.4072 38.501 62.8623 39.0811C62.3232 39.6611 61.9951 40.4404 61.8779 41.4189H67.582V41.3047C67.5527 40.3906 67.292 39.6465 66.7998 39.0723C66.3076 38.498 65.6631 38.2109 64.8662 38.2109ZM71.8535 47H70.7988V37.4902H71.8535V47ZM70.6143 34.7393C70.6143 34.54 70.6787 34.373 70.8076 34.2383C70.9365 34.0977 71.1123 34.0273 71.335 34.0273C71.5576 34.0273 71.7334 34.0977 71.8623 34.2383C71.9971 34.373 72.0645 34.54 72.0645 34.7393C72.0645 34.9385 71.9971 35.1055 71.8623 35.2402C71.7334 35.375 71.5576 35.4424 71.335 35.4424C71.1123 35.4424 70.9365 35.375 70.8076 35.2402C70.6787 35.1055 70.6143 34.9385 70.6143 34.7393ZM77.6807 45.5498L80.5723 37.4902H81.6533L78.1025 47H77.25L73.6816 37.4902H74.7627L77.6807 45.5498ZM89.2471 47C89.1416 46.7012 89.0742 46.2588 89.0449 45.6729C88.6758 46.1533 88.2041 46.5254 87.6299 46.7891C87.0615 47.0469 86.458 47.1758 85.8193 47.1758C84.9053 47.1758 84.1641 46.9209 83.5957 46.4111C83.0332 45.9014 82.752 45.2568 82.752 44.4775C82.752 43.5518 83.1357 42.8193 83.9033 42.2803C84.6768 41.7412 85.752 41.4717 87.1289 41.4717H89.0361V40.3906C89.0361 39.7109 88.8252 39.1777 88.4033 38.791C87.9873 38.3984 87.3779 38.2021 86.5752 38.2021C85.8428 38.2021 85.2363 38.3896 84.7559 38.7646C84.2754 39.1396 84.0352 39.5908 84.0352 40.1182L82.9805 40.1094C82.9805 39.3535 83.332 38.7002 84.0352 38.1494C84.7383 37.5928 85.6025 37.3145 86.6279 37.3145C87.6885 37.3145 88.5234 37.5811 89.1328 38.1143C89.748 38.6416 90.0645 39.3799 90.082 40.3291V44.8291C90.082 45.749 90.1787 46.4375 90.3721 46.8945V47H89.2471ZM85.9424 46.2441C86.6455 46.2441 87.2725 46.0742 87.8232 45.7344C88.3799 45.3945 88.7842 44.9404 89.0361 44.3721V42.2803H87.1553C86.1064 42.292 85.2861 42.4854 84.6943 42.8604C84.1025 43.2295 83.8066 43.7393 83.8066 44.3896C83.8066 44.9229 84.0029 45.3652 84.3955 45.7168C84.7939 46.0684 85.3096 46.2441 85.9424 46.2441ZM100.55 42.3418C100.55 43.8242 100.222 45.002 99.5654 45.875C98.9092 46.7422 98.0273 47.1758 96.9199 47.1758C95.5957 47.1758 94.5938 46.6836 93.9141 45.6992L93.8701 47H92.8857V33.5H93.9316V38.8701C94.5996 37.833 95.5898 37.3145 96.9023 37.3145C98.0273 37.3145 98.915 37.7451 99.5654 38.6064C100.222 39.4619 100.55 40.6543 100.55 42.1836V42.3418ZM99.4951 42.1572C99.4951 40.9033 99.252 39.9365 98.7656 39.2568C98.2793 38.5713 97.5938 38.2285 96.709 38.2285C96.0352 38.2285 95.4639 38.3955 94.9951 38.7295C94.5264 39.0576 94.1719 39.541 93.9316 40.1797V44.4688C94.459 45.6641 95.3906 46.2617 96.7266 46.2617C97.5938 46.2617 98.2705 45.9189 98.7568 45.2334C99.249 44.5479 99.4951 43.5225 99.4951 42.1572ZM104.057 47H103.002V33.5H104.057V47ZM110.604 47.1758C109.796 47.1758 109.063 46.9766 108.407 46.5781C107.757 46.1797 107.25 45.626 106.887 44.917C106.523 44.2021 106.342 43.4023 106.342 42.5176V42.1396C106.342 41.2256 106.518 40.4023 106.869 39.6699C107.227 38.9375 107.722 38.3633 108.354 37.9473C108.987 37.5254 109.673 37.3145 110.411 37.3145C111.565 37.3145 112.479 37.71 113.153 38.501C113.833 39.2861 114.173 40.3613 114.173 41.7266V42.3154H107.388V42.5176C107.388 43.5957 107.695 44.4951 108.311 45.2158C108.932 45.9307 109.711 46.2881 110.648 46.2881C111.211 46.2881 111.706 46.1855 112.134 45.9805C112.567 45.7754 112.96 45.4473 113.312 44.9961L113.971 45.4971C113.197 46.6162 112.075 47.1758 110.604 47.1758ZM110.411 38.2109C109.62 38.2109 108.952 38.501 108.407 39.0811C107.868 39.6611 107.54 40.4404 107.423 41.4189H113.127V41.3047C113.098 40.3906 112.837 39.6465 112.345 39.0723C111.853 38.498 111.208 38.2109 110.411 38.2109ZM121.916 44.583C121.916 44.0615 121.705 43.6426 121.283 43.3262C120.867 43.0098 120.237 42.7637 119.394 42.5879C118.55 42.4062 117.894 42.2012 117.425 41.9727C116.962 41.7383 116.616 41.4541 116.388 41.1201C116.165 40.7861 116.054 40.3818 116.054 39.9072C116.054 39.1572 116.367 38.5391 116.994 38.0527C117.621 37.5605 118.424 37.3145 119.402 37.3145C120.463 37.3145 121.312 37.5781 121.951 38.1055C122.596 38.627 122.918 39.3096 122.918 40.1533H121.863C121.863 39.5967 121.629 39.1338 121.16 38.7646C120.697 38.3955 120.111 38.2109 119.402 38.2109C118.711 38.2109 118.154 38.3662 117.732 38.6768C117.316 38.9814 117.108 39.3799 117.108 39.8721C117.108 40.3467 117.281 40.7158 117.627 40.9795C117.979 41.2373 118.614 41.4746 119.534 41.6914C120.46 41.9082 121.151 42.1396 121.608 42.3857C122.071 42.6318 122.414 42.9277 122.637 43.2734C122.859 43.6191 122.971 44.0381 122.971 44.5303C122.971 45.333 122.646 45.9746 121.995 46.4551C121.351 46.9355 120.507 47.1758 119.464 47.1758C118.356 47.1758 117.457 46.9092 116.766 46.376C116.08 45.8369 115.737 45.1572 115.737 44.3369H116.792C116.833 44.9521 117.091 45.4326 117.565 45.7783C118.046 46.1182 118.679 46.2881 119.464 46.2881C120.196 46.2881 120.788 46.127 121.239 45.8047C121.69 45.4824 121.916 45.0752 121.916 44.583ZM135.416 44.583C135.416 44.0615 135.205 43.6426 134.783 43.3262C134.367 43.0098 133.737 42.7637 132.894 42.5879C132.05 42.4062 131.394 42.2012 130.925 41.9727C130.462 41.7383 130.116 41.4541 129.888 41.1201C129.665 40.7861 129.554 40.3818 129.554 39.9072C129.554 39.1572 129.867 38.5391 130.494 38.0527C131.121 37.5605 131.924 37.3145 132.902 37.3145C133.963 37.3145 134.812 37.5781 135.451 38.1055C136.096 38.627 136.418 39.3096 136.418 40.1533H135.363C135.363 39.5967 135.129 39.1338 134.66 38.7646C134.197 38.3955 133.611 38.2109 132.902 38.2109C132.211 38.2109 131.654 38.3662 131.232 38.6768C130.816 38.9814 130.608 39.3799 130.608 39.8721C130.608 40.3467 130.781 40.7158 131.127 40.9795C131.479 41.2373 132.114 41.4746 133.034 41.6914C133.96 41.9082 134.651 42.1396 135.108 42.3857C135.571 42.6318 135.914 42.9277 136.137 43.2734C136.359 43.6191 136.471 44.0381 136.471 44.5303C136.471 45.333 136.146 45.9746 135.495 46.4551C134.851 46.9355 134.007 47.1758 132.964 47.1758C131.856 47.1758 130.957 46.9092 130.266 46.376C129.58 45.8369 129.237 45.1572 129.237 44.3369H130.292C130.333 44.9521 130.591 45.4326 131.065 45.7783C131.546 46.1182 132.179 46.2881 132.964 46.2881C133.696 46.2881 134.288 46.127 134.739 45.8047C135.19 45.4824 135.416 45.0752 135.416 44.583ZM144.961 45.7959C144.328 46.7158 143.317 47.1758 141.929 47.1758C140.915 47.1758 140.145 46.8828 139.617 46.2969C139.09 45.7051 138.82 44.832 138.809 43.6777V37.4902H139.854V43.5459C139.854 45.3564 140.587 46.2617 142.052 46.2617C143.575 46.2617 144.539 45.6318 144.943 44.3721V37.4902H145.998V47H144.979L144.961 45.7959ZM149.698 37.4902L149.733 39.0371C150.085 38.4629 150.524 38.0322 151.052 37.7451C151.579 37.458 152.165 37.3145 152.81 37.3145C154.31 37.3145 155.262 37.9297 155.666 39.1602C156.006 38.5684 156.46 38.1143 157.028 37.7979C157.597 37.4756 158.224 37.3145 158.909 37.3145C160.948 37.3145 161.988 38.4277 162.029 40.6543V47H160.975V40.7334C160.969 39.8838 160.784 39.2539 160.421 38.8438C160.063 38.4336 159.478 38.2285 158.663 38.2285C157.907 38.2402 157.269 38.4863 156.747 38.9668C156.226 39.4414 155.936 40.0215 155.877 40.707V47H154.822V40.6543C154.816 39.8398 154.623 39.2334 154.242 38.835C153.867 38.4307 153.287 38.2285 152.502 38.2285C151.84 38.2285 151.271 38.4189 150.797 38.7998C150.322 39.1748 149.971 39.7344 149.742 40.4785V47H148.688V37.4902H149.698ZM165.659 37.4902L165.694 39.0371C166.046 38.4629 166.485 38.0322 167.013 37.7451C167.54 37.458 168.126 37.3145 168.771 37.3145C170.271 37.3145 171.223 37.9297 171.627 39.1602C171.967 38.5684 172.421 38.1143 172.989 37.7979C173.558 37.4756 174.185 37.3145 174.87 37.3145C176.909 37.3145 177.949 38.4277 177.99 40.6543V47H176.936V40.7334C176.93 39.8838 176.745 39.2539 176.382 38.8438C176.024 38.4336 175.438 38.2285 174.624 38.2285C173.868 38.2402 173.229 38.4863 172.708 38.9668C172.187 39.4414 171.896 40.0215 171.838 40.707V47H170.783V40.6543C170.777 39.8398 170.584 39.2334 170.203 38.835C169.828 38.4307 169.248 38.2285 168.463 38.2285C167.801 38.2285 167.232 38.4189 166.758 38.7998C166.283 39.1748 165.932 39.7344 165.703 40.4785V47H164.648V37.4902H165.659ZM186.665 47C186.56 46.7012 186.492 46.2588 186.463 45.6729C186.094 46.1533 185.622 46.5254 185.048 46.7891C184.479 47.0469 183.876 47.1758 183.237 47.1758C182.323 47.1758 181.582 46.9209 181.014 46.4111C180.451 45.9014 180.17 45.2568 180.17 44.4775C180.17 43.5518 180.554 42.8193 181.321 42.2803C182.095 41.7412 183.17 41.4717 184.547 41.4717H186.454V40.3906C186.454 39.7109 186.243 39.1777 185.821 38.791C185.405 38.3984 184.796 38.2021 183.993 38.2021C183.261 38.2021 182.654 38.3896 182.174 38.7646C181.693 39.1396 181.453 39.5908 181.453 40.1182L180.398 40.1094C180.398 39.3535 180.75 38.7002 181.453 38.1494C182.156 37.5928 183.021 37.3145 184.046 37.3145C185.106 37.3145 185.941 37.5811 186.551 38.1143C187.166 38.6416 187.482 39.3799 187.5 40.3291V44.8291C187.5 45.749 187.597 46.4375 187.79 46.8945V47H186.665ZM183.36 46.2441C184.063 46.2441 184.69 46.0742 185.241 45.7344C185.798 45.3945 186.202 44.9404 186.454 44.3721V42.2803H184.573C183.524 42.292 182.704 42.4854 182.112 42.8604C181.521 43.2295 181.225 43.7393 181.225 44.3896C181.225 44.9229 181.421 45.3652 181.813 45.7168C182.212 46.0684 182.728 46.2441 183.36 46.2441ZM194.707 38.3867C194.484 38.3457 194.247 38.3252 193.995 38.3252C193.339 38.3252 192.782 38.5098 192.325 38.8789C191.874 39.2422 191.552 39.7725 191.358 40.4697V47H190.312V37.4902H191.341L191.358 39.002C191.915 37.877 192.809 37.3145 194.039 37.3145C194.332 37.3145 194.563 37.3525 194.733 37.4287L194.707 38.3867ZM199.55 45.4883L202.327 37.4902H203.461L199.4 48.6172L199.189 49.1094C198.668 50.2637 197.862 50.8408 196.772 50.8408C196.521 50.8408 196.251 50.7998 195.964 50.7178L195.955 49.8477L196.5 49.9004C197.016 49.9004 197.432 49.7715 197.748 49.5137C198.07 49.2617 198.343 48.8252 198.565 48.2041L199.031 46.9209L195.445 37.4902H196.597L199.55 45.4883Z" fill="black"/>
<path d="M35.85 86H34.368V70.686L31.586 73.65L30.676 72.688L34.498 68.658H35.85V86ZM42.332 85.636C42.332 86.3293 42.15 86.9967 41.786 87.638C41.4394 88.2967 40.9974 88.8167 40.46 89.198L39.706 88.548C40.122 88.2707 40.4687 87.898 40.746 87.43C41.0234 86.9793 41.1794 86.5547 41.214 86.156C41.0927 86.1733 41.006 86.182 40.954 86.182C40.642 86.182 40.382 86.078 40.174 85.87C39.9834 85.662 39.888 85.402 39.888 85.09C39.888 84.7953 39.992 84.5353 40.2 84.31C40.4254 84.0847 40.694 83.972 41.006 83.972C41.37 83.972 41.682 84.1193 41.942 84.414C42.202 84.7087 42.332 85.116 42.332 85.636ZM56.9815 86H45.5415V84.778C46.9282 83.6513 48.0375 82.7413 48.8695 82.048C49.7015 81.3547 50.5855 80.566 51.5215 79.682C52.4575 78.798 53.1682 78.0353 53.6535 77.394C54.1562 76.7353 54.5722 76.0507 54.9015 75.34C55.2309 74.6293 55.3955 73.9447 55.3955 73.286C55.3955 72.1247 54.9969 71.2493 54.1995 70.66C53.4195 70.0533 52.5009 69.75 51.4435 69.75C50.4035 69.75 49.4675 69.958 48.6355 70.374C47.8209 70.7727 47.1709 71.3187 46.6855 72.012L45.6715 71.076C46.2955 70.244 47.1102 69.594 48.1155 69.126C49.1209 68.6407 50.2302 68.398 51.4435 68.398C52.8822 68.398 54.1475 68.814 55.2395 69.646C56.3489 70.478 56.9035 71.6913 56.9035 73.286C56.9035 74.2047 56.6869 75.1233 56.2535 76.042C55.8202 76.9607 55.1355 77.9313 54.1995 78.954C53.2635 79.9593 52.3449 80.8607 51.4435 81.658C50.5595 82.438 49.3635 83.4347 47.8555 84.648H56.9815V86ZM66.1524 86.312C64.8004 86.312 63.613 86.0433 62.5904 85.506C61.5677 84.9513 60.7877 84.258 60.2504 83.426L61.2644 82.542C62.391 84.154 64.0117 84.96 66.1264 84.96C67.461 84.96 68.5184 84.6307 69.2984 83.972C70.0957 83.3133 70.4944 82.412 70.4944 81.268C70.4944 80.0893 70.061 79.214 69.1944 78.642C68.345 78.0527 67.227 77.758 65.8404 77.758C64.939 77.758 64.4017 77.7667 64.2284 77.784V76.38C64.4017 76.3973 64.939 76.406 65.8404 76.406C67.0884 76.406 68.1284 76.1287 68.9604 75.574C69.8097 75.0193 70.2344 74.196 70.2344 73.104C70.2344 72.064 69.8357 71.2493 69.0384 70.66C68.241 70.0533 67.253 69.75 66.0744 69.75C64.289 69.75 62.7377 70.4867 61.4204 71.96L60.4844 71.024C61.923 69.2733 63.8124 68.398 66.1524 68.398C67.7297 68.398 69.0557 68.8053 70.1304 69.62C71.205 70.4347 71.7424 71.5527 71.7424 72.974C71.7424 73.7887 71.5257 74.508 71.0924 75.132C70.659 75.756 70.1824 76.2067 69.6624 76.484C69.1424 76.744 68.5964 76.926 68.0244 77.03C68.9604 77.134 69.853 77.5587 70.7024 78.304C71.569 79.0493 72.0024 80.0633 72.0024 81.346C72.0024 82.802 71.4737 83.998 70.4164 84.934C69.3764 85.8527 67.955 86.312 66.1524 86.312ZM77.8949 85.636C77.8949 86.3293 77.7129 86.9967 77.3489 87.638C77.0023 88.2967 76.5603 88.8167 76.0229 89.198L75.2689 88.548C75.6849 88.2707 76.0316 87.898 76.3089 87.43C76.5863 86.9793 76.7423 86.5547 76.7769 86.156C76.6556 86.1733 76.5689 86.182 76.5169 86.182C76.2049 86.182 75.9449 86.078 75.7369 85.87C75.5463 85.662 75.4509 85.402 75.4509 85.09C75.4509 84.7953 75.5549 84.5353 75.7629 84.31C75.9883 84.0847 76.2569 83.972 76.5689 83.972C76.9329 83.972 77.2449 84.1193 77.5049 84.414C77.7649 84.7087 77.8949 85.116 77.8949 85.636ZM86.587 86.312C85.6857 86.312 84.871 86.1473 84.143 85.818C83.415 85.4887 82.8083 85.0467 82.323 84.492C81.8377 83.9373 81.4303 83.2787 81.101 82.516C80.789 81.736 80.5637 80.9213 80.425 80.072C80.2863 79.2227 80.217 78.3127 80.217 77.342C80.217 76.4233 80.2863 75.548 80.425 74.716C80.581 73.8667 80.8323 73.052 81.179 72.272C81.5257 71.492 81.9417 70.8247 82.427 70.27C82.9297 69.698 83.5623 69.2473 84.325 68.918C85.0877 68.5713 85.9283 68.398 86.847 68.398C88.7883 68.398 90.3483 69.1347 91.527 70.608L90.643 71.7C89.6897 70.4 88.4243 69.75 86.847 69.75C85.9457 69.75 85.1483 69.9753 84.455 70.426C83.779 70.8593 83.2503 71.4487 82.869 72.194C82.4877 72.9393 82.2017 73.7453 82.011 74.612C81.8203 75.4787 81.725 76.3973 81.725 77.368C81.725 77.732 81.7337 78.0007 81.751 78.174C82.1843 77.4633 82.869 76.8047 83.805 76.198C84.741 75.5913 85.7463 75.288 86.821 75.288C88.4677 75.288 89.811 75.7647 90.851 76.718C91.891 77.654 92.411 79.006 92.411 80.774C92.411 82.282 91.8823 83.582 90.825 84.674C89.7677 85.766 88.355 86.312 86.587 86.312ZM86.535 84.96C87.9043 84.96 88.9703 84.5353 89.733 83.686C90.513 82.8193 90.903 81.8573 90.903 80.8C90.903 79.4307 90.5043 78.3907 89.707 77.68C88.9097 76.9693 87.861 76.614 86.561 76.614C85.625 76.614 84.7237 76.8913 83.857 77.446C83.0077 77.9833 82.3317 78.694 81.829 79.578C81.8983 80.462 82.089 81.2853 82.401 82.048C82.713 82.8107 83.2243 83.4867 83.935 84.076C84.6457 84.6653 85.5123 84.96 86.535 84.96ZM98.9026 86H97.2646L104.545 70.01H94.9506V68.658H106.313V69.698L98.9026 86ZM118.211 85.506C117.362 86.0433 116.383 86.312 115.273 86.312C114.164 86.312 113.176 86.0433 112.309 85.506C111.443 84.9687 110.767 84.258 110.281 83.374C109.813 82.4727 109.458 81.5193 109.215 80.514C108.973 79.4913 108.851 78.434 108.851 77.342C108.851 76.25 108.973 75.2013 109.215 74.196C109.458 73.1733 109.813 72.22 110.281 71.336C110.767 70.452 111.434 69.7413 112.283 69.204C113.15 68.6667 114.147 68.398 115.273 68.398C116.383 68.398 117.362 68.6667 118.211 69.204C119.061 69.7413 119.728 70.452 120.213 71.336C120.699 72.22 121.063 73.1733 121.305 74.196C121.548 75.2013 121.669 76.25 121.669 77.342C121.669 78.4167 121.548 79.4653 121.305 80.488C121.063 81.5107 120.699 82.4727 120.213 83.374C119.728 84.258 119.061 84.9687 118.211 85.506ZM115.273 84.96C116.14 84.96 116.894 84.7347 117.535 84.284C118.194 83.8333 118.697 83.2353 119.043 82.49C119.407 81.7273 119.667 80.9213 119.823 80.072C119.997 79.2053 120.083 78.2953 120.083 77.342C120.083 76.3887 119.997 75.4873 119.823 74.638C119.667 73.7713 119.407 72.9653 119.043 72.22C118.697 71.4573 118.194 70.8593 117.535 70.426C116.894 69.9753 116.14 69.75 115.273 69.75C114.389 69.75 113.618 69.9753 112.959 70.426C112.318 70.8593 111.815 71.4573 111.451 72.22C111.105 72.9653 110.845 73.7713 110.671 74.638C110.498 75.4873 110.411 76.3887 110.411 77.342C110.411 78.2953 110.498 79.2053 110.671 80.072C110.845 80.9213 111.105 81.7273 111.451 82.49C111.815 83.2353 112.318 83.8333 112.959 84.284C113.618 84.7347 114.389 84.96 115.273 84.96Z" fill="#008FFF"/>
<path d="M709 13.5C709 12.125 707.875 11 706.5 11C705.125 11 704 12.125 704 13.5C704 14.875 705.125 16 706.5 16C707.875 16 709 14.875 709 13.5ZM711.5 13.5C711.5 14.875 712.625 16 714 16C715.375 16 716.5 14.875 716.5 13.5C716.5 12.125 715.375 11 714 11C712.625 11 711.5 12.125 711.5 13.5ZM719 13.5C719 14.875 720.125 16 721.5 16C722.875 16 724 14.875 724 13.5C724 12.125 722.875 11 721.5 11C720.125 11 719 12.125 719 13.5Z" fill="#757575"/>
</g>
<path d="M185 126C92 126 92 199 0 199H185H369H554H738C646 199 646 146 554 146C461 146 461 107 369 107C277 107 277 126 185 126Z" fill="#A6CEE3"/>
<path d="M185 114C92 114 92 199 0 199C92 199 92 126 185 126C277 126 277 107 369 107C461 107 461 146 554 146C646 146 646 199 738 199C646 199 646 82 554 82C461 82 461 91 369 91C277 91 277 114 185 114Z" fill="#1F78B4"/>
<path d="M185 90C92 90 92 199 0 199C92 199 92 114 185 114C277 114 277 91 369 91C461 91 461 82 554 82C646 82 646 199 738 199C646 199 646 48 554 48C461 48 461 77 369 77C277 77 277 90 185 90Z" fill="#B2DF8A"/>
<defs>
<clipPath id="clip0">
<rect width="738" height="199" fill="white"/>
</clipPath>
</defs>
</svg>