<svg width="349" height="273" viewBox="0 0 349 273" fill="none" xmlns="http://www.w3.org/2000/svg">
<path opacity="0.1" d="M122.423 267.713C156.046 267.713 183.302 262.551 183.302 256.184C183.302 249.816 156.046 244.654 122.423 244.654C88.8014 244.654 61.5453 249.816 61.5453 256.184C61.5453 262.551 88.8014 267.713 122.423 267.713Z" fill="#008FFF"/>
<path d="M184.992 125.018L174.403 117.881L179.744 109.933L151.777 107.703L141.727 115.473L129.147 108.422L118.655 109.684L118.531 106.919C118.401 104.037 118.111 101.164 117.663 98.3135C117.708 97.4495 117.739 96.4576 117.736 95.3793C117.736 90.8347 117.12 84.8109 114.417 80.795L115.039 75.2032L109.992 69.2416C110.803 67.6275 111.727 66.073 112.758 64.5898C112.93 64.341 113.103 64.0991 113.29 63.864C119.841 63.3906 125.009 58.0061 125.009 51.4224C125.009 51.1183 125.009 50.8142 124.975 50.5135C124.975 50.3925 124.951 50.2681 124.937 50.1472C125.576 50.4928 126.223 50.8384 126.869 51.184C126.99 51.3568 127.128 51.5296 127.281 51.7335L127.312 51.7715L127.505 52.01L127.568 52.0825C127.637 52.1655 127.709 52.245 127.782 52.3279L127.83 52.3832C128.013 52.5871 128.207 52.7945 128.414 52.9984C128.439 53.0185 128.462 53.0404 128.484 53.064L128.743 53.306L128.815 53.3716C129.037 53.5686 129.272 53.7587 129.507 53.9384L129.583 53.9937L129.88 54.1976L129.977 54.2598C130.091 54.3289 130.209 54.4015 130.323 54.4672L130.364 54.4914C130.499 54.5639 130.637 54.6331 130.776 54.6987L130.845 54.7264C130.962 54.7771 131.078 54.8254 131.19 54.8715L131.298 54.9095C131.419 54.951 131.536 54.989 131.661 55.0236L131.737 55.0443C131.889 55.0823 132.041 55.1134 132.196 55.1376H132.214C132.36 55.1613 132.508 55.1763 132.656 55.1826H132.756C132.889 55.1895 133.022 55.1895 133.154 55.1826H133.24C133.406 55.173 133.571 55.1534 133.735 55.1238C134.508 55.0221 135.251 54.7558 135.913 54.3428C136.081 54.2301 136.231 54.0913 136.355 53.9315C137.047 53.026 136.286 52.0341 136.286 52.0341C136.016 51.3913 134.267 50.9386 134.267 50.9386C134.267 50.9386 128.736 48.63 128.736 46.7914C128.736 44.9528 127.353 35.4142 113.079 33.2335C113.079 33.2335 103.794 32.7116 101.184 37.6814L101.128 38.262C100.361 38.7424 99.7247 39.7066 98.9676 39.99C98.6405 40.0602 98.325 40.1766 98.0307 40.3356V40.2699C97.9433 40.3463 97.8717 40.4391 97.8198 40.5429C97.6572 40.8664 97.5597 41.2187 97.5329 41.5797C97.455 42.0208 97.3018 42.4451 97.08 42.8343C97.0182 42.9448 96.9489 43.0511 96.8726 43.1522L96.8139 43.2455C97.2152 43.2768 97.6182 43.2116 97.9892 43.0555C97.9308 43.5286 97.8147 43.9929 97.6435 44.4379C97.8633 44.445 98.0805 44.3888 98.2692 44.2761C98.458 44.1633 98.6104 43.9988 98.7083 43.802V43.7743L98.7532 43.7121C98.8402 43.5521 98.9119 43.3843 98.9676 43.211L98.9295 43.2524C98.9987 43.0278 99.0609 42.7997 99.137 42.5785C99.1718 42.4539 99.2292 42.3368 99.3064 42.2329C99.3986 42.1399 99.5115 42.0699 99.6358 42.0285C99.76 41.9871 99.8923 41.9754 100.022 41.9945L99.8802 44.9908H99.9425C99.8592 45.2088 99.7574 45.4192 99.6382 45.6198C99.1473 46.4147 98.2554 46.9573 97.927 47.8282C97.7854 48.2482 97.7313 48.6928 97.768 49.1346C97.768 49.3938 97.7991 49.6564 97.8198 49.9156V49.8949C97.8682 50.5861 97.8821 51.2427 97.5087 51.7991C97.2529 52.1793 96.8415 52.4661 96.6998 52.8981C96.6606 53.0185 96.643 53.1449 96.6479 53.2714C96.6756 53.6501 96.7547 54.0233 96.883 54.3808C96.8845 54.3739 96.8845 54.3669 96.883 54.36C96.9692 54.623 96.9894 54.9031 96.9418 55.1757C96.7862 55.8669 95.9461 56.444 95.9876 57.1041C95.9853 57.1909 95.9981 57.2775 96.0257 57.3598C96.1873 57.6823 96.4672 57.9299 96.8069 58.051C97.3399 58.354 97.9521 58.489 98.5631 58.4381C98.7921 58.3968 99.0136 58.321 99.2199 58.2135C98.9779 58.7699 98.729 59.3194 98.4767 59.8413C98.4387 59.9242 98.3972 60.0071 98.3557 60.0901C98.3557 60.0901 96.2192 58.6628 95.0058 61.5727C94.6516 62.1774 94.3982 62.8358 94.2557 63.5219C94.1949 63.7964 94.1092 64.0647 93.9998 64.3237C93.4611 65.2354 92.6549 65.9594 91.6905 66.3973C89.2153 67.5309 79.2176 79.9967 79.0413 83.2246C78.9548 84.4846 78.7417 85.7327 78.4052 86.9501C77.6182 89.817 77.416 92.8129 77.8106 95.7595C77.9341 96.7118 78.1388 97.6518 78.4225 98.5692C79.4838 101.794 80.1925 107.811 80.1925 107.811L81.3402 118.255C81.2976 119.696 81.36 121.139 81.5269 122.571C80.355 123.909 75.65 129.483 77.4476 131C78.8304 132.196 81.2503 131.999 82.609 131.754C81.4647 134.584 79.6636 139.506 79.425 142.886C79.0793 147.886 80.0162 154.512 81.4993 157.055C82.9823 159.599 87.9259 166.124 87.9259 166.124C87.9259 166.124 87.6942 175.075 89.4608 178.327C91.2273 181.579 91.9395 188.325 91.9395 188.325C91.9395 188.325 93.5885 194.021 92.7622 196.115C91.936 198.209 94.2937 199.951 91.8185 201.344C89.3432 202.737 86.1766 234.127 86.1766 234.127C86.1766 234.127 84.901 254.701 86.1766 255.748C86.2449 255.798 86.3178 255.841 86.3944 255.876V262.788C86.3944 262.788 85.5094 264.24 89.1081 264.533C91.573 264.73 98.5597 265.176 102.705 265.435L105.916 265.636C105.916 265.636 113.522 267.15 116.882 265.636C120.242 264.122 126.199 264.157 125.314 260.158C125.196 259.614 125.039 259.079 124.843 258.558C123.872 256.077 122.223 255.793 119.184 255.102C119.008 255.064 118.839 255.029 118.683 255.002C115.482 254.445 114.431 255.935 112.637 253.996C111.078 252.32 106.113 250.443 104.423 249.849C104.464 249.724 104.516 249.603 104.558 249.476C104.079 249.394 103.634 249.177 103.275 248.85L107.856 249.14L110.583 249.31C110.583 249.31 117.048 250.599 119.917 249.31C122.786 248.021 127.834 248.055 127.08 244.658C126.981 244.195 126.848 243.74 126.683 243.296C125.856 241.188 124.453 240.957 121.87 240.372C121.722 240.341 121.583 240.31 121.445 240.286C118.724 239.813 117.833 241.077 116.308 239.432C115.001 238.029 110.877 236.457 109.394 235.921C109.394 235.154 108.357 234.062 107.703 232.966C106.936 231.688 108.353 227.212 108.353 227.212L109.162 208.643C109.47 208.506 109.796 208.413 110.13 208.366C110.13 208.366 113.788 204.876 112.962 201.157C112.793 200.033 112.705 198.897 112.699 197.76C113.902 196.644 115.558 194.995 116.028 193.979C116.795 192.324 116.028 184.302 116.028 184.302V153.63L122.147 154.249L127.699 154.819L129.389 154.992L134.941 155.552L147.701 156.841L159.199 154.664L164.174 153.724L174.403 151.788V126.767L184.992 125.018ZM100.776 42.1051L100.063 42.029C100.299 42.0394 100.547 42.0843 100.776 42.1051Z" fill="url(#paint0_linear)"/>
<path d="M160.174 141.264C156.717 146.21 144.289 143.59 144.289 143.59L134.658 134.58L133.361 133.36L135.536 128.743C135.536 128.743 136.227 128.933 137.413 129.272C143.639 131.079 163.092 137.107 160.174 141.264Z" fill="#EFB7B9"/>
<path opacity="0.1" d="M137.406 129.272C136.981 130.751 135.816 132.966 134.658 134.58L133.361 133.36L135.536 128.743C135.536 128.743 136.234 128.933 137.406 129.272Z" fill="black"/>
<path d="M104.374 77.2038C104.374 77.2038 95.4967 81.1402 95.9323 90.8066C96.2457 97.0342 96.9245 103.238 97.965 109.386C97.965 109.386 96.1501 123.932 103.707 127.682C111.264 131.432 118.258 134.515 118.258 134.515C118.258 134.515 130.081 135.787 131.55 136.312C133.019 136.837 137.61 128.805 136.763 127.554C135.916 126.303 125.065 123.68 123.682 121.593C122.299 119.505 119.101 118.216 119.101 118.216C119.101 118.216 115.8 116.219 115.575 114.415C115.35 112.611 116.222 111.266 116.443 110.475C116.664 109.683 117.224 102.042 117.224 102.042C117.224 102.042 120.951 74.8434 104.374 77.2038Z" fill="#DCE6F2"/>
<path opacity="0.1" d="M110.234 108.988C110.234 108.988 98.0549 111.027 99.2338 115.289C99.2338 115.289 103.655 110.689 110.234 108.988Z" fill="black"/>
<path opacity="0.1" d="M110.327 110.713C110.327 110.713 103.631 116.177 104.941 116.457C106.252 116.737 110.327 110.713 110.327 110.713Z" fill="black"/>
<path opacity="0.1" d="M113.546 112.617C113.546 112.617 111.752 116.291 112.854 116.042C113.957 115.793 113.546 112.617 113.546 112.617Z" fill="black"/>
<path opacity="0.1" d="M137.856 129.662L137.116 129.451C137.327 128.76 137.385 128.2 137.213 127.941C136.366 126.69 125.521 124.07 124.142 121.979C122.762 119.889 119.561 118.603 119.561 118.603C119.561 118.603 116.26 116.605 116.035 114.801C115.81 112.997 116.681 111.653 116.903 110.861C117.124 110.07 117.684 102.425 117.684 102.425C117.684 102.425 121.4 75.2301 104.824 77.5905C104.824 77.5905 95.9461 81.5304 96.3783 91.1968C96.6918 97.4245 97.3717 103.628 98.4145 109.776C98.4145 109.776 96.5995 124.323 104.157 128.072C111.714 131.822 118.707 134.905 118.707 134.905C118.707 134.905 130.527 136.173 131.999 136.702C132.556 136.902 133.562 135.869 134.547 134.449L135.107 134.971L144.738 143.977C144.738 143.977 157.166 146.6 160.624 141.654C163.545 137.493 144.096 131.466 137.856 129.662Z" fill="black"/>
<path d="M99.2649 40.9232C98.9264 40.9893 98.6023 41.1145 98.3073 41.293C97.9616 41.5798 97.9616 42.0706 97.8752 42.4991C97.7736 43.0953 97.5371 43.6603 97.1837 44.1511C97.5771 44.18 97.9717 44.1148 98.3349 43.961C98.2758 44.4341 98.1597 44.8982 97.9892 45.3434C98.2046 45.3489 98.417 45.2922 98.601 45.18C98.785 45.0678 98.9326 44.905 99.0263 44.711C99.2093 44.3215 99.354 43.9153 99.4585 43.4979C99.4909 43.3731 99.5473 43.2557 99.6244 43.1523C99.9425 42.7756 100.534 42.945 101.024 42.9933C101.433 43.0278 101.843 42.9524 102.213 42.7749C102.582 42.5975 102.898 42.3245 103.126 41.9842C103.648 41.1928 103.679 39.1676 102.435 38.9533C101.135 38.739 100.326 40.5292 99.2649 40.9232Z" fill="#965D7B"/>
<g opacity="0.1">
<path opacity="0.1" d="M98.2727 41.7171C98.3038 41.5477 98.3246 41.3715 98.3626 41.2021C98.0342 41.489 98.0169 41.9763 97.9305 42.4083C97.8869 42.6575 97.8186 42.9018 97.7265 43.1375C97.9987 42.7038 98.1842 42.2214 98.2727 41.7171Z" fill="black"/>
<path opacity="0.1" d="M98.3833 44.5719C98.5555 44.1272 98.6716 43.6628 98.729 43.1895C98.3829 43.3351 98.0081 43.4001 97.6332 43.3795C97.524 43.6226 97.3908 43.8542 97.2356 44.0707C97.6276 44.1011 98.0212 44.0371 98.3833 43.8841C98.3259 44.3575 98.2098 44.8218 98.0376 45.2665C98.253 45.2716 98.4652 45.2146 98.6491 45.1025C98.8329 44.9904 98.9807 44.8278 99.0747 44.6341C99.1609 44.477 99.2304 44.3113 99.2822 44.1399C99.1807 44.2816 99.0452 44.3954 98.8881 44.471C98.731 44.5465 98.5574 44.5812 98.3833 44.5719Z" fill="black"/>
<path opacity="0.1" d="M101.419 42.2217C100.928 42.1733 100.333 42.004 100.015 42.3807C99.9393 42.4849 99.8831 42.602 99.8491 42.7263C99.818 42.8162 99.7903 42.9095 99.7661 43.0028C100.095 42.7436 100.627 42.8818 101.073 42.9267C101.481 42.9601 101.891 42.8842 102.261 42.7068C102.63 42.5295 102.945 42.2571 103.175 41.9176C103.28 41.7498 103.358 41.5667 103.406 41.375C103.17 41.6679 102.865 41.8983 102.518 42.046C102.171 42.1936 101.794 42.2539 101.419 42.2217Z" fill="black"/>
</g>
<path d="M109.671 69.4658L114.942 75.8041L114.255 82.2012L107.883 72.2306L109.671 69.4658Z" fill="#DCE6F2"/>
<path opacity="0.1" d="M114.939 75.8041L114.293 81.821L114.251 82.2012L108.502 73.2018L107.883 72.2306L108.063 71.9507L109.667 69.4658L110.023 69.8944L114.939 75.8041Z" fill="black"/>
<path d="M117.677 60.8842C115.893 61.3957 114.189 63.1514 112.706 65.2837C111.703 66.755 110.807 68.2956 110.023 69.894C109.536 70.8686 109.107 71.8052 108.751 72.6208L108.502 73.2014C107.901 74.6219 107.565 75.5723 107.565 75.5723C107.565 75.5723 93.9099 65.3079 96.0706 64.6167C96.7966 64.3852 97.7507 62.83 98.6945 60.8704L98.812 60.6216C99.4101 59.3636 99.9978 57.9605 100.52 56.6403C101.588 53.9273 102.38 51.5703 102.38 51.5703C102.38 51.5703 123.122 59.329 117.677 60.8842Z" fill="#EFB7B9"/>
<path d="M125.846 50.9932C125.846 50.9932 128.999 56.6956 133.234 55.918C137.468 55.1404 135.726 52.8559 135.726 52.8559L125.846 50.9932Z" fill="#444053"/>
<path d="M119.737 248.383C116.944 249.659 110.628 248.383 110.628 248.383L107.966 248.218C104.509 247.996 98.7221 247.623 96.6756 247.457C93.6887 247.212 94.4216 245.988 94.4216 245.988V238.596L108.913 234.926C108.913 234.926 114.642 236.885 116.211 238.596C117.701 240.227 118.572 238.973 121.231 239.443C121.362 239.467 121.5 239.495 121.646 239.529C124.169 240.106 125.538 240.334 126.347 242.425C126.51 242.865 126.64 243.315 126.738 243.773C127.485 247.139 122.527 247.115 119.737 248.383Z" fill="#D01010"/>
<path opacity="0.1" d="M126.347 242.424C125.828 242.748 125.282 243.028 124.715 243.26C122.814 244.128 121.006 245.185 119.084 246.004C117.162 246.823 115.091 247.408 113.01 247.252C111.921 247.173 110.808 246.906 109.767 247.217C109.124 247.466 108.518 247.802 107.966 248.216C104.509 247.995 98.7221 247.622 96.6756 247.456C93.6887 247.211 94.4216 245.987 94.4216 245.987V245.123C94.5287 245.123 94.6497 245.092 94.788 245.082C95.5034 245.07 96.2159 245.176 96.8968 245.396C98.3972 245.804 99.8906 246.205 101.391 246.606C101.514 246.14 101.731 245.705 102.028 245.326C102.326 244.946 102.697 244.632 103.119 244.401C103.976 243.946 104.937 243.726 105.906 243.761C108.232 243.793 110.434 244.895 112.758 245.006C113.407 245.065 114.061 244.956 114.656 244.688C114.974 244.529 115.254 244.297 115.565 244.121C116.063 243.88 116.589 243.702 117.131 243.592C118.654 243.213 120.15 242.73 121.608 242.147C122.022 241.985 122.506 241.691 122.451 241.249C122.379 240.661 121.455 240.592 121.213 240.053C121.171 239.956 121.151 239.85 121.156 239.744C121.161 239.638 121.19 239.534 121.241 239.441C121.373 239.466 121.511 239.493 121.656 239.528C124.169 240.105 125.538 240.333 126.347 242.424Z" fill="black"/>
<path d="M116.785 264.558C113.501 266.058 106.068 264.558 106.068 264.558L102.94 264.374C98.8881 264.115 92.0639 263.683 89.6544 263.479C86.1386 263.189 87.0028 261.751 87.0028 261.751V253.039L104.056 248.719C104.056 248.719 110.798 251.024 112.644 253.039C114.396 254.957 115.409 253.481 118.552 254.034C118.707 254.062 118.87 254.096 119.039 254.134C122.009 254.826 123.62 255.085 124.57 257.545C124.763 258.062 124.916 258.592 125.03 259.132C125.887 263.092 120.069 263.061 116.785 264.558Z" fill="#D01010"/>
<path opacity="0.1" d="M124.563 257.545C123.953 257.926 123.311 258.256 122.645 258.53C120.408 259.549 118.278 260.793 116.018 261.758C113.757 262.722 111.32 263.406 108.868 263.226C107.589 263.133 106.279 262.812 105.066 263.185C104.305 263.481 103.59 263.881 102.94 264.374C98.8881 264.115 92.0639 263.683 89.6544 263.479C86.1386 263.188 87.0028 261.751 87.0028 261.751V260.735C87.146 260.711 87.2902 260.695 87.435 260.686C88.2771 260.671 89.116 260.796 89.9171 261.056L95.2029 262.48C95.3501 261.931 95.6079 261.417 95.9603 260.971C96.3128 260.525 96.7526 260.155 97.2529 259.885C98.2605 259.348 99.3926 259.088 100.534 259.131C103.272 259.169 105.861 260.465 108.595 260.596C109.357 260.666 110.124 260.539 110.822 260.227C111.199 260.037 111.513 259.764 111.893 259.56C112.478 259.273 113.097 259.064 113.736 258.938C115.519 258.488 117.27 257.92 118.977 257.237C119.464 257.044 120.035 256.698 119.969 256.18C119.883 255.488 118.797 255.406 118.51 254.77C118.462 254.655 118.44 254.531 118.446 254.406C118.452 254.282 118.486 254.16 118.545 254.051C118.7 254.078 118.863 254.113 119.032 254.151C122.002 254.815 123.613 255.084 124.563 257.545Z" fill="black"/>
<path d="M109.352 204.771L108.429 226.486C108.429 226.486 107.047 230.92 107.797 232.188C108.547 233.456 109.812 234.721 109.352 235.471C108.893 236.221 103.361 244.329 101.574 241.219C99.7869 238.108 98.0238 224.63 98.0238 224.63L99.6728 207.982L109.352 204.771Z" fill="#444053"/>
<path d="M113.356 150.672L115.921 154.1V183.919C115.921 183.919 116.671 191.867 115.921 193.509C115.171 195.151 111.368 198.434 111.368 198.434L108.17 182.018L108.862 164.651L113.356 150.672Z" fill="#444053"/>
<path opacity="0.1" d="M109.352 204.771L108.429 226.486C108.429 226.486 107.047 230.92 107.797 232.188C108.547 233.456 109.812 234.721 109.352 235.471C108.893 236.221 103.361 244.329 101.574 241.219C99.7869 238.108 98.0238 224.63 98.0238 224.63L99.6728 207.982L109.352 204.771Z" fill="black"/>
<path opacity="0.1" d="M113.356 150.672L115.921 154.1V183.919C115.921 183.919 116.671 191.867 115.921 193.509C115.171 195.151 111.368 198.434 111.368 198.434L108.17 182.018L108.862 164.651L113.356 150.672Z" fill="black"/>
<path d="M115.921 137.954V154.083L113.041 166.638C113.041 166.638 112.118 196.937 112.924 200.621C113.729 204.305 110.158 207.765 110.158 207.765C110.158 207.765 108.084 207.996 108.084 209.607C108.084 211.217 104.627 215.828 104.627 215.828L104.741 224.813C104.741 224.813 106.241 241.634 103.935 244.858C101.629 248.083 104.741 248.546 104.741 248.546C101.861 257.991 88.033 255.803 86.785 254.766C85.537 253.73 86.785 233.339 86.785 233.339C86.785 233.339 89.8756 202.235 92.2955 200.853C94.7154 199.47 92.4131 197.742 93.2186 195.669C94.024 193.595 92.4131 187.952 92.4131 187.952C92.4131 187.952 91.7217 181.268 89.9931 178.043C88.2646 174.819 88.4928 165.947 88.4928 165.947C88.4928 165.947 83.653 159.495 82.2148 156.962C80.7767 154.428 79.8502 147.862 80.1959 142.906C80.431 139.557 82.1906 134.681 83.3073 131.874C83.8431 130.53 84.2303 129.659 84.2303 129.659L84.5587 129.746L103.441 134.688L115.921 137.954Z" fill="#444053"/>
<path opacity="0.1" d="M117.677 60.884C115.893 61.3955 114.189 63.1511 112.706 65.2835H112.319C110.145 65.285 108.009 64.7129 106.127 63.6248C104.246 62.5368 102.684 60.9714 101.602 59.0869C101.149 58.306 100.785 57.4773 100.516 56.6159C101.585 53.9029 102.376 51.5459 102.376 51.5459C102.376 51.5459 123.122 59.3288 117.677 60.884Z" fill="black"/>
<path d="M124.677 52.2444C124.681 54.1354 124.249 56.0018 123.417 57.7C122.585 59.3982 121.374 60.8827 119.878 62.0393C118.381 63.1958 116.639 63.9936 114.785 64.371C112.932 64.7484 111.017 64.6955 109.187 64.2163C107.357 63.7371 105.662 62.8444 104.231 61.607C102.801 60.3696 101.674 58.8205 100.937 57.079C100.2 55.3375 99.8722 53.45 99.9797 51.5621C100.087 49.6742 100.627 47.8361 101.557 46.1895C101.932 45.5204 102.369 44.8886 102.864 44.3025C103.679 43.3316 104.637 42.4902 105.705 41.8073C107.51 40.661 109.581 40.0022 111.716 39.8953C113.851 39.7885 115.978 40.2372 117.887 41.1976C119.797 42.158 121.425 43.5973 122.612 45.3748C123.8 47.1523 124.505 49.2073 124.66 51.3389C124.667 51.6431 124.677 51.9437 124.677 52.2444Z" fill="#EFB7B9"/>
<path opacity="0.1" d="M114.293 81.8212L114.251 82.2013L108.502 73.2157C107.9 74.6362 107.565 75.5865 107.565 75.5865C107.565 75.5865 93.9099 65.3084 96.0706 64.6172C96.7966 64.3857 97.7507 62.8305 98.6945 60.8709L98.812 60.6221C99.8145 63.6081 105.64 69.5766 108.063 71.9681C108.343 72.2446 108.575 72.4727 108.754 72.6386L109.124 72.9842L109.318 73.1777C110.199 74.0866 113.919 78.0956 114.293 81.8212Z" fill="black"/>
<path d="M118.59 112.31L117.96 132.552L117.85 136.156C117.85 136.156 110.396 135.465 103.441 134.705C97.8406 134.093 92.5617 133.433 91.7493 133.046C90.7122 132.559 88.4894 132.182 86.7366 131.943C85.3815 131.76 84.3167 131.663 84.3167 131.663C84.3167 131.663 83.9192 131.781 83.3073 131.892C81.9729 132.134 79.629 132.331 78.2635 131.145C76.5177 129.628 81.1052 124.116 82.2494 122.792L82.5018 122.505L82.0697 118.513L80.9461 108.163C80.9461 108.163 80.2547 102.201 79.2176 99.0043C78.9404 98.0954 78.7403 97.1647 78.6196 96.2222C78.2342 93.3025 78.4316 90.3353 79.2003 87.4923C79.5288 86.2843 79.7372 85.0468 79.8226 83.7978C79.9955 80.601 89.7615 68.2458 92.1814 67.1226C93.27 66.6151 94.146 65.7419 94.6567 64.655C94.8253 64.3133 94.9518 63.9524 95.0335 63.5802C96.0706 59.0874 98.6945 60.8707 98.6945 60.8707C99.3271 64.3855 109.121 73.689 109.121 73.689L109.314 73.8826C110.286 74.8779 114.614 79.5504 114.306 83.5386C114.245 85.023 114.467 86.5056 114.96 87.907C116.952 94.1779 118.097 100.687 118.365 107.261L118.59 112.31Z" fill="#DCE6F2"/>
<path opacity="0.1" d="M104.713 88.2734C104.713 88.2734 102.293 94.1486 100.478 95.099C98.6634 96.0494 105.577 97.1035 104.713 88.2734Z" fill="black"/>
<path opacity="0.1" d="M106.528 99.2461C106.528 99.2461 100.997 99.9373 100.997 100.974C100.997 102.011 106.528 99.2461 106.528 99.2461Z" fill="black"/>
<path opacity="0.1" d="M112.319 105.985C112.319 105.985 104.281 123.093 102.034 123.611C99.7869 124.129 112.319 105.985 112.319 105.985Z" fill="black"/>
<path opacity="0.1" d="M108.969 74.5564L102.321 77.4456L94.2971 65.3289C94.4657 64.9871 94.5923 64.6262 94.6739 64.2541C95.7111 59.7613 98.3349 61.5446 98.3349 61.5446C98.9676 65.0593 108.761 74.3629 108.761 74.3629L108.969 74.5564Z" fill="black"/>
<path d="M109.314 73.865L102.667 76.7542L94.6428 64.6375C94.8114 64.2957 94.938 63.9348 95.0197 63.5627C96.0568 59.0698 98.6806 60.8531 98.6806 60.8531C99.3133 64.3679 109.107 73.6715 109.107 73.6715L109.314 73.865Z" fill="#DCE6F2"/>
<path opacity="0.1" d="M123.436 44.5718C123.443 45.141 123.325 45.7048 123.091 46.2237C122.913 46.6472 122.708 47.0583 122.475 47.4541C122.111 48.1822 121.595 48.8234 120.961 49.3341C120.163 49.9044 119.153 50.0634 118.196 50.2949C117.238 50.5265 116.242 50.8963 115.696 51.7119C115.4 52.2362 115.202 52.81 115.112 53.4053C115.02 54.0001 114.783 54.5629 114.42 55.0435C114.232 55.2781 113.971 55.4434 113.678 55.5135C113.385 55.5836 113.077 55.5544 112.803 55.4305C112.513 55.2357 112.294 54.9535 112.177 54.6253C111.783 53.7371 111.682 52.7521 111.523 51.7948C111.364 50.8375 111.14 49.8525 110.552 49.0819C109.964 48.3112 108.924 47.8031 108.001 48.1038C107.692 48.2227 107.41 48.4028 107.172 48.6332C106.935 48.8636 106.746 49.1397 106.618 49.4447C106.363 50.0555 106.187 50.6967 106.096 51.3524C105.667 53.6979 105.161 56.0296 104.578 58.3474C104.561 58.4424 104.522 58.5322 104.464 58.6101C104.372 58.7016 104.248 58.7537 104.119 58.7552C103.344 58.8589 102.601 58.3163 101.82 58.375C101.739 58.3804 101.659 58.3931 101.581 58.4131C100.318 56.2184 99.7601 53.6885 99.9834 51.1663C100.207 48.6441 101.2 46.2514 102.829 44.3126L102.891 44.2953C103.411 44.1109 103.883 43.8134 104.274 43.4244C104.773 42.9251 105.235 42.3904 105.657 41.8243L105.933 41.4787C106.728 40.5217 107.633 39.662 108.63 38.9178C108.902 38.6949 109.214 38.526 109.55 38.4201C109.837 38.3642 110.131 38.3549 110.421 38.3924C111.615 38.5357 112.818 38.5808 114.019 38.5272C114.856 38.3957 115.7 38.3103 116.547 38.2715C118.735 38.3337 120.602 39.8785 121.984 41.572C122.728 42.4394 123.391 43.4382 123.436 44.5718Z" fill="black"/>
<path d="M99.9424 46.5178C99.4619 47.3057 98.5942 47.8414 98.2692 48.7054C97.7922 49.96 98.5977 51.5221 97.8579 52.6418C97.6124 53.0185 97.2079 53.2985 97.0697 53.7305C96.8346 54.4597 97.4776 55.2373 97.3117 55.9872C97.1457 56.7372 96.157 57.3696 96.4197 58.1023C96.575 58.4218 96.8474 58.6693 97.1803 58.7935C97.7041 59.0939 98.307 59.2277 98.9088 59.1771C99.8526 59.0216 100.554 58.0954 101.512 58.0263C102.29 57.971 103.033 58.5101 103.807 58.4099C103.937 58.4054 104.061 58.3523 104.153 58.2613C104.212 58.1842 104.251 58.0941 104.267 57.9986C104.848 55.6831 105.355 53.3514 105.788 51.0037C105.877 50.3478 106.051 49.7063 106.307 49.096C106.436 48.7915 106.625 48.516 106.863 48.2857C107.1 48.0554 107.381 47.875 107.69 47.755C108.613 47.4578 109.65 47.9624 110.241 48.7331C110.832 49.5038 111.057 50.4887 111.216 51.446C111.375 52.4033 111.475 53.3883 111.866 54.2765C111.984 54.6059 112.205 54.8891 112.495 55.0852C113.013 55.3859 113.712 55.1474 114.109 54.6981C114.474 54.2174 114.711 53.6529 114.801 53.0565C114.891 52.4623 115.089 51.8896 115.385 51.3665C115.931 50.5509 116.93 50.1811 117.884 49.9496C118.839 49.718 119.845 49.5556 120.65 48.9854C121.283 48.4752 121.799 47.8353 122.164 47.1088C122.676 46.2171 123.153 45.2494 123.111 44.223C123.066 43.1032 122.403 42.1045 121.694 41.2335C120.311 39.5401 118.441 37.9953 116.253 37.9365C115.406 37.9719 114.562 38.0573 113.726 38.1923C112.524 38.2463 111.32 38.2 110.127 38.054C109.837 38.0193 109.543 38.0298 109.256 38.0851C108.92 38.1876 108.608 38.3569 108.34 38.5828C107.342 39.3258 106.436 40.1843 105.64 41.1402C105.126 41.8205 104.57 42.467 103.973 43.0756C103.582 43.4652 103.11 43.7638 102.591 43.95C102.245 44.0467 101.899 43.9776 101.571 44.0847C100.551 44.4062 100.416 45.7367 99.9424 46.5178Z" fill="#965D7B"/>
<path opacity="0.1" d="M133.234 55.9145C130.468 56.4225 128.176 54.1865 126.907 52.5553C126.518 52.0599 126.163 51.5379 125.846 50.9932L135.339 52.7834L135.723 52.8559C135.723 52.8559 137.468 55.1404 133.234 55.9145Z" fill="black"/>
<g opacity="0.1">
<path opacity="0.1" d="M97.3117 54.999C97.3503 54.547 97.2816 54.0923 97.1112 53.6719C97.1112 53.7064 97.08 53.741 97.0697 53.7756C96.921 54.2387 97.1215 54.719 97.2494 55.1994C97.2769 55.1349 97.2978 55.0677 97.3117 54.999Z" fill="black"/>
<path opacity="0.1" d="M98.1344 49.3408C98.0989 49.8187 98.1081 50.2989 98.1621 50.7751C98.1975 50.2972 98.1883 49.817 98.1344 49.3408Z" fill="black"/>
<path opacity="0.1" d="M122.143 46.11C121.78 46.8381 121.263 47.4793 120.629 47.99C119.831 48.5603 118.825 48.7193 117.864 48.9508C116.903 49.1824 115.91 49.5522 115.364 50.3678C115.069 50.8923 114.871 51.4661 114.78 52.0612C114.69 52.6575 114.452 53.2218 114.089 53.7028C113.691 54.1521 112.993 54.394 112.474 54.0899C112.184 53.8938 111.964 53.6106 111.845 53.2812C111.454 52.393 111.351 51.4115 111.195 50.4507C111.039 49.49 110.808 48.5084 110.22 47.7378C109.632 46.9671 108.592 46.459 107.669 46.7597C107.36 46.8791 107.079 47.0594 106.841 47.2897C106.604 47.5201 106.415 47.7959 106.286 48.1006C106.03 48.711 105.856 49.3524 105.768 50.0084C105.337 52.3561 104.83 54.6878 104.246 57.0033C104.23 57.0988 104.191 57.1889 104.132 57.266C104.04 57.357 103.916 57.4101 103.787 57.4146C103.012 57.5148 102.269 56.9757 101.491 57.031C100.534 57.1001 99.8318 58.0263 98.8881 58.1783C98.2861 58.2323 97.6821 58.0983 97.1595 57.7947C96.9193 57.6914 96.7036 57.5383 96.5269 57.3455C96.446 57.4612 96.3925 57.5939 96.3703 57.7334C96.3482 57.8729 96.358 58.0155 96.399 58.1507C96.5513 58.4725 96.8247 58.7209 97.1595 58.8419C97.6821 59.1455 98.2861 59.2795 98.8881 59.2255C99.8318 59.0734 100.534 58.1472 101.491 58.0781C102.269 58.0228 103.012 58.562 103.787 58.4617C103.916 58.4572 104.04 58.4042 104.132 58.3131C104.191 58.2361 104.23 58.146 104.246 58.0505C104.827 55.7465 105.334 53.4148 105.768 51.0555C105.856 50.3996 106.03 49.7582 106.286 49.1478C106.415 48.843 106.604 48.5673 106.841 48.3369C107.079 48.1065 107.36 47.9263 107.669 47.8069C108.592 47.5062 109.629 48.0142 110.22 48.7849C110.811 49.5556 111.036 50.5406 111.195 51.4979C111.354 52.4552 111.454 53.4402 111.845 54.3284C111.964 54.6578 112.184 54.941 112.474 55.1371C112.993 55.4377 113.691 55.1993 114.089 54.75C114.452 54.2689 114.69 53.7046 114.78 53.1084C114.871 52.5132 115.069 51.9395 115.364 51.4149C115.91 50.5993 116.91 50.233 117.864 49.998C118.818 49.763 119.824 49.6075 120.629 49.0372C121.263 48.5265 121.78 47.8853 122.143 47.1571C122.655 46.269 123.132 45.3013 123.091 44.2748C123.084 44.1429 123.07 44.0114 123.049 43.8809C122.882 44.6719 122.576 45.4268 122.143 46.11Z" fill="black"/>
</g>
<path opacity="0.1" d="M123.104 46.2138C123.991 47.7895 124.516 49.5425 124.643 51.3459C121.563 49.6179 118.666 47.7206 117.203 47.0605C114.656 45.9096 105.128 46.0824 101.547 46.1896C101.921 45.5205 102.359 44.8887 102.853 44.3026C103.672 43.3309 104.633 42.4895 105.705 41.8074C107.125 40.9067 108.713 40.3049 110.373 40.0388C112.034 39.7726 113.731 39.8477 115.361 40.2595C116.991 40.6713 118.52 41.4111 119.854 42.4337C121.189 43.4562 122.301 44.7401 123.122 46.2069L123.104 46.2138Z" fill="black"/>
<path opacity="0.1" d="M134.098 54.4492C132.435 54.9607 129.721 53.9722 126.907 52.5553C126.518 52.0599 126.163 51.5379 125.846 50.9932L135.339 52.7834C135.968 53.2119 136.127 53.8236 134.098 54.4492Z" fill="black"/>
<path d="M113.055 34.2315C113.055 34.2315 103.98 33.7131 101.429 38.6379L101.018 43.0028L100.326 42.9268L100.188 45.8955C100.188 45.8955 114.057 45.2907 117.214 46.7146C120.37 48.1385 130.178 55.3131 134.108 54.1035C138.039 52.8939 133.762 51.7707 133.762 51.7707C133.762 51.7707 128.352 49.4794 128.352 47.6823C128.352 45.8851 127.011 36.3915 113.055 34.2315Z" fill="#444053"/>
<path opacity="0.1" d="M95.552 196.042C95.552 196.042 101.343 201.658 103.849 201.226C103.849 201.226 96.762 200.621 95.552 196.042Z" fill="black"/>
<path opacity="0.1" d="M94.3421 198.645C94.3421 198.645 94.8606 201.534 96.2434 201.25C97.6263 200.967 94.3421 198.645 94.3421 198.645Z" fill="black"/>
<path opacity="0.1" d="M103.417 246.932C103.417 246.932 95.196 253.325 96.5822 253.498C97.9685 253.671 103.417 246.932 103.417 246.932Z" fill="black"/>
<path d="M114.414 120.037L141.033 115.707V140.901L115.741 139.578L114.414 120.037Z" fill="#008FFF"/>
<path opacity="0.05" d="M114.414 120.037L141.033 115.707V140.901L115.741 139.578L114.414 120.037Z" fill="black"/>
<path d="M141.033 115.707L172.955 118.095L171.188 140.02L141.033 140.901V115.707Z" fill="#008FFF"/>
<path opacity="0.1" d="M141.033 115.707L172.955 118.095L171.188 140.02L141.033 140.901V115.707Z" fill="black"/>
<path d="M150.847 108.018L141.033 115.707L172.955 118.095L178.171 110.226L150.847 108.018Z" fill="#008FFF"/>
<path d="M104.775 111.64L128.739 108.723L141.033 115.707L114.414 120.038L104.775 111.64Z" fill="#008FFF"/>
<path d="M146.868 122.249V156.695L134.399 155.416L128.975 154.863L127.322 154.69L121.901 154.134L114.414 153.367V120.037L141.029 121.848L146.868 122.249Z" fill="#008FFF"/>
<path d="M172.955 118.095V151.687L162.96 153.605L158.1 154.538L146.868 156.695V122.249L172.955 118.095Z" fill="#008FFF"/>
<path opacity="0.05" d="M172.955 118.095V151.687L162.96 153.605L158.1 154.538L146.868 156.695V122.249L172.955 118.095Z" fill="black"/>
<path d="M104.775 127.288L114.414 120.037L146.868 122.249L142.09 130.295L104.775 127.288Z" fill="#008FFF"/>
<path opacity="0.1" d="M104.775 127.288L114.414 120.037L146.868 122.249L142.09 130.295L104.775 127.288Z" fill="white"/>
<path d="M172.955 118.095L146.868 122.249L155.358 129.852L183.302 125.166L172.955 118.095Z" fill="#008FFF"/>
<path opacity="0.1" d="M172.955 118.095L146.868 122.249L155.358 129.852L183.302 125.166L172.955 118.095Z" fill="white"/>
<path opacity="0.1" d="M162.96 153.605L158.1 154.538V147.36L162.653 146.213L162.96 153.605Z" fill="white"/>
<path opacity="0.1" d="M134.399 150.668V155.416L128.975 154.864V150.668H134.399Z" fill="white"/>
<path opacity="0.1" d="M127.322 152.164V154.69L121.901 154.134V152.164H127.322Z" fill="white"/>
<path opacity="0.1" d="M143.605 148.148C139.888 152.9 127.616 149.617 127.616 149.617L118.496 140.106L117.259 138.817L119.679 134.324C119.679 134.324 120.37 134.552 121.525 134.953C127.637 137.089 146.733 144.15 143.605 148.148Z" fill="black"/>
<path d="M143.259 147.457C139.543 152.209 127.27 148.926 127.27 148.926L118.151 139.415L116.913 138.126L119.333 133.633C119.333 133.633 120.024 133.861 121.179 134.262C127.291 136.398 146.388 143.458 143.259 147.457Z" fill="#EFB7B9"/>
<path opacity="0.1" d="M121.165 134.262C120.66 135.713 119.378 137.863 118.137 139.415L116.899 138.126L119.319 133.633C119.319 133.633 120.014 133.861 121.165 134.262Z" fill="black"/>
<path d="M90.9715 80.5143C90.9715 80.5143 81.8968 83.9703 81.8104 93.6471C81.7897 99.8829 82.136 106.114 82.8475 112.31C82.8475 112.31 80.2547 126.738 87.6009 130.886C94.9471 135.033 101.775 138.489 101.775 138.489C101.775 138.489 113.511 140.39 114.953 140.994C116.394 141.599 121.404 133.823 120.626 132.527C119.848 131.231 109.162 128.034 107.894 125.874C106.625 123.714 103.5 122.259 103.5 122.259C103.5 122.259 100.312 120.086 100.184 118.271C100.057 116.457 100.997 115.161 101.263 114.383C101.529 113.606 102.494 106.002 102.494 106.002C102.494 106.002 107.652 79.0282 90.9715 80.5143Z" fill="#DCE6F2"/>
<path opacity="0.1" d="M95.1199 112.552C95.1199 112.552 82.8475 113.934 83.7982 118.254C83.7982 118.254 88.4617 113.896 95.1199 112.552Z" fill="black"/>
<path opacity="0.1" d="M95.1199 114.279C95.1199 114.279 88.154 119.377 89.4331 119.722C90.7122 120.068 95.1199 114.279 95.1199 114.279Z" fill="black"/>
<path opacity="0.1" d="M98.2312 116.354C98.2312 116.354 96.2434 119.927 97.367 119.74C98.4905 119.554 98.2312 116.354 98.2312 116.354Z" fill="black"/>
<path d="M226.01 38.8422C226.01 38.8422 212.873 38.0508 214.408 47.2645C214.408 47.2645 214.1 48.8923 215.576 49.6318C215.576 49.6318 215.601 48.9406 216.925 49.1791C217.396 49.2584 217.875 49.2816 218.352 49.2482C218.999 49.2051 219.613 48.9514 220.102 48.5259C220.102 48.5259 223.797 47.0018 225.235 40.9607C225.235 40.9607 226.3 39.6405 226.272 39.3019L224.053 40.2523C224.053 40.2523 224.81 41.8524 224.212 43.1829C224.212 43.1829 224.143 40.311 223.714 40.3767C223.628 40.3767 222.563 40.9331 222.563 40.9331C222.563 40.9331 223.866 43.7186 222.881 45.7473C222.881 45.7473 223.254 42.312 222.155 41.1335L220.592 42.0459C220.592 42.0459 222.117 44.9248 221.083 47.2749C221.083 47.2749 221.35 43.6702 220.264 42.2671L218.847 43.3696C218.847 43.3696 220.281 46.2104 219.407 48.1596C219.407 48.1596 219.293 43.964 218.539 43.6461C218.539 43.6461 217.301 44.7381 217.115 45.1874C217.115 45.1874 218.093 47.261 217.485 48.3358C217.485 48.3358 217.111 45.5399 216.793 45.5261C216.793 45.5261 215.559 47.3785 215.431 48.6365C215.491 47.4637 215.857 46.327 216.492 45.3395C215.781 45.474 215.125 45.8141 214.605 46.3175C214.605 46.3175 214.795 45.0077 216.797 44.8937C216.797 44.8937 217.834 43.4871 218.09 43.4007C218.09 43.4007 216.098 43.2348 214.892 43.7705C214.892 43.7705 215.953 42.5367 218.456 43.0793L219.839 41.9388C219.839 41.9388 217.218 41.5932 216.105 41.9768C216.105 41.9768 217.384 40.8847 220.216 41.6796L221.737 40.7707C221.737 40.7707 219.504 40.2868 218.173 40.4631C218.173 40.4631 219.576 39.7062 222.183 40.5253L223.272 40.038C223.272 40.038 221.633 39.7166 221.156 39.6647C220.679 39.6129 220.651 39.4816 220.651 39.4816C221.688 39.3091 222.752 39.4288 223.725 39.8272C223.725 39.8272 226.058 38.9874 226.01 38.8422Z" fill="#008FFF"/>
<path opacity="0.1" d="M265.924 84.9242C265.924 84.9242 252.788 84.1328 254.323 93.3465C254.323 93.3465 254.015 94.9743 255.491 95.7139C255.491 95.7139 255.515 95.0227 256.843 95.2611C257.314 95.3405 257.794 95.3637 258.27 95.3303C258.909 95.284 259.516 95.0317 259.999 94.6114C259.999 94.6114 263.698 93.0839 265.136 87.0428C265.136 87.0428 266.197 85.726 266.156 85.3873L263.937 86.3343C263.937 86.3343 264.694 87.9344 264.099 89.265C264.099 89.265 264.026 86.393 263.601 86.4587C263.515 86.4587 262.447 87.0151 262.447 87.0151C262.447 87.0151 263.753 89.8041 262.768 91.8293C262.768 91.8293 263.141 88.3941 262.039 87.2156L260.493 88.1176C260.493 88.1176 262.018 90.9964 260.984 93.3465C260.984 93.3465 261.25 89.7419 260.165 88.3388L258.751 89.4447C258.751 89.4447 260.182 92.2821 259.311 94.2313C259.311 94.2313 259.197 90.0357 258.443 89.7177C258.443 89.7177 257.206 90.8098 257.016 91.2591C257.016 91.2591 257.997 93.3327 257.389 94.4075C257.389 94.4075 257.016 91.6116 256.698 91.5978C256.698 91.5978 255.463 93.4502 255.336 94.7082C255.397 93.5352 255.764 92.3988 256.4 91.4112C255.688 91.546 255.031 91.886 254.509 92.3892C254.509 92.3892 254.703 91.0794 256.704 90.9653C256.704 90.9653 257.724 89.5587 257.997 89.4723C257.997 89.4723 256.006 89.3064 254.8 89.8421C254.8 89.8421 255.861 88.6083 258.36 89.1682L259.743 88.0277C259.743 88.0277 257.119 87.6821 256.01 88.0657C256.01 88.0657 257.289 86.9736 260.12 87.7685L261.641 86.8596C261.641 86.8596 259.404 86.3792 258.073 86.552C258.073 86.552 259.48 85.7951 262.087 86.6142L263.176 86.1269C263.176 86.1269 261.537 85.8055 261.057 85.7537C260.576 85.7018 260.552 85.5705 260.552 85.5705C261.59 85.3979 262.655 85.5176 263.629 85.9161C263.629 85.9161 265.966 85.0694 265.924 84.9242Z" fill="#008FFF"/>
<path opacity="0.1" d="M186.119 76.7436C186.119 76.7436 189.144 63.9253 179.796 63.8803C179.796 63.8803 178.244 63.2997 177.266 64.6268C177.266 64.6268 177.933 64.7685 177.48 66.0334C177.323 66.4807 177.219 66.9446 177.169 67.4158C177.102 68.0582 177.246 68.705 177.58 69.2579C177.58 69.2579 178.455 73.1632 184.149 75.61C184.149 75.61 185.269 76.8818 185.607 76.8957L185.054 74.549C185.054 74.549 183.347 75.0225 182.137 74.2034C182.137 74.2034 184.982 74.6216 184.985 74.2034C184.985 74.117 184.639 72.9731 184.639 72.9731C184.639 72.9731 181.67 73.7818 179.838 72.4651C179.838 72.4651 183.16 73.4189 184.512 72.5376L183.889 70.8373C183.889 70.8373 180.778 71.8499 178.648 70.4295C178.648 70.4295 182.157 71.3073 183.727 70.4779L182.88 68.895C182.88 68.895 179.838 69.8212 178.064 68.6289C178.064 68.6289 182.213 69.2302 182.662 68.546C182.662 68.546 181.798 67.1394 181.386 66.8767C181.386 66.8767 179.188 67.4919 178.22 66.7074C178.22 66.7074 181.037 66.8145 181.103 66.5173C181.103 66.5173 179.488 64.9863 178.258 64.6407C179.405 64.9017 180.464 65.4568 181.331 66.2512C181.318 65.5269 181.095 64.8219 180.688 64.2225C180.688 64.2225 181.946 64.6372 181.725 66.6417C181.725 66.6417 182.935 67.8859 182.973 68.1693C182.973 68.1693 183.474 66.2373 183.153 64.9552C183.153 64.9552 184.19 66.2132 183.212 68.5805L184.097 70.153C184.097 70.153 184.899 67.6301 184.695 66.4689C184.695 66.4689 185.556 67.9135 184.287 70.5677L184.926 72.2231C184.926 72.2231 185.78 70.1012 185.836 68.7671C185.836 68.7671 186.344 70.2809 185.089 72.7104L185.386 73.8647C185.386 73.8647 185.981 72.3061 186.112 71.843C186.244 71.3799 186.378 71.3764 186.378 71.3764C186.373 72.4278 186.075 73.457 185.518 74.3486C185.518 74.3486 185.97 76.7609 186.119 76.7436Z" fill="#008FFF"/>
<path opacity="0.1" d="M157.35 81.1119C157.35 81.1119 146.799 73.2219 143.027 81.7686C143.027 81.7686 141.876 82.9609 142.702 84.3882C142.702 84.3882 143.096 83.8318 144.085 84.7545C144.435 85.0802 144.823 85.3633 145.24 85.5978C145.804 85.9121 146.456 86.0335 147.096 85.9434C147.096 85.9434 151.023 86.7003 155.545 82.4459C155.545 82.4459 157.16 81.9275 157.312 81.6234L154.93 81.2052C154.93 81.2052 154.681 82.9574 153.454 83.7419C153.454 83.7419 154.971 81.302 154.577 81.1257C154.498 81.0877 153.308 80.9529 153.308 80.9529C153.308 80.9529 152.866 84.0011 150.93 85.152C150.93 85.152 153.132 82.4874 152.859 80.8976L151.051 80.8009C151.051 80.8009 150.743 84.0461 148.586 85.4423C148.586 85.4423 150.788 82.5773 150.66 80.8078L148.87 80.9529C148.87 80.9529 148.507 84.1083 146.706 85.2557C146.706 85.2557 148.915 81.6891 148.462 81.0117C148.462 81.0117 146.827 81.2433 146.422 81.5128C146.422 81.5128 146.107 83.773 145.001 84.3467C145.001 84.3467 146.228 81.8066 145.98 81.6303C145.98 81.6303 143.93 82.4978 143.124 83.4862C143.821 82.5398 144.753 81.7917 145.827 81.3158C145.159 81.038 144.424 80.9611 143.712 81.0946C143.712 81.0946 144.59 80.1062 146.325 81.1119C146.325 81.1119 147.95 80.5002 148.227 80.5762C148.227 80.5762 146.654 79.3424 145.35 79.1282C145.35 79.1282 146.92 78.6789 148.7 80.5106L150.494 80.3274C150.494 80.3274 148.5 78.5994 147.355 78.3091C147.355 78.3091 149.025 78.0983 150.951 80.317L152.721 80.3965C152.721 80.3965 151.12 78.7653 149.914 78.1778C149.914 78.1778 151.5 78.316 153.229 80.4345L154.408 80.6246C154.408 80.6246 153.215 79.4565 152.842 79.1524C152.468 78.8482 152.52 78.7204 152.52 78.7204C153.482 79.1461 154.307 79.8305 154.902 80.6972C154.902 80.6972 157.305 81.2536 157.35 81.1119Z" fill="#008FFF"/>
<path opacity="0.1" d="M192.477 7.80682C192.477 7.80682 181.926 -0.086688 178.154 8.46346C178.154 8.46346 177.003 9.65578 177.829 11.0831C177.829 11.0831 178.223 10.5267 179.212 11.4494C179.564 11.7735 179.953 12.0553 180.37 12.2893C180.935 12.6038 181.586 12.7252 182.226 12.6349C182.226 12.6349 186.154 13.3917 190.675 9.13393C190.675 9.13393 192.29 8.61898 192.438 8.3114L190.057 7.90013C190.057 7.90013 189.811 9.65233 188.58 10.4368C188.58 10.4368 190.102 7.9969 189.707 7.82065C189.628 7.78263 188.439 7.64785 188.439 7.64785C188.439 7.64785 187.982 10.703 186.046 11.8469C186.046 11.8469 188.245 9.18231 187.975 7.59255L186.167 7.49578C186.167 7.49578 185.856 10.741 183.703 12.1337C183.703 12.1337 185.905 9.26871 185.777 7.49924L183.99 7.64439C183.99 7.64439 183.623 10.8032 181.822 11.9506C181.822 11.9506 184.034 8.38397 183.582 7.7066C183.582 7.7066 181.946 7.93815 181.542 8.20772C181.542 8.20772 181.227 10.4679 180.121 11.0416C180.121 11.0416 181.348 8.50148 181.099 8.32177C181.099 8.32177 179.049 9.19268 178.244 10.1811C178.94 9.2337 179.872 8.48534 180.947 8.01072C180.278 7.73081 179.541 7.65389 178.828 7.78954C178.828 7.78954 179.71 6.80113 181.445 7.80682C181.445 7.80682 183.07 7.19165 183.347 7.27114C183.347 7.27114 181.774 6.03735 180.47 5.81962C180.47 5.81962 182.036 5.3738 183.817 7.20202L185.611 7.01885C185.611 7.01885 183.62 5.29085 182.472 4.99709C182.472 4.99709 184.142 4.78973 186.071 7.00848L187.841 7.08452C187.841 7.08452 186.24 5.45328 185.03 4.86922C185.03 4.86922 186.62 5.00746 188.349 7.12599L189.524 7.31607C189.524 7.31607 188.328 6.16176 187.955 5.86455C187.581 5.56733 187.633 5.436 187.633 5.436C188.595 5.86129 189.42 6.54576 190.015 7.41284C190.015 7.41284 192.418 7.93815 192.477 7.80682Z" fill="#008FFF"/>
<path opacity="0.1" d="M232.792 17.8053C232.792 17.8053 228.575 5.3257 220.62 10.2298C220.62 10.2298 218.995 10.5754 218.867 12.2031C218.867 12.2031 219.507 11.9681 219.79 13.2814C219.896 13.7486 220.055 14.202 220.264 14.6327C220.55 15.2124 221.015 15.684 221.592 15.9771C221.592 15.9771 224.399 18.8283 230.538 17.8848C230.538 17.8848 232.16 18.3756 232.457 18.2062L230.728 16.5093C230.728 16.5093 229.532 17.8122 228.073 17.7604C228.073 17.7604 230.711 16.613 230.493 16.2432C230.448 16.1706 229.546 15.3861 229.546 15.3861C229.546 15.3861 227.451 17.6429 225.204 17.4943C225.204 17.4943 228.526 16.5473 229.204 15.0751L227.773 13.9726C227.773 13.9726 225.678 16.4678 223.109 16.3918C223.109 16.3918 226.566 15.2824 227.441 13.748L225.885 12.8529C225.885 12.8529 223.811 15.2479 221.661 15.1718C221.661 15.1718 225.505 13.4888 225.515 12.6732C225.515 12.6732 224.039 11.937 223.552 11.9301C223.552 11.9301 222.01 13.6132 220.786 13.4611C220.786 13.4611 223.234 12.0614 223.13 11.7746C223.13 11.7746 220.952 11.3288 219.725 11.6882C220.835 11.3018 222.027 11.2125 223.182 11.429C222.787 10.8204 222.224 10.34 221.56 10.0466C221.56 10.0466 222.846 9.7321 223.707 11.543C223.707 11.543 225.394 11.9612 225.574 12.1789C225.574 12.1789 224.979 10.2747 224.029 9.3554C224.029 9.3554 225.574 9.87725 225.996 12.4036L227.579 13.2676C227.579 13.2676 226.926 10.7067 226.138 9.81159C226.138 9.81159 227.634 10.5857 227.959 13.5061L229.377 14.574C229.377 14.574 228.983 12.3206 228.319 11.1525C228.319 11.1525 229.55 12.1686 229.771 14.8954L230.632 15.7179C230.632 15.7179 230.314 14.0798 230.182 13.6166C230.051 13.1535 230.158 13.1224 230.158 13.1224C230.708 14.019 230.998 15.05 230.998 16.1015C230.998 16.1015 232.671 17.8952 232.792 17.8053Z" fill="#008FFF"/>
<path opacity="0.1" d="M205.268 18.4201C205.268 18.4201 192.165 16.9617 193.247 26.2549C193.247 26.2549 192.857 27.8654 194.285 28.6741C194.285 28.6741 194.343 27.9829 195.667 28.2939C196.135 28.3946 196.613 28.4421 197.092 28.4356C197.738 28.424 198.363 28.2019 198.872 27.8032C198.872 27.8032 202.644 26.4657 204.403 20.5041C204.403 20.5041 205.53 19.2427 205.506 18.9005L203.242 19.7369C203.242 19.7369 203.933 21.3716 203.242 22.671C203.242 22.671 203.314 19.7991 202.896 19.844C202.81 19.844 201.717 20.3417 201.717 20.3417C201.717 20.3417 202.879 23.1929 201.793 25.1801C201.793 25.1801 202.339 21.7656 201.299 20.5352L199.691 21.3647C199.691 21.3647 201.074 24.3195 199.916 26.6143C199.916 26.6143 200.365 23.027 199.353 21.572L197.883 22.6088C197.883 22.6088 199.169 25.5153 198.198 27.4196C198.198 27.4196 198.298 23.224 197.562 22.868C197.562 22.868 196.269 23.9048 196.058 24.3334C196.058 24.3334 196.933 26.4415 196.272 27.4956C196.272 27.4956 196.041 24.6859 195.736 24.6582C195.736 24.6582 194.409 26.445 194.215 27.7064C194.335 26.5369 194.76 25.4192 195.446 24.4647C194.729 24.5638 194.056 24.8701 193.51 25.346C193.51 25.346 193.766 24.05 195.771 24.0361C195.771 24.0361 196.86 22.6849 197.154 22.6123C197.154 22.6123 195.173 22.3462 193.939 22.8196C193.939 22.8196 195.062 21.6377 197.531 22.3254L198.986 21.2575C198.986 21.2575 196.355 20.7253 195.242 21.0709C195.242 21.0709 196.577 20.0341 199.363 20.9845L200.929 20.1516C200.929 20.1516 198.72 19.5572 197.382 19.6643C197.382 19.6643 198.824 18.9731 201.385 19.9304L202.498 19.4984C202.498 19.4984 200.877 19.0941 200.4 19.018C199.923 18.942 199.906 18.8107 199.906 18.8107C200.951 18.6908 202.009 18.8631 202.962 19.3083C202.962 19.3083 205.292 18.5653 205.268 18.4201Z" fill="#008FFF"/>
<path opacity="0.1" d="M319.902 120.086C319.902 120.086 306.807 118.628 307.889 127.911C307.889 127.911 307.498 129.521 308.926 130.33C308.926 130.33 308.985 129.639 310.309 129.946C310.776 130.05 311.255 130.098 311.733 130.088C312.38 130.078 313.006 129.856 313.514 129.456C313.514 129.456 317.285 128.118 319.028 122.16C319.028 122.16 320.155 120.895 320.13 120.556L317.866 121.389C317.866 121.389 318.558 123.027 317.866 124.327C317.866 124.327 317.939 121.451 317.52 121.5C317.434 121.5 316.342 121.994 316.342 121.994C316.342 121.994 317.503 124.845 316.418 126.832C316.418 126.832 316.964 123.421 315.923 122.188L314.316 123.02C314.316 123.02 315.699 125.975 314.544 128.27C314.544 128.27 314.99 124.683 313.977 123.224L312.508 124.261C312.508 124.261 313.794 127.168 312.822 129.068C312.822 129.068 312.923 124.873 312.186 124.52C312.186 124.52 310.897 125.557 310.682 125.986C310.682 125.986 311.56 128.094 310.897 129.148C310.897 129.148 310.665 126.338 310.361 126.311C310.361 126.311 309.033 128.097 308.84 129.359C308.96 128.189 309.384 127.072 310.07 126.117C309.353 126.214 308.679 126.521 308.135 126.998C308.135 126.998 308.39 125.699 310.395 125.685C310.395 125.685 311.488 124.334 311.778 124.265C311.778 124.265 309.797 123.995 308.563 124.469C308.563 124.469 309.687 123.29 312.159 123.978L313.611 122.91C313.611 122.91 311.011 122.419 309.88 122.758C309.88 122.758 311.215 121.721 314.001 122.668L315.567 121.838C315.567 121.838 313.358 121.244 312.02 121.351C312.02 121.351 313.462 120.66 316.024 121.617L317.137 121.182C317.137 121.182 315.515 120.778 315.038 120.705C314.561 120.632 314.544 120.498 314.544 120.498C315.589 120.376 316.647 120.547 317.6 120.992C317.6 120.992 319.937 120.235 319.902 120.086Z" fill="#008FFF"/>
<path opacity="0.1" d="M339.922 132.312C339.922 132.312 326.827 130.857 327.909 140.137C327.909 140.137 327.522 141.747 328.946 142.556C328.946 142.556 329.005 141.865 330.329 142.176C330.795 142.277 331.272 142.324 331.749 142.314C332.393 142.301 333.015 142.08 333.523 141.685C333.523 141.685 337.291 140.348 339.033 134.386C339.033 134.386 340.164 133.125 340.136 132.782L337.872 133.615C337.872 133.615 338.563 135.253 337.872 136.553C337.872 136.553 337.944 133.681 337.526 133.726C337.44 133.726 336.347 134.22 336.347 134.22C336.347 134.22 337.509 137.071 336.423 139.059C336.423 139.059 336.97 135.647 335.929 134.417L334.322 135.247C334.322 135.247 335.704 138.201 334.55 140.496C334.55 140.496 334.996 136.909 333.983 135.454L332.513 136.491C332.513 136.491 333.799 139.397 332.832 141.301C332.832 141.301 332.928 137.102 332.192 136.75C332.192 136.75 330.903 137.787 330.688 138.215C330.688 138.215 331.566 140.323 330.903 141.378C330.903 141.378 330.671 138.568 330.367 138.54C330.367 138.54 329.039 140.327 328.849 141.588C328.969 140.419 329.392 139.302 330.076 138.347C329.359 138.446 328.686 138.752 328.14 139.228C328.14 139.228 328.4 137.928 330.405 137.918C330.405 137.918 331.494 136.567 331.787 136.494C331.787 136.494 329.807 136.228 328.572 136.702C328.572 136.702 329.696 135.52 332.168 136.207L333.62 135.139C333.62 135.139 331.02 134.649 329.89 134.987C329.89 134.987 331.224 133.951 334.01 134.901L335.576 134.068C335.576 134.068 333.367 133.474 332.03 133.581C332.03 133.581 333.471 132.89 336.033 133.847L337.146 133.415C337.146 133.415 335.525 133.011 335.051 132.934C334.577 132.858 334.553 132.727 334.553 132.727C335.598 132.607 336.656 132.78 337.609 133.225C337.609 133.225 339.956 132.461 339.922 132.312Z" fill="#008FFF"/>
<path opacity="0.1" d="M295.475 29.3209C295.475 29.3209 284.924 21.4309 281.153 29.9776C281.153 29.9776 280.001 31.1699 280.828 32.5972C280.828 32.5972 281.222 32.0408 282.21 32.9635C282.561 33.2892 282.948 33.5723 283.365 33.8068C283.93 34.1209 284.582 34.2422 285.221 34.1524C285.221 34.1524 289.149 34.9093 293.674 30.6549C293.674 30.6549 295.285 30.1365 295.437 29.8324L293.062 29.4039C293.062 29.4039 292.813 31.156 291.586 31.9406C291.586 31.9406 293.103 29.5006 292.709 29.3244C292.63 29.2864 291.444 29.1516 291.444 29.1516C291.444 29.1516 290.998 32.1998 289.062 33.3506C289.062 33.3506 291.264 30.686 290.991 29.0963L289.183 28.9995C289.183 28.9995 288.876 32.2447 286.718 33.6409C286.718 33.6409 288.924 30.7759 288.793 29.0064L287.002 29.1516C287.002 29.1516 286.656 32.3069 284.838 33.4543C284.838 33.4543 287.05 29.8877 286.594 29.2103C286.594 29.2103 284.959 29.4419 284.554 29.7114C284.554 29.7114 284.243 31.9717 283.137 32.5454C283.137 32.5454 284.361 30.0052 284.112 29.8289C284.112 29.8289 282.062 30.6964 281.256 31.6848C281.953 30.7384 282.885 29.9903 283.96 29.5144C283.291 29.2366 282.556 29.1597 281.844 29.2933C281.844 29.2933 282.725 28.3048 284.461 29.3105C284.461 29.3105 286.082 28.6988 286.359 28.7749C286.359 28.7749 284.786 27.5411 283.483 27.3268C283.483 27.3268 285.052 26.8775 286.832 28.7092L288.627 28.526C288.627 28.526 286.635 26.798 285.488 26.5077C285.488 26.5077 287.157 26.2969 289.083 28.5157L290.856 28.5952C290.856 28.5952 289.252 26.9639 288.046 26.3764C288.046 26.3764 289.636 26.5146 291.361 28.6332L292.54 28.8232C292.54 28.8232 291.347 27.6551 290.974 27.351C290.601 27.0469 290.656 26.9466 290.656 26.9466C291.616 27.3731 292.44 28.0574 293.034 28.9235C293.034 28.9235 295.43 29.4626 295.475 29.3209Z" fill="#008FFF"/>
<path opacity="0.1" d="M303.627 86.2821C303.627 86.2821 299.99 73.6228 291.811 78.1674C291.811 78.1674 290.172 78.4197 289.968 80.0578C289.968 80.0578 290.618 79.8539 290.843 81.1776C290.926 81.6531 291.065 82.1171 291.257 82.56C291.514 83.1555 291.958 83.6508 292.523 83.97C292.523 83.97 295.198 86.9422 301.373 86.2786C301.373 86.2786 302.97 86.8385 303.274 86.6864L301.639 84.9101C301.639 84.9101 300.384 86.1611 298.932 86.0436C298.932 86.0436 301.615 85.0068 301.407 84.637C301.366 84.561 300.501 83.735 300.501 83.735C300.501 83.735 298.31 85.8985 296.07 85.6462C296.07 85.6462 299.433 84.8513 300.173 83.4205L298.79 82.2524C298.79 82.2524 296.585 84.6509 294.023 84.4642C294.023 84.4642 297.508 83.5069 298.469 82.0174L296.955 81.0532C296.955 81.0532 294.759 83.3514 292.63 83.1786C292.63 83.1786 296.547 81.6683 296.595 80.8562C296.595 80.8562 295.15 80.0544 294.663 80.0267C294.663 80.0267 293.048 81.6372 291.821 81.4299C291.821 81.4299 294.331 80.1408 294.241 79.8505C294.241 79.8505 292.084 79.3079 290.843 79.6086C291.967 79.2753 293.158 79.2408 294.3 79.5083C293.934 78.883 293.393 78.3784 292.744 78.0568C292.744 78.0568 294.044 77.7976 294.818 79.6466C294.818 79.6466 296.481 80.1373 296.654 80.3654C296.654 80.3654 296.146 78.4335 295.236 77.4762C295.236 77.4762 296.758 78.0637 297.065 80.6073L298.607 81.5439C298.607 81.5439 298.068 78.9519 297.321 78.0395C297.321 78.0395 298.78 78.8793 298.977 81.81L300.36 82.9401C300.36 82.9401 300.066 80.673 299.457 79.4841C299.457 79.4841 300.643 80.5555 300.74 83.2857L301.563 84.1497C301.563 84.1497 301.321 82.4978 301.217 82.0278C301.113 81.5577 301.217 81.4921 301.217 81.4921C301.729 82.4113 301.974 83.4549 301.926 84.5057C301.926 84.5057 303.502 86.365 303.627 86.2821Z" fill="#008FFF"/>
<path opacity="0.1" d="M222.587 114.808C222.587 114.808 215.524 103.687 208.967 110.343C208.967 110.343 207.466 111.034 207.729 112.676C207.729 112.676 208.299 112.295 208.887 113.505C209.098 113.934 209.361 114.335 209.668 114.701C210.08 115.2 210.645 115.55 211.276 115.696C211.276 115.696 214.681 117.797 220.42 115.42C220.42 115.42 222.11 115.51 222.359 115.278L220.285 114.034C220.285 114.034 219.431 115.589 218.003 115.883C218.003 115.883 220.292 114.155 219.984 113.837C219.925 113.775 218.861 113.229 218.861 113.229C218.861 113.229 217.364 115.917 215.144 116.308C215.144 116.308 218.148 114.597 218.459 113.014L216.804 112.285C216.804 112.285 215.362 115.205 212.852 115.741C212.852 115.741 215.929 113.844 216.43 112.143L214.702 111.646C214.702 111.646 213.243 114.469 211.151 114.901C211.151 114.901 214.484 112.351 214.301 111.556C214.301 111.556 212.69 111.193 212.226 111.304C212.226 111.304 211.131 113.305 209.893 113.45C209.893 113.45 211.94 111.508 211.77 111.252C211.77 111.252 209.547 111.338 208.441 111.978C209.428 111.338 210.565 110.969 211.739 110.906C211.213 110.409 210.554 110.076 209.841 109.949C209.841 109.949 211.013 109.337 212.261 110.892C212.261 110.892 213.99 110.892 214.228 111.065C214.228 111.065 213.191 109.337 212.054 108.691C212.054 108.691 213.678 108.829 214.688 111.183L216.434 111.646C216.434 111.646 215.186 109.313 214.214 108.646C214.214 108.646 215.849 109.04 216.862 111.801L218.494 112.492C218.494 112.492 217.574 110.402 216.651 109.424C216.651 109.424 218.09 110.115 218.95 112.71L219.988 113.308C219.988 113.308 219.296 111.791 219.051 111.373C218.805 110.955 218.902 110.858 218.902 110.858C219.65 111.596 220.178 112.529 220.427 113.55C220.427 113.55 222.494 114.925 222.587 114.808Z" fill="#008FFF"/>
<path d="M269.005 57.9851C269.005 57.9851 262.288 46.6528 255.522 53.1017C255.522 53.1017 254.001 53.7584 254.215 55.3965C254.215 55.3965 254.793 55.0302 255.346 56.2571C255.544 56.6932 255.793 57.1039 256.089 57.4805C256.486 57.9901 257.04 58.3546 257.666 58.5173C257.666 58.5173 261.002 60.7222 266.813 58.5173C266.813 58.5173 268.5 58.659 268.756 58.4343L266.726 57.128C266.726 57.128 265.828 58.6521 264.389 58.9044C264.389 58.9044 266.73 57.2351 266.436 56.9206C266.374 56.8549 265.33 56.2743 265.33 56.2743C265.33 56.2743 263.75 58.9182 261.527 59.2396C261.527 59.2396 264.583 57.6222 264.939 56.0531L263.307 55.2859C263.307 55.2859 261.776 58.1648 259.249 58.6244C259.249 58.6244 262.384 56.8238 262.937 55.1408L261.23 54.5878C261.23 54.5878 259.681 57.3526 257.579 57.7328C257.579 57.7328 260.988 55.2859 260.829 54.4876C260.829 54.4876 259.232 54.0729 258.754 54.1696C258.754 54.1696 257.596 56.1361 256.355 56.2432C256.355 56.2432 258.461 54.3701 258.302 54.1074C258.302 54.1074 256.075 54.1247 254.952 54.7295C255.958 54.1226 257.106 53.789 258.281 53.7618C257.77 53.2481 257.12 52.8949 256.411 52.7458C256.411 52.7458 257.603 52.1686 258.831 53.7618C258.831 53.7618 260.559 53.8206 260.791 53.9968C260.791 53.9968 259.812 52.2688 258.692 51.5569C258.692 51.5569 260.31 51.7435 261.247 54.1282L262.976 54.6466C262.976 54.6466 261.804 52.2757 260.849 51.5776C260.849 51.5776 262.474 52.0234 263.401 54.8124L265.008 55.5624C265.008 55.5624 264.154 53.4439 263.28 52.452C263.28 52.452 264.694 53.1881 265.478 55.8078L266.491 56.4368C266.491 56.4368 265.841 54.8988 265.613 54.4738C265.385 54.0487 265.482 53.9554 265.482 53.9554C266.206 54.7168 266.706 55.6643 266.923 56.6925C266.923 56.6925 268.904 58.0991 269.005 57.9851Z" fill="#008FFF"/>
<path d="M226.507 81.814C226.507 81.814 226.853 68.6466 217.702 70.5025C217.702 70.5025 216.064 70.2502 215.372 71.7501C215.372 71.7501 216.064 71.7501 215.87 73.0807C215.807 73.5551 215.8 74.0354 215.849 74.5115C215.912 75.1572 216.185 75.7644 216.627 76.2395C216.627 76.2395 218.276 79.8821 224.364 81.1193C224.364 81.1193 225.716 82.1389 226.055 82.0836L225.017 79.8994C225.017 79.8994 223.444 80.7081 222.093 80.1586C222.093 80.1586 224.962 79.9892 224.883 79.5676C224.883 79.4812 224.288 78.4306 224.288 78.4306C224.288 78.4306 221.543 79.8302 219.486 78.9109C219.486 78.9109 222.943 79.1702 224.074 78.0331L223.109 76.5021C223.109 76.5021 220.281 78.1195 217.896 77.1657C217.896 77.1657 221.509 77.3108 222.878 76.1807L221.726 74.7983C221.726 74.7983 218.937 76.3259 216.959 75.5172C216.959 75.5172 221.149 75.2649 221.453 74.5011C221.453 74.5011 220.319 73.3019 219.863 73.1187C219.863 73.1187 217.837 74.1555 216.731 73.5956C216.731 73.5956 219.497 73.1325 219.514 72.8249C219.514 72.8249 217.623 71.6533 216.347 71.5669C217.524 71.588 218.674 71.9168 219.683 72.5208C219.526 71.8144 219.165 71.1694 218.646 70.6649C218.646 70.6649 219.963 70.8135 220.143 72.8076C220.143 72.8076 221.585 73.7822 221.678 74.0518C221.678 74.0518 221.778 72.0577 221.201 70.8688C221.201 70.8688 222.473 71.8883 221.996 74.4043L223.182 75.766C223.182 75.766 223.451 73.1325 223.019 72.037C223.019 72.037 224.153 73.2777 223.455 76.1323L224.412 77.6219C224.412 77.6219 224.82 75.372 224.603 74.0484C224.603 74.0484 225.405 75.4308 224.672 78.0608L225.197 79.1321C225.197 79.1321 225.463 77.4836 225.498 77.0032C225.533 76.5228 225.664 76.4917 225.664 76.4917C225.872 77.5227 225.789 78.5912 225.425 79.578C225.425 79.578 226.355 81.8589 226.507 81.814Z" fill="#008FFF"/>
<path opacity="0.1" d="M241.635 249.125C246.777 249.125 250.945 248.421 250.945 247.553C250.945 246.684 246.777 245.98 241.635 245.98C236.494 245.98 232.326 246.684 232.326 247.553C232.326 248.421 236.494 249.125 241.635 249.125Z" fill="#008FFF"/>
<path opacity="0.1" d="M207.698 273C212.839 273 217.008 272.296 217.008 271.428C217.008 270.559 212.839 269.855 207.698 269.855C202.556 269.855 198.388 270.559 198.388 271.428C198.388 272.296 202.556 273 207.698 273Z" fill="#008FFF"/>
<path opacity="0.1" d="M32.1987 260.77C37.3403 260.77 41.5084 260.066 41.5084 259.197C41.5084 258.329 37.3403 257.625 32.1987 257.625C27.0571 257.625 22.8889 258.329 22.8889 259.197C22.8889 260.066 27.0571 260.77 32.1987 260.77Z" fill="#008FFF"/>
<path opacity="0.1" d="M278.311 271.428C283.452 271.428 287.621 270.724 287.621 269.856C287.621 268.987 283.452 268.283 278.311 268.283C273.169 268.283 269.001 268.987 269.001 269.856C269.001 270.724 273.169 271.428 278.311 271.428Z" fill="#008FFF"/>
<path d="M288.004 252.253C295.681 252.253 301.905 251.201 301.905 249.903C301.905 248.605 295.681 247.553 288.004 247.553C280.327 247.553 274.104 248.605 274.104 249.903C274.104 251.201 280.327 252.253 288.004 252.253Z" fill="#008FFF"/>
<path d="M293.767 246.057C294.402 245.541 294.864 244.844 295.091 244.059C295.264 243.264 294.925 242.314 294.168 242.024C293.318 241.699 292.409 242.286 291.717 242.881C291.026 243.475 290.241 244.156 289.339 244.032C289.802 243.611 290.148 243.078 290.345 242.484C290.541 241.89 290.58 241.255 290.459 240.641C290.42 240.387 290.312 240.148 290.148 239.95C289.674 239.445 288.82 239.663 288.253 240.061C286.456 241.326 285.954 243.765 285.944 245.963C285.764 245.172 285.916 244.346 285.913 243.544C285.909 242.742 285.685 241.816 284.997 241.395C284.574 241.159 284.097 241.04 283.614 241.049C282.805 241.021 281.903 241.101 281.353 241.692C280.662 242.425 280.845 243.658 281.439 244.457C282.034 245.255 282.943 245.77 283.78 246.33C284.449 246.73 285.021 247.274 285.453 247.923C285.502 248.013 285.543 248.108 285.574 248.206H290.642C291.777 247.635 292.828 246.912 293.767 246.057Z" fill="#008FFF"/>
<path d="M25.9484 251.888C25.9484 251.888 31.2549 251.725 32.8624 250.585C34.4699 249.444 41.0314 248.086 41.4289 249.914C41.8265 251.742 49.4077 259 43.4133 259.048C37.4188 259.097 29.4849 258.115 27.8878 257.141C26.2906 256.166 25.9484 251.888 25.9484 251.888Z" fill="#A8A8A8"/>
<path opacity="0.2" d="M43.5135 258.413C37.519 258.461 29.5852 257.48 27.988 256.505C26.7712 255.765 26.2872 253.108 26.1247 251.881H25.9484C25.9484 251.881 26.2941 256.163 27.8809 257.134C29.4676 258.105 37.4119 259.09 43.4063 259.042C45.1349 259.042 45.7329 258.413 45.7018 257.5C45.4598 258.057 44.7995 258.402 43.5135 258.413Z" fill="black"/>
<defs>
<linearGradient id="paint0_linear" x1="77.0881" y1="149.791" x2="184.992" y2="149.791" gradientUnits="userSpaceOnUse">
<stop stop-color="#808080" stop-opacity="0.25"/>
<stop offset="0.54" stop-color="#808080" stop-opacity="0.12"/>
<stop offset="1" stop-color="#808080" stop-opacity="0.1"/>
</linearGradient>
</defs>
</svg>
