<svg width="492" height="365" viewBox="0 0 492 365" fill="none" xmlns="http://www.w3.org/2000/svg">
<g clip-path="url(#clip0)">
<path d="M461.346 25.665H36.6104V297.415H461.346V25.665Z" fill="#3F3D56"/>
<path d="M449.269 74.7314H258.037V297.164H449.269V74.7314Z" fill="#F2F2F2"/>
<path d="M19.4715 282.208C25.2839 292.988 37.6199 297.615 37.6199 297.615C37.6199 297.615 40.5322 284.766 34.7198 273.986C28.9073 263.207 16.5714 258.58 16.5714 258.58C16.5714 258.58 13.6591 271.429 19.4715 282.208Z" fill="#3F3D56"/>
<path d="M23.4661 278.662C33.9598 284.976 38.0013 297.516 38.0013 297.516C38.0013 297.516 25.029 299.82 14.5353 293.506C4.0415 287.193 0 274.653 0 274.653C0 274.653 12.9723 272.349 23.4661 278.662Z" fill="#008FFF"/>
<path d="M438.7 95.4282H322.718V100.105H438.7V95.4282Z" fill="white"/>
<path d="M438.7 105.717H322.718V110.393H438.7V105.717Z" fill="white"/>
<path d="M362.002 116.005H322.718V120.682H362.002V116.005Z" fill="white"/>
<path d="M200.534 235.833H84.5518V240.509H200.534V235.833Z" fill="white"/>
<path d="M200.534 246.121H84.5518V250.798H200.534V246.121Z" fill="white"/>
<path d="M123.836 256.41H84.5518V261.087H123.836V256.41Z" fill="white"/>
<path d="M411.525 152.797H295.543V157.474H411.525V152.797Z" fill="white"/>
<path d="M411.525 163.086H295.543V167.763H411.525V163.086Z" fill="white"/>
<path d="M411.525 173.151H295.543V177.828H411.525V173.151Z" fill="white"/>
<path d="M411.525 183.216H295.543V187.893H411.525V183.216Z" fill="white"/>
<path d="M411.525 193.281H295.543V197.958H411.525V193.281Z" fill="white"/>
<path d="M411.525 203.346H295.543V208.022H411.525V203.346Z" fill="white"/>
<path d="M411.525 213.41H295.543V218.087H411.525V213.41Z" fill="white"/>
<path d="M411.525 223.475H295.543V228.152H411.525V223.475Z" fill="white"/>
<path d="M411.525 233.54H295.543V238.217H411.525V233.54Z" fill="white"/>
<path d="M411.525 243.605H295.543V248.282H411.525V243.605Z" fill="white"/>
<path d="M411.525 253.669H295.543V258.346H411.525V253.669Z" fill="white"/>
<path d="M184.806 161.47C184.813 167.771 183.407 173.993 180.692 179.679C177.978 185.365 174.023 190.37 169.12 194.327C167.306 195.8 165.372 197.118 163.337 198.267C162.11 198.964 160.846 199.598 159.553 200.164C155.266 202.056 150.692 203.215 146.021 203.591C144.873 203.687 143.714 203.734 142.543 203.732C140.227 203.735 137.914 203.545 135.629 203.164C134.824 203.038 134.029 202.882 133.244 202.701C131.871 202.395 130.516 202.019 129.182 201.573C123.7 199.745 118.652 196.809 114.352 192.948C113.244 191.966 112.194 190.921 111.207 189.818C106.605 184.73 103.311 178.599 101.61 171.953C99.9082 165.308 99.85 158.348 101.44 151.675C103.03 145.002 106.221 138.817 110.737 133.653C115.252 128.489 120.957 124.502 127.359 122.037C133.76 119.571 140.665 118.701 147.478 119.502C154.291 120.302 160.807 122.749 166.463 126.631C172.118 130.513 176.744 135.714 179.939 141.784C183.135 147.854 184.805 154.61 184.806 161.47Z" fill="#008FFF"/>
<path d="M310.535 114.325C310.595 127.852 302.574 132.61 292.656 132.654C292.425 132.655 292.196 132.653 291.968 132.649C291.508 132.641 291.053 132.622 290.603 132.592C281.648 131.998 274.67 127.064 274.614 114.484C274.557 101.466 291.122 84.9631 292.365 83.7427L292.367 83.7416C292.414 83.6951 292.438 83.6719 292.438 83.6719C292.438 83.6719 310.475 100.799 310.535 114.325Z" fill="#008FFF"/>
<path d="M291.993 130.587L298.521 121.38L291.981 131.595L291.968 132.649C291.508 132.641 291.053 132.622 290.603 132.592L291.25 119.057L291.244 118.952L291.257 118.932L291.318 117.653L284.671 107.472L291.334 116.695L291.351 116.966L291.841 106.74L286.142 96.2133L291.902 104.943L292.365 83.7424L292.367 83.6719L292.367 83.7413L292.349 100.459L297.944 93.8064L292.331 101.898L292.222 111.054L297.438 102.245L292.207 112.4L292.147 117.491L299.719 105.228L292.126 119.267L291.993 130.587Z" fill="#3F3D56"/>
<path d="M461.095 144.682C442.41 144.682 424.489 152.104 411.277 165.317C398.064 178.53 390.641 196.45 390.641 215.135V215.135C390.641 220.608 388.467 225.856 384.598 229.725C380.729 233.594 375.481 235.768 370.008 235.768H335.788C327.725 235.768 319.742 237.356 312.293 240.442C304.844 243.527 298.076 248.049 292.375 253.751C286.674 259.452 282.151 266.22 279.066 273.669C275.981 281.117 274.393 289.101 274.393 297.164V297.164H461.095V144.682H461.095Z" fill="#3F3D56"/>
<path d="M253.257 25.665H244.198V297.415H253.257V25.665Z" fill="#2F2E41"/>
<path d="M160.911 21.6394V14.594C160.909 10.7249 159.37 7.01516 156.634 4.28016C153.897 1.54516 150.186 0.00878906 146.317 0.00878906C142.448 0.00878906 138.737 1.54516 136.001 4.28016C133.264 7.01516 131.726 10.7249 131.723 14.594V21.6394H104.045V37.2398H188.589V21.6394H160.911ZM146.317 4.02593C148.009 4.02593 149.663 4.52768 151.07 5.46773C152.477 6.40777 153.574 7.7439 154.221 9.30713C154.869 10.8704 155.038 12.5905 154.708 14.25C154.378 15.9096 153.563 17.4339 152.367 18.6304C151.17 19.8268 149.646 20.6416 147.986 20.9717C146.327 21.3018 144.607 21.1324 143.043 20.4849C141.48 19.8374 140.144 18.7409 139.204 17.334C138.264 15.9271 137.762 14.2731 137.762 12.581C137.762 11.4576 137.983 10.3451 138.413 9.30713C138.843 8.26918 139.473 7.32608 140.268 6.53166C141.062 5.73725 142.005 5.10708 143.043 4.67715C144.081 4.24722 145.194 4.02593 146.317 4.02593Z" fill="#008FFF"/>
<path d="M150.047 158.681C150.047 158.681 145.844 170.645 148.43 172.486C151.017 174.327 139.7 189.358 139.7 189.358L126.119 185.677L133.556 173.099C133.556 173.099 134.526 160.522 134.526 158.681C134.526 156.841 150.047 158.681 150.047 158.681Z" fill="#FFB8B8"/>
<path opacity="0.1" d="M150.047 158.681C150.047 158.681 145.844 170.645 148.43 172.486C151.017 174.327 139.7 189.358 139.7 189.358L126.119 185.677L133.556 173.099C133.556 173.099 134.526 160.522 134.526 158.681C134.526 156.841 150.047 158.681 150.047 158.681Z" fill="black"/>
<path d="M141.458 167.578C147.557 167.578 152.501 162.633 152.501 156.534C152.501 150.435 147.557 145.49 141.458 145.49C135.358 145.49 130.414 150.435 130.414 156.534C130.414 162.633 135.358 167.578 141.458 167.578Z" fill="#FFB8B8"/>
<path d="M133.243 202.7C131.871 202.395 130.515 202.019 129.182 201.573L131.295 187.08L131.949 182.611L135.301 183.869C135.754 184.035 136.267 184.231 136.856 184.448C137.306 184.624 137.788 184.706 138.271 184.689C138.754 184.671 139.228 184.555 139.664 184.347C142.905 182.863 144.832 177.085 144.832 177.085C144.832 177.085 144.963 178.706 145.134 181.449C145.441 186.265 145.884 194.548 146.02 203.591C144.873 203.687 143.714 203.734 142.543 203.732C140.226 203.735 137.913 203.544 135.628 203.163C134.823 203.038 134.028 202.882 133.243 202.7Z" fill="#D0CDE1"/>
<path d="M136.243 175.249L135.301 183.869L134.844 188.041L133.243 202.7C131.871 202.395 130.515 202.019 129.182 201.573C123.7 199.745 118.652 196.809 114.352 192.948L112.313 185.676C112.324 185.242 112.368 184.81 112.444 184.382C112.444 184.38 112.444 184.377 112.445 184.374C112.446 184.372 112.447 184.369 112.449 184.367C112.509 183.987 112.593 183.61 112.701 183.24C112.704 183.235 112.705 183.23 112.706 183.225C113.067 181.841 113.777 180.572 114.769 179.541C117.225 177.085 133.48 169.416 133.48 169.416L133.787 170.06L136.243 175.249Z" fill="#D0CDE1"/>
<path d="M141.222 140.926C143.671 140.838 146.291 140.795 148.355 142.115C149.305 142.777 150.138 143.592 150.82 144.528C152.83 147.069 154.567 150.267 153.821 153.42L152.953 153.082C152.953 153.924 153.14 154.755 153.501 155.515C153.379 155.16 152.97 155.734 153.079 156.094L154.035 159.228C153.64 159.106 153.224 159.069 152.814 159.118C152.404 159.168 152.009 159.302 151.654 159.514C151.299 159.726 150.993 160.01 150.754 160.347C150.516 160.685 150.352 161.069 150.271 161.474C150.162 157.833 149.784 153.658 146.831 151.526C145.342 150.451 143.457 150.123 141.643 149.832C139.97 149.563 138.216 149.306 136.614 149.857C135.011 150.408 133.646 152.047 134.01 153.702C133.628 153.616 133.228 153.664 132.876 153.837C132.525 154.01 132.244 154.298 132.079 154.653C131.77 155.374 131.634 156.158 131.684 156.941C130.896 157.498 130 156.392 129.679 155.483C128.925 153.348 128.256 151.075 128.662 148.848C129.068 146.621 130.882 144.492 133.146 144.485C132.872 144.183 132.725 143.786 132.738 143.378L134.604 143.22C134.13 143.153 133.694 142.924 133.371 142.571C134.12 143.395 140.011 140.969 141.222 140.926Z" fill="#2F2E41"/>
<path d="M166.92 183.225C166.634 185.525 164.993 192.022 163.337 198.267C162.11 198.965 160.846 199.598 159.553 200.164C155.266 202.056 150.692 203.215 146.021 203.592C144.873 203.687 143.714 203.734 142.543 203.732C140.227 203.735 137.914 203.545 135.629 203.164C136.484 199.862 137.637 194.422 138.714 189.093C139.041 187.483 139.363 185.877 139.665 184.348C140.847 178.319 141.763 173.407 141.763 173.407C141.763 173.407 145.437 169.804 147.616 168.969C147.911 168.837 148.235 168.783 148.557 168.813C150.354 169.109 152.81 173.407 152.81 173.407C152.81 173.407 163.83 177.081 166.407 181.253C166.799 181.832 166.98 182.528 166.92 183.225Z" fill="#D0CDE1"/>
<path d="M120.29 183.225L119.645 196.994C117.776 195.788 116.006 194.435 114.351 192.948C113.244 191.966 112.193 190.921 111.206 189.818C111.734 187.498 112.177 185.545 112.444 184.383C112.444 184.38 112.444 184.377 112.445 184.374C112.446 184.372 112.447 184.369 112.449 184.367C112.59 183.723 112.681 183.326 112.701 183.24C112.703 183.236 112.705 183.23 112.706 183.225H120.29Z" fill="#D0CDE1"/>
<path d="M169.12 194.327C167.306 195.8 165.372 197.118 163.337 198.267C162.11 198.965 160.846 199.598 159.553 200.164L158.33 193.038L159.558 179.542L166.407 181.253L166.92 181.383L169.12 194.327Z" fill="#D0CDE1"/>
<path d="M459.487 217.995C459.487 217.995 454.708 241.361 462.674 239.237C470.639 237.113 467.453 216.933 467.453 216.933L459.487 217.995Z" fill="#A0616A"/>
<path d="M481.792 121.345H476.482C476.482 121.345 470.64 125.594 471.171 130.373C471.702 135.152 461.612 176.574 461.612 181.884C461.612 187.195 459.488 188.788 459.488 191.974C459.488 195.161 460.55 197.285 459.488 198.878C458.426 200.471 456.302 210.03 456.833 213.747C457.142 216.216 457.142 218.713 456.833 221.182H470.109C470.109 221.182 479.668 188.788 481.792 187.195C483.916 185.602 484.978 182.947 484.978 181.353C484.978 179.76 483.916 179.76 486.571 177.636C489.227 175.512 487.634 165.953 487.634 165.953L491.351 156.394L481.792 121.345Z" fill="#D0CDE1"/>
<path opacity="0.1" d="M481.792 121.345H476.482C476.482 121.345 470.64 125.594 471.171 130.373C471.702 135.152 461.612 176.574 461.612 181.884C461.612 187.195 459.488 188.788 459.488 191.974C459.488 195.161 460.55 197.285 459.488 198.878C458.426 200.471 456.302 210.03 456.833 213.747C457.142 216.216 457.142 218.713 456.833 221.182H470.109C470.109 221.182 479.668 188.788 481.792 187.195C483.916 185.602 484.978 182.947 484.978 181.353C484.978 179.76 483.916 179.76 486.571 177.636C489.227 175.512 487.634 165.953 487.634 165.953L491.351 156.394L481.792 121.345Z" fill="black"/>
<path d="M407.445 204.985C407.445 204.985 402.666 228.351 410.632 226.227C418.597 224.103 415.411 203.923 415.411 203.923L407.445 204.985Z" fill="#A0616A"/>
<path d="M409.038 313.849L405.852 327.125L417.535 334.559L420.721 318.628L409.038 313.849Z" fill="#A0616A"/>
<path d="M464.267 330.311L458.426 338.277L465.329 346.242H474.888V330.311H464.267Z" fill="#A0616A"/>
<path d="M476.481 339.34H473.295C471.718 339.019 470.092 339.019 468.515 339.34C465.329 339.871 461.006 334.759 461.006 334.759L456.832 338.277C456.832 338.277 448.336 340.402 452.584 350.492L462.143 356.333C462.143 356.333 466.922 366.423 476.481 364.83C486.04 363.237 479.136 352.616 479.136 352.616L476.481 339.34Z" fill="#2F2E41"/>
<path d="M409.038 320.753L408.23 317.215L401.072 319.159C401.072 319.159 386.203 309.601 386.203 322.346C386.203 335.091 397.886 339.339 397.886 339.339C397.886 339.339 402.135 338.808 402.135 342.525C402.135 346.243 413.286 352.084 417.535 349.96C421.783 347.836 421.783 342.525 421.783 342.525L420.721 327.656L415.942 328.718C415.942 328.718 406.914 328.187 408.507 326.063C410.1 323.939 409.038 320.753 409.038 320.753Z" fill="#2F2E41"/>
<path d="M424.439 198.612C424.439 198.612 418.066 207.109 418.066 211.888C418.066 216.668 415.942 259.152 415.942 259.152C415.942 259.152 404.259 313.318 407.445 316.505C410.631 319.691 420.19 324.47 421.783 322.877C423.376 321.284 434.528 263.4 434.528 263.4L447.805 227.82L460.019 278.8C460.019 278.8 459.488 322.877 461.612 323.408C463.736 323.939 464.798 324.47 463.736 326.594C462.674 328.719 461.081 332.967 461.081 332.967C461.081 332.967 474.357 336.153 477.012 334.029C479.667 331.905 480.198 280.393 477.012 262.338C473.826 244.282 477.543 202.861 477.543 202.861L424.439 198.612Z" fill="#2F2E41"/>
<path d="M443.822 95.855C452.621 95.855 459.753 88.7222 459.753 79.9236C459.753 71.1249 452.621 63.9922 443.822 63.9922C435.023 63.9922 427.891 71.1249 427.891 79.9236C427.891 88.7222 435.023 95.855 443.822 95.855Z" fill="#A0616A"/>
<path d="M439.043 90.0132C439.043 90.0132 441.167 101.165 439.043 104.351C436.918 107.538 467.719 105.413 467.719 105.413C467.719 105.413 452.85 88.42 454.443 85.2338C456.036 82.0475 439.043 90.0132 439.043 90.0132Z" fill="#A0616A"/>
<path d="M425.501 108.334C425.501 108.334 436.122 94.5272 449.398 97.1824C452.982 97.8993 456.257 98.6161 459.128 99.2807C469.243 101.623 477.655 108.832 481.111 118.623C482.007 121.162 482.455 123.602 482.057 125.593C480.464 133.559 481.261 196.488 481.261 196.488C481.261 196.488 477.012 198.081 477.543 200.205C478.074 202.33 481.792 204.985 478.074 204.985C474.357 204.985 418.066 202.861 419.128 201.267C420.19 199.674 425.501 108.334 425.501 108.334Z" fill="#D0CDE1"/>
<path d="M430.812 108.334H425.501C425.501 108.334 419.66 112.583 420.191 117.362C420.722 122.142 410.632 163.563 410.632 168.874C410.632 174.184 408.508 175.777 408.508 178.964C408.508 182.15 409.57 184.274 408.508 185.867C407.446 187.46 405.321 197.019 405.852 200.736C406.161 203.205 406.161 205.703 405.852 208.171H419.129C419.129 208.171 428.687 175.777 430.812 174.184C432.936 172.591 433.998 169.936 433.998 168.343C433.998 166.75 432.936 166.75 435.591 164.625C438.246 162.501 436.653 152.942 436.653 152.942L440.37 143.384L430.812 108.334Z" fill="#D0CDE1"/>
<path opacity="0.1" d="M423.069 200.567L439.043 165.421L431.056 202.799L423.069 200.567Z" fill="black"/>
<path d="M438.264 55.831L438.272 54.5164C439.37 54.3768 440.483 54.4158 441.568 54.6319C441.58 53.8383 441.415 53.052 441.086 52.3299C442.18 52.4738 443.243 52.7904 444.237 53.2679L444.603 50.8262L454.115 54.1595C457.529 55.3561 461.138 56.6885 463.354 59.5483C465.824 62.7367 466.003 67.198 465.055 71.1184C464.107 75.0388 462.178 78.6406 460.738 82.4084C460.213 84.0172 459.537 85.5724 458.717 87.0531C455.843 91.6874 449.352 93.3411 444.266 91.3723C442.389 90.6457 440.617 89.4342 439.666 87.6605C439.179 86.5602 438.765 85.4292 438.426 84.2747C437.542 81.9332 436.252 77.0351 434.106 75.7464C433.162 75.1793 431.722 77.614 430.907 76.8735C428.812 74.9706 428.8 71.6452 429.629 68.9391C430.411 66.2275 431.387 63.5759 432.551 61.005C433.051 59.9676 438.265 55.6733 438.264 55.831Z" fill="#2F2E41"/>
</g>
<defs>
<clipPath id="clip0">
<rect width="491.35" height="365" fill="white"/>
</clipPath>
</defs>
</svg>
