<svg width="529" height="365" viewBox="0 0 529 365" fill="none" xmlns="http://www.w3.org/2000/svg">
<g clip-path="url(#clip0)">
<path opacity="0.1" d="M299.049 49.6931C265.16 49.7385 232.54 40.1317 201.34 29.4594C170.139 18.7872 139.179 6.83651 105.92 1.77242C84.5299 -1.48275 60.2069 -1.18353 43.4868 10.6357C27.3923 22.0061 22.7317 40.8253 20.483 58.2119C18.792 71.2915 18.0122 85.0194 24.3457 96.9837C28.7433 105.289 36.2692 112.135 41.5736 120.051C60.089 147.588 48.9544 182.765 30.9603 210.942C22.5232 224.162 12.6398 236.833 6.26094 250.811C-0.117916 264.788 -2.73384 280.638 3.77196 294.433C10.2188 308.107 24.7809 318.031 40.4084 324.809C72.144 338.6 109.093 341.556 145.05 342.694C224.643 345.219 304.39 340.069 383.923 334.919C413.356 333.015 442.92 331.097 471.745 325.58C487.749 322.519 504.229 317.977 515.576 308.021C529.98 295.381 532.927 274.744 522.445 259.91C504.868 235.029 458.52 230.337 445.917 203.416C438.967 188.595 444.96 171.599 453.787 157.313C472.72 126.661 505.308 99.2052 505.856 64.9217C506.232 41.3784 489.286 18.4109 463.974 8.17847C437.443 -2.53909 401.269 0.217373 382.681 20.1927C363.567 40.7709 328.971 49.6614 299.049 49.6931Z" fill="#008FFF"/>
<path d="M449.979 292.584C449.979 292.584 444.407 288.907 438.885 291.523C438.885 291.523 440.585 294.796 447.576 294.488L449.979 292.584Z" fill="#008FFF"/>
<path d="M450.686 292.779C450.686 292.779 452.381 299.235 448.129 303.628C448.129 303.628 445.572 300.967 448.129 294.447L450.686 292.779Z" fill="#008FFF"/>
<path d="M457.613 286.581C457.613 286.581 457.2 281.091 444.801 282.914C444.801 282.914 444.742 286.454 449.094 288.132C453.446 289.809 455.441 288.395 457.613 286.581Z" fill="#008FFF"/>
<path d="M458.393 286.545C458.393 286.545 463.634 288.227 458.96 299.856C458.96 299.856 455.501 299.085 454.88 294.456C454.259 289.827 456.099 288.231 458.393 286.545Z" fill="#008FFF"/>
<path d="M465.393 278.756C465.393 278.756 466.105 269.721 453.433 270.646C453.433 270.646 452.527 278.806 463.158 280.928L465.393 278.756Z" fill="#008FFF"/>
<path d="M473.767 268.555C473.767 268.555 472.03 258.314 459.363 261.365C459.363 261.365 459.318 270.219 471.699 270.995L473.767 268.555Z" fill="#008FFF"/>
<path d="M479.887 258.011C479.887 258.011 476.977 248.037 464.428 251.02C464.428 251.02 467.415 259.992 479.053 259.851L479.887 258.011Z" fill="#008FFF"/>
<path d="M485.699 247.71C485.699 247.71 482.857 237.36 470.738 240.456C470.738 240.456 474.782 250.29 484.897 249.46L485.699 247.71Z" fill="#008FFF"/>
<path d="M489.444 237.926C489.444 237.926 487.259 225.268 475.961 228.07C475.961 228.07 479.243 239.585 488.614 239.771L489.444 237.926Z" fill="#008FFF"/>
<path d="M492.958 226.107C492.958 226.107 490.333 213.349 478.903 217.04C478.903 217.04 483.383 229.099 492.146 227.852L492.958 226.107Z" fill="#008FFF"/>
<path d="M495.116 215.109C495.116 215.109 490.949 202.346 482.113 202.691C482.113 202.691 486.37 216.17 494.377 217.652L495.116 215.109Z" fill="#008FFF"/>
<path d="M496.512 204.373C496.512 204.373 491.978 189.013 484.788 190.196C484.788 190.196 487.925 201.938 496.258 206.766L496.512 204.373Z" fill="#008FFF"/>
<path d="M497.301 191.565C497.301 191.565 493.048 178.767 485.967 178.254C485.967 178.254 488.859 190.849 497.16 194.893L497.301 191.565Z" fill="#008FFF"/>
<path d="M498.158 179.614C498.158 179.614 492.858 166.802 488.184 166.512C488.184 166.512 490.487 179.129 497.704 181.718L498.158 179.614Z" fill="#008FFF"/>
<path d="M498.743 168.498C498.743 168.498 495.483 154.584 490.8 153.428C490.8 153.428 491.439 164.812 498.271 169.541L498.743 168.498Z" fill="#008FFF"/>
<path d="M500.511 153.936C500.511 153.936 497.084 142.842 493.289 141.151C493.289 141.151 494.037 154.23 499.636 156.647L500.511 153.936Z" fill="#008FFF"/>
<path d="M501.975 144.415L502.664 124.856C502.664 124.856 495.569 139.6 501.463 147.847L501.975 144.415Z" fill="#008FFF"/>
<path d="M507.452 124.961C507.452 124.961 512.561 110.68 513.799 109.882C513.799 109.882 503.78 119.149 504.759 131.068L507.452 124.961Z" fill="#008FFF"/>
<path d="M465.738 278.688C465.738 278.688 474.724 277.514 474.457 290.213C474.457 290.213 466.337 291.537 463.685 281.032L465.738 278.688Z" fill="#008FFF"/>
<path d="M474.193 268.211C474.193 268.211 484.575 268.179 483.714 281.177C483.714 281.177 474.995 282.737 472.121 270.668L474.193 268.211Z" fill="#008FFF"/>
<path d="M479.987 258.849C479.987 258.849 489.413 254.429 495.443 265.84C495.443 265.84 486.738 269.521 479.153 260.694L479.987 258.849Z" fill="#008FFF"/>
<path d="M485.908 247.805C485.908 247.805 495.56 243.104 501.227 254.247C501.227 254.247 491.172 257.711 485.11 249.569L485.908 247.805Z" fill="#008FFF"/>
<path d="M489.322 238.202C489.322 238.202 498.611 229.33 506.024 238.302C506.024 238.302 496.535 245.606 488.896 240.179L489.322 238.202Z" fill="#008FFF"/>
<path d="M492.432 225.803C492.432 225.803 501.776 216.736 509.13 226.22C509.13 226.22 498.643 233.669 492.097 227.707L492.432 225.803Z" fill="#008FFF"/>
<path d="M494.178 214.746C494.178 214.746 501.377 203.412 509.855 205.941C509.855 205.941 502.384 217.942 494.259 217.407L494.178 214.746Z" fill="#008FFF"/>
<path d="M496.299 204.3C496.299 204.3 503.553 190.028 510.417 192.513C510.417 192.513 505.185 203.484 496.113 206.707L496.299 204.3Z" fill="#008FFF"/>
<path d="M496.803 190.821C496.803 190.821 504.26 179.587 511.247 180.961C511.247 180.961 505.149 192.354 496.077 194.072L496.803 190.821Z" fill="#008FFF"/>
<path d="M497.383 179.365C497.383 179.365 503.163 166.757 507.86 166.671C507.86 166.671 505.085 179.188 497.773 181.505L497.383 179.365Z" fill="#008FFF"/>
<path d="M498.517 168.226C498.517 168.226 504.941 155.459 509.769 155.432C509.769 155.432 506.482 166.349 498.73 169.345L498.517 168.226Z" fill="#008FFF"/>
<path d="M499.481 154.733C499.481 154.733 504.287 144.17 508.268 142.973C508.268 142.973 505.865 155.849 500.012 157.535L499.481 154.733Z" fill="#008FFF"/>
<path d="M502.547 144.03L513.287 127.668C513.287 127.668 510.535 143.808 500.979 147.163L502.547 144.03Z" fill="#008FFF"/>
<path d="M509.919 126.281C509.919 126.281 522.4 117.667 522.853 116.275C522.853 116.275 516.506 128.339 504.719 130.47L509.919 126.281Z" fill="#008FFF"/>
<path d="M510.667 122.404C510.667 122.404 524.998 108.627 528.656 108.64C528.656 108.64 516.837 109.18 510.322 121.67L510.667 122.404Z" fill="#008FFF"/>
<path d="M499.622 156.778L500.143 156.846C502.836 135.769 506.763 123.297 511.197 121.769L511.024 121.271C506.323 122.903 502.369 135.184 499.622 156.778Z" fill="#444053"/>
<path d="M495.66 207.183L496.449 207.247C496.617 205.279 496.744 203.266 496.83 201.258C497.582 183.812 498.748 167.79 500.28 155.781L499.827 155.214C498.29 167.251 496.794 183.753 496.041 201.226C495.955 203.221 495.828 205.225 495.66 207.183Z" fill="#444053"/>
<path d="M435.272 302.639C435.408 302.581 449.294 296.378 463.707 281.59C472.151 272.928 479.167 262.982 484.494 252.121C491.158 238.552 495.22 221.877 496.581 205.678L495.76 206.064C492.7 242.423 476.147 267.268 462.986 280.801C448.714 295.458 434.982 301.597 434.846 301.656L435.272 302.639Z" fill="#444053"/>
<path d="M471.228 38.6401H35.5986C34.5693 38.6401 33.5822 39.049 32.8544 39.7768C32.1266 40.5046 31.7178 41.4917 31.7178 42.5209V53.8279H475.109V42.5209C475.109 41.4917 474.7 40.5046 473.973 39.7768C473.245 39.049 472.258 38.6401 471.228 38.6401Z" fill="#3F3D56"/>
<path d="M31.7178 53.8276V308.274C31.7178 310.35 32.5422 312.34 34.0097 313.808C35.4772 315.275 37.4675 316.1 39.5429 316.1H467.284C469.359 316.1 471.35 315.275 472.817 313.808C474.285 312.34 475.109 310.35 475.109 308.274V53.8276H31.7178Z" fill="white"/>
<path opacity="0.8" d="M38.7402 47.9341C39.7418 47.9341 40.5537 47.1221 40.5537 46.1206C40.5537 45.119 39.7418 44.3071 38.7402 44.3071C37.7387 44.3071 36.9268 45.119 36.9268 46.1206C36.9268 47.1221 37.7387 47.9341 38.7402 47.9341Z" fill="#FA5959"/>
<path opacity="0.8" d="M43.7265 47.9341C44.7281 47.9341 45.54 47.1221 45.54 46.1206C45.54 45.119 44.7281 44.3071 43.7265 44.3071C42.725 44.3071 41.9131 45.119 41.9131 46.1206C41.9131 47.1221 42.725 47.9341 43.7265 47.9341Z" fill="#FED253"/>
<path opacity="0.8" d="M48.7139 47.9341C49.7154 47.9341 50.5273 47.1221 50.5273 46.1206C50.5273 45.119 49.7154 44.3071 48.7139 44.3071C47.7123 44.3071 46.9004 45.119 46.9004 46.1206C46.9004 47.1221 47.7123 47.9341 48.7139 47.9341Z" fill="#8CCF4D"/>
<path opacity="0.05" d="M429.278 96.2544H72.9326V252.947H429.278V96.2544Z" fill="black"/>
<path d="M426.558 97.4419H75.6533V250.679H426.558V97.4419Z" fill="#3F3D56"/>
<path d="M171.313 136.88C164.409 136.88 157.66 138.928 151.919 142.764C146.178 146.599 141.704 152.052 139.062 158.43C136.419 164.809 135.728 171.828 137.075 178.6C138.422 185.372 141.747 191.592 146.629 196.474C151.511 201.356 157.731 204.681 164.503 206.028C171.275 207.375 178.294 206.684 184.673 204.041C191.051 201.399 196.503 196.925 200.339 191.184C204.175 185.443 206.223 178.694 206.223 171.79C206.223 167.205 205.32 162.666 203.565 158.43C201.811 154.195 199.24 150.347 195.998 147.105C192.756 143.863 188.908 141.292 184.673 139.538C180.437 137.783 175.898 136.88 171.313 136.88ZM177.574 172.628V189.158H165.234V172.628C163.526 171.336 162.267 169.539 161.636 167.493C161.004 165.446 161.031 163.253 161.713 161.222C162.394 159.192 163.697 157.427 165.436 156.177C167.175 154.926 169.262 154.253 171.404 154.253C173.546 154.253 175.634 154.926 177.373 156.177C179.112 157.427 180.414 159.192 181.096 161.222C181.777 163.253 181.804 165.446 181.173 167.493C180.541 169.539 179.282 171.336 177.574 172.628Z" fill="#008FFF"/>
<path opacity="0.05" d="M171.313 136.88C164.409 136.88 157.66 138.928 151.919 142.764C146.178 146.599 141.704 152.052 139.062 158.43C136.419 164.809 135.728 171.828 137.075 178.6C138.422 185.372 141.747 191.592 146.629 196.474C151.511 201.356 157.731 204.681 164.503 206.028C171.275 207.375 178.294 206.684 184.673 204.041C191.051 201.399 196.503 196.925 200.339 191.184C204.175 185.443 206.223 178.694 206.223 171.79C206.223 167.205 205.32 162.666 203.565 158.43C201.811 154.195 199.24 150.347 195.998 147.105C192.756 143.863 188.908 141.292 184.673 139.538C180.437 137.783 175.898 136.88 171.313 136.88ZM177.574 172.628V189.158H165.234V172.628C163.526 171.336 162.267 169.539 161.636 167.493C161.004 165.446 161.031 163.253 161.713 161.222C162.394 159.192 163.697 157.427 165.436 156.177C167.175 154.926 169.262 154.253 171.404 154.253C173.546 154.253 175.634 154.926 177.373 156.177C179.112 157.427 180.414 159.192 181.096 161.222C181.777 163.253 181.804 165.446 181.173 167.493C180.541 169.539 179.282 171.336 177.574 172.628Z" fill="black"/>
<path d="M171.313 126.906C162.436 126.906 153.758 129.539 146.377 134.47C138.996 139.402 133.243 146.412 129.846 154.613C126.449 162.815 125.56 171.839 127.292 180.546C129.024 189.252 133.299 197.25 139.576 203.527C145.853 209.804 153.85 214.078 162.557 215.81C171.263 217.542 180.288 216.653 188.489 213.256C196.69 209.859 203.7 204.106 208.632 196.725C213.564 189.344 216.196 180.666 216.196 171.789C216.196 159.886 211.467 148.469 203.05 140.052C194.633 131.635 183.217 126.906 171.313 126.906ZM179.36 172.868V194.118H163.492V172.868C161.296 171.206 159.677 168.896 158.864 166.264C158.051 163.632 158.086 160.811 158.962 158.2C159.839 155.589 161.514 153.319 163.75 151.71C165.987 150.102 168.672 149.237 171.426 149.237C174.181 149.237 176.866 150.102 179.102 151.71C181.339 153.319 183.013 155.589 183.89 158.2C184.767 160.811 184.801 163.632 183.988 166.264C183.176 168.896 181.557 171.206 179.36 172.868Z" fill="#008FFF"/>
<path d="M379.861 165.9H234.784V181.315H379.861V165.9Z" fill="white"/>
<path d="M379.861 194.009H348.579V209.423H379.861V194.009Z" fill="#008FFF"/>
<path d="M432.308 158.15L422.231 158.541L422.734 171.496L432.81 171.106L432.308 158.15Z" fill="#008FFF"/>
<path d="M386.854 203.522C386.854 203.522 372.899 196.855 373.123 202.613C373.346 208.371 387.189 212.159 387.189 212.159L386.854 203.522Z" fill="#FFB9B9"/>
<path d="M394.51 252.241C394.51 252.241 387.926 268.355 385.494 279.982C383.061 291.61 379.357 307.611 384.122 318.96C388.887 330.308 402.434 363.661 402.574 367.26C402.713 370.859 401.413 374.513 404.292 374.401C407.171 374.29 422.838 369.357 423.474 367.17C424.11 364.983 418.129 359.448 418.129 359.448L403.36 313.168L418.769 283.017L429.884 327.997L432.061 384.137C432.061 384.137 442.746 380.839 444.297 383.662C444.297 383.662 449.084 376.989 449.692 374.083C450.3 371.176 447.431 315.784 447.431 315.784C447.431 315.784 457.238 252.692 449.321 252.999C441.404 253.306 410.394 234.326 394.51 252.241Z" fill="#2F2E41"/>
<path d="M438.685 146.01C438.685 146.01 446.357 157.966 449.348 160.734C452.338 163.501 443.925 169.594 443.925 169.594L428.866 171.619C428.866 171.619 429.055 157.916 428.28 156.505C427.504 155.093 438.685 146.01 438.685 146.01Z" fill="#FFB9B9"/>
<path d="M425.596 161.654C425.596 161.654 428.698 167.3 431.577 167.189C434.456 167.077 449.347 160.733 449.983 158.546C450.619 156.359 454.916 174.213 454.916 174.213L418.478 238.337L409.59 232.194L413.896 194.545L417.433 174.225L425.596 161.654Z" fill="#008FFF"/>
<path d="M451.328 219.042C449.874 222.083 448.966 225.254 449.092 228.5C449.098 228.644 449.103 228.788 449.116 228.931C449.461 235.593 451.915 243.297 452.795 248.9C453.434 252.919 453.252 255.852 450.9 256.542C445.198 258.204 451.732 259.393 429.671 266.736C407.61 274.078 403.76 267.74 403.705 266.301C403.649 264.861 406.829 253.926 406.081 253.234C405.334 252.542 395.62 262.289 392.685 260.962C389.751 259.634 392.35 252.325 392.35 252.325C392.35 252.325 398.962 236.931 398.822 233.332C398.683 229.734 408.837 212.761 408.837 212.761L415.743 167.802C415.743 167.802 418.399 161.933 421.97 161.074C425.54 160.214 428.503 162.262 428.503 162.262L422.528 175.468L416.223 198.779L417.278 207.388C417.278 207.388 424.609 191.967 429.424 186.013C434.239 180.06 444.505 165.966 444.505 165.966C444.505 165.966 446.901 157.879 445.092 155.463C443.283 153.039 452.639 152.676 456.629 162.613C458.743 167.879 462.176 175.733 464.326 183.045C466.243 189.523 467.148 195.579 465.249 199.04C462.348 204.328 455.049 211.279 451.328 219.042Z" fill="#575A89"/>
<path opacity="0.1" d="M465.249 199.04C462.348 204.328 455.048 211.279 451.327 219.042C450.355 215.541 449.17 211.918 449.17 211.918C449.17 211.918 444.622 187.586 458.074 181.298C460.303 181.083 462.532 181.706 464.326 183.045C466.243 189.523 467.148 195.579 465.249 199.04Z" fill="black"/>
<path d="M411.849 197.507L400.445 200.833L384.61 201.447L382.981 215.206L409.004 217.08C409.004 217.08 415.503 198.807 411.849 197.507Z" fill="#575A89"/>
<path d="M430.445 243.768C430.445 243.768 415.189 246.299 418.671 250.89C422.153 255.481 435.669 250.655 435.669 250.655L430.445 243.768Z" fill="#FFB9B9"/>
<path opacity="0.1" d="M449.116 228.932C449.461 235.593 451.915 243.297 452.796 248.9C447.935 253.5 443.314 257.557 441.572 257.624C437.973 257.764 432.187 257.268 430.056 258.071C427.925 258.874 426.675 245.227 426.675 245.227C426.675 245.227 427.947 240.853 433.621 238.471C437.451 236.859 444.792 232.487 449.116 228.932Z" fill="black"/>
<path d="M457.906 176.98C457.906 176.98 470.086 175.066 469.428 195.275C468.77 215.483 470.712 228.383 465.813 232.177C460.915 235.971 445.003 253.167 441.404 253.306C437.805 253.446 432.019 252.949 429.888 253.753C427.757 254.556 426.507 240.909 426.507 240.909C426.507 240.909 427.779 236.535 433.453 234.152C439.127 231.77 452.495 223.322 452.384 220.444C452.272 217.565 449.002 207.6 449.002 207.6C449.002 207.6 444.455 183.268 457.906 176.98Z" fill="#575A89"/>
<path d="M427.945 163.713C436.696 163.713 443.791 156.619 443.791 147.867C443.791 139.116 436.696 132.021 427.945 132.021C419.193 132.021 412.099 139.116 412.099 147.867C412.099 156.619 419.193 163.713 427.945 163.713Z" fill="#FFB9B9"/>
<path d="M417.275 125.155C416.893 125.485 416.436 125.714 415.943 125.824C415.696 125.868 415.441 125.813 415.235 125.67C415.028 125.527 414.887 125.308 414.841 125.061C414.479 125.813 414.07 126.614 413.329 127C412.589 127.386 411.445 127.062 411.338 126.234C411.23 126.863 410.952 127.45 410.534 127.932C410.075 128.369 409.242 128.48 408.841 127.988C409.165 129.76 408.965 131.581 409.067 133.379C409.168 135.177 409.648 137.084 411.006 138.266C412.988 139.99 415.967 139.565 418.573 139.238C418.967 139.155 419.376 139.178 419.758 139.303C420.734 139.719 420.69 141.077 420.703 142.138C420.783 143.998 421.519 145.771 422.782 147.14C424.044 148.509 425.752 149.387 427.6 149.617C428.634 149.777 429.69 149.519 430.534 148.901C431.274 148.274 431.652 147.251 432.5 146.78C433.879 146.014 435.552 147.132 436.56 148.345C437.569 149.559 438.562 151.051 440.124 151.274C442.19 151.567 443.764 149.462 444.536 147.523C445.601 144.806 446.111 141.903 446.037 138.986C445.962 136.068 445.304 133.195 444.101 130.536C439.788 121.132 425.052 119.645 417.275 125.155Z" fill="#2F2E41"/>
<path d="M249.065 173.376H246.44L248.775 171.046C248.817 171.003 248.84 170.945 248.84 170.885C248.84 170.825 248.817 170.767 248.775 170.724C248.754 170.703 248.729 170.686 248.701 170.674C248.673 170.663 248.644 170.657 248.614 170.657C248.584 170.657 248.554 170.663 248.527 170.674C248.499 170.686 248.474 170.703 248.453 170.724L246.118 173.059V170.429C246.118 170.369 246.094 170.312 246.052 170.269C246.009 170.227 245.952 170.203 245.891 170.203C245.832 170.204 245.775 170.228 245.732 170.27C245.69 170.313 245.666 170.37 245.665 170.429V173.059L243.334 170.71C243.313 170.689 243.288 170.672 243.261 170.661C243.233 170.649 243.203 170.643 243.173 170.643C243.144 170.643 243.114 170.649 243.086 170.661C243.059 170.672 243.034 170.689 243.013 170.71C242.971 170.754 242.947 170.811 242.947 170.871C242.947 170.931 242.971 170.989 243.013 171.032L245.347 173.363H242.718C242.658 173.364 242.601 173.388 242.559 173.43C242.517 173.473 242.492 173.53 242.491 173.589C242.491 173.649 242.515 173.707 242.558 173.75C242.6 173.792 242.658 173.816 242.718 173.816H245.347L243.013 176.151C242.971 176.194 242.947 176.252 242.947 176.312C242.947 176.372 242.971 176.43 243.013 176.473C243.056 176.513 243.114 176.536 243.173 176.536C243.233 176.536 243.291 176.513 243.334 176.473L245.665 174.138V176.763C245.665 176.823 245.689 176.881 245.731 176.923C245.774 176.966 245.831 176.99 245.891 176.99C245.952 176.99 246.009 176.966 246.052 176.923C246.094 176.881 246.118 176.823 246.118 176.763V174.138L248.453 176.473C248.497 176.513 248.554 176.536 248.614 176.536C248.674 176.536 248.731 176.513 248.775 176.473C248.817 176.43 248.84 176.372 248.84 176.312C248.84 176.252 248.817 176.194 248.775 176.151L246.44 173.816H249.065C249.125 173.816 249.183 173.792 249.225 173.75C249.268 173.707 249.292 173.649 249.292 173.589C249.288 173.532 249.263 173.477 249.221 173.438C249.179 173.398 249.123 173.376 249.065 173.376Z" fill="#008FFF"/>
<path d="M258.587 173.376H255.961L258.296 171.046C258.338 171.003 258.362 170.945 258.362 170.885C258.362 170.825 258.338 170.767 258.296 170.724C258.275 170.703 258.25 170.686 258.223 170.674C258.195 170.663 258.165 170.657 258.135 170.657C258.105 170.657 258.076 170.663 258.048 170.674C258.021 170.686 257.996 170.703 257.974 170.724L255.64 173.059V170.429C255.64 170.369 255.616 170.312 255.573 170.269C255.531 170.227 255.473 170.203 255.413 170.203C255.353 170.204 255.296 170.228 255.254 170.27C255.212 170.313 255.187 170.37 255.186 170.429V173.059L252.856 170.71C252.835 170.689 252.81 170.672 252.782 170.661C252.755 170.649 252.725 170.643 252.695 170.643C252.665 170.643 252.635 170.649 252.608 170.661C252.58 170.672 252.555 170.689 252.534 170.71C252.492 170.754 252.469 170.811 252.469 170.871C252.469 170.931 252.492 170.989 252.534 171.032L254.869 173.363H252.239C252.18 173.364 252.123 173.388 252.08 173.43C252.038 173.473 252.014 173.53 252.013 173.589C252.013 173.649 252.037 173.707 252.079 173.75C252.122 173.792 252.179 173.816 252.239 173.816H254.869L252.534 176.151C252.492 176.194 252.469 176.252 252.469 176.312C252.469 176.372 252.492 176.43 252.534 176.473C252.578 176.513 252.635 176.536 252.695 176.536C252.755 176.536 252.812 176.513 252.856 176.473L255.186 174.138V176.763C255.186 176.823 255.21 176.881 255.253 176.923C255.295 176.966 255.353 176.99 255.413 176.99C255.473 176.99 255.531 176.966 255.573 176.923C255.616 176.881 255.64 176.823 255.64 176.763V174.138L257.974 176.473C258.018 176.513 258.076 176.536 258.135 176.536C258.195 176.536 258.253 176.513 258.296 176.473C258.338 176.43 258.362 176.372 258.362 176.312C258.362 176.252 258.338 176.194 258.296 176.151L255.961 173.816H258.587C258.647 173.816 258.704 173.792 258.747 173.75C258.789 173.707 258.813 173.649 258.813 173.589C258.81 173.532 258.784 173.477 258.742 173.438C258.7 173.398 258.644 173.376 258.587 173.376Z" fill="#008FFF"/>
<path d="M268.107 173.376H265.482L267.817 171.046C267.859 171.003 267.882 170.945 267.882 170.885C267.882 170.825 267.859 170.767 267.817 170.724C267.796 170.703 267.771 170.686 267.743 170.674C267.715 170.663 267.686 170.657 267.656 170.657C267.626 170.657 267.596 170.663 267.569 170.674C267.541 170.686 267.516 170.703 267.495 170.724L265.16 173.059V170.429C265.16 170.369 265.136 170.312 265.094 170.269C265.051 170.227 264.994 170.203 264.933 170.203C264.874 170.204 264.817 170.228 264.774 170.27C264.732 170.313 264.708 170.37 264.707 170.429V173.059L262.376 170.71C262.355 170.689 262.33 170.672 262.303 170.661C262.275 170.649 262.245 170.643 262.215 170.643C262.186 170.643 262.156 170.649 262.128 170.661C262.101 170.672 262.076 170.689 262.055 170.71C262.013 170.754 261.989 170.811 261.989 170.871C261.989 170.931 262.013 170.989 262.055 171.032L264.389 173.363H261.76C261.7 173.364 261.643 173.388 261.601 173.43C261.559 173.473 261.534 173.53 261.533 173.589C261.533 173.649 261.557 173.707 261.6 173.75C261.642 173.792 261.7 173.816 261.76 173.816H264.389L262.055 176.151C262.013 176.194 261.989 176.252 261.989 176.312C261.989 176.372 262.013 176.43 262.055 176.473C262.098 176.513 262.156 176.536 262.215 176.536C262.275 176.536 262.333 176.513 262.376 176.473L264.707 174.138V176.763C264.707 176.823 264.731 176.881 264.773 176.923C264.816 176.966 264.873 176.99 264.933 176.99C264.994 176.99 265.051 176.966 265.094 176.923C265.136 176.881 265.16 176.823 265.16 176.763V174.138L267.495 176.473C267.539 176.513 267.596 176.536 267.656 176.536C267.716 176.536 267.773 176.513 267.817 176.473C267.859 176.43 267.882 176.372 267.882 176.312C267.882 176.252 267.859 176.194 267.817 176.151L265.482 173.816H268.107C268.167 173.816 268.225 173.792 268.267 173.75C268.31 173.707 268.334 173.649 268.334 173.589C268.33 173.532 268.305 173.477 268.263 173.438C268.221 173.398 268.165 173.376 268.107 173.376Z" fill="#008FFF"/>
<path d="M277.628 173.376H275.003L277.337 171.046C277.379 171.003 277.403 170.945 277.403 170.885C277.403 170.825 277.379 170.767 277.337 170.724C277.316 170.703 277.291 170.686 277.264 170.674C277.236 170.663 277.206 170.657 277.176 170.657C277.146 170.657 277.117 170.663 277.089 170.674C277.062 170.686 277.037 170.703 277.015 170.724L274.681 173.059V170.429C274.681 170.369 274.657 170.312 274.614 170.269C274.572 170.227 274.514 170.203 274.454 170.203C274.394 170.204 274.337 170.228 274.295 170.27C274.253 170.313 274.228 170.37 274.227 170.429V173.059L271.897 170.71C271.876 170.689 271.851 170.672 271.823 170.661C271.796 170.649 271.766 170.643 271.736 170.643C271.706 170.643 271.676 170.649 271.649 170.661C271.621 170.672 271.596 170.689 271.575 170.71C271.533 170.754 271.51 170.811 271.51 170.871C271.51 170.931 271.533 170.989 271.575 171.032L273.91 173.363H271.28C271.221 173.364 271.164 173.388 271.121 173.43C271.079 173.473 271.055 173.53 271.054 173.589C271.054 173.649 271.078 173.707 271.12 173.75C271.163 173.792 271.22 173.816 271.28 173.816H273.91L271.575 176.151C271.533 176.194 271.51 176.252 271.51 176.312C271.51 176.372 271.533 176.43 271.575 176.473C271.619 176.513 271.676 176.536 271.736 176.536C271.796 176.536 271.853 176.513 271.897 176.473L274.227 174.138V176.763C274.227 176.823 274.251 176.881 274.294 176.923C274.336 176.966 274.394 176.99 274.454 176.99C274.514 176.99 274.572 176.966 274.614 176.923C274.657 176.881 274.681 176.823 274.681 176.763V174.138L277.015 176.473C277.059 176.513 277.117 176.536 277.176 176.536C277.236 176.536 277.294 176.513 277.337 176.473C277.379 176.43 277.403 176.372 277.403 176.312C277.403 176.252 277.379 176.194 277.337 176.151L275.003 173.816H277.628C277.688 173.816 277.745 173.792 277.788 173.75C277.83 173.707 277.854 173.649 277.854 173.589C277.851 173.532 277.825 173.477 277.783 173.438C277.741 173.398 277.685 173.376 277.628 173.376Z" fill="#008FFF"/>
<path d="M287.148 173.376H284.523L286.858 171.046C286.9 171.003 286.923 170.945 286.923 170.885C286.923 170.825 286.9 170.767 286.858 170.724C286.837 170.703 286.812 170.686 286.784 170.674C286.756 170.663 286.727 170.657 286.697 170.657C286.667 170.657 286.637 170.663 286.61 170.674C286.582 170.686 286.557 170.703 286.536 170.724L284.201 173.059V170.429C284.201 170.369 284.177 170.312 284.135 170.269C284.092 170.227 284.035 170.203 283.974 170.203C283.915 170.204 283.858 170.228 283.815 170.27C283.773 170.313 283.749 170.37 283.748 170.429V173.059L281.417 170.71C281.396 170.689 281.371 170.672 281.344 170.661C281.316 170.649 281.286 170.643 281.257 170.643C281.227 170.643 281.197 170.649 281.169 170.661C281.142 170.672 281.117 170.689 281.096 170.71C281.054 170.754 281.03 170.811 281.03 170.871C281.03 170.931 281.054 170.989 281.096 171.032L283.43 173.363H280.801C280.741 173.364 280.684 173.388 280.642 173.43C280.6 173.473 280.575 173.53 280.574 173.589C280.574 173.649 280.598 173.707 280.641 173.75C280.683 173.792 280.741 173.816 280.801 173.816H283.43L281.096 176.151C281.054 176.194 281.03 176.252 281.03 176.312C281.03 176.372 281.054 176.43 281.096 176.473C281.139 176.513 281.197 176.536 281.257 176.536C281.316 176.536 281.374 176.513 281.417 176.473L283.748 174.138V176.763C283.748 176.823 283.772 176.881 283.814 176.923C283.857 176.966 283.914 176.99 283.974 176.99C284.035 176.99 284.092 176.966 284.135 176.923C284.177 176.881 284.201 176.823 284.201 176.763V174.138L286.536 176.473C286.58 176.513 286.637 176.536 286.697 176.536C286.757 176.536 286.814 176.513 286.858 176.473C286.9 176.43 286.923 176.372 286.923 176.312C286.923 176.252 286.9 176.194 286.858 176.151L284.523 173.816H287.148C287.208 173.816 287.266 173.792 287.308 173.75C287.351 173.707 287.375 173.649 287.375 173.589C287.371 173.532 287.346 173.477 287.304 173.438C287.262 173.398 287.206 173.376 287.148 173.376Z" fill="#008FFF"/>
<path d="M296.669 173.376H294.044L296.378 171.046C296.42 171.003 296.444 170.945 296.444 170.885C296.444 170.825 296.42 170.767 296.378 170.724C296.357 170.703 296.332 170.686 296.305 170.674C296.277 170.663 296.247 170.657 296.217 170.657C296.187 170.657 296.158 170.663 296.13 170.674C296.103 170.686 296.078 170.703 296.056 170.724L293.722 173.059V170.429C293.722 170.369 293.698 170.312 293.655 170.269C293.613 170.227 293.555 170.203 293.495 170.203C293.435 170.204 293.378 170.228 293.336 170.27C293.294 170.313 293.269 170.37 293.268 170.429V173.059L290.938 170.71C290.917 170.689 290.892 170.672 290.864 170.661C290.837 170.649 290.807 170.643 290.777 170.643C290.747 170.643 290.717 170.649 290.69 170.661C290.662 170.672 290.637 170.689 290.616 170.71C290.574 170.754 290.551 170.811 290.551 170.871C290.551 170.931 290.574 170.989 290.616 171.032L292.951 173.363H290.321C290.262 173.364 290.205 173.388 290.162 173.43C290.12 173.473 290.096 173.53 290.095 173.589C290.095 173.649 290.119 173.707 290.161 173.75C290.204 173.792 290.261 173.816 290.321 173.816H292.951L290.616 176.151C290.574 176.194 290.551 176.252 290.551 176.312C290.551 176.372 290.574 176.43 290.616 176.473C290.66 176.513 290.717 176.536 290.777 176.536C290.837 176.536 290.894 176.513 290.938 176.473L293.268 174.138V176.763C293.268 176.823 293.292 176.881 293.335 176.923C293.377 176.966 293.435 176.99 293.495 176.99C293.555 176.99 293.613 176.966 293.655 176.923C293.698 176.881 293.722 176.823 293.722 176.763V174.138L296.056 176.473C296.1 176.513 296.158 176.536 296.217 176.536C296.277 176.536 296.335 176.513 296.378 176.473C296.42 176.43 296.444 176.372 296.444 176.312C296.444 176.252 296.42 176.194 296.378 176.151L294.044 173.816H296.669C296.729 173.816 296.786 173.792 296.829 173.75C296.871 173.707 296.895 173.649 296.895 173.589C296.892 173.532 296.866 173.477 296.824 173.438C296.782 173.398 296.726 173.376 296.669 173.376Z" fill="#008FFF"/>
<path d="M306.189 173.376H303.564L305.899 171.046C305.941 171.003 305.964 170.945 305.964 170.885C305.964 170.825 305.941 170.767 305.899 170.724C305.878 170.703 305.853 170.686 305.825 170.674C305.798 170.663 305.768 170.657 305.738 170.657C305.708 170.657 305.678 170.663 305.651 170.674C305.623 170.686 305.598 170.703 305.577 170.724L303.242 173.059V170.429C303.242 170.369 303.218 170.312 303.176 170.269C303.133 170.227 303.076 170.203 303.015 170.203C302.956 170.204 302.899 170.228 302.856 170.27C302.814 170.313 302.79 170.37 302.789 170.429V173.059L300.458 170.71C300.437 170.689 300.412 170.672 300.385 170.661C300.357 170.649 300.327 170.643 300.298 170.643C300.268 170.643 300.238 170.649 300.21 170.661C300.183 170.672 300.158 170.689 300.137 170.71C300.095 170.754 300.071 170.811 300.071 170.871C300.071 170.931 300.095 170.989 300.137 171.032L302.471 173.363H299.842C299.782 173.364 299.725 173.388 299.683 173.43C299.641 173.473 299.616 173.53 299.615 173.589C299.615 173.649 299.639 173.707 299.682 173.75C299.724 173.792 299.782 173.816 299.842 173.816H302.471L300.137 176.151C300.095 176.194 300.071 176.252 300.071 176.312C300.071 176.372 300.095 176.43 300.137 176.473C300.18 176.513 300.238 176.536 300.298 176.536C300.357 176.536 300.415 176.513 300.458 176.473L302.789 174.138V176.763C302.789 176.823 302.813 176.881 302.855 176.923C302.898 176.966 302.955 176.99 303.015 176.99C303.076 176.99 303.133 176.966 303.176 176.923C303.218 176.881 303.242 176.823 303.242 176.763V174.138L305.577 176.473C305.621 176.513 305.678 176.536 305.738 176.536C305.798 176.536 305.855 176.513 305.899 176.473C305.941 176.43 305.964 176.372 305.964 176.312C305.964 176.252 305.941 176.194 305.899 176.151L303.564 173.816H306.189C306.249 173.816 306.307 173.792 306.349 173.75C306.392 173.707 306.416 173.649 306.416 173.589C306.412 173.532 306.387 173.477 306.345 173.438C306.303 173.398 306.247 173.376 306.189 173.376Z" fill="#008FFF"/>
<path d="M315.711 173.376H313.086L315.42 171.046C315.462 171.003 315.486 170.945 315.486 170.885C315.486 170.825 315.462 170.767 315.42 170.724C315.399 170.703 315.374 170.686 315.347 170.674C315.319 170.663 315.289 170.657 315.259 170.657C315.229 170.657 315.2 170.663 315.172 170.674C315.145 170.686 315.12 170.703 315.098 170.724L312.764 173.059V170.429C312.764 170.369 312.74 170.312 312.697 170.269C312.655 170.227 312.597 170.203 312.537 170.203C312.477 170.204 312.42 170.228 312.378 170.27C312.336 170.313 312.311 170.37 312.31 170.429V173.059L309.98 170.71C309.959 170.689 309.934 170.672 309.906 170.661C309.879 170.649 309.849 170.643 309.819 170.643C309.789 170.643 309.759 170.649 309.732 170.661C309.704 170.672 309.679 170.689 309.658 170.71C309.616 170.754 309.593 170.811 309.593 170.871C309.593 170.931 309.616 170.989 309.658 171.032L311.993 173.363H309.363C309.304 173.364 309.247 173.388 309.204 173.43C309.162 173.473 309.138 173.53 309.137 173.589C309.137 173.649 309.161 173.707 309.203 173.75C309.246 173.792 309.303 173.816 309.363 173.816H311.993L309.658 176.151C309.616 176.194 309.593 176.252 309.593 176.312C309.593 176.372 309.616 176.43 309.658 176.473C309.702 176.513 309.759 176.536 309.819 176.536C309.879 176.536 309.936 176.513 309.98 176.473L312.31 174.138V176.763C312.31 176.823 312.334 176.881 312.377 176.923C312.419 176.966 312.477 176.99 312.537 176.99C312.597 176.99 312.655 176.966 312.697 176.923C312.74 176.881 312.764 176.823 312.764 176.763V174.138L315.098 176.473C315.142 176.513 315.2 176.536 315.259 176.536C315.319 176.536 315.377 176.513 315.42 176.473C315.462 176.43 315.486 176.372 315.486 176.312C315.486 176.252 315.462 176.194 315.42 176.151L313.086 173.816H315.711C315.771 173.816 315.828 173.792 315.871 173.75C315.913 173.707 315.937 173.649 315.937 173.589C315.934 173.532 315.908 173.477 315.866 173.438C315.824 173.398 315.768 173.376 315.711 173.376Z" fill="#008FFF"/>
<path d="M325.231 173.376H322.606L324.941 171.046C324.983 171.003 325.006 170.945 325.006 170.885C325.006 170.825 324.983 170.767 324.941 170.724C324.92 170.703 324.895 170.686 324.867 170.674C324.839 170.663 324.81 170.657 324.78 170.657C324.75 170.657 324.72 170.663 324.693 170.674C324.665 170.686 324.64 170.703 324.619 170.724L322.284 173.059V170.429C322.284 170.369 322.26 170.312 322.218 170.269C322.175 170.227 322.118 170.203 322.057 170.203C321.998 170.204 321.941 170.228 321.898 170.27C321.856 170.313 321.832 170.37 321.831 170.429V173.059L319.5 170.71C319.479 170.689 319.454 170.672 319.427 170.661C319.399 170.649 319.369 170.643 319.34 170.643C319.31 170.643 319.28 170.649 319.252 170.661C319.225 170.672 319.2 170.689 319.179 170.71C319.137 170.754 319.113 170.811 319.113 170.871C319.113 170.931 319.137 170.989 319.179 171.032L321.513 173.363H318.884C318.824 173.364 318.767 173.388 318.725 173.43C318.683 173.473 318.658 173.53 318.657 173.589C318.657 173.649 318.681 173.707 318.724 173.75C318.766 173.792 318.824 173.816 318.884 173.816H321.513L319.179 176.151C319.137 176.194 319.113 176.252 319.113 176.312C319.113 176.372 319.137 176.43 319.179 176.473C319.222 176.513 319.28 176.536 319.34 176.536C319.399 176.536 319.457 176.513 319.5 176.473L321.831 174.138V176.763C321.831 176.823 321.855 176.881 321.897 176.923C321.94 176.966 321.997 176.99 322.057 176.99C322.118 176.99 322.175 176.966 322.218 176.923C322.26 176.881 322.284 176.823 322.284 176.763V174.138L324.619 176.473C324.663 176.513 324.72 176.536 324.78 176.536C324.84 176.536 324.897 176.513 324.941 176.473C324.983 176.43 325.006 176.372 325.006 176.312C325.006 176.252 324.983 176.194 324.941 176.151L322.606 173.816H325.231C325.291 173.816 325.349 173.792 325.391 173.75C325.434 173.707 325.458 173.649 325.458 173.589C325.454 173.532 325.429 173.477 325.387 173.438C325.345 173.398 325.289 173.376 325.231 173.376Z" fill="#008FFF"/>
<path d="M334.752 173.376H332.127L334.461 171.046C334.503 171.003 334.527 170.945 334.527 170.885C334.527 170.825 334.503 170.767 334.461 170.724C334.44 170.703 334.415 170.686 334.388 170.674C334.36 170.663 334.33 170.657 334.3 170.657C334.271 170.657 334.241 170.663 334.213 170.674C334.186 170.686 334.161 170.703 334.139 170.724L331.805 173.059V170.429C331.805 170.369 331.781 170.312 331.738 170.269C331.696 170.227 331.638 170.203 331.578 170.203C331.518 170.204 331.461 170.228 331.419 170.27C331.377 170.313 331.352 170.37 331.351 170.429V173.059L329.021 170.71C329 170.689 328.975 170.672 328.947 170.661C328.92 170.649 328.89 170.643 328.86 170.643C328.83 170.643 328.8 170.649 328.773 170.661C328.745 170.672 328.72 170.689 328.699 170.71C328.657 170.754 328.634 170.811 328.634 170.871C328.634 170.931 328.657 170.989 328.699 171.032L331.034 173.363H328.404C328.345 173.364 328.288 173.388 328.245 173.43C328.203 173.473 328.179 173.53 328.178 173.589C328.178 173.649 328.202 173.707 328.244 173.75C328.287 173.792 328.344 173.816 328.404 173.816H331.034L328.699 176.151C328.657 176.194 328.634 176.252 328.634 176.312C328.634 176.372 328.657 176.43 328.699 176.473C328.743 176.513 328.8 176.536 328.86 176.536C328.92 176.536 328.977 176.513 329.021 176.473L331.351 174.138V176.763C331.351 176.823 331.375 176.881 331.418 176.923C331.46 176.966 331.518 176.99 331.578 176.99C331.638 176.99 331.696 176.966 331.738 176.923C331.781 176.881 331.805 176.823 331.805 176.763V174.138L334.139 176.473C334.183 176.513 334.241 176.536 334.3 176.536C334.36 176.536 334.418 176.513 334.461 176.473C334.503 176.43 334.527 176.372 334.527 176.312C334.527 176.252 334.503 176.194 334.461 176.151L332.127 173.816H334.752C334.812 173.816 334.869 173.792 334.912 173.75C334.954 173.707 334.978 173.649 334.978 173.589C334.975 173.532 334.949 173.477 334.907 173.438C334.865 173.398 334.809 173.376 334.752 173.376Z" fill="#008FFF"/>
<path d="M344.272 173.376H341.647L343.982 171.046C344.024 171.003 344.047 170.945 344.047 170.885C344.047 170.825 344.024 170.767 343.982 170.724C343.961 170.703 343.936 170.686 343.908 170.674C343.88 170.663 343.851 170.657 343.821 170.657C343.791 170.657 343.761 170.663 343.734 170.674C343.706 170.686 343.681 170.703 343.66 170.724L341.325 173.059V170.429C341.325 170.369 341.301 170.312 341.259 170.269C341.216 170.227 341.159 170.203 341.098 170.203C341.039 170.204 340.982 170.228 340.939 170.27C340.897 170.313 340.873 170.37 340.872 170.429V173.059L338.541 170.71C338.52 170.689 338.495 170.672 338.468 170.661C338.44 170.649 338.41 170.643 338.381 170.643C338.351 170.643 338.321 170.649 338.293 170.661C338.266 170.672 338.241 170.689 338.22 170.71C338.178 170.754 338.154 170.811 338.154 170.871C338.154 170.931 338.178 170.989 338.22 171.032L340.554 173.363H337.925C337.865 173.364 337.808 173.388 337.766 173.43C337.724 173.473 337.699 173.53 337.698 173.589C337.698 173.649 337.722 173.707 337.765 173.75C337.807 173.792 337.865 173.816 337.925 173.816H340.554L338.22 176.151C338.178 176.194 338.154 176.252 338.154 176.312C338.154 176.372 338.178 176.43 338.22 176.473C338.263 176.513 338.321 176.536 338.381 176.536C338.44 176.536 338.498 176.513 338.541 176.473L340.872 174.138V176.763C340.872 176.823 340.896 176.881 340.938 176.923C340.981 176.966 341.038 176.99 341.098 176.99C341.159 176.99 341.216 176.966 341.259 176.923C341.301 176.881 341.325 176.823 341.325 176.763V174.138L343.66 176.473C343.704 176.513 343.761 176.536 343.821 176.536C343.881 176.536 343.938 176.513 343.982 176.473C344.024 176.43 344.047 176.372 344.047 176.312C344.047 176.252 344.024 176.194 343.982 176.151L341.647 173.816H344.272C344.332 173.816 344.39 173.792 344.432 173.75C344.475 173.707 344.499 173.649 344.499 173.589C344.495 173.532 344.47 173.477 344.428 173.438C344.386 173.398 344.33 173.376 344.272 173.376Z" fill="#008FFF"/>
<g opacity="0.1">
<path opacity="0.1" d="M388.484 221.777C387.453 226.7 386.028 231.532 384.223 236.226C384.535 235.605 384.798 234.952 385.048 234.304C386.865 229.592 388.298 224.74 389.332 219.796C390.624 213.63 391.118 206.649 387.355 201.594C386.449 200.388 385.284 199.082 385.324 197.667C384.989 198.095 384.729 198.577 384.554 199.091C384.1 200.728 385.488 202.219 386.503 203.579C390.266 208.625 389.772 215.616 388.484 221.777Z" fill="black"/>
<path opacity="0.1" d="M386.132 195.741C386.496 195.289 386.767 194.77 386.93 194.213C387 193.539 386.982 192.86 386.875 192.191C386.526 192.454 386.264 192.815 386.123 193.229C385.855 194.032 386.164 194.902 386.132 195.741Z" fill="black"/>
<path opacity="0.1" d="M413.152 236.58C412.852 237.04 412.44 237.418 411.955 237.677C411.322 237.901 410.636 237.935 409.983 237.776C406.95 237.323 403.636 236.389 400.952 237.854C399.497 238.642 398.368 240.075 396.749 240.438C394.07 241.036 391.785 238.466 389.137 237.718C387.26 237.196 385.284 237.627 383.393 238.171C383.018 238.972 382.51 239.705 381.893 240.338C383.978 239.74 386.195 239.137 388.285 239.717C390.933 240.451 393.218 243.022 395.902 242.437C397.516 242.079 398.649 240.646 400.1 239.853C402.82 238.389 406.098 239.309 409.131 239.78C409.784 239.935 410.468 239.9 411.103 239.681C411.588 239.42 412 239.041 412.3 238.579C413.121 237.495 413.756 236.282 414.177 234.988C413.874 235.543 413.531 236.074 413.152 236.58Z" fill="black"/>
</g>
</g>
<defs>
<clipPath id="clip0">
<rect width="528.701" height="365" fill="white"/>
</clipPath>
</defs>
</svg>
