<svg width="607" height="365" viewBox="0 0 607 365" fill="none" xmlns="http://www.w3.org/2000/svg">
<g clip-path="url(#clip0)">
<path d="M412.361 208.369L417.558 207.471C418.057 207.383 418.552 207.277 419.05 207.187C410.823 202.08 404.579 194.328 401.341 185.203C398.104 176.077 398.067 166.123 401.236 156.973C404.405 147.824 410.591 140.025 418.779 134.858C426.967 129.69 436.669 127.461 446.292 128.537L439.479 144.747L455.619 130.654C455.657 130.663 455.694 130.676 455.729 130.691C461.014 132.552 465.881 135.436 470.052 139.179C474.222 142.921 477.615 147.448 480.035 152.502C482.456 157.555 483.858 163.036 484.16 168.631C484.463 174.226 483.66 179.826 481.799 185.111C481.529 185.88 481.207 186.613 480.899 187.356C485.455 185.067 489.826 182.402 493.391 178.989C500.607 172.074 504.561 162.532 508.979 150.776C517.733 127.479 526.161 103.845 534.252 80.1591C525.328 75.3298 518.417 67.4767 514.763 58.0103C511.108 48.544 510.949 38.0847 514.313 28.5113C514.746 27.2796 515.249 26.0936 515.781 24.9288C515.914 24.6373 516.048 24.3476 516.187 24.0603C516.728 22.9436 517.3 21.8494 517.926 20.7994C518.029 20.6272 518.144 20.4661 518.248 20.2958C518.794 19.4105 519.369 18.5513 519.974 17.7183C520.2 17.4056 520.424 17.0937 520.658 16.7884C521.343 15.8916 522.054 15.0188 522.803 14.1857C523.053 13.9069 523.319 13.6464 523.575 13.3749C524.151 12.7677 524.742 12.1789 525.349 11.6084C525.669 11.308 525.986 11.0055 526.314 10.7158C526.398 10.6415 526.477 10.5604 526.562 10.4866C526.566 10.4921 526.569 10.4979 526.574 10.5033C534.089 3.95388 543.662 0.244907 553.628 0.0210165C563.595 -0.202874 573.324 3.07246 581.127 9.27777L572.262 30.3723L588.218 16.4472C593.802 23.5616 596.967 32.2742 597.251 41.314C597.535 50.3538 594.922 59.2477 589.795 66.6983C589.81 66.7035 589.825 66.7075 589.84 66.7126C589.666 66.9687 589.468 67.203 589.289 67.4545C588.952 67.9265 588.608 68.3901 588.255 68.8453C587.802 69.429 587.331 69.9932 586.851 70.5496C586.488 70.9697 586.13 71.3932 585.752 71.7972C585.2 72.3883 584.621 72.9479 584.038 73.5044C583.698 73.829 583.373 74.1701 583.023 74.4828C582.106 75.3021 581.157 76.0795 580.176 76.815C579.832 77.0726 579.47 77.2998 579.119 77.5465C578.43 78.0308 577.738 78.508 577.023 78.9499C576.58 79.2241 576.124 79.4746 575.672 79.7323C575.016 80.1056 574.356 80.4673 573.682 80.8052C573.204 81.0447 572.723 81.2721 572.237 81.4936C571.545 81.809 570.844 82.1014 570.136 82.3798C569.661 82.5664 569.189 82.7554 568.707 82.925C567.912 83.2049 567.106 83.4481 566.295 83.6809C565.885 83.7986 565.482 83.9332 565.069 84.0385C563.852 84.3489 562.622 84.6131 561.377 84.8155C561.143 84.8537 560.905 84.8681 560.67 84.9023C559.638 85.0524 558.601 85.1735 557.555 85.2476C557.106 85.2792 556.654 85.2838 556.203 85.3013C555.358 85.3342 554.512 85.351 553.661 85.3328C553.165 85.3223 552.669 85.2966 552.172 85.2686C551.344 85.2217 550.515 85.1496 549.685 85.0522C549.195 84.9954 548.706 84.939 548.215 84.8647C547.326 84.7298 546.438 84.5534 545.55 84.3603C545.492 84.3476 545.433 84.3399 545.375 84.327C541.96 94.3196 538.481 104.291 534.94 114.241C539.259 110.356 544.327 107.396 549.832 105.541C555.337 103.685 561.163 102.974 566.952 103.452C572.742 103.929 578.373 105.584 583.5 108.316C588.626 111.047 593.141 114.798 596.766 119.337L582.015 135.651L601.987 127.678C606.839 137.851 607.453 149.534 603.694 160.159C602.392 163.893 600.568 167.423 598.275 170.645C593.34 177.625 586.422 182.961 578.417 185.961C570.413 188.961 561.692 189.487 553.385 187.47C545.078 185.453 537.569 180.986 531.832 174.65C526.095 168.313 522.394 160.398 521.21 151.933C520.834 152.935 520.472 153.95 520.096 154.952C516.196 165.323 511.346 178.231 501.604 187.563C495.001 193.888 486.876 197.901 479.082 201.293C474.006 203.502 468.863 205.545 463.652 207.42C457.859 210.933 451.314 213.018 444.557 213.506C436.335 215.79 428.01 217.696 419.606 219.168L414.366 220.072C409.657 220.878 404.828 221.709 400.036 222.666C400.726 222.87 401.417 223.066 402.104 223.307C410.643 226.313 418.005 231.955 423.126 239.419C428.248 246.884 430.864 255.783 430.596 264.831L397.746 274.914L427.471 279.635C424.752 286.317 420.383 292.202 414.773 296.738C409.163 301.275 402.495 304.316 395.391 305.576C388.288 306.837 380.98 306.277 374.152 303.948C367.323 301.619 361.196 297.597 356.344 292.258C356.645 293.269 356.948 294.278 357.253 295.286C357.856 297.289 358.455 299.28 359.03 301.252C366.851 328.129 363.485 349.271 349.549 360.781L341.987 351.627C355.551 340.423 351.343 317.336 347.629 304.569C347.065 302.632 346.476 300.676 345.883 298.709C340.788 281.784 335.013 262.6 342.493 244.972C353.766 218.402 386.255 212.839 412.361 208.369Z" fill="#F2F2F2"/>
<path d="M402.733 364.228H172.57C165.022 364.228 157.784 361.23 152.447 355.893C147.11 350.556 144.111 343.317 144.111 335.77V230.32C144.111 228.789 144.423 227.274 145.028 225.867C145.633 224.46 146.518 223.191 147.629 222.138L269.593 106.526C274.47 101.904 280.933 99.3276 287.652 99.3276C294.371 99.3276 300.834 101.904 305.71 106.526L421.996 216.756C424.901 219.509 427.215 222.826 428.796 226.503C430.377 230.18 431.192 234.141 431.192 238.144V335.77C431.192 339.507 430.456 343.208 429.026 346.66C427.596 350.113 425.499 353.25 422.857 355.893C420.214 358.536 417.077 360.632 413.624 362.062C410.171 363.492 406.471 364.228 402.733 364.228Z" fill="#3F3D56"/>
<path opacity="0.1" d="M144.111 232.052H428.8V347.044C428.8 351.602 426.989 355.973 423.767 359.195C420.544 362.418 416.173 364.229 411.615 364.229H161.296C156.738 364.229 152.367 362.418 149.144 359.195C145.922 355.973 144.111 351.602 144.111 347.044V232.052Z" fill="black"/>
<path d="M377.555 141.442H197.15C188.502 141.442 181.491 148.453 181.491 157.101V337.506C181.491 346.154 188.502 353.164 197.15 353.164H377.555C386.203 353.164 393.213 346.154 393.213 337.506V157.101C393.213 148.453 386.203 141.442 377.555 141.442Z" fill="#008FFF"/>
<path opacity="0.1" d="M393.213 236.807V353.164H181.491V236.807L287.352 287.973L393.213 236.807Z" fill="black"/>
<path d="M287.353 294.552L151.711 228.991C150.872 228.586 149.944 228.4 149.013 228.451C148.083 228.502 147.181 228.789 146.391 229.284C145.602 229.78 144.951 230.467 144.5 231.283C144.049 232.098 143.813 233.015 143.813 233.946V346.745C143.812 349.002 144.257 351.236 145.121 353.321C145.984 355.406 147.25 357.3 148.846 358.896C150.441 360.492 152.336 361.758 154.421 362.621C156.506 363.485 158.74 363.929 160.997 363.929H413.709C415.966 363.929 418.2 363.485 420.285 362.621C422.37 361.758 424.264 360.492 425.86 358.896C427.456 357.3 428.721 355.406 429.585 353.321C430.449 351.236 430.893 349.002 430.893 346.745V235.879C430.893 234.742 430.604 233.623 430.054 232.628C429.504 231.633 428.71 230.794 427.746 230.19C426.783 229.585 425.682 229.236 424.547 229.173C423.411 229.111 422.279 229.337 421.255 229.832L287.353 294.552Z" fill="#3F3D56"/>
<path d="M258.944 160.88H199.733V169.253H258.944V160.88Z" fill="#F2F2F2"/>
<path d="M370.785 191.382H194.948V196.167H370.785V191.382Z" fill="#F2F2F2"/>
<path d="M370.785 207.53H194.948V212.315H370.785V207.53Z" fill="#F2F2F2"/>
<path d="M370.785 223.679H194.948V228.463H370.785V223.679Z" fill="#F2F2F2"/>
<path d="M36.4561 363.93H529.278" stroke="#3F3D56" stroke-miterlimit="10"/>
<path d="M0 290.282C0 325.545 22.1223 354.08 49.4612 354.08L0 290.282Z" fill="#46455B"/>
<path d="M49.4609 354.08C49.4609 318.421 74.1481 289.565 104.657 289.565L49.4609 354.08Z" fill="#008FFF"/>
<path d="M17.9209 293.479C17.9209 326.975 32.0279 354.08 49.4614 354.08L17.9209 293.479Z" fill="#008FFF"/>
<path d="M49.4609 354.08C49.4609 308.515 77.9955 271.645 113.259 271.645L49.4609 354.08Z" fill="#46455B"/>
<path d="M39.0557 354.53C39.0557 354.53 46.0701 354.314 48.1841 352.809C50.298 351.303 58.974 349.506 59.4984 351.92C60.0228 354.334 70.0398 363.927 62.1205 363.991C54.2013 364.055 43.7197 362.758 41.6098 361.472C39.4999 360.187 39.0557 354.53 39.0557 354.53Z" fill="#A8A8A8"/>
<path opacity="0.2" d="M62.2619 363.151C54.3426 363.215 43.8611 361.917 41.7512 360.632C40.1444 359.653 39.5041 356.141 39.2898 354.521C39.1415 354.527 39.0557 354.53 39.0557 354.53C39.0557 354.53 39.4999 360.187 41.6098 361.473C43.7197 362.758 54.2013 364.055 62.1205 363.991C64.4065 363.973 65.1961 363.16 65.1528 361.955C64.8352 362.683 63.9633 363.137 62.2619 363.151Z" fill="black"/>
<path d="M430.45 97.3506C430.09 100.553 427.648 103.133 426.743 106.226C425.38 110.881 427.736 115.876 430.958 119.502C433.558 122.396 436.706 124.746 440.221 126.415C443.736 128.084 447.546 129.038 451.433 129.223C452.574 129.324 453.725 129.198 454.818 128.854C455.794 128.462 456.673 127.861 457.393 127.094C459.82 124.658 461.123 121.282 461.642 117.883C462.161 114.483 461.959 111.02 461.756 107.587C461.757 106.878 461.628 106.174 461.376 105.511C461.045 104.879 460.59 104.32 460.039 103.868C458.292 102.265 456.368 100.867 454.304 99.7011C453.371 99.283 452.548 98.6534 451.9 97.8621C451.51 97.1842 451.258 96.436 451.157 95.6603L450.524 92.4313C450.411 91.5008 450.093 90.6069 449.593 89.8139C448.474 88.3038 446.333 88.0983 444.454 88.0247L437.573 87.7547C435.433 87.6708 432.613 87.057 430.523 87.4773C428.572 87.8699 429.22 89.6679 429.575 91.3051C430.089 93.2818 430.382 95.3093 430.45 97.3506Z" fill="#A0616A"/>
<path opacity="0.1" d="M430.45 97.3506C430.09 100.553 427.648 103.133 426.743 106.226C425.38 110.881 427.736 115.876 430.958 119.502C433.558 122.396 436.706 124.746 440.221 126.415C443.736 128.084 447.546 129.038 451.433 129.223C452.574 129.324 453.725 129.198 454.818 128.854C455.794 128.462 456.673 127.861 457.393 127.094C459.82 124.658 461.123 121.282 461.642 117.883C462.161 114.483 461.959 111.02 461.756 107.587C461.757 106.878 461.628 106.174 461.376 105.511C461.045 104.879 460.59 104.32 460.039 103.868C458.292 102.265 456.368 100.867 454.304 99.7011C453.371 99.283 452.548 98.6534 451.9 97.8621C451.51 97.1842 451.258 96.436 451.157 95.6603L450.524 92.4313C450.411 91.5008 450.093 90.6069 449.593 89.8139C448.474 88.3038 446.333 88.0983 444.454 88.0247L437.573 87.7547C435.433 87.6708 432.613 87.057 430.523 87.4773C428.572 87.8699 429.22 89.6679 429.575 91.3051C430.089 93.2818 430.382 95.3093 430.45 97.3506Z" fill="black"/>
<path d="M474.222 241.496C473.247 252.185 472.272 262.872 471.298 273.558C470.534 281.967 469.756 290.411 468.26 298.712C467.743 301.573 467.137 304.419 466.418 307.24C464.419 315.074 461.519 322.73 460.584 330.76C460.554 330.991 460.53 331.228 460.505 331.464C460.4 333.24 460.064 334.994 459.506 336.683C459.038 337.909 458.319 339.027 457.812 340.238C456.803 342.66 456.67 345.339 456.546 347.963C452.996 345.966 449.109 344.638 445.079 344.044C443.135 343.753 440.968 343.547 439.644 342.094C438.177 340.489 438.339 338.032 438.585 335.876C439.358 329.18 440.13 322.487 440.899 315.797C441.151 312.919 441.64 310.067 442.362 307.27C442.628 306.339 442.948 305.423 443.272 304.508C443.721 303.247 444.174 301.987 444.513 300.692C445.003 298.6 445.345 296.476 445.537 294.335C446.33 287.6 447.285 280.879 448.122 274.149L448.167 273.794C449.422 263.593 450.377 253.342 450.102 243.066C450.062 241.545 449.998 240.023 449.9 238.497C449.762 236.286 449.56 235.115 451.391 233.731C453.415 232.205 456.079 231.136 458.393 230.137C459.638 229.595 473.356 224.726 473.676 225.794C474.319 228.073 474.657 230.428 474.68 232.796C474.69 235.702 474.537 238.606 474.222 241.496Z" fill="#605D82"/>
<path opacity="0.1" d="M468.26 298.712C467.743 301.573 467.137 304.419 466.418 307.24C464.419 315.073 461.519 322.729 460.584 330.76C460.554 330.991 460.53 331.227 460.505 331.464C454.39 322.729 449.24 313.335 443.272 304.507C443.72 303.247 444.173 301.986 444.513 300.691C445.003 298.599 445.345 296.475 445.537 294.335C446.33 287.6 447.285 280.879 448.122 274.148L448.167 273.794C448.517 275.223 449.017 276.611 449.658 277.935C453.666 286.078 463.188 290.194 467.846 297.988C467.989 298.23 468.127 298.471 468.26 298.712Z" fill="black"/>
<path d="M418.64 227.104C418.842 233.636 419.888 240.108 420.931 246.559L423.084 259.869C424.262 267.153 425.489 274.586 428.936 281.111C431.515 285.991 435.23 290.156 438.591 294.535C446.854 305.299 453.061 317.493 460.896 328.573C463.173 331.794 466.428 335.276 470.315 334.604C472.866 334.163 474.719 332.039 476.724 330.401C479.088 328.471 481.937 327.058 483.797 324.638C485.657 322.219 486.021 318.196 483.501 316.475C482.589 315.969 481.621 315.573 480.617 315.294C476.711 313.809 474.182 309.994 472.573 306.137C470.965 302.279 469.99 298.132 467.846 294.544C463.189 286.75 453.665 282.634 449.656 274.488C447.411 269.925 447.197 264.666 447.026 259.584L446.588 246.628C446.54 245.211 446.503 243.738 447.079 242.442C448.612 238.994 453.242 238.672 456.991 238.235C461.246 237.737 465.367 236.436 469.138 234.403C471.297 233.237 473.407 231.75 474.562 229.585C475.616 227.61 475.761 225.293 475.885 223.058L477.183 199.578C477.294 197.558 477.396 195.47 476.684 193.576C474.897 188.821 468.892 187.267 463.817 187.494C454.373 187.916 445.655 191.979 436.751 194.722C434.546 195.418 432.306 196.002 430.042 196.472C428.044 196.873 425.625 196.706 423.719 197.349C420.33 198.492 420.416 205.904 419.935 208.979C418.942 214.968 418.509 221.035 418.64 227.104Z" fill="#605D82"/>
<path d="M469.032 335.588C469.865 336.428 470.137 337.658 470.354 338.821C471.557 345.27 472.183 351.814 472.224 358.374C472.168 358.986 472.29 359.601 472.576 360.146C472.81 360.47 473.128 360.726 473.495 360.885C475.902 362.032 478.696 360.433 480.701 358.676C484.419 355.42 487.565 351.048 487.776 346.11C487.738 344.838 487.782 343.565 487.91 342.299C488.236 340.44 489.322 338.82 490.279 337.193C491.906 334.423 493.219 331.48 494.193 328.418C494.559 327.267 494.802 325.819 493.901 325.016C493.581 324.766 493.218 324.577 492.829 324.459L481.957 320.422C481.015 320.073 478.67 326.095 478.298 326.753C477.388 328.364 476.483 329.278 474.657 329.65C472.793 330.029 470.574 329.485 468.835 330.415C465.892 331.988 467.366 333.908 469.032 335.588Z" fill="#535070"/>
<path d="M452.256 339.305C452.054 338.903 451.773 338.546 451.429 338.255C450.925 337.936 450.353 337.742 449.759 337.688C447.69 337.337 445.236 337.105 443.808 338.644C442.468 340.086 442.699 342.436 441.579 344.055C441.224 344.567 440.744 344.99 440.437 345.532C440.055 346.36 439.883 347.27 439.936 348.18C439.878 350.69 439.82 353.203 439.994 355.707C440.139 357.805 440.492 360.003 441.804 361.647C443.91 364.285 447.708 364.665 451.08 364.836L453.81 364.975C454.562 365.066 455.325 364.996 456.048 364.769C456.495 364.563 456.897 364.268 457.228 363.903C457.56 363.539 457.815 363.111 457.978 362.646C459.399 359.113 457.148 355.307 455.762 351.761C454.168 347.685 454.454 343.159 452.256 339.305Z" fill="#535070"/>
<path d="M429.659 79.306C429.625 78.9479 429.678 78.5869 429.812 78.2533C430.212 77.5462 431.256 77.7386 432.044 77.9372C435.212 78.7359 438.55 78.0129 441.812 78.1995C445.074 78.3861 448.748 80.0167 449.403 83.2172C451.771 81.5389 453.812 79.4419 455.425 77.0298C456.331 75.6752 457.12 74.1235 456.996 72.4989C456.819 70.1556 454.853 68.4032 453.032 66.917L447.606 62.487C446.893 61.8325 446.071 61.3094 445.176 60.9423C443.923 60.5141 442.556 60.7181 441.232 60.7189C437.282 60.7215 433.07 58.9237 429.557 60.7297C428.089 61.484 426.985 62.7768 425.92 64.0373L421.077 69.7704C420.712 70.1358 420.446 70.5874 420.302 71.0833C420.165 71.7831 420.524 72.4738 420.649 73.1759C420.878 74.4567 420.327 75.8236 420.751 77.0536C421.455 79.0955 423.934 79.3846 425.45 80.5552C426.015 80.9915 426.9 82.4701 427.573 82.4521C428.788 82.4195 429.627 80.2495 429.659 79.306Z" fill="#3F3D56"/>
<path d="M437.876 96.2055C446.442 96.2055 453.386 89.2618 453.386 80.6963C453.386 72.1307 446.442 65.187 437.876 65.187C429.311 65.187 422.367 72.1307 422.367 80.6963C422.367 89.2618 429.311 96.2055 437.876 96.2055Z" fill="#A0616A"/>
<path d="M441.509 114.639C440.983 113.132 439.99 111.831 438.675 110.926C437.36 110.021 435.791 109.559 434.195 109.606C433.739 109.691 433.267 109.631 432.846 109.435C432.608 109.252 432.418 109.014 432.291 108.742C431.348 107.046 430.59 105.254 430.03 103.396C429.783 102.575 429.444 101.607 428.614 101.394C428.27 101.349 427.921 101.398 427.603 101.536C427.285 101.675 427.01 101.897 426.809 102.179C426.414 102.747 425.983 103.289 425.518 103.801C423.568 105.545 420.11 103.955 418.04 105.555C417.702 105.816 417.422 106.151 417.067 106.389C416.712 106.603 416.329 106.767 415.929 106.877C411.931 108.182 408.011 109.717 404.19 111.475C405.568 119.768 406.979 128.206 410.207 135.969C411.743 139.663 413.484 143.281 414.714 147.088C417.439 155.523 417.56 164.549 417.591 173.413C417.612 179.48 417.582 185.677 415.619 191.417C415.091 192.686 414.719 194.014 414.51 195.372C414.392 196.74 414.79 198.249 415.898 199.059C416.541 199.479 417.276 199.738 418.04 199.811C421.441 200.311 424.87 199.405 428.219 198.63C437.195 196.551 446.35 195.362 455.487 194.175L470.798 192.187C471.896 192.113 472.97 191.835 473.966 191.368C476.767 189.834 477.033 185.62 475.294 182.941C474.459 181.657 473.283 180.604 472.582 179.242C471.881 177.88 471.821 175.977 473.028 175.033C475.482 173.115 474.75 169.556 474.867 166.444C475.194 157.74 475.15 149.033 474.734 140.323C474.611 138.519 474.582 136.711 474.648 134.905C474.92 131.845 475.485 128.817 476.336 125.865L480.989 107.547C479.773 105.626 477.446 104.408 475.242 103.855C473.037 103.302 470.741 103.139 468.57 102.466C464.123 101.088 460.163 97.5904 455.519 97.9163C455.167 97.9227 454.822 98.007 454.507 98.1634C453.46 98.7568 453.625 100.266 453.558 101.469C453.41 104.128 451.454 106.351 449.294 107.909C447.134 109.468 444.667 110.604 442.682 112.382C442.331 112.647 442.043 112.987 441.84 113.377C441.637 113.768 441.524 114.199 441.509 114.639Z" fill="#3F3D56"/>
<path d="M380.056 132.014C379.028 132.681 377.935 133.244 376.794 133.693C375.677 134.025 374.621 134.537 373.669 135.209C373.23 135.589 372.862 136.043 372.582 136.552C372.057 137.483 371.792 138.538 371.814 139.606C371.835 140.675 372.144 141.718 372.706 142.627C373.269 143.536 374.065 144.277 375.012 144.773C375.958 145.269 377.021 145.502 378.088 145.448C379.507 145.289 380.886 144.878 382.16 144.234L393.099 139.493C394.95 138.691 396.95 137.751 397.825 135.933C397.927 135.763 397.965 135.563 397.932 135.368C397.843 135.161 397.684 134.994 397.482 134.895C395.015 133.293 392.857 131.258 391.113 128.889C390.664 128.28 390.115 126.841 389.48 126.476C387.165 125.142 381.91 130.811 380.056 132.014Z" fill="#A0616A"/>
<path d="M496.998 128.125L501.031 132.732C501.897 133.721 502.763 134.711 503.553 135.762C505.491 138.433 507.045 141.362 508.172 144.464C509.048 146.764 509.776 149.214 509.47 151.657C509.266 152.909 508.928 154.136 508.461 155.315C507.722 157.584 506.805 159.79 505.72 161.915C504.808 163.53 503.777 165.074 502.637 166.537C499.514 170.675 496.097 174.583 492.413 178.231C491.034 179.595 490.456 181.802 489.856 183.647C488.749 187.05 486.115 189.701 483.568 192.214C482.749 193.078 481.844 193.857 480.867 194.537C479.404 195.48 477.694 195.967 475.953 195.937C475.192 195.942 474.437 195.786 473.74 195.479C471.997 194.651 471.111 192.635 470.929 190.714C470.767 188.971 471.059 187.215 471.777 185.618C474.092 180.491 480.035 178.27 484.235 174.529C486.698 172.336 488.582 169.581 490.44 166.856C491.702 165.154 492.755 163.307 493.578 161.355C494.516 158.852 494.151 155.889 494.97 153.344C495.317 152.269 495.933 151.298 496.305 150.231C496.678 149.164 496.772 147.898 496.12 146.975C495.628 146.388 495.002 145.929 494.294 145.638C491.61 144.276 488.605 142.523 488.091 139.558C487.887 137.913 488.316 136.253 489.293 134.914C490.266 133.593 491.403 132.401 492.677 131.367C493.851 130.33 495.824 129.162 496.998 128.125Z" fill="#A0616A"/>
<path d="M377.467 138.445C376.754 137.007 375.864 135.539 374.427 134.824C373.731 134.521 372.98 134.364 372.22 134.36C371.461 134.357 370.708 134.509 370.009 134.805C368.616 135.406 367.311 136.195 366.132 137.15L362.656 139.712C361.868 140.229 361.17 140.873 360.592 141.617C360.044 142.52 359.678 143.522 359.517 144.566C358.911 146.947 358.726 149.416 358.971 151.861C359.522 155.781 361.886 159.203 364.487 162.187C366.113 164.052 368.12 165.934 370.592 166.013C371.659 166.047 372.846 165.627 373.29 164.656C373.444 164.271 373.525 163.861 373.531 163.446C373.798 159.074 372.234 154.803 370.41 150.82C369.828 149.777 369.485 148.618 369.404 147.427C369.391 147.227 369.443 147.027 369.552 146.859C369.71 146.695 369.92 146.592 370.146 146.569C372.642 146.075 376.942 148.015 378.693 145.242C379.829 143.445 378.273 140.075 377.467 138.445Z" fill="#A0616A"/>
<path d="M428.845 74.4256C428.812 74.0675 428.865 73.7066 428.999 73.3729C429.399 72.6658 430.443 72.8583 431.231 73.0569C434.399 73.8555 437.737 73.1326 440.998 73.3192C444.26 73.5058 447.934 75.1363 448.59 78.3369C450.957 76.6585 452.998 74.5616 454.612 72.1495C455.517 70.7948 456.306 69.2431 456.183 67.6185C456.005 65.2753 454.039 63.5228 452.219 62.0367L446.792 57.6067C446.08 56.9521 445.257 56.4291 444.362 56.0619C443.109 55.6337 441.743 55.8377 440.418 55.8386C436.468 55.8411 432.257 54.0434 428.743 55.8493C427.276 56.6037 426.171 57.8964 425.106 59.1569L420.263 64.8901C419.899 65.2555 419.632 65.7071 419.489 66.2029C419.351 66.9028 419.711 67.5934 419.836 68.2955C420.065 69.5763 419.513 70.9433 419.937 72.1733C420.641 74.2152 423.121 74.5042 424.636 75.6749C425.201 76.1112 426.087 77.5898 426.76 77.5717C427.974 77.5391 428.814 75.3691 428.845 74.4256Z" fill="#3F3D56"/>
<path d="M395.905 116.929C395.278 117.332 394.729 117.844 394.281 118.44C393.713 119.299 393.597 120.385 393.109 121.293C392.063 123.235 389.619 123.926 388.094 125.519C387.851 125.738 387.683 126.027 387.612 126.346C387.604 126.779 387.749 127.2 388.021 127.536L395.376 139.098C397.824 139.314 400.174 137.779 402.623 137.983C403.538 138.059 404.474 138.375 405.351 138.105C405.979 137.826 406.568 137.466 407.102 137.034C408.563 136.11 410.51 136.002 411.736 134.783C412.912 133.613 413.063 131.782 413.049 130.123C413.068 128.682 412.922 127.243 412.611 125.836C411.529 121.398 408.135 117.992 406.007 114.061C404.971 112.147 404.407 111.027 402.215 112.341C400.011 113.662 397.979 115.412 395.905 116.929Z" fill="#3F3D56"/>
<path d="M485.224 111.082C486.606 111.979 487.852 113.071 488.923 114.322C490.044 115.767 490.678 117.535 491.755 119.013C492.798 120.445 494.218 121.555 495.401 122.874C497.196 124.874 498.411 127.315 499.605 129.722C496.689 133.525 493.511 137.118 490.092 140.474C489.711 140.923 489.21 141.252 488.647 141.424C488.264 141.465 487.878 141.41 487.521 141.264C487.165 141.119 486.85 140.888 486.605 140.591C486.075 140.036 485.7 139.351 485.194 138.774C483.998 137.541 482.406 136.77 480.697 136.599C479.004 136.435 477.3 136.412 475.603 136.529C475.23 136.57 474.853 136.507 474.515 136.346C474.263 136.172 474.059 135.938 473.921 135.665C471.93 132.277 472.57 128.023 473.273 124.156L474.885 115.283C475.118 113.588 475.569 111.931 476.227 110.352C476.837 109.047 478.202 106.834 479.881 107.225C481.574 107.619 483.8 110.058 485.224 111.082Z" fill="#3F3D56"/>
<path d="M190.164 169.342C203.707 169.342 214.686 158.344 214.686 144.776C214.686 131.209 203.707 120.21 190.164 120.21C176.621 120.21 165.643 131.209 165.643 144.776C165.643 158.344 176.621 169.342 190.164 169.342Z" fill="white"/>
<path d="M190.164 116.023C184.367 116.023 178.701 117.742 173.882 120.962C169.063 124.183 165.306 128.76 163.088 134.115C160.87 139.47 160.29 145.362 161.421 151.047C162.551 156.732 165.342 161.954 169.441 166.052C173.54 170.151 178.761 172.942 184.446 174.073C190.131 175.203 196.024 174.623 201.379 172.405C206.734 170.187 211.311 166.431 214.531 161.611C217.751 156.792 219.47 151.126 219.47 145.33C219.447 137.564 216.352 130.123 210.861 124.632C205.37 119.141 197.929 116.046 190.164 116.023ZM184.147 160.955L169.128 145.935L173.341 141.723L184.161 152.543L207.001 129.704L211.213 133.917L184.147 160.955L184.147 160.955Z" fill="#57B894"/>
</g>
<defs>
<clipPath id="clip0">
<rect width="606.129" height="365" fill="white"/>
</clipPath>
</defs>
</svg>
