<svg width="416" height="366" viewBox="0 0 416 366" fill="none" xmlns="http://www.w3.org/2000/svg">
<g clip-path="url(#clip0)">
<path d="M374.546 203.258C374.479 208.712 374.237 214.821 373.694 221.259L388.914 201.672L389.021 201.978C387.776 197.558 385.932 193.341 383.546 189.451L383.667 189.739L374.546 203.258Z" fill="#57B894"/>
<path d="M374.556 202.301L383.39 189.206C380.851 185.257 377.809 182.199 374.334 180.334C374.154 180.237 373.972 180.146 373.791 180.057C373.926 181.533 374.663 190.203 374.556 202.301Z" fill="#57B894"/>
<path d="M390.817 240.317C391.191 238.033 391.481 235.755 391.688 233.481L368.736 252.087L368.705 251.922C368.359 253.264 367.999 254.583 367.624 255.879L390.763 239.955L390.817 240.317Z" fill="#57B894"/>
<path d="M371.354 239.558L391.897 219.909L391.977 220.249C391.713 214.173 390.752 208.151 389.116 202.309L373.605 222.269C373.07 228.3 372.32 234.063 371.354 239.558Z" fill="#57B894"/>
<path d="M373.215 221.93L345.737 193.748L345.856 193.403C343.628 197.074 341.764 200.968 340.294 205.025L371.563 235.632C372.308 230.848 372.839 226.227 373.215 221.93Z" fill="#57B894"/>
<path d="M370.846 239.914C371.056 238.745 371.253 237.584 371.437 236.431L340.053 205.711L340.168 205.364C339.649 206.794 339.162 208.269 338.707 209.79L338.821 209.443L370.846 239.914Z" fill="#57B894"/>
<path d="M368.9 251.141L391.661 232.691L391.728 233.044C392.087 228.923 392.177 224.781 391.996 220.648L371.176 240.563C370.512 244.223 369.754 247.749 368.9 251.141Z" fill="#57B894"/>
<path d="M336.527 238.663L362.263 269.456C364.009 265.416 365.519 261.272 366.785 257.046L335.811 227.138C335.744 231.112 335.934 235.087 336.382 239.035L336.527 238.663Z" fill="#57B894"/>
<path d="M373.353 180.056L373.562 179.944C368.159 177.367 362.503 178.016 357.229 181.271L374.134 202.305C374.246 189.215 373.366 180.185 373.353 180.056Z" fill="#57B894"/>
<path d="M366.969 258.081C365.804 261.885 364.439 265.621 362.881 269.271L386.231 254.981L386.275 255.337C387.911 252.067 389.14 248.596 389.93 245.007C390.235 243.595 390.506 242.182 390.743 240.767L367.328 256.88C367.209 257.281 367.091 257.685 366.969 258.081Z" fill="#57B894"/>
<path d="M374.123 203.28L356.831 181.763L356.964 181.434C353.007 183.948 349.274 187.931 346.034 193.12L373.288 221.072C373.82 214.708 374.057 208.67 374.123 203.28Z" fill="#57B894"/>
<path d="M367.006 256.305C368.509 251.173 369.743 245.962 370.703 240.694L338.6 210.148C337.992 212.212 337.447 214.354 336.966 216.573C336.305 219.753 335.925 222.989 335.833 226.241L366.984 256.32L367.006 256.305Z" fill="#57B894"/>
<path d="M400.074 289.354C396.652 293.509 392.69 298.056 388.294 302.656L412.121 297.59L412.014 297.896C413.786 293.671 414.973 289.21 415.538 284.644L415.453 284.945L400.074 289.354Z" fill="#57B894"/>
<path d="M414.079 271.559C414 271.365 413.916 271.176 413.832 270.988C413.024 272.214 408.233 279.376 400.674 288.624L415.571 284.354C416.055 279.64 415.602 275.282 414.079 271.559Z" fill="#57B894"/>
<path d="M365.502 322.989C364.407 323.796 363.315 324.574 362.225 325.326L389.887 328.293L389.705 328.607C391.404 327.094 393.036 325.53 394.6 323.916L365.425 323.136L365.502 322.989Z" fill="#57B894"/>
<path d="M375.184 315.21L403.148 313.599L403 313.914C406.551 309.06 409.533 303.79 411.883 298.213L387.602 303.376C383.462 307.668 379.323 311.613 375.184 315.21Z" fill="#57B894"/>
<path d="M366.135 322.515L395.067 323.288L394.9 323.603C397.724 320.666 400.352 317.535 402.768 314.233L374.425 315.866C371.652 318.248 368.888 320.465 366.135 322.515Z" fill="#57B894"/>
<path d="M331.696 339.328C331.889 339.102 332.083 338.872 332.284 338.633C338.103 337.313 343.747 335.274 349.093 332.56L348.676 311.143C348.878 310.583 349.073 310.02 349.26 309.452L349.705 332.252C353.546 330.29 357.27 328.093 360.856 325.671L355.95 286.019C356.149 285.897 356.352 285.771 356.559 285.641L361.458 325.243L361.485 325.246C365.814 322.283 369.985 319.082 373.98 315.656L368.873 276.656C369.07 276.488 369.267 276.319 369.464 276.148L374.572 315.149C375.456 314.388 376.325 313.624 377.18 312.856L372.555 273.343C372.751 273.157 372.947 272.969 373.142 272.78L377.771 312.324C381.3 309.13 384.565 305.921 387.511 302.858L383.764 263.065L384.068 262.878C383.013 263.23 381.945 263.63 380.868 264.068C382.797 261.51 384.508 258.784 385.983 255.922L362.41 270.349C360.918 273.736 359.212 277.018 357.302 280.173C356.883 280.63 356.466 281.094 356.055 281.571L356.115 282.055C355.932 282.336 355.748 282.614 355.563 282.891L355.484 282.247C355.249 282.526 355.017 282.81 354.785 283.095C357.575 279.005 359.984 274.652 361.983 270.096L336.435 239.528C336.756 242.368 337.185 245.22 337.691 248.045C335.279 244.485 332.413 241.278 329.171 238.508L329.372 238.744L324.748 254.51C326.317 259.718 327.916 265.605 329.328 271.9L337.818 248.742C337.882 249.093 337.948 249.442 338.014 249.791L329.546 272.89C330.844 278.796 331.856 284.516 332.584 290.05L343.203 270.417C343.285 270.686 343.367 270.952 343.449 271.217L332.715 291.062C333.18 294.755 333.514 298.351 333.719 301.849L346.908 281.553C346.998 281.804 347.087 282.049 347.174 282.29L333.846 302.8L333.767 302.654C333.841 304.04 333.893 305.409 333.925 306.762L348.982 287.084C349.082 287.339 349.175 287.575 349.261 287.79L333.943 307.809C333.949 308.228 333.958 308.649 333.961 309.065C333.992 313.054 333.813 317.043 333.424 321.012L334.887 319.295C334.628 319.943 334.376 320.581 334.131 321.211L333.299 322.187C333.233 322.779 333.16 323.364 333.084 323.947C332.8 324.702 332.528 325.439 332.266 326.157C332.479 324.807 332.662 323.449 332.817 322.082L299.365 301.162C309.001 322.822 325.988 342.959 327.075 344.237C327.805 342.609 328.464 340.944 329.052 339.242C329.252 339.21 329.451 339.176 329.65 339.142C329.581 339.346 329.514 339.552 329.443 339.755C329.339 339.772 329.235 339.792 329.131 339.809C329.217 339.829 329.307 339.849 329.402 339.87C328.984 341.063 328.537 342.227 328.062 343.365C328.732 342.668 329.734 341.59 330.949 340.196C338.633 341.738 359.247 344.778 376.337 337.443L349.265 333.037C343.685 335.879 337.783 337.992 331.696 339.328ZM348.523 303.29L349.127 302.582L349.146 303.588L348.543 304.296L348.523 303.29Z" fill="#57B894"/>
<path d="M413.494 270.697L413.724 270.749C411.155 265.208 406.398 261.984 400.325 261.02L400.346 288.347C408.522 278.34 413.424 270.806 413.494 270.697Z" fill="#57B894"/>
<path d="M360.358 326.59C357.11 328.753 353.75 330.731 350.294 332.517L377.109 336.881L376.924 337.185C380.205 335.743 383.296 333.878 386.123 331.635C387.23 330.748 388.312 329.838 389.369 328.904L361.377 325.901C361.037 326.132 360.697 326.365 360.358 326.59Z" fill="#57B894"/>
<path d="M388.096 302.245C392.439 297.693 396.353 293.199 399.735 289.092L399.714 261.137L400.019 260.971C395.419 260.302 390.082 260.913 384.38 262.776L388.096 302.245Z" fill="#57B894"/>
<path d="M328.951 238.325C325.352 235.379 321.544 233.442 317.681 232.776C317.48 232.742 317.28 232.714 317.081 232.686C317.652 234.047 320.949 242.057 324.471 253.597L328.951 238.325Z" fill="#57B894"/>
<path d="M329.074 272.692L294.501 254.656L294.512 254.291C293.491 258.492 292.885 262.79 292.702 267.118L331.607 286.25C330.882 281.463 330.004 276.899 329.074 272.692Z" fill="#57B894"/>
<path d="M331.726 287.05L292.678 267.846L292.684 267.479C292.619 269.004 292.597 270.563 292.62 272.155L292.624 271.788L332.207 290.551C332.057 289.373 331.896 288.206 331.726 287.05Z" fill="#57B894"/>
<path d="M333.475 308.14L295.061 289.578C296.187 293.379 297.558 297.098 299.166 300.71L299.193 300.31L332.891 321.384C333.342 316.986 333.537 312.563 333.475 308.14Z" fill="#57B894"/>
<path d="M316.663 232.824L316.829 232.652C310.919 231.924 305.734 234.346 301.693 239.124L324.069 253.735C320.256 241.25 316.715 232.943 316.663 232.824Z" fill="#57B894"/>
<path d="M324.352 254.666L301.463 239.719L301.49 239.364C298.48 243.016 296.123 247.996 294.596 253.964L328.887 271.853C327.487 265.631 325.904 259.813 324.352 254.666Z" fill="#57B894"/>
<path d="M333.464 307.364C333.356 302.004 332.97 296.655 332.305 291.338L292.625 272.529C292.665 274.686 292.789 276.897 292.996 279.161C293.319 282.396 293.927 285.595 294.814 288.717L333.447 307.386L333.464 307.364Z" fill="#57B894"/>
<path d="M301.13 212.42L185.884 197.427C180.661 152.585 188.552 108.807 202.025 65.2705L317.271 80.2634C299.88 122.974 294.776 167.057 301.13 212.42Z" fill="#F2F2F2"/>
<path d="M288.555 90.2585L218.127 81.0962L217.173 88.9055L287.601 98.0678L288.555 90.2585Z" fill="#008FFF"/>
<path opacity="0.3" d="M297.302 110.62L201.847 98.2012L201.37 102.106L296.825 114.524L297.302 110.62Z" fill="#008FFF"/>
<path opacity="0.3" d="M295.761 123.234L200.306 110.816L199.829 114.721L295.284 127.139L295.761 123.234Z" fill="#008FFF"/>
<path opacity="0.3" d="M294.22 135.85L198.765 123.431L198.288 127.336L293.743 139.754L294.22 135.85Z" fill="#008FFF"/>
<path opacity="0.3" d="M292.68 148.464L197.225 136.046L196.748 139.951L292.203 152.369L292.68 148.464Z" fill="#008FFF"/>
<path opacity="0.3" d="M291.139 161.079L195.684 148.661L195.207 152.566L290.662 164.984L291.139 161.079Z" fill="#008FFF"/>
<path opacity="0.3" d="M289.598 173.695L194.143 161.276L193.666 165.181L289.121 177.599L289.598 173.695Z" fill="#008FFF"/>
<path opacity="0.3" d="M288.058 186.309L192.603 173.891L192.126 177.796L287.581 190.214L288.058 186.309Z" fill="#008FFF"/>
<path d="M246.554 168.242L138.735 123.641C144.676 78.8935 163.044 38.6008 186.753 0L294.572 44.6015C267.276 81.381 251.529 122.696 246.554 168.242Z" fill="#E6E6E6"/>
<path d="M264.34 46.7716L198.45 19.5151L195.613 26.8212L261.502 54.0776L264.34 46.7716Z" fill="#008FFF"/>
<path opacity="0.3" d="M267.811 68.7552L178.507 31.8125L177.088 35.4655L266.393 72.4082L267.811 68.7552Z" fill="#008FFF"/>
<path opacity="0.3" d="M263.227 80.5569L173.923 43.6143L172.504 47.2673L261.809 84.2099L263.227 80.5569Z" fill="#008FFF"/>
<path opacity="0.3" d="M258.644 92.3596L169.34 55.417L167.921 59.07L257.226 96.0126L258.644 92.3596Z" fill="#008FFF"/>
<path opacity="0.3" d="M254.06 104.161L164.756 67.2188L163.337 70.8718L252.642 107.814L254.06 104.161Z" fill="#008FFF"/>
<path opacity="0.3" d="M249.477 115.963L160.173 79.0205L158.754 82.6735L248.059 119.616L249.477 115.963Z" fill="#008FFF"/>
<path opacity="0.3" d="M244.893 127.766L155.589 90.8232L154.17 94.4763L243.475 131.419L244.893 127.766Z" fill="#008FFF"/>
<path opacity="0.3" d="M240.31 139.568L151.006 102.625L149.587 106.278L238.892 143.221L240.31 139.568Z" fill="#008FFF"/>
<path d="M219.891 178.984H103.734C93.1174 135.168 95.642 90.7146 103.734 45.7812H219.891C207.813 90.4015 208.09 134.797 219.891 178.984Z" fill="#F2F2F2"/>
<path d="M192.611 59.4043H121.626V67.2754H192.611V59.4043Z" fill="#008FFF"/>
<path opacity="0.3" d="M203.758 78.4766H107.547V82.4121H203.758V78.4766Z" fill="#008FFF"/>
<path opacity="0.3" d="M203.758 91.1909H107.547V95.1265H203.758V91.1909Z" fill="#008FFF"/>
<path opacity="0.3" d="M203.758 103.906H107.547V107.841H203.758V103.906Z" fill="#008FFF"/>
<path opacity="0.3" d="M203.758 116.621H107.547V120.557H203.758V116.621Z" fill="#008FFF"/>
<path opacity="0.3" d="M203.758 129.336H107.547V133.271H203.758V129.336Z" fill="#008FFF"/>
<path opacity="0.3" d="M203.758 142.051H107.547V145.986H203.758V142.051Z" fill="#008FFF"/>
<path opacity="0.3" d="M203.758 154.766H107.547V158.701H203.758V154.766Z" fill="#008FFF"/>
<path d="M141.594 152.393L101.577 120.284C101.176 119.565 100.599 118.968 99.9041 118.553C99.2089 118.138 98.4198 117.919 97.6166 117.919H76.0183C74.8068 117.919 73.6448 118.416 72.7882 119.3C71.9315 120.184 71.4502 121.384 71.4502 122.634V319.377C71.4502 323.433 73.0113 327.322 75.79 330.19C78.5688 333.058 82.3376 334.669 86.2674 334.669H307.983C309.929 334.669 311.855 334.274 313.653 333.505C315.451 332.737 317.084 331.61 318.46 330.19C319.836 328.77 320.927 327.085 321.672 325.229C322.417 323.374 322.8 321.385 322.8 319.377V166.292C322.8 162.606 321.381 159.07 318.855 156.464C316.33 153.857 312.904 152.393 309.332 152.393H141.594Z" fill="#3F3D56"/>
<path d="M315.26 198.018H275.044V212.545H315.26V198.018Z" fill="#008FFF"/>
<path d="M0.713867 364.56C0.713867 364.56 184.645 255.996 406.751 364.56H0.713867Z" fill="#F2F2F2"/>
<path d="M40.1073 115.429C40.1073 115.429 42.0814 126.227 40.6995 127.042C39.5834 127.766 38.527 128.584 37.541 129.487L41.0943 134.58L49.5828 136.414L57.6764 128.672V120.93C57.6764 120.93 55.3076 117.059 55.7024 114.614C56.0972 112.169 40.1073 115.429 40.1073 115.429Z" fill="#FBBEBE"/>
<path opacity="0.1" d="M40.1073 115.429C40.1073 115.429 42.0814 126.227 40.6995 127.042C39.5834 127.766 38.527 128.584 37.541 129.487L41.0943 134.58L49.5828 136.414L57.6764 128.672V120.93C57.6764 120.93 55.3076 117.059 55.7024 114.614C56.0972 112.169 40.1073 115.429 40.1073 115.429Z" fill="black"/>
<path d="M26.4862 133.968L25.3018 134.579C25.3018 134.579 22.7355 135.598 21.5511 144.359C20.3666 153.12 17.603 174.104 18.3926 174.716C19.1822 175.327 18.7874 179.402 18.7874 179.402L24.7096 147.415L26.4862 133.968Z" fill="#2F2E41"/>
<path d="M40.5235 84.2455C40.3429 84.6344 40.2796 85.0885 40.1102 85.4847C39.3408 87.284 37.1506 86.8814 35.5708 87.5619C34.2329 88.1383 33.2344 89.721 33.1297 91.4311C33.0853 92.1572 33.1884 92.8894 33.1252 93.6135C33.0084 94.9509 32.3402 96.1286 32.1024 97.4425C31.5247 100.634 32.8727 105.674 34.3947 103.952C34.8746 103.409 35.4754 103.049 35.9938 102.56C37.3402 101.29 38.0259 99.271 39.1196 97.6864C39.2579 97.4539 39.4484 97.2591 39.6749 97.1183C40.474 96.7085 41.1854 97.8055 41.8172 98.5245C42.1387 98.8869 42.5313 99.1745 42.9689 99.3681C43.4064 99.5618 43.8789 99.6571 44.3549 99.6477C44.8309 99.6383 45.2995 99.5245 45.7296 99.3137C46.1597 99.103 46.5413 98.8001 46.8492 98.4254C47.042 98.1359 47.2819 97.883 47.5582 97.6778C47.8664 97.5314 48.2134 97.4962 48.5434 97.578C50.1011 97.8611 51.5044 98.7234 52.4879 100.002C53.0154 100.668 53.4565 101.452 54.0888 101.969C54.7211 102.485 55.6436 102.656 56.213 102.042C57.3591 102.878 57.7866 104.653 57.7896 106.27C57.7927 107.886 57.4718 109.492 57.55 111.106C57.6283 112.72 58.2422 114.462 59.4883 115.054C59.6845 113.584 60.4235 112.25 61.5508 111.33C62.3995 110.678 63.431 110.355 64.1487 109.504C65.5857 107.8 65.1303 104.967 65.1855 102.536C65.2536 99.5389 66.2601 96.6732 66.438 93.6822C66.5268 92.1875 66.3772 90.585 65.615 89.4022C65.038 88.6141 64.3067 87.9602 63.4685 87.4832L56.6929 82.9968C56.392 82.7673 56.0508 82.6003 55.6883 82.5049C54.6909 82.3202 53.8287 83.2857 52.8831 83.7112C52.0944 83.9998 51.2537 84.105 50.4211 84.0194C47.7907 83.9458 47.0503 84.473 45.2822 82.7043C45.1447 82.5608 44.9763 82.4528 44.7908 82.3889C44.6053 82.325 44.4078 82.3071 44.2143 82.3366C43.1568 82.5096 41.102 82.9995 40.5235 84.2455Z" fill="#2F2E41"/>
<path d="M44.2529 330.371L48.3982 339.743L40.3045 342.595L36.1592 340.354L37.1464 330.371H44.2529Z" fill="#FBBEBE"/>
<path d="M40.502 338.317C40.502 338.317 33.9876 334.242 32.8031 335.668C31.6187 337.094 22.1432 347.485 22.1432 347.485C22.1432 347.485 7.53516 355.634 18.7873 356.857C30.0395 358.079 48.3982 349.726 48.3982 349.726C48.3982 349.726 49.3853 338.724 48.5956 338.52C47.806 338.317 44.4501 340.354 42.8709 339.743C41.9987 339.431 41.194 338.947 40.502 338.317Z" fill="#2F2E41"/>
<path d="M54.9117 340.354V348.707L44.252 346.263L46.6206 337.706L54.9117 340.354Z" fill="#FBBEBE"/>
<path d="M44.0555 343.206C44.0555 343.206 54.9128 341.373 55.8998 346.874C56.8869 352.375 59.4531 360.524 56.8869 362.562C54.3206 364.599 41.0944 367.247 40.897 363.784C40.6996 360.32 42.2788 353.597 42.2788 353.597C42.2788 353.597 43.2658 348.3 42.6736 346.874C42.0814 345.448 44.0555 343.206 44.0555 343.206Z" fill="#2F2E41"/>
<path d="M22.3689 205.632C22.3689 205.632 13.4568 263.953 20.7608 292.476C28.0648 320.999 33.1974 337.91 33.1974 337.91C33.1974 337.91 45.8314 334.242 45.8314 331.797C45.8314 329.353 40.8962 293.087 39.7118 289.624C38.5274 286.16 36.5533 284.938 38.3299 282.086C40.1066 279.233 43.0677 260.897 43.0677 260.897C43.0677 260.897 49.5821 291.254 49.9769 292.069C50.3717 292.884 45.8314 339.539 45.8314 339.539C45.8314 339.539 58.8623 349.299 59.6498 341.984C59.8472 340.151 68.5331 275.159 68.5331 274.344C68.5331 273.529 72.0864 211.185 66.3616 208.129C60.6368 205.073 22.3689 205.632 22.3689 205.632Z" fill="#2F2E41"/>
<path d="M47.8064 119.503C55.2201 119.503 61.23 113.3 61.23 105.649C61.23 97.9976 55.2201 91.7949 47.8064 91.7949C40.3928 91.7949 34.3828 97.9976 34.3828 105.649C34.3828 113.3 40.3928 119.503 47.8064 119.503Z" fill="#FBBEBE"/>
<path d="M44.8454 133.154V131.728L40.8973 125.004C40.8973 125.004 36.9492 125.412 36.3569 127.245C35.7647 129.079 29.0529 143.748 29.0529 143.748L21.9463 209.555C21.9463 209.555 41.4895 214.445 44.4506 210.981C47.4117 207.518 58.6638 132.135 58.6638 132.135L60.2431 122.967C60.2431 122.967 57.5314 118.892 56.9132 119.503C56.295 120.115 46.0298 131.931 46.0298 131.931L45.8324 133.765L44.8454 133.154Z" fill="#008FFF"/>
<path d="M40.7981 123.679C40.7981 123.679 37.1461 122.762 35.9616 125.004C34.7772 127.245 34.7772 128.06 33.5927 128.875C32.4083 129.69 25.4991 133.357 25.1043 134.783C24.7095 136.209 16.221 181.235 16.221 181.235C16.221 181.235 12.0755 194.682 14.0495 203.85C16.0236 213.018 14.6418 214.852 18.7873 215.667C22.9328 216.482 23.525 216.482 23.525 215.259C23.525 214.037 28.855 172.678 32.6057 169.826C36.3564 166.973 35.3694 135.802 35.3694 135.802C35.3694 135.802 40.6994 129.078 40.6994 128.06C40.6994 127.041 41.5877 123.603 40.7981 123.679Z" fill="#2F2E41"/>
<path d="M51.9516 131.116C52.5024 131.211 60.0453 121.133 60.6375 121.54C61.2297 121.948 64.1908 127.245 64.5856 127.245C64.9804 127.245 81.76 131.523 83.1418 139.469C84.5236 147.415 73.4689 172.678 73.4689 172.678C73.4689 172.678 68.7312 187.144 69.7182 193.459C70.3879 198.269 70.2543 203.162 69.3234 207.925C68.9286 209.555 67.5467 211.388 67.9415 212.203C68.3363 213.018 59.2557 211.185 55.5049 213.426C51.7542 215.667 34.9747 217.297 35.9617 214.852C36.9488 212.407 37.541 202.831 40.3047 192.645C43.0683 182.458 50.175 158.417 48.9905 156.787C47.8061 155.157 50.7672 130.912 51.9516 131.116Z" fill="#2F2E41"/>
<path d="M80.7723 137.024L83.3385 139.469C83.3385 139.469 86.2996 144.766 85.9048 147.211C85.51 149.656 94.1959 186.532 90.6426 187.755C87.0892 188.977 78.6008 195.089 77.6138 196.719C76.6267 198.349 74.2579 201.202 72.6786 202.017C71.0994 202.831 69.5201 204.258 68.5331 203.443C67.5461 202.628 65.3746 185.921 66.9538 185.31C68.5331 184.699 70.1123 182.865 71.6916 182.865C73.2708 182.865 74.2579 181.235 74.2579 179.809C74.2579 178.383 73.0734 169.826 73.0734 169.826L70.5071 149.656L80.7723 137.024Z" fill="#2F2E41"/>
<path d="M42.8919 86.2729C42.7323 86.5669 42.6763 86.9102 42.5265 87.2097C41.8462 88.5699 39.9096 88.2655 38.5128 88.78C37.9224 89.008 37.4065 89.4035 37.0246 89.9211C36.6427 90.4386 36.4104 91.057 36.3543 91.7049C36.315 92.2538 36.4062 92.8074 36.3503 93.3547C36.247 94.3657 35.6562 95.2561 35.446 96.2493C34.9352 98.662 36.127 102.472 37.4728 101.17C37.8972 100.76 38.4284 100.487 38.8868 100.118C40.0773 99.1579 40.6836 97.6316 41.6506 96.4336C41.7791 96.2525 41.9474 96.1054 42.1416 96.0043C42.8482 95.6944 43.4772 96.5237 44.0358 97.0673C44.6539 97.6276 45.452 97.9303 46.2745 97.9164C47.0971 97.9026 47.8851 97.5731 48.4852 96.9923C48.6613 96.7684 48.8733 96.5772 49.112 96.4272C49.3893 96.3161 49.6918 96.2899 49.9831 96.3517C51.3122 96.5406 52.5409 97.1861 53.4709 98.1841C53.8904 98.7301 54.3649 99.2285 54.8864 99.671C55.4455 100.061 56.2612 100.19 56.7647 99.726C57.778 100.358 58.156 101.7 58.1587 102.922C58.1614 104.144 57.8777 105.358 57.9469 106.578C58.0161 107.798 58.5589 109.115 59.6607 109.563C59.7619 108.99 59.976 108.444 60.2897 107.96C60.6033 107.476 61.01 107.063 61.4844 106.747C62.2348 106.255 63.1468 106.01 63.7815 105.367C65.052 104.079 64.6494 101.937 64.6982 100.1C64.7584 97.8341 65.6484 95.6678 65.8056 93.4068C65.8842 92.2768 65.7519 91.0654 65.0779 90.1712C64.5472 89.5597 63.9015 89.0661 63.18 88.7205L57.1889 85.329C56.9161 85.1527 56.6155 85.0269 56.3007 84.9572C55.4188 84.8176 54.6564 85.5474 53.8203 85.869C53.1155 86.0881 52.3768 86.1671 51.6434 86.102C49.3176 86.0464 48.663 86.445 47.0996 85.1079C46.9694 84.9967 46.8182 84.9146 46.6557 84.8667C46.4932 84.8189 46.3228 84.8064 46.1553 84.8299C45.2203 84.9606 43.4034 85.331 42.8919 86.2729Z" fill="#2F2E41"/>
</g>
<defs>
<clipPath id="clip0">
<rect width="415.042" height="365.463" fill="white" transform="translate(0.713867)"/>
</clipPath>
</defs>
</svg>
