<svg width="415" height="365" viewBox="0 0 415 365" fill="none" xmlns="http://www.w3.org/2000/svg">
<g clip-path="url(#clip0)">
<path d="M351.089 135.747C331.382 58.2521 263.286 2.312 183.357 0.068287C141.1 -1.11789 96.6349 12.8967 64.2608 61.9387C6.38847 149.607 67.8171 210.188 110.644 238.975C131.334 252.91 149.977 269.667 166.033 288.759C194.961 323.086 250.612 365.743 316.889 298.907C364.927 250.463 364.217 187.365 351.089 135.747Z" fill="#F2F2F2"/>
<path d="M207.148 343.147C321.552 343.147 414.295 338.459 414.295 332.676C414.295 326.893 321.552 322.205 207.148 322.205C92.7432 322.205 0 326.893 0 332.676C0 338.459 92.7432 343.147 207.148 343.147Z" fill="#3F3D56"/>
<path d="M333.34 354.074C378.107 354.074 414.398 352.239 414.398 349.976C414.398 347.713 378.107 345.879 333.34 345.879C288.573 345.879 252.282 347.713 252.282 349.976C252.282 352.239 288.573 354.074 333.34 354.074Z" fill="#3F3D56"/>
<path d="M180.312 365C225.079 365 261.369 363.166 261.369 360.903C261.369 358.64 225.079 356.805 180.312 356.805C135.545 356.805 99.2539 358.64 99.2539 360.903C99.2539 363.166 135.545 365 180.312 365Z" fill="#3F3D56"/>
<path d="M218.398 138.297C218.125 140.735 216.265 142.699 215.576 145.053C214.539 148.596 216.332 152.399 218.785 155.159C220.764 157.362 223.161 159.151 225.836 160.421C228.512 161.691 231.412 162.418 234.371 162.559C235.24 162.635 236.115 162.54 236.948 162.278C237.691 161.979 238.36 161.522 238.908 160.938C240.755 159.084 241.747 156.514 242.142 153.926C242.537 151.339 242.384 148.702 242.229 146.089C242.23 145.549 242.132 145.013 241.939 144.509C241.688 144.028 241.342 143.602 240.922 143.258C239.592 142.038 238.127 140.974 236.556 140.086C235.846 139.768 235.219 139.289 234.727 138.686C234.43 138.17 234.237 137.601 234.161 137.01L233.679 134.552C233.593 133.844 233.351 133.164 232.97 132.56C232.118 131.411 230.488 131.254 229.059 131.198L223.821 130.993C222.191 130.929 220.045 130.461 218.454 130.781C216.969 131.08 217.462 132.449 217.732 133.695C218.123 135.2 218.347 136.743 218.398 138.297Z" fill="#A0616A"/>
<path opacity="0.1" d="M218.398 138.297C218.125 140.735 216.265 142.699 215.576 145.053C214.539 148.596 216.332 152.399 218.785 155.159C220.764 157.362 223.161 159.151 225.836 160.421C228.512 161.691 231.412 162.418 234.371 162.559C235.24 162.635 236.115 162.54 236.948 162.278C237.691 161.979 238.36 161.522 238.908 160.938C240.755 159.084 241.747 156.514 242.142 153.926C242.537 151.339 242.384 148.702 242.229 146.089C242.23 145.549 242.132 145.013 241.939 144.509C241.688 144.028 241.342 143.602 240.922 143.258C239.592 142.038 238.127 140.974 236.556 140.086C235.846 139.768 235.219 139.289 234.727 138.686C234.43 138.17 234.237 137.601 234.161 137.01L233.679 134.552C233.593 133.844 233.351 133.164 232.97 132.56C232.118 131.411 230.488 131.254 229.059 131.198L223.821 130.993C222.191 130.929 220.045 130.461 218.454 130.781C216.969 131.08 217.462 132.449 217.732 133.695C218.123 135.2 218.347 136.743 218.398 138.297Z" fill="black"/>
<path d="M251.719 248.022C250.977 256.159 250.235 264.294 249.493 272.429C248.912 278.83 248.32 285.258 247.18 291.577C246.787 293.754 246.326 295.92 245.778 298.068C244.257 304.031 242.049 309.859 241.337 315.972C241.315 316.148 241.296 316.328 241.277 316.508C241.198 317.859 240.942 319.195 240.516 320.48C240.16 321.413 239.613 322.264 239.227 323.186C238.459 325.03 238.358 327.069 238.264 329.067C235.561 327.547 232.603 326.536 229.535 326.083C228.055 325.862 226.406 325.705 225.397 324.599C224.281 323.377 224.404 321.507 224.592 319.866C225.18 314.769 225.767 309.674 226.353 304.582C226.544 302.391 226.917 300.22 227.466 298.09C227.669 297.382 227.912 296.685 228.16 295.988C228.501 295.028 228.845 294.069 229.104 293.083C229.477 291.491 229.737 289.874 229.884 288.245C230.487 283.118 231.214 278.002 231.851 272.878L231.885 272.609C232.841 264.843 233.568 257.04 233.358 249.218C233.328 248.06 233.279 246.902 233.204 245.74C233.099 244.057 232.946 243.165 234.34 242.112C235.88 240.95 237.908 240.137 239.669 239.376C240.618 238.964 251.059 235.257 251.303 236.07C251.793 237.805 252.05 239.597 252.067 241.4C252.075 243.612 251.959 245.823 251.719 248.022Z" fill="#605D82"/>
<path opacity="0.1" d="M247.181 291.576C246.787 293.754 246.326 295.92 245.779 298.067C244.257 304.03 242.05 309.858 241.338 315.971C241.315 316.147 241.297 316.327 241.278 316.507C236.623 309.858 232.703 302.707 228.16 295.987C228.501 295.028 228.846 294.068 229.105 293.083C229.477 291.49 229.738 289.873 229.884 288.244C230.488 283.117 231.215 278.001 231.852 272.878L231.886 272.608C232.152 273.696 232.533 274.752 233.021 275.76C236.072 281.959 243.32 285.092 246.866 291.025C246.975 291.209 247.079 291.392 247.181 291.576Z" fill="black"/>
<path d="M209.409 237.067C209.563 242.039 210.359 246.966 211.153 251.876L212.792 262.008C213.688 267.553 214.622 273.211 217.246 278.177C219.209 281.892 222.037 285.063 224.596 288.396C230.885 296.59 235.611 305.872 241.575 314.306C243.308 316.758 245.786 319.409 248.745 318.897C250.686 318.561 252.097 316.945 253.623 315.698C255.422 314.229 257.591 313.153 259.007 311.311C260.423 309.469 260.7 306.408 258.782 305.097C258.088 304.712 257.351 304.411 256.587 304.198C253.613 303.068 251.688 300.164 250.464 297.228C249.239 294.291 248.497 291.134 246.865 288.403C243.32 282.47 236.071 279.337 233.019 273.136C231.31 269.663 231.147 265.66 231.016 261.791L230.683 251.929C230.647 250.85 230.619 249.729 231.057 248.743C232.224 246.117 235.748 245.873 238.602 245.54C241.841 245.16 244.978 244.171 247.849 242.623C249.492 241.735 251.098 240.604 251.977 238.956C252.78 237.452 252.89 235.688 252.984 233.987L253.972 216.114C254.057 214.576 254.135 212.986 253.593 211.545C252.232 207.925 247.661 206.742 243.798 206.915C236.61 207.237 229.973 210.329 223.195 212.417C221.516 212.947 219.812 213.391 218.088 213.749C216.567 214.054 214.726 213.928 213.275 214.417C210.695 215.287 210.761 220.929 210.395 223.27C209.639 227.828 209.309 232.447 209.409 237.067Z" fill="#605D82"/>
<path d="M247.769 319.647C248.403 320.286 248.61 321.223 248.775 322.108C249.691 327.017 250.167 331.998 250.198 336.992C250.156 337.458 250.249 337.926 250.466 338.34C250.644 338.587 250.886 338.782 251.166 338.903C252.998 339.776 255.125 338.559 256.651 337.222C259.482 334.743 261.876 331.415 262.037 327.656C262.008 326.688 262.041 325.719 262.139 324.755C262.387 323.34 263.213 322.107 263.942 320.868C265.181 318.76 266.18 316.519 266.921 314.189C267.2 313.313 267.385 312.21 266.699 311.599C266.455 311.409 266.179 311.265 265.883 311.175L257.607 308.102C256.89 307.836 255.105 312.42 254.822 312.922C254.129 314.147 253.44 314.843 252.05 315.126C250.631 315.415 248.942 315.001 247.618 315.709C245.379 316.906 246.501 318.368 247.769 319.647Z" fill="#535070"/>
<path d="M234.999 322.476C234.845 322.17 234.63 321.898 234.369 321.677C233.986 321.434 233.55 321.286 233.098 321.246C231.522 320.978 229.655 320.802 228.568 321.973C227.548 323.071 227.723 324.86 226.871 326.092C226.601 326.482 226.235 326.804 226.002 327.216C225.711 327.847 225.58 328.539 225.62 329.232C225.576 331.142 225.532 333.056 225.664 334.962C225.775 336.559 226.044 338.232 227.043 339.483C228.646 341.492 231.537 341.78 234.103 341.911L236.182 342.016C236.754 342.086 237.335 342.033 237.885 341.86C238.225 341.703 238.531 341.479 238.783 341.201C239.036 340.923 239.23 340.598 239.354 340.244C240.436 337.555 238.723 334.658 237.667 331.958C236.454 328.855 236.672 325.41 234.999 322.476Z" fill="#535070"/>
<path d="M217.796 124.561C217.771 124.288 217.811 124.013 217.913 123.759C218.217 123.221 219.012 123.368 219.612 123.519C222.023 124.127 224.564 123.577 227.047 123.719C229.53 123.861 232.327 125.102 232.826 127.538C234.628 126.26 236.182 124.664 237.41 122.828C238.099 121.797 238.7 120.616 238.606 119.379C238.47 117.595 236.974 116.261 235.588 115.13L231.457 111.758C230.915 111.26 230.289 110.862 229.608 110.582C228.654 110.256 227.614 110.411 226.606 110.412C223.599 110.414 220.393 109.046 217.719 110.42C216.601 110.995 215.761 111.979 214.95 112.938L211.263 117.302C210.986 117.58 210.783 117.924 210.674 118.302C210.569 118.834 210.843 119.36 210.938 119.895C211.112 120.869 210.692 121.91 211.015 122.846C211.551 124.401 213.438 124.621 214.592 125.512C215.022 125.844 215.696 126.969 216.208 126.956C217.133 126.931 217.772 125.279 217.796 124.561Z" fill="#3F3D56"/>
<path d="M224.052 137.425C230.572 137.425 235.858 132.14 235.858 125.619C235.858 119.099 230.572 113.813 224.052 113.813C217.532 113.813 212.246 119.099 212.246 125.619C212.246 132.14 217.532 137.425 224.052 137.425Z" fill="#A0616A"/>
<path d="M226.818 151.457C226.417 150.31 225.662 149.32 224.66 148.631C223.659 147.942 222.465 147.59 221.25 147.626C220.903 147.69 220.544 147.645 220.223 147.496C220.042 147.357 219.897 147.175 219.801 146.968C219.083 145.677 218.506 144.313 218.08 142.899C217.891 142.274 217.634 141.537 217.002 141.375C216.74 141.34 216.474 141.378 216.232 141.483C215.99 141.588 215.781 141.758 215.627 141.972C215.327 142.405 214.999 142.817 214.645 143.207C213.16 144.534 210.528 143.324 208.952 144.542C208.695 144.741 208.483 144.996 208.212 145.177C207.942 145.34 207.65 145.465 207.345 145.549C204.302 146.542 201.319 147.711 198.41 149.048C199.458 155.362 200.533 161.785 202.99 167.694C204.159 170.506 205.484 173.26 206.421 176.158C208.496 182.579 208.588 189.449 208.611 196.197C208.627 200.815 208.604 205.532 207.11 209.902C206.708 210.868 206.424 211.878 206.266 212.912C206.176 213.954 206.479 215.102 207.322 215.719C207.812 216.039 208.371 216.235 208.953 216.291C211.542 216.671 214.152 215.982 216.701 215.392C223.534 213.81 230.503 212.904 237.458 212.001L249.113 210.488C249.948 210.431 250.766 210.22 251.524 209.864C253.657 208.697 253.859 205.489 252.535 203.45C251.9 202.472 251.004 201.67 250.47 200.634C249.937 199.597 249.892 198.148 250.81 197.43C252.678 195.97 252.121 193.261 252.21 190.891C252.459 184.266 252.425 177.638 252.109 171.008C252.015 169.635 251.993 168.259 252.043 166.884C252.25 164.554 252.681 162.25 253.328 160.003L256.87 146.059C255.945 144.597 254.173 143.669 252.495 143.248C250.817 142.827 249.07 142.703 247.417 142.191C244.032 141.142 241.017 138.48 237.482 138.728C237.214 138.732 236.951 138.797 236.712 138.916C235.914 139.367 236.041 140.517 235.99 141.432C235.877 143.456 234.388 145.148 232.744 146.335C231.099 147.521 229.221 148.386 227.711 149.739C227.443 149.94 227.224 150.199 227.07 150.497C226.915 150.794 226.829 151.122 226.818 151.457Z" fill="#3F3D56"/>
<path d="M180.039 164.684C179.256 165.192 178.424 165.62 177.556 165.962C176.705 166.215 175.902 166.604 175.177 167.116C174.843 167.405 174.563 167.751 174.35 168.138C173.95 168.847 173.748 169.65 173.765 170.463C173.781 171.277 174.016 172.071 174.444 172.762C174.872 173.454 175.478 174.019 176.199 174.396C176.919 174.774 177.728 174.951 178.541 174.91C179.621 174.789 180.67 174.476 181.64 173.986L189.967 170.377C191.376 169.767 192.899 169.051 193.565 167.667C193.642 167.538 193.671 167.385 193.646 167.237C193.579 167.08 193.457 166.952 193.304 166.877C191.426 165.657 189.783 164.109 188.455 162.305C188.114 161.841 187.696 160.746 187.213 160.468C185.45 159.453 181.45 163.768 180.039 164.684Z" fill="#A0616A"/>
<path d="M269.057 161.723L272.127 165.23C272.786 165.982 273.445 166.736 274.046 167.536C275.521 169.569 276.705 171.799 277.562 174.16C278.229 175.911 278.783 177.776 278.55 179.636C278.395 180.589 278.138 181.523 277.782 182.42C277.22 184.147 276.522 185.827 275.696 187.445C275.002 188.674 274.217 189.849 273.349 190.962C270.972 194.113 268.371 197.088 265.567 199.864C264.517 200.903 264.077 202.583 263.62 203.987C262.777 206.578 260.772 208.595 258.833 210.508C258.21 211.166 257.521 211.759 256.778 212.277C255.664 212.994 254.362 213.365 253.037 213.342C252.457 213.346 251.883 213.227 251.352 212.993C250.026 212.363 249.351 210.829 249.213 209.367C249.089 208.039 249.312 206.703 249.858 205.487C251.62 201.585 256.144 199.894 259.342 197.047C261.217 195.377 262.65 193.28 264.065 191.205C265.025 189.91 265.827 188.504 266.453 187.018C267.167 185.113 266.889 182.857 267.513 180.92C267.777 180.102 268.246 179.362 268.529 178.55C268.813 177.738 268.884 176.774 268.388 176.072C268.014 175.625 267.537 175.276 266.998 175.054C264.956 174.017 262.668 172.683 262.277 170.426C262.121 169.174 262.448 167.91 263.192 166.891C263.932 165.885 264.798 164.978 265.767 164.191C266.661 163.401 268.163 162.513 269.057 161.723Z" fill="#A0616A"/>
<path d="M178.068 169.579C177.526 168.484 176.848 167.366 175.754 166.822C175.224 166.592 174.653 166.472 174.074 166.469C173.496 166.467 172.924 166.582 172.391 166.808C171.331 167.265 170.338 167.866 169.44 168.592L166.794 170.543C166.194 170.937 165.663 171.427 165.223 171.993C164.805 172.681 164.527 173.443 164.405 174.238C163.944 176.051 163.803 177.93 163.989 179.791C164.409 182.775 166.208 185.38 168.188 187.651C169.425 189.071 170.953 190.503 172.835 190.564C173.647 190.59 174.551 190.27 174.889 189.53C175.006 189.237 175.068 188.925 175.072 188.61C175.275 185.281 174.085 182.03 172.696 178.998C172.254 178.205 171.992 177.323 171.93 176.416C171.92 176.263 171.96 176.111 172.043 175.983C172.163 175.859 172.323 175.78 172.495 175.763C174.396 175.387 177.669 176.863 179.002 174.753C179.866 173.385 178.682 170.819 178.068 169.579Z" fill="#A0616A"/>
<path d="M217.178 120.846C217.152 120.574 217.193 120.299 217.295 120.045C217.599 119.507 218.394 119.653 218.994 119.805C221.405 120.412 223.946 119.862 226.429 120.004C228.912 120.146 231.709 121.387 232.208 123.824C234.01 122.546 235.563 120.95 236.792 119.114C237.481 118.083 238.081 116.901 237.988 115.665C237.852 113.881 236.356 112.547 234.97 111.416L230.839 108.044C230.297 107.545 229.671 107.147 228.99 106.868C228.036 106.542 226.996 106.697 225.988 106.698C222.981 106.7 219.775 105.331 217.1 106.706C215.983 107.28 215.142 108.264 214.332 109.224L210.645 113.588C210.368 113.866 210.165 114.21 210.056 114.587C209.951 115.12 210.224 115.646 210.32 116.18C210.494 117.155 210.074 118.196 210.397 119.132C210.933 120.686 212.82 120.906 213.974 121.797C214.404 122.13 215.078 123.255 215.59 123.241C216.515 123.217 217.154 121.565 217.178 120.846Z" fill="#3F3D56"/>
<path d="M192.103 153.2C191.626 153.507 191.208 153.897 190.867 154.35C190.434 155.005 190.346 155.831 189.975 156.522C189.179 158 187.318 158.526 186.157 159.739C185.973 159.906 185.844 160.126 185.79 160.369C185.785 160.698 185.895 161.019 186.102 161.275L191.7 170.076C193.564 170.24 195.353 169.072 197.217 169.227C197.914 169.285 198.626 169.525 199.294 169.32C199.772 169.108 200.22 168.834 200.626 168.505C201.739 167.801 203.22 167.719 204.154 166.791C205.05 165.901 205.164 164.507 205.153 163.244C205.168 162.147 205.057 161.052 204.82 159.981C203.996 156.602 201.413 154.01 199.793 151.017C199.004 149.561 198.575 148.708 196.906 149.708C195.229 150.714 193.682 152.045 192.103 153.2Z" fill="#3F3D56"/>
<path d="M260.094 148.749C261.146 149.433 262.094 150.263 262.91 151.216C263.763 152.316 264.246 153.662 265.065 154.787C265.859 155.877 266.94 156.722 267.841 157.726C269.207 159.248 270.132 161.106 271.041 162.939C268.822 165.833 266.402 168.568 263.799 171.123C263.51 171.465 263.128 171.716 262.7 171.846C262.408 171.877 262.114 171.836 261.843 171.725C261.572 171.614 261.332 171.438 261.145 171.213C260.742 170.79 260.456 170.268 260.071 169.829C259.161 168.89 257.949 168.304 256.648 168.173C255.359 168.049 254.062 168.031 252.77 168.12C252.487 168.152 252.2 168.103 251.942 167.981C251.751 167.849 251.595 167.67 251.49 167.463C249.975 164.883 250.462 161.645 250.997 158.702L252.224 151.948C252.402 150.658 252.745 149.396 253.245 148.194C253.71 147.2 254.749 145.516 256.027 145.813C257.315 146.113 259.01 147.97 260.094 148.749Z" fill="#3F3D56"/>
<path d="M14.9784 147.199C13.8573 147.203 12.7548 146.912 11.7821 146.355C10.8094 145.798 10.0007 144.994 9.43751 144.024C8.87435 143.055 8.57659 141.954 8.57423 140.833C8.57188 139.712 8.86501 138.61 9.4241 137.638C17.5279 123.98 42.158 92.0659 95.9708 92.0659C119.281 92.0659 139.722 98.2576 156.704 110.459C170.681 120.475 178.511 131.811 182.244 137.274C182.718 137.963 183.05 138.74 183.222 139.558C183.393 140.376 183.401 141.22 183.244 142.042C183.088 142.863 182.77 143.645 182.309 144.343C181.848 145.04 181.254 145.64 180.56 146.106C179.149 147.052 177.423 147.405 175.754 147.09C174.084 146.775 172.606 145.817 171.637 144.422C164.853 134.588 144.275 104.722 95.9708 104.722C48.8049 104.722 27.4983 132.221 20.5327 144.012C19.9775 144.992 19.169 145.806 18.1919 146.366C17.2147 146.927 16.1048 147.214 14.9784 147.199Z" fill="#008FFF"/>
<path d="M123.059 272.125C122.522 272.132 121.987 272.07 121.466 271.943C82.4491 262.154 67.8805 222.728 67.2887 221.089L67.1976 220.725C66.8789 219.587 59.0483 192.544 71.0674 176.7C76.5762 169.461 84.9531 165.774 96.0162 165.774C106.305 165.774 113.726 169.006 118.825 175.699C123.014 181.162 124.698 187.9 126.337 194.41C129.752 207.932 132.21 215.034 146.415 215.762C152.652 216.081 156.749 212.393 159.071 209.252C165.354 200.693 166.446 186.716 161.712 174.424C155.611 158.489 134.031 128.487 95.9706 128.487C79.7175 128.487 64.7847 133.768 52.8111 143.693C42.8862 151.934 35.0101 163.543 31.2313 175.471C24.2202 197.688 33.4166 232.607 33.5077 232.926C33.7217 233.733 33.7734 234.575 33.66 235.402C33.5465 236.23 33.2701 237.026 32.8466 237.746C32.4232 238.466 31.8613 239.094 31.1932 239.596C30.5252 240.097 29.7645 240.46 28.955 240.666C27.3133 241.099 25.5671 240.869 24.0934 240.026C22.6198 239.182 21.5369 237.793 21.0788 236.158C20.6691 234.565 10.8352 197.324 18.939 171.647C27.7713 143.83 54.9964 115.785 95.9706 115.785C114.91 115.785 132.802 122.296 147.735 134.588C159.299 144.148 168.768 156.987 173.685 169.826C179.968 186.215 178.283 204.608 169.406 216.627C163.487 224.64 155.065 228.829 145.732 228.373C121.42 227.144 117.05 209.98 113.863 197.46C110.585 184.622 108.491 178.43 95.9706 178.43C89.0961 178.43 84.2702 180.342 81.2654 184.303C77.168 189.721 76.8493 198.189 77.3046 204.335C77.3091 204.399 77.3138 204.463 77.3185 204.527C77.9209 212.347 80.2885 219.927 84.2433 226.7C90.5634 237.597 103.383 254.31 124.653 259.65C125.465 259.847 126.23 260.203 126.904 260.697C127.578 261.191 128.147 261.814 128.579 262.529C129.011 263.244 129.296 264.038 129.42 264.865C129.543 265.691 129.501 266.534 129.296 267.344C128.927 268.716 128.115 269.927 126.988 270.791C125.86 271.655 124.48 272.124 123.059 272.125Z" fill="#008FFF"/>
<path d="M72.9796 269.211C72.1032 269.212 71.2357 269.035 70.4297 268.69C69.6237 268.346 68.8959 267.842 68.2903 267.208C52.6746 250.636 43.8424 232.107 40.5189 208.934V208.797C38.6523 193.455 41.3839 171.738 54.7688 156.805C64.6482 145.788 78.5339 140.188 95.9707 140.188C116.594 140.188 132.802 149.885 142.909 168.187C147.477 176.604 150.47 185.784 151.741 195.276C151.891 196.959 151.373 198.634 150.297 199.938C149.222 201.242 147.677 202.07 145.996 202.244C144.315 202.417 142.633 201.922 141.314 200.865C139.995 199.808 139.145 198.274 138.948 196.596C137.841 188.66 135.295 180.992 131.436 173.969C123.606 159.992 111.678 152.89 95.9252 152.89C82.3127 152.89 71.6593 157.033 64.3295 165.228C53.7672 177.019 51.7185 195.185 53.1754 207.204C56.0891 227.691 63.8742 243.989 77.6234 258.558C78.1974 259.165 78.6449 259.88 78.94 260.661C79.235 261.442 79.3717 262.275 79.3421 263.109C79.3124 263.944 79.117 264.764 78.7672 265.523C78.4174 266.281 77.9203 266.962 77.3047 267.527C76.1216 268.605 74.5802 269.205 72.9796 269.211Z" fill="#008FFF"/>
<path d="M96.062 209.753C100.588 209.753 104.257 206.084 104.257 201.558C104.257 197.032 100.588 193.363 96.062 193.363C91.5361 193.363 87.8672 197.032 87.8672 201.558C87.8672 206.084 91.5361 209.753 96.062 209.753Z" fill="#008FFF"/>
</g>
<defs>
<clipPath id="clip0">
<rect width="414.398" height="365" fill="white"/>
</clipPath>
</defs>
</svg>
