<svg width="24" height="24" viewBox="0 0 24 24" fill="none" xmlns="http://www.w3.org/2000/svg">
<path d="M24 12.6625L23.955 12.5382L23.9403 12.2225H23.7793L20.0049 6.11127H15.6452V6.9261H19.6005L22.8809 12.2225H16.779V15.0744H9.21982V12.2225H3.11801L6.39834 6.9261H10.3537V6.11127H5.99354L2.20145 12.2351L2.03855 12.2441V12.5733L2 12.6755L2.03855 12.7342V20.6214C2.03855 21.3816 2.61268 22 3.31795 22H22.6809C23.3862 22 23.9603 21.3816 23.9603 20.6214V12.7273L24 12.6625ZM23.2044 20.6214C23.2044 20.9322 22.9697 21.1852 22.6809 21.1852H3.31757C3.02881 21.1852 2.7941 20.9322 2.7941 20.6214V13.0373H8.46352V15.8892H17.5346V13.0373H23.204V20.6214H23.2044Z" fill="#008FFF"/>
<path d="M10.2431 9.08209C10.0953 8.92279 9.8564 8.92279 9.70862 9.08209C9.56083 9.24139 9.56083 9.49888 9.70862 9.65818L12.7319 12.9171C12.7323 12.9175 12.7323 12.9175 12.7327 12.9179L12.9995 13.2055L13.2664 12.9179C13.2667 12.9175 13.2667 12.9175 13.2671 12.9171L16.2904 9.65818C16.4382 9.49888 16.4382 9.24139 16.2904 9.08209C16.1427 8.92279 15.9038 8.92279 15.756 9.08209L13.3775 11.646V0.407415C13.3775 0.182522 13.2085 0 12.9995 0C12.7905 0 12.6216 0.182522 12.6216 0.407415V11.6464L10.2431 9.08209Z" fill="#008FFF"/>
</svg>
