<svg width="16" height="16" viewBox="0 0 16 16" fill="none" xmlns="http://www.w3.org/2000/svg">
<g clip-path="url(#clip0)">
<path d="M13.787 0H6.80693C6.71648 0 6.63005 0.0359184 6.56621 0.0997551L1.97179 4.69417C1.90796 4.75801 1.87207 4.8446 1.87207 4.93486V15.6596C1.87207 15.8476 2.0243 16 2.21248 16H13.7869C13.9751 16 14.1274 15.8476 14.1274 15.6596V0.340441C14.1274 0.152424 13.9751 0 13.787 0ZM6.46649 1.16225V4.59442H3.03432L4.87272 2.75602L6.46649 1.16225ZM13.4466 15.3191H2.55295V5.27526H6.80693C6.99507 5.27526 7.14737 5.12284 7.14737 4.93482V0.680849H13.4466V15.3191Z" fill="#757575"/>
</g>
<defs>
<clipPath id="clip0">
<rect width="16" height="16" fill="white"/>
</clipPath>
</defs>
</svg>
