<svg width="25" height="24" viewBox="0 0 25 24" fill="none" xmlns="http://www.w3.org/2000/svg">
<path d="M17.5833 9.06641H8.41665C8.21425 9.06641 8.04999 9.23031 8.04999 9.43307C8.04999 9.63584 8.21425 9.79974 8.41665 9.79974H17.5833C17.7857 9.79974 17.95 9.63584 17.95 9.43307C17.95 9.23031 17.7857 9.06641 17.5833 9.06641Z" fill="black"/>
<path d="M8.41665 6.86615H12.0833C12.2857 6.86615 12.45 6.70225 12.45 6.49948C12.45 6.29671 12.2857 6.13281 12.0833 6.13281H8.41665C8.21425 6.13281 8.04999 6.29671 8.04999 6.49948C8.04999 6.70225 8.21425 6.86615 8.41665 6.86615Z" fill="black"/>
<path d="M17.5833 12H8.41665C8.21425 12 8.04999 12.1639 8.04999 12.3667C8.04999 12.5694 8.21425 12.7333 8.41665 12.7333H17.5833C17.7857 12.7333 17.95 12.5694 17.95 12.3667C17.95 12.1639 17.7857 12 17.5833 12Z" fill="black"/>
<path d="M17.5833 14.9336H8.41665C8.21425 14.9336 8.04999 15.0975 8.04999 15.3003C8.04999 15.503 8.21425 15.6669 8.41665 15.6669H17.5833C17.7857 15.6669 17.95 15.503 17.95 15.3003C17.95 15.0975 17.7857 14.9336 17.5833 14.9336Z" fill="black"/>
<path d="M17.5833 17.8672H8.41665C8.21425 17.8672 8.04999 18.0311 8.04999 18.2339C8.04999 18.4366 8.21425 18.6005 8.41665 18.6005H17.5833C17.7857 18.6005 17.95 18.4366 17.95 18.2339C17.95 18.0311 17.7857 17.8672 17.5833 17.8672Z" fill="black"/>
<path d="M16.2685 1H4.38333V23H21.6167V6.3482L16.2685 1ZM16.4833 2.2518L20.3649 6.13333H16.4833V2.2518ZM5.11666 22.2667V1.73333H15.75V6.86667H20.8833V22.2667H5.11666Z" fill="black"/>
</svg>
