<svg width="25" height="24" viewBox="0 0 25 24" fill="none" xmlns="http://www.w3.org/2000/svg">
<g clip-path="url(#clip0)">
<path d="M6.96211 21.5498H21.9409C23.3269 21.5483 24.45 20.4252 24.4516 19.0393V9.9931C24.45 8.60707 23.3269 7.48398 21.9411 7.48239H21.8086V7.39911C21.807 6.01309 20.684 4.88999 19.2981 4.8884H15.2537C15.2021 4.8884 15.1529 4.86679 15.1182 4.82872L13.6507 3.22319C13.1746 2.70328 12.5022 2.40684 11.7973 2.40625H6.96211C5.57628 2.40784 4.45319 3.53093 4.4516 4.91696V19.0393C4.45319 20.4252 5.57628 21.5483 6.96211 21.5498ZM21.9409 8.19305C22.9345 8.19424 23.7397 8.99948 23.7409 9.9931V19.0393C23.7397 20.0328 22.9347 20.838 21.9411 20.8392H8.93744C9.42503 20.3673 9.69985 19.7177 9.69966 19.0393V9.9931C9.70065 8.99948 10.5059 8.19424 11.4995 8.19305H21.9409ZM5.16226 4.91696C5.16345 3.92334 5.96849 3.1181 6.96211 3.11691H11.7973C12.3026 3.1175 12.7846 3.32987 13.1259 3.70245L14.5934 5.30818C14.7629 5.49338 15.0022 5.59887 15.2533 5.59906H19.2979C20.2915 5.60025 21.0966 6.4055 21.0978 7.39911V7.48239H11.4995C10.1135 7.48398 8.99038 8.60707 8.989 9.9931V19.0393C8.98781 20.0328 8.18256 20.838 7.18895 20.8392H6.96211C5.96849 20.838 5.16345 20.0328 5.16226 19.0393V4.91696Z" fill="black"/>
</g>
<defs>
<clipPath id="clip0">
<rect width="20" height="20" fill="white" transform="translate(4.4516 2)"/>
</clipPath>
</defs>
</svg>
