<svg width="20" height="20" viewBox="0 0 20 20" fill="none" xmlns="http://www.w3.org/2000/svg">
<path d="M9.1665 5.61926H10.8332V7.22477H9.1665V5.61926ZM9.1665 8.83027H10.8332V13.6468H9.1665V8.83027ZM9.99984 1.6055C5.39984 1.6055 1.6665 5.20183 1.6665 9.63302C1.6665 14.0642 5.39984 17.6605 9.99984 17.6605C14.5998 17.6605 18.3332 14.0642 18.3332 9.63302C18.3332 5.20183 14.5998 1.6055 9.99984 1.6055ZM9.99984 16.055C6.32484 16.055 3.33317 13.1732 3.33317 9.63302C3.33317 6.09289 6.32484 3.211 9.99984 3.211C13.6748 3.211 16.6665 6.09289 16.6665 9.63302C16.6665 13.1732 13.6748 16.055 9.99984 16.055Z" fill="#008FFF"/>
</svg>
