<svg width="43" height="36" viewBox="0 0 43 36" fill="none" xmlns="http://www.w3.org/2000/svg">
<path d="M29.6224 22.9008C29.5312 22.9008 29.4399 22.8641 29.3687 22.7898L25.1013 18.3827C24.9522 18.2292 24.9448 17.9704 25.085 17.8062C25.2252 17.6405 25.4588 17.6332 25.6093 17.7883L29.8768 22.1954C30.0258 22.3489 30.0333 22.6077 29.8931 22.7718C29.8197 22.8576 29.7218 22.9008 29.6224 22.9008Z" fill="#757575"/>
<path d="M15.3772 22.9019C15.2785 22.9019 15.1799 22.8586 15.1065 22.7729C14.9663 22.6088 14.9737 22.35 15.1228 22.1965L19.3917 17.7894C19.5415 17.6359 19.7766 17.6424 19.9161 17.8073C20.0562 17.9714 20.0488 18.2302 19.8997 18.3837L15.6308 22.7909C15.5596 22.8652 15.4684 22.9019 15.3772 22.9019Z" fill="#757575"/>
<path d="M32.1459 27H12.8541C11.8321 27 11 26.0848 11 24.9589V11.0411C11 9.91523 11.8321 9 12.8541 9H32.1459C33.1679 9 34 9.91523 34 11.0411V24.9589C34 26.0848 33.1679 27 32.1459 27ZM12.8541 9.81644C12.2408 9.81644 11.7416 10.3659 11.7416 11.0411V24.9589C11.7416 25.6341 12.2408 26.1836 12.8541 26.1836H32.1459C32.7592 26.1836 33.2584 25.6341 33.2584 24.9589V11.0411C33.2584 10.3659 32.7592 9.81644 32.1459 9.81644H12.8541Z" fill="#757575"/>
<path d="M22.5002 20.0512C22.007 20.0512 21.5138 19.8707 21.1385 19.5107L11.6158 10.3658C11.4615 10.218 11.4452 9.95999 11.5794 9.78936C11.7152 9.61954 11.9488 9.60403 12.103 9.75017L21.6258 18.8943C22.0997 19.349 22.9007 19.349 23.3739 18.8943L32.8848 9.76486C33.0383 9.61709 33.2719 9.63342 33.4084 9.80405C33.5426 9.97469 33.527 10.2319 33.3728 10.3805L23.8619 19.5099C23.4859 19.8707 22.9934 20.0512 22.5002 20.0512Z" fill="#757575"/>
<rect x="1.47632" y="0.5" width="40.6758" height="35.0219"/>
</svg>
