<svg width="20" height="16" viewBox="0 0 20 16" fill="none" xmlns="http://www.w3.org/2000/svg">
<path d="M19.9995 2.93663C19.9884 1.83552 19.0933 0.948398 17.9922 0.947266H2.00767C0.906556 0.948398 0.0115112 1.83552 0.000377417 2.93663V2.93965C0.000377417 2.94456 0 2.94984 0 2.95494V13.0943C0.00132096 14.2025 0.899385 15.1006 2.00767 15.1019H17.9922C19.1005 15.1006 19.9986 14.2025 19.9999 13.0943V2.95494C19.9999 2.94984 19.9997 2.94475 19.9995 2.93965C19.9995 2.93871 19.9995 2.93758 19.9995 2.93663ZM2.00767 1.6236H17.9922C18.6571 1.62435 19.2196 2.11481 19.3111 2.7734L9.99986 8.46296L0.688975 2.77302C0.780688 2.11481 1.34304 1.62454 2.00767 1.6236ZM17.9922 14.4256H2.00767C1.27265 14.4246 0.677087 13.8291 0.676143 13.0943V3.55786L9.8236 9.14798C9.93192 9.21403 10.068 9.21403 10.1763 9.14798L19.3236 3.55786V13.0941C19.3228 13.8291 18.7273 14.4246 17.9922 14.4256Z" fill="black"/>
</svg>
