<svg width="23" height="18" viewBox="0 0 23 18" fill="none" xmlns="http://www.w3.org/2000/svg">
<path d="M18.6223 13.9008C18.531 13.9008 18.4398 13.8641 18.3686 13.7898L14.1012 9.38265C13.9521 9.22916 13.9447 8.97035 14.0849 8.80625C14.225 8.64051 14.4587 8.63316 14.6092 8.78829L18.8767 13.1954C19.0257 13.3489 19.0331 13.6077 18.893 13.7718C18.8195 13.8575 18.7217 13.9008 18.6223 13.9008Z" fill="#757575"/>
<path d="M4.37705 13.9018C4.27841 13.9018 4.17977 13.8586 4.10635 13.7728C3.96618 13.6087 3.97359 13.3499 4.12267 13.1964L8.39159 8.78931C8.54141 8.63582 8.77651 8.64235 8.91594 8.80727C9.05611 8.97138 9.0487 9.23019 8.89962 9.38368L4.6307 13.7908C4.5595 13.8651 4.46827 13.9018 4.37705 13.9018Z" fill="#757575"/>
<path d="M21.1459 18H1.85412C0.83213 18 0 17.0848 0 15.9589V2.04109C0 0.915227 0.83213 0 1.85412 0H21.1459C22.1679 0 23 0.915227 23 2.04109V15.9589C23 17.0848 22.1679 18 21.1459 18ZM1.85412 0.816438C1.24078 0.816438 0.741648 1.3659 0.741648 2.04109V15.9589C0.741648 16.6341 1.24078 17.1836 1.85412 17.1836H21.1459C21.7592 17.1836 22.2584 16.6341 22.2584 15.9589V2.04109C22.2584 1.3659 21.7592 0.816438 21.1459 0.816438H1.85412Z" fill="#757575"/>
<path d="M11.5002 11.0512C11.007 11.0512 10.5138 10.8707 10.1385 10.5107L0.615784 1.36576C0.461521 1.21799 0.445204 0.959993 0.579443 0.789358C0.715164 0.619539 0.948784 0.604027 1.10305 0.750169L10.6258 9.89427C11.0997 10.349 11.9007 10.349 12.3739 9.89427L21.8848 0.764865C22.0383 0.61709 22.2719 0.633418 22.4084 0.804054C22.5426 0.974689 22.527 1.23187 22.3728 1.38046L12.8619 10.5099C12.4859 10.8707 11.9934 11.0512 11.5002 11.0512Z" fill="#757575"/>
</svg>
