<svg width="25" height="24" viewBox="0 0 25 24" fill="none" xmlns="http://www.w3.org/2000/svg">
<path d="M21.9995 4.93663C21.9884 3.83552 21.0933 2.9484 19.9922 2.94727H4.00767C2.90656 2.9484 2.01151 3.83552 2.00038 4.93663V4.93965C2.00038 4.94456 2 4.94984 2 4.95494V15.0943C2.00132 16.2025 2.89939 17.1006 4.00767 17.1019H19.9922C21.1005 17.1006 21.9986 16.2025 21.9999 15.0943V4.95494C21.9999 4.94984 21.9997 4.94475 21.9995 4.93965C21.9995 4.93871 21.9995 4.93758 21.9995 4.93663ZM4.00767 3.6236H19.9922C20.6571 3.62435 21.2196 4.11481 21.3111 4.7734L11.9999 10.463L2.68898 4.77302C2.78069 4.11481 3.34304 3.62454 4.00767 3.6236ZM19.9922 16.4256H4.00767C3.27265 16.4246 2.67709 15.8291 2.67614 15.0943V5.55786L11.8236 11.148C11.9319 11.214 12.068 11.214 12.1763 11.148L21.3236 5.55786V15.0941C21.3228 15.8291 20.7273 16.4246 19.9922 16.4256Z" fill="black"/>
</svg>
