<svg width="42" height="36" viewBox="0 0 42 36" fill="none" xmlns="http://www.w3.org/2000/svg">
<path d="M21.9575 16.6412C21.8299 16.5317 21.684 16.4588 21.5198 16.4041C21.3557 16.3676 21.1733 16.3494 20.9545 16.3494H20.1156C19.9697 16.3494 19.8785 16.3858 19.8055 16.4406C19.7508 16.4953 19.7144 16.6047 19.7144 16.7506V19.1032C19.7144 19.2126 19.7144 19.2855 19.7508 19.3585C19.7691 19.4314 19.8055 19.4679 19.8603 19.5044C19.915 19.5409 20.0061 19.5591 20.1338 19.5591H20.9727C21.1186 19.5591 21.2463 19.5409 21.3739 19.5226C21.4834 19.5044 21.5928 19.4679 21.7022 19.4314C21.8116 19.3767 21.9028 19.322 21.9758 19.2491C22.0852 19.1397 22.1764 19.0302 22.2493 18.9026C22.3223 18.7749 22.377 18.629 22.4134 18.4649C22.4499 18.3007 22.4682 18.1366 22.4682 17.936C22.4682 17.3706 22.304 16.933 21.9575 16.6412ZM21.4834 18.9026C21.4286 18.939 21.3739 18.9755 21.3192 18.9938C21.2463 19.012 21.1916 19.0302 21.1368 19.0302C21.0821 19.0302 20.991 19.0302 20.8815 19.0302H20.3891V16.8418H20.8268C21.0274 16.8418 21.1916 16.86 21.3375 16.9147C21.4834 16.9512 21.5928 17.0606 21.684 17.2247C21.7751 17.3889 21.8299 17.626 21.8299 17.936C21.8116 18.4102 21.7022 18.7202 21.4834 18.9026Z" fill="#757575"/>
<path d="M27.7569 12.5927L27.7387 12.5745V12.5562L24.2737 9.09119L24.2554 9.07295C24.2554 9.07295 24.2372 9.07295 24.2372 9.05471C24.2372 9.05471 24.2189 9.05471 24.2189 9.03647C24.1642 9 24.1095 9 24.0366 9H15.4469C15.1186 9 14.8086 9.12766 14.5898 9.3465L14.5715 9.36474C14.3527 9.58359 14.2068 9.91185 14.2068 10.2401V25.7599C14.2068 26.1064 14.3527 26.4164 14.5715 26.6353C14.7904 26.8541 15.1186 27 15.4469 27H26.5533C26.8998 27 27.2098 26.8541 27.4287 26.6353C27.6475 26.4164 27.7934 26.0881 27.7934 25.7599V12.7751C27.7934 12.7021 27.7752 12.6474 27.7569 12.5927ZM24.3831 10.3131L26.4439 12.3739H24.9302C24.7843 12.3739 24.6384 12.3191 24.5472 12.2097C24.456 12.1185 24.3831 11.9726 24.3831 11.8267V10.3131ZM27.0092 25.7599C27.0092 25.8875 26.9545 25.997 26.8633 26.0881C26.7721 26.1793 26.6627 26.234 26.5351 26.234H15.4469C15.3192 26.234 15.2098 26.1793 15.1186 26.1064C15.0275 26.0152 14.991 25.9058 14.991 25.7781V10.2219C14.991 10.0942 15.0457 9.9848 15.1369 9.89362L15.1551 9.87538C15.2463 9.80243 15.3557 9.74772 15.4651 9.74772H23.6354V11.8085C23.6354 12.1733 23.7813 12.5015 24.0366 12.7568C24.2737 12.9939 24.6202 13.1398 24.9849 13.1398H27.0092V25.7599Z" fill="#757575"/>
<path d="M18.8755 16.6048C18.7843 16.5136 18.6749 16.4589 18.529 16.4224C18.4013 16.3859 18.2007 16.3677 17.9636 16.3677H17.1247C16.9788 16.3677 16.8694 16.4042 16.8147 16.4589C16.7417 16.5136 16.7235 16.623 16.7235 16.7689V19.2492C16.7235 19.3768 16.76 19.468 16.8147 19.541C16.8694 19.6139 16.9606 19.6321 17.0518 19.6321C17.143 19.6321 17.2159 19.5957 17.2889 19.5227C17.3436 19.4498 17.38 19.3586 17.38 19.2309V18.3191H17.9819C18.3831 18.3191 18.6749 18.2279 18.8755 18.0638C19.0761 17.8996 19.1855 17.6443 19.1855 17.316C19.1855 17.1701 19.1673 17.0242 19.1126 16.8966C19.0396 16.7872 18.9667 16.6777 18.8755 16.6048ZM18.4378 17.6261C18.3831 17.699 18.3101 17.7537 18.2007 17.7902C18.0913 17.8267 17.9636 17.8449 17.8177 17.8449H17.38V16.8601H17.8177C18.1095 16.8601 18.2919 16.9148 18.4013 17.006C18.4925 17.0972 18.529 17.2066 18.529 17.3525C18.5108 17.4619 18.4925 17.5531 18.4378 17.6261Z" fill="#757575"/>
<path d="M23.4347 16.3315C23.3252 16.3497 23.2523 16.368 23.1976 16.4044C23.1429 16.4227 23.0882 16.4774 23.0699 16.5321C23.0334 16.5868 23.0334 16.6597 23.0334 16.7692V19.2312C23.0334 19.3588 23.0699 19.4683 23.1246 19.523C23.1793 19.5959 23.2705 19.6142 23.3617 19.6142C23.4529 19.6142 23.5258 19.5777 23.5988 19.523C23.6535 19.45 23.69 19.3588 23.69 19.2312V18.1734H24.766C24.8572 18.1734 24.9301 18.1552 24.9848 18.1005C25.0395 18.064 25.0578 17.9911 25.0578 17.9181C25.0578 17.8452 25.0395 17.7904 24.9848 17.7357C24.9301 17.6993 24.8572 17.6628 24.766 17.6628H23.69V16.8421H24.9666C25.076 16.8421 25.1489 16.8239 25.2037 16.7692C25.2584 16.7145 25.2766 16.6597 25.2766 16.5868C25.2766 16.5139 25.2584 16.4591 25.2037 16.4044C25.1489 16.3497 25.076 16.3315 24.9666 16.3315H23.4347Z" fill="#757575"/>
<rect x="0.5" y="0.5" width="40.6758" height="35.0219"/>
</svg>
