<svg width="18" height="18" viewBox="0 0 18 18" fill="none" xmlns="http://www.w3.org/2000/svg">
<path d="M9.95752 7.6414C9.82986 7.53198 9.68396 7.45903 9.51983 7.40432C9.35569 7.36785 9.17332 7.34961 8.95448 7.34961H8.11557C7.96967 7.34961 7.87849 7.38608 7.80554 7.4408C7.75083 7.49551 7.71436 7.60493 7.71436 7.75083V10.1034C7.71436 10.2128 7.71436 10.2858 7.75083 10.3587C7.76907 10.4317 7.80554 10.4682 7.86025 10.5046C7.91496 10.5411 8.00615 10.5594 8.13381 10.5594H8.97271C9.11861 10.5594 9.24627 10.5411 9.37393 10.5229C9.48335 10.5046 9.59278 10.4682 9.7022 10.4317C9.81162 10.377 9.90281 10.3223 9.97575 10.2493C10.0852 10.1399 10.1764 10.0305 10.2493 9.90281C10.3223 9.77515 10.377 9.62926 10.4134 9.46512C10.4499 9.30099 10.4682 9.13685 10.4682 8.93624C10.4682 8.37089 10.304 7.9332 9.95752 7.6414ZM9.48335 9.90281C9.42864 9.93929 9.37393 9.97576 9.31922 9.994C9.24627 10.0122 9.19156 10.0305 9.13685 10.0305C9.08214 10.0305 8.99095 10.0305 8.88153 10.0305H8.38913V7.84201H8.82682C9.02743 7.84201 9.19156 7.86025 9.33746 7.91496C9.48335 7.95144 9.59277 8.06086 9.68396 8.22499C9.77515 8.38913 9.82986 8.62621 9.82986 8.93624C9.81162 9.41041 9.7022 9.72044 9.48335 9.90281Z" fill="#757575"/>
<path d="M15.7569 3.59271L15.7387 3.57447V3.55623L12.2737 0.0911854L12.2554 0.0729483C12.2554 0.0729483 12.2372 0.0729483 12.2372 0.0547112C12.2372 0.0547112 12.2189 0.0547112 12.2189 0.0364742C12.1642 0 12.1095 0 12.0366 0H3.44691C3.11864 0 2.80861 0.12766 2.58977 0.346505L2.57153 0.364742C2.35268 0.583587 2.20679 0.911854 2.20679 1.24012V16.7599C2.20679 17.1064 2.35268 17.4164 2.57153 17.6353C2.79037 17.8541 3.11864 18 3.44691 18H14.5533C14.8998 18 15.2098 17.8541 15.4287 17.6353C15.6475 17.4164 15.7934 17.0881 15.7934 16.7599V3.77508C15.7934 3.70213 15.7752 3.64742 15.7569 3.59271ZM12.3831 1.31307L14.4439 3.37386H12.9302C12.7843 3.37386 12.6384 3.31915 12.5472 3.20973C12.456 3.11854 12.3831 2.97264 12.3831 2.82675V1.31307ZM15.0092 16.7599C15.0092 16.8875 14.9545 16.997 14.8633 17.0881C14.7721 17.1793 14.6627 17.234 14.5351 17.234H3.44691C3.31925 17.234 3.20983 17.1793 3.11864 17.1064C3.02746 17.0152 2.99098 16.9058 2.99098 16.7781V1.22188C2.99098 1.09422 3.04569 0.984802 3.13688 0.893617L3.15512 0.87538C3.2463 0.802432 3.35572 0.74772 3.46515 0.74772H11.6354V2.80851C11.6354 3.17325 11.7813 3.50152 12.0366 3.75684C12.2737 3.99392 12.6202 4.13982 12.9849 4.13982H15.0092V16.7599Z" fill="#757575"/>
<path d="M6.87562 7.60525C6.78444 7.51406 6.67501 7.45935 6.52911 7.42288C6.40145 7.3864 6.20085 7.36816 5.96376 7.36816H5.12485C4.97895 7.36816 4.86953 7.40464 4.81482 7.45935C4.74187 7.51406 4.72363 7.62348 4.72363 7.76938V10.2496C4.72363 10.3773 4.76011 10.4685 4.81482 10.5414C4.86953 10.6144 4.96072 10.6326 5.0519 10.6326C5.14309 10.6326 5.21604 10.5961 5.28899 10.5232C5.3437 10.4502 5.38017 10.359 5.38017 10.2314V9.31953H5.982C6.38322 9.31953 6.67501 9.22835 6.87562 9.06421C7.07623 8.90008 7.18565 8.64476 7.18565 8.31649C7.18565 8.1706 7.16742 8.0247 7.1127 7.89704C7.03976 7.78762 6.96681 7.67819 6.87562 7.60525ZM6.43793 8.62652C6.38322 8.69947 6.31027 8.75418 6.20085 8.79066C6.09142 8.82713 5.96376 8.84537 5.81786 8.84537H5.38017V7.86056H5.81786C6.10966 7.86056 6.29203 7.91528 6.40145 8.00646C6.49264 8.09765 6.52911 8.20707 6.52911 8.35297C6.51088 8.46239 6.49264 8.55357 6.43793 8.62652Z" fill="#757575"/>
<path d="M11.4347 7.33105C11.3252 7.34929 11.2523 7.36753 11.1976 7.404C11.1429 7.42224 11.0882 7.47695 11.0699 7.53166C11.0334 7.58637 11.0334 7.65932 11.0334 7.76874V10.2308C11.0334 10.3584 11.0699 10.4678 11.1246 10.5225C11.1793 10.5955 11.2705 10.6137 11.3617 10.6137C11.4529 10.6137 11.5258 10.5773 11.5988 10.5225C11.6535 10.4496 11.69 10.3584 11.69 10.2308V9.173H12.766C12.8572 9.173 12.9301 9.15476 12.9848 9.10005C13.0395 9.06358 13.0578 8.99063 13.0578 8.91768C13.0578 8.84473 13.0395 8.79002 12.9848 8.73531C12.9301 8.69884 12.8572 8.66236 12.766 8.66236H11.69V7.84169H12.9666C13.076 7.84169 13.1489 7.82346 13.2037 7.76874C13.2584 7.71403 13.2766 7.65932 13.2766 7.58637C13.2766 7.51343 13.2584 7.45871 13.2037 7.404C13.1489 7.34929 13.076 7.33105 12.9666 7.33105H11.4347Z" fill="#757575"/>
</svg>
