<svg width="18" height="18" viewBox="0 0 18 18" fill="none" xmlns="http://www.w3.org/2000/svg">
<g clip-path="url(#clip0)">
<path d="M15.7256 0.66945C14.8309 -0.22315 13.3828 -0.22315 12.4882 0.66945L1.63343 11.5243C1.50127 11.6564 1.46282 11.8558 1.53632 12.0279L0.0689243 17.4221C0.0256446 17.5811 0.0712493 17.7512 0.188212 17.8672C0.305353 17.9833 0.47579 18.0275 0.634422 17.983L5.98806 16.4782C6.15956 16.5503 6.35754 16.5113 6.48899 16.3798L17.3438 5.52501C18.2377 4.63098 18.2377 3.18164 17.3438 2.28761L15.7256 0.66945ZM11.8523 2.60005L15.3937 6.18011L6.16511 15.4085L2.60455 11.848L11.8523 2.60005ZM2.27226 12.8107L5.20795 15.7462L1.16451 16.8829L2.27226 12.8107ZM16.6962 4.8776L16.0413 5.53252L12.4999 1.95264L13.1357 1.31704C13.6725 0.781405 14.5414 0.781405 15.0782 1.31704L16.6964 2.9352C17.2318 3.4719 17.2318 4.3409 16.6962 4.8776Z" fill="#757575"/>
</g>
<defs>
<clipPath id="clip0">
<rect width="18" height="18" fill="white"/>
</clipPath>
</defs>
</svg>
