<svg width="43" height="38" viewBox="0 0 43 38" fill="none" xmlns="http://www.w3.org/2000/svg">
<g clip-path="url(#clip0)">
<path d="M27.7256 10.6695C26.8309 9.77685 25.3828 9.77685 24.4882 10.6695L13.6334 21.5243C13.5013 21.6564 13.4628 21.8558 13.5363 22.0279L12.0689 27.4221C12.0256 27.5811 12.0712 27.7512 12.1882 27.8672C12.3054 27.9833 12.4758 28.0275 12.6344 27.983L17.9881 26.4782C18.1596 26.5503 18.3575 26.5113 18.489 26.3798L29.3438 15.525C30.2377 14.631 30.2377 13.1816 29.3438 12.2876L27.7256 10.6695ZM23.8523 12.6L27.3937 16.1801L18.1651 25.4085L14.6045 21.848L23.8523 12.6ZM14.2723 22.8107L17.2079 25.7462L13.1645 26.8829L14.2723 22.8107ZM28.6962 14.8776L28.0413 15.5325L24.4999 11.9526L25.1357 11.317C25.6725 10.7814 26.5414 10.7814 27.0782 11.317L28.6964 12.9352C29.2318 13.4719 29.2318 14.3409 28.6962 14.8776Z" fill="#757575"/>
</g>
<rect x="0.5" y="0.5" width="42" height="37" stroke="#E8ECEF"/>
<defs>
<clipPath id="clip0">
<rect width="18" height="18" fill="white" transform="translate(12 10)"/>
</clipPath>
</defs>
</svg>