<svg width="24" height="24" viewBox="0 0 24 24" fill="none" xmlns="http://www.w3.org/2000/svg">
<path d="M22.0056 18.1556L18.1844 16.2452C17.824 16.0648 17.6 15.7024 17.6 15.2992V13.9468C17.6916 13.8348 17.788 13.7072 17.8876 13.5664C18.3832 12.8664 18.7804 12.0872 19.0692 11.2468C19.6336 10.988 20 10.43 20 9.8V8.2C20 7.8148 19.856 7.4416 19.6 7.15V5.0224C19.6224 4.8024 19.7104 3.4928 18.7632 2.4124C17.9416 1.4752 16.6084 1 14.8 1C12.9916 1 11.6584 1.4752 10.8368 2.412C10.2628 3.0668 10.0696 3.8044 10.0112 4.334C9.3256 3.9796 8.5176 3.8 7.6 3.8C3.4444 3.8 3.2024 7.342 3.2 7.4V9.2316C2.9408 9.514 2.8 9.84 2.8 10.1636V11.5452C2.8 11.9768 2.9932 12.3792 3.3244 12.6512C3.6544 13.8952 4.466 14.8352 4.782 15.1652V16.2624C4.782 16.5772 4.6108 16.866 4.3136 17.0284L1.6524 18.6976C0.6332 19.2536 0 20.3204 0 21.4812V23H5.6H6.4H24V21.3828C24 20.0076 23.2356 18.7708 22.0056 18.1556ZM5.6 21.3048V22.2H0.8V21.4812C0.8 20.6132 1.2736 19.8156 2.0564 19.388L4.7172 17.7188C5.2504 17.428 5.5816 16.8704 5.5816 16.2624V14.826L5.4544 14.7072C5.444 14.6976 4.3812 13.6936 4.0672 12.3252L4.0308 12.1668L3.894 12.0788C3.71 11.9596 3.6 11.76 3.6 11.5452V10.1636C3.6 10.0196 3.698 9.8484 3.8684 9.694L4 9.5752L3.9992 7.4232C4.0064 7.3084 4.2148 4.6 7.6 4.6C8.5572 4.6 9.3632 4.8212 10 5.2576V7.15C9.744 7.4416 9.6 7.8148 9.6 8.2V9.8C9.6 9.9216 9.614 10.0412 9.6404 10.1572C9.6512 10.2036 9.6728 10.246 9.6876 10.2908C9.7096 10.358 9.7272 10.4272 9.758 10.4908C9.7584 10.4916 9.7588 10.492 9.7592 10.4928C9.8616 10.704 10.0108 10.8928 10.1988 11.0436C10.2008 11.0512 10.2032 11.058 10.2052 11.0652C10.2292 11.1568 10.2544 11.248 10.2816 11.3372L10.314 11.4416C10.3196 11.46 10.3264 11.4788 10.3324 11.4972C10.3464 11.5404 10.36 11.5832 10.3744 11.6256C10.3984 11.6956 10.4236 11.768 10.4528 11.8468C10.4652 11.8796 10.4788 11.9092 10.4916 11.9416C10.5244 12.0252 10.5572 12.106 10.5916 12.186C10.6 12.2052 10.6072 12.226 10.6156 12.2448L10.638 12.2952C10.6484 12.3184 10.6592 12.3392 10.6696 12.362C10.7088 12.4476 10.7472 12.5304 10.7872 12.6104C10.7936 12.6232 10.7996 12.6372 10.806 12.65C10.8312 12.7 10.8564 12.7472 10.8816 12.7952C10.9248 12.8776 10.9672 12.9552 11.0096 13.0304C11.0304 13.0672 11.0508 13.1032 11.0712 13.138C11.1288 13.2364 11.1836 13.3268 11.2368 13.4108C11.2484 13.4288 11.2596 13.4476 11.2708 13.4648C11.3676 13.6148 11.4516 13.7364 11.5212 13.8312C11.5396 13.8564 11.5556 13.878 11.5712 13.8992C11.58 13.9108 11.592 13.9276 11.5996 13.938V15.2616C11.5996 15.6488 11.3884 16.004 11.0488 16.1896L9.9904 16.7668L9.806 16.7504L9.7308 16.9084L7.4804 18.136C6.3204 18.7696 5.6 19.9832 5.6 21.3048ZM23.2 22.2H6.4V21.3048C6.4 20.2764 6.9608 19.3312 7.8636 18.8392L11.432 16.8928C12.0292 16.5668 12.4 15.9416 12.4 15.262V13.6548V13.6544L12.3224 13.5616L12.3072 13.5436C12.3064 13.5424 12.2816 13.5124 12.2412 13.4596C12.2388 13.4564 12.2364 13.4532 12.2336 13.45C12.2124 13.4224 12.1876 13.3892 12.1592 13.3496C12.1588 13.3488 12.1584 13.3484 12.158 13.3476C12.0984 13.2648 12.0236 13.1572 11.9404 13.0276C11.9384 13.0248 11.9368 13.0216 11.9348 13.0188C11.8956 12.9576 11.854 12.8908 11.8116 12.82C11.8084 12.8148 11.8052 12.8096 11.802 12.804C11.7116 12.6524 11.6156 12.4808 11.52 12.2908C11.52 12.2908 11.5196 12.2904 11.5196 12.29C11.4688 12.188 11.418 12.0808 11.3684 11.9692C11.3616 11.9536 11.3544 11.9384 11.3476 11.9228C11.3256 11.8728 11.3036 11.8204 11.2812 11.7664C11.2732 11.7468 11.2652 11.7264 11.2572 11.7064C11.2364 11.654 11.2152 11.6012 11.1928 11.5408C11.152 11.432 11.1136 11.3184 11.0768 11.2012L11.0548 11.13C11.0524 11.122 11.0496 11.114 11.0472 11.1056C11.0096 10.9792 10.9736 10.85 10.9432 10.7172L10.9068 10.5588L10.7704 10.4708C10.5384 10.3212 10.4 10.0704 10.4 9.8V8.2C10.4 7.9756 10.4952 7.7664 10.668 7.61L10.8 7.4912V5V4.8584L10.7892 4.85C10.7756 4.5612 10.7928 3.676 11.4384 2.9396C12.1012 2.1832 13.2324 1.8 14.8 1.8C16.362 1.8 17.4908 2.1804 18.1544 2.9312C18.9332 3.8116 18.8044 4.938 18.8036 4.9476L18.8 7.4912L18.932 7.6104C19.1048 7.7664 19.2 7.9756 19.2 8.2V9.8C19.2 10.1492 18.9712 10.4548 18.6312 10.5596L18.432 10.6208L18.368 10.8188C18.1004 11.6512 17.7192 12.42 17.2344 13.104C17.1156 13.2724 17 13.4216 16.8996 13.5356L16.8 13.6492V15.2992C16.8 16.0072 17.1932 16.6436 17.8264 16.9604L21.6476 18.8708C22.6052 19.3496 23.2 20.312 23.2 21.3828V22.2Z" fill="black"/>
</svg>
