<svg width="24" height="22" viewBox="0 0 24 22" fill="none" xmlns="http://www.w3.org/2000/svg">
<path d="M22.0056 17.1556L18.1844 15.2452C17.824 15.0648 17.6 14.7024 17.6 14.2992V12.9468C17.6916 12.8348 17.788 12.7072 17.8876 12.5664C18.3832 11.8664 18.7804 11.0872 19.0692 10.2468C19.6336 9.988 20 9.43 20 8.8V7.2C20 6.8148 19.856 6.4416 19.6 6.15V4.0224C19.6224 3.8024 19.7104 2.4928 18.7632 1.4124C17.9416 0.4752 16.6084 0 14.8 0C12.9916 0 11.6584 0.4752 10.8368 1.412C10.2628 2.0668 10.0696 2.8044 10.0112 3.334C9.3256 2.9796 8.5176 2.8 7.6 2.8C3.4444 2.8 3.2024 6.342 3.2 6.4V8.2316C2.9408 8.514 2.8 8.84 2.8 9.1636V10.5452C2.8 10.9768 2.9932 11.3792 3.3244 11.6512C3.6544 12.8952 4.466 13.8352 4.782 14.1652V15.2624C4.782 15.5772 4.6108 15.866 4.3136 16.0284L1.6524 17.6976C0.6332 18.2536 0 19.3204 0 20.4812V22H5.6H6.4H24V20.3828C24 19.0076 23.2356 17.7708 22.0056 17.1556ZM5.6 20.3048V21.2H0.8V20.4812C0.8 19.6132 1.2736 18.8156 2.0564 18.388L4.7172 16.7188C5.2504 16.428 5.5816 15.8704 5.5816 15.2624V13.826L5.4544 13.7072C5.444 13.6976 4.3812 12.6936 4.0672 11.3252L4.0308 11.1668L3.894 11.0788C3.71 10.9596 3.6 10.76 3.6 10.5452V9.1636C3.6 9.0196 3.698 8.8484 3.8684 8.694L4 8.5752L3.9992 6.4232C4.0064 6.3084 4.2148 3.6 7.6 3.6C8.5572 3.6 9.3632 3.8212 10 4.2576V6.15C9.744 6.4416 9.6 6.8148 9.6 7.2V8.8C9.6 8.9216 9.614 9.0412 9.6404 9.1572C9.6512 9.2036 9.6728 9.246 9.6876 9.2908C9.7096 9.358 9.7272 9.4272 9.758 9.4908C9.7584 9.4916 9.7588 9.492 9.7592 9.4928C9.8616 9.704 10.0108 9.8928 10.1988 10.0436C10.2008 10.0512 10.2032 10.058 10.2052 10.0652C10.2292 10.1568 10.2544 10.248 10.2816 10.3372L10.314 10.4416C10.3196 10.46 10.3264 10.4788 10.3324 10.4972C10.3464 10.5404 10.36 10.5832 10.3744 10.6256C10.3984 10.6956 10.4236 10.768 10.4528 10.8468C10.4652 10.8796 10.4788 10.9092 10.4916 10.9416C10.5244 11.0252 10.5572 11.106 10.5916 11.186C10.6 11.2052 10.6072 11.226 10.6156 11.2448L10.638 11.2952C10.6484 11.3184 10.6592 11.3392 10.6696 11.362C10.7088 11.4476 10.7472 11.5304 10.7872 11.6104C10.7936 11.6232 10.7996 11.6372 10.806 11.65C10.8312 11.7 10.8564 11.7472 10.8816 11.7952C10.9248 11.8776 10.9672 11.9552 11.0096 12.0304C11.0304 12.0672 11.0508 12.1032 11.0712 12.138C11.1288 12.2364 11.1836 12.3268 11.2368 12.4108C11.2484 12.4288 11.2596 12.4476 11.2708 12.4648C11.3676 12.6148 11.4516 12.7364 11.5212 12.8312C11.5396 12.8564 11.5556 12.878 11.5712 12.8992C11.58 12.9108 11.592 12.9276 11.5996 12.938V14.2616C11.5996 14.6488 11.3884 15.004 11.0488 15.1896L9.9904 15.7668L9.806 15.7504L9.7308 15.9084L7.4804 17.136C6.3204 17.7696 5.6 18.9832 5.6 20.3048ZM23.2 21.2H6.4V20.3048C6.4 19.2764 6.9608 18.3312 7.8636 17.8392L11.432 15.8928C12.0292 15.5668 12.4 14.9416 12.4 14.262V12.6548V12.6544L12.3224 12.5616L12.3072 12.5436C12.3064 12.5424 12.2816 12.5124 12.2412 12.4596C12.2388 12.4564 12.2364 12.4532 12.2336 12.45C12.2124 12.4224 12.1876 12.3892 12.1592 12.3496C12.1588 12.3488 12.1584 12.3484 12.158 12.3476C12.0984 12.2648 12.0236 12.1572 11.9404 12.0276C11.9384 12.0248 11.9368 12.0216 11.9348 12.0188C11.8956 11.9576 11.854 11.8908 11.8116 11.82C11.8084 11.8148 11.8052 11.8096 11.802 11.804C11.7116 11.6524 11.6156 11.4808 11.52 11.2908C11.52 11.2908 11.5196 11.2904 11.5196 11.29C11.4688 11.188 11.418 11.0808 11.3684 10.9692C11.3616 10.9536 11.3544 10.9384 11.3476 10.9228C11.3256 10.8728 11.3036 10.8204 11.2812 10.7664C11.2732 10.7468 11.2652 10.7264 11.2572 10.7064C11.2364 10.654 11.2152 10.6012 11.1928 10.5408C11.152 10.432 11.1136 10.3184 11.0768 10.2012L11.0548 10.13C11.0524 10.122 11.0496 10.114 11.0472 10.1056C11.0096 9.9792 10.9736 9.85 10.9432 9.7172L10.9068 9.5588L10.7704 9.4708C10.5384 9.3212 10.4 9.0704 10.4 8.8V7.2C10.4 6.9756 10.4952 6.7664 10.668 6.61L10.8 6.4912V4V3.8584L10.7892 3.85C10.7756 3.5612 10.7928 2.676 11.4384 1.9396C12.1012 1.1832 13.2324 0.8 14.8 0.8C16.362 0.8 17.4908 1.1804 18.1544 1.9312C18.9332 2.8116 18.8044 3.938 18.8036 3.9476L18.8 6.4912L18.932 6.6104C19.1048 6.7664 19.2 6.9756 19.2 7.2V8.8C19.2 9.1492 18.9712 9.4548 18.6312 9.5596L18.432 9.6208L18.368 9.8188C18.1004 10.6512 17.7192 11.42 17.2344 12.104C17.1156 12.2724 17 12.4216 16.8996 12.5356L16.8 12.6492V14.2992C16.8 15.0072 17.1932 15.6436 17.8264 15.9604L21.6476 17.8708C22.6052 18.3496 23.2 19.312 23.2 20.3828V21.2Z" fill="black"/>
</svg>