<svg width="42" height="36" viewBox="0 0 42 36" fill="none" xmlns="http://www.w3.org/2000/svg">
<path d="M26.8943 13.6895H26.4317V12.6599C26.4317 11.1938 25.2379 10 23.7718 10H18.1871C16.721 10 15.5273 11.1938 15.5273 12.6599V13.6895H15.1057C13.6396 13.6895 12.4458 14.8833 12.4458 16.3494V20.6396C12.4458 22.1057 13.6396 23.2995 15.1057 23.2995H15.5235V26.6719C15.5235 27.4031 16.1204 28 16.8516 28H25.0999C25.8311 28 26.428 27.4031 26.428 26.6719V23.2995H26.8943C28.3604 23.2995 29.5542 22.1057 29.5542 20.6396V16.3494C29.5542 14.8833 28.3604 13.6895 26.8943 13.6895ZM16.5308 12.6599C16.5308 11.7496 17.2732 11.0073 18.1834 11.0073H23.7643C24.6746 11.0073 25.417 11.7496 25.417 12.6599V13.6895H16.5308V12.6599ZM25.4207 26.6794C25.4207 26.8547 25.2752 27.0002 25.0999 27.0002H16.8516C16.6763 27.0002 16.5308 26.8547 16.5308 26.6794V21.1171H25.4207V26.6794ZM28.5469 20.6433C28.5469 21.5536 27.8046 22.296 26.8943 22.296H26.4317V21.1171H27.0957C27.3755 21.1171 27.5994 20.8933 27.5994 20.6135C27.5994 20.3337 27.3755 20.1098 27.0957 20.1098H14.7849C14.5051 20.1098 14.2812 20.3337 14.2812 20.6135C14.2812 20.8933 14.5051 21.1171 14.7849 21.1171H15.5273V22.296H15.1057C14.1954 22.296 13.4531 21.5536 13.4531 20.6433V16.3532C13.4531 15.4429 14.1954 14.7005 15.1057 14.7005H26.8943C27.8046 14.7005 28.5469 15.4429 28.5469 16.3532V20.6433Z" fill="#757575"/>
<path d="M17.7507 23.5943H24.1635C24.4433 23.5943 24.6672 23.3705 24.6672 23.0907C24.6672 22.8109 24.4433 22.587 24.1635 22.587H17.7507C17.4709 22.587 17.2471 22.8109 17.2471 23.0907C17.2471 23.3705 17.4746 23.5943 17.7507 23.5943Z" fill="#757575"/>
<path d="M24.2046 24.6461H17.7881C17.5083 24.6461 17.2844 24.87 17.2844 25.1497C17.2844 25.4295 17.5083 25.6534 17.7881 25.6534H24.2009C24.4807 25.6534 24.7045 25.4295 24.7045 25.1497C24.7045 24.87 24.4807 24.6461 24.2046 24.6461Z" fill="#757575"/>
<path d="M26.8832 15.6668H25.861C25.5813 15.6668 25.3574 15.8906 25.3574 16.1704C25.3574 16.4502 25.5813 16.6741 25.861 16.6741H26.8832C27.163 16.6741 27.3869 16.4502 27.3869 16.1704C27.3869 15.8906 27.163 15.6668 26.8832 15.6668Z" fill="#757575"/>
<rect x="0.5" y="0.5" width="40.6758" height="35.0219"/>
</svg>
