<svg width="18" height="18" viewBox="0 0 18 18" fill="none" xmlns="http://www.w3.org/2000/svg">
<path d="M14.8943 3.68953H14.4317V2.6599C14.4317 1.19378 13.2379 0 11.7718 0H6.18715C4.72103 0 3.52725 1.19378 3.52725 2.6599V3.68953H3.1057C1.63958 3.68953 0.445801 4.88332 0.445801 6.34943V10.6396C0.445801 12.1057 1.63958 13.2995 3.1057 13.2995H3.52352V16.6719C3.52352 17.4031 4.12041 18 4.8516 18H13.0999C13.8311 18 14.428 17.4031 14.428 16.6719V13.2995H14.8943C16.3604 13.2995 17.5542 12.1057 17.5542 10.6396V6.34943C17.5542 4.88332 16.3604 3.68953 14.8943 3.68953ZM4.53077 2.6599C4.53077 1.74964 5.27316 1.00725 6.18342 1.00725H11.7643C12.6746 1.00725 13.417 1.74964 13.417 2.6599V3.68953H4.53077V2.6599ZM13.4207 16.6794C13.4207 16.8547 13.2752 17.0002 13.0999 17.0002H4.8516C4.67627 17.0002 4.53077 16.8547 4.53077 16.6794V11.1171H13.4207V16.6794ZM16.5469 10.6433C16.5469 11.5536 15.8046 12.296 14.8943 12.296H14.4317V11.1171H15.0957C15.3755 11.1171 15.5994 10.8933 15.5994 10.6135C15.5994 10.3337 15.3755 10.1098 15.0957 10.1098H2.78487C2.50508 10.1098 2.28124 10.3337 2.28124 10.6135C2.28124 10.8933 2.50508 11.1171 2.78487 11.1171H3.52725V12.296H3.1057C2.19544 12.296 1.45305 11.5536 1.45305 10.6433V6.35316C1.45305 5.4429 2.19544 4.70052 3.1057 4.70052H14.8943C15.8046 4.70052 16.5469 5.4429 16.5469 6.35316V10.6433Z" fill="#757575"/>
<path d="M5.7507 13.5942H12.1635C12.4433 13.5942 12.6672 13.3703 12.6672 13.0905C12.6672 12.8107 12.4433 12.5869 12.1635 12.5869H5.7507C5.4709 12.5869 5.24707 12.8107 5.24707 13.0905C5.24707 13.3703 5.47464 13.5942 5.7507 13.5942Z" fill="#757575"/>
<path d="M12.2046 14.6465H5.78805C5.50826 14.6465 5.28442 14.8703 5.28442 15.1501C5.28442 15.4299 5.50826 15.6537 5.78805 15.6537H12.2009C12.4807 15.6537 12.7045 15.4299 12.7045 15.1501C12.7045 14.8703 12.4807 14.6465 12.2046 14.6465Z" fill="#757575"/>
<path d="M14.8832 5.66699H13.861C13.5813 5.66699 13.3574 5.89083 13.3574 6.17062C13.3574 6.45041 13.5813 6.67425 13.861 6.67425H14.8832C15.163 6.67425 15.3869 6.45041 15.3869 6.17062C15.3869 5.89083 15.163 5.66699 14.8832 5.66699Z" fill="#757575"/>
</svg>
