<svg width="16" height="16" viewBox="0 0 16 16" fill="none" xmlns="http://www.w3.org/2000/svg">
<path d="M6.79993 1.59375H0.400024C0.179077 1.59375 0 1.77283 0 1.99377V8.39368C0 8.6145 0.179077 8.7937 0.400024 8.7937H4.79211C4.70117 11.0029 3.82922 11.9937 2.00012 11.9937C1.7793 11.9937 1.60022 12.1727 1.60022 12.3936V13.9935C1.60022 14.2145 1.7793 14.3936 2.00012 14.3936C4.39905 14.3936 7.20007 12.8225 7.20007 8.39368V1.99377C7.20007 1.77283 7.021 1.59375 6.80017 1.59375C6.80005 1.59375 6.79993 1.59375 6.79993 1.59375ZM6.3999 8.39368C6.3999 11.9882 4.40234 13.4131 2.40002 13.5773V12.7788C4.52393 12.6188 5.59998 11.1453 5.59998 8.39368C5.59998 8.17285 5.42078 7.99365 5.19995 7.99365H0.800049V2.3938H6.3999V8.39368Z" fill="#757575"/>
<path d="M15.5997 1.59375H9.19971C8.97888 1.59375 8.7998 1.77283 8.7998 1.99377V8.39368C8.7998 8.6145 8.97888 8.7937 9.19971 8.7937H13.5919C13.5009 11.0029 12.629 11.9937 10.7999 11.9937C10.5791 11.9937 10.3999 12.1727 10.3999 12.3936V13.9935C10.3999 14.2145 10.5791 14.3936 10.7999 14.3936C13.1987 14.3936 15.9999 12.8225 15.9999 8.39368V1.99377C15.9999 1.77283 15.8207 1.59375 15.5997 1.59375ZM15.1997 8.39368C15.1997 11.9882 13.202 13.4131 11.1997 13.5773V12.7788C13.3237 12.6188 14.3997 11.1453 14.3997 8.39368C14.3997 8.17285 14.2206 7.99365 13.9998 7.99365H9.59973V2.3938H15.1997V8.39368Z" fill="#757575"/>
</svg>
