<svg width="303" height="271" viewBox="0 0 303 271" fill="none" xmlns="http://www.w3.org/2000/svg">
<path d="M152.099 3.79297L57.0098 62.3746C57.0098 62.3746 57.0098 183.199 152.099 249.103C247.189 183.199 247.189 62.3746 247.189 62.3746L152.099 3.79297Z" fill="#3F3D56"/>
<path opacity="0.04" d="M152.666 3.79297L151.041 4.79436V247.961C151.581 248.343 152.12 248.725 152.666 249.103C247.756 183.199 247.756 62.3745 247.756 62.3745L152.666 3.79297Z" fill="#008FFF"/>
<g opacity="0.7">
<path opacity="0.7" d="M129.079 122.502L147.004 138.952L169.226 106.859L178.189 114.337L147.004 153.907L121.609 125.493L129.079 122.502Z" fill="url(#paint0_linear)"/>
</g>
<path d="M133.31 123.49L147.851 136.834L168.451 106.506L175.722 112.572L147.851 148.965L127.251 125.916L133.31 123.49Z" fill="#3AD29F"/>
<path opacity="0.5" d="M58.2767 16.9266C57.9852 16.7995 57.7506 16.5696 57.6174 16.2806C57.4843 15.9915 57.462 15.6636 57.5548 15.3591C57.5698 15.3124 57.5792 15.2642 57.583 15.2153C57.5914 15.0758 57.5548 14.9373 57.4785 14.8203C57.4022 14.7032 57.2903 14.6139 57.1593 14.5656C57.0284 14.5172 56.8854 14.5124 56.7514 14.5518C56.6175 14.5911 56.4998 14.6727 56.4158 14.7842C56.3869 14.8238 56.3628 14.8667 56.3439 14.9119C56.2169 15.2037 55.9873 15.4386 55.6985 15.5719C55.4098 15.7052 55.0822 15.7275 54.7781 15.6346C54.7315 15.6196 54.6833 15.6101 54.6344 15.6064C54.4951 15.5979 54.3567 15.6346 54.2399 15.711C54.123 15.7874 54.0338 15.8994 53.9855 16.0305C53.9372 16.1616 53.9323 16.3048 53.9716 16.4389C54.011 16.5729 54.0924 16.6908 54.2039 16.7749C54.2434 16.8038 54.2862 16.828 54.3314 16.8469C54.6229 16.974 54.8575 17.2039 54.9907 17.4929C55.1238 17.782 55.1461 18.1099 55.0533 18.4144C55.0383 18.4611 55.0289 18.5093 55.0251 18.5582C55.0167 18.6977 55.0533 18.8362 55.1296 18.9532C55.2059 19.0703 55.3178 19.1596 55.4488 19.2079C55.5797 19.2563 55.7227 19.2611 55.8567 19.2217C55.9906 19.1824 56.1083 19.1008 56.1923 18.9893C56.2212 18.9497 56.2453 18.9068 56.2642 18.8616C56.3912 18.5698 56.6209 18.3349 56.9096 18.2016C57.1983 18.0683 57.5259 18.046 57.83 18.1389C57.8766 18.1539 57.9248 18.1634 57.9737 18.1671C58.113 18.1756 58.2514 18.1389 58.3682 18.0625C58.4851 17.9861 58.5743 17.8741 58.6226 17.743C58.6709 17.6119 58.6758 17.4687 58.6365 17.3346C58.5971 17.2006 58.5157 17.0827 58.4042 16.9986C58.3647 16.9697 58.3219 16.9455 58.2767 16.9266Z" fill="#4D8AF0"/>
<path opacity="0.5" d="M6.80107 131.64C6.50959 131.512 6.27496 131.283 6.14185 130.993C6.00874 130.704 5.98644 130.376 6.07919 130.072C6.0942 130.025 6.10366 129.977 6.10736 129.928C6.11584 129.789 6.07922 129.65 6.00293 129.533C5.92663 129.416 5.81472 129.327 5.68376 129.278C5.5528 129.23 5.40977 129.225 5.27584 129.265C5.14191 129.304 5.02422 129.386 4.94019 129.497C4.9113 129.537 4.88717 129.58 4.8683 129.625C4.74135 129.917 4.51165 130.152 4.22293 130.285C3.93421 130.418 3.60662 130.44 3.30253 130.348C3.25591 130.333 3.20768 130.323 3.15884 130.319C3.01952 130.311 2.88116 130.347 2.76428 130.424C2.64739 130.5 2.55818 130.612 2.50987 130.743C2.46157 130.875 2.45672 131.018 2.49606 131.152C2.5354 131.286 2.61683 131.404 2.72828 131.488C2.76783 131.517 2.81065 131.541 2.85585 131.56C3.14733 131.687 3.38196 131.917 3.51507 132.206C3.64818 132.495 3.67048 132.823 3.57773 133.127C3.56272 133.174 3.55326 133.222 3.54956 133.271C3.54108 133.411 3.57769 133.549 3.65399 133.666C3.73029 133.783 3.8422 133.872 3.97316 133.921C4.10412 133.969 4.24715 133.974 4.38108 133.935C4.515 133.895 4.6327 133.814 4.71673 133.702C4.74563 133.663 4.76976 133.62 4.78862 133.574C4.91557 133.283 5.14526 133.048 5.43399 132.915C5.72271 132.781 6.05029 132.759 6.35439 132.852C6.40101 132.867 6.44924 132.876 6.49808 132.88C6.6374 132.888 6.77576 132.852 6.89264 132.775C7.00953 132.699 7.09873 132.587 7.14704 132.456C7.19535 132.325 7.20019 132.182 7.16085 132.048C7.12152 131.913 7.04009 131.796 6.92863 131.712C6.88909 131.683 6.84627 131.658 6.80107 131.64Z" fill="#4D8AF0"/>
<path opacity="0.5" d="M263.864 91.7707C265.033 91.7707 265.98 90.8226 265.98 89.6529C265.98 88.4833 265.033 87.5352 263.864 87.5352C262.696 87.5352 261.749 88.4833 261.749 89.6529C261.749 90.8226 262.696 91.7707 263.864 91.7707Z" fill="#F55F44"/>
<path opacity="0.5" d="M42.8019 243.193C43.9703 243.193 44.9174 242.244 44.9174 241.075C44.9174 239.905 43.9703 238.957 42.8019 238.957C41.6336 238.957 40.6865 239.905 40.6865 241.075C40.6865 242.244 41.6336 243.193 42.8019 243.193Z" fill="#F55F44"/>
<path opacity="0.5" d="M299.826 173.306C300.995 173.306 301.942 172.358 301.942 171.188C301.942 170.018 300.995 169.07 299.826 169.07C298.658 169.07 297.711 170.018 297.711 171.188C297.711 172.358 298.658 173.306 299.826 173.306Z" fill="#F55F44"/>
<path opacity="0.5" d="M248.313 27.163C248.021 27.0359 247.787 26.8059 247.654 26.5169C247.52 26.2278 247.498 25.8999 247.591 25.5954C247.606 25.5488 247.615 25.5005 247.619 25.4516C247.628 25.3121 247.591 25.1736 247.515 25.0566C247.438 24.9396 247.326 24.8503 247.195 24.8019C247.065 24.7535 246.921 24.7487 246.788 24.7881C246.654 24.8275 246.536 24.909 246.452 25.0206C246.423 25.0602 246.399 25.103 246.38 25.1483C246.253 25.4401 246.023 25.675 245.735 25.8082C245.446 25.9415 245.118 25.9638 244.814 25.871C244.768 25.8559 244.719 25.8465 244.671 25.8427C244.531 25.8343 244.393 25.8709 244.276 25.9473C244.159 26.0237 244.07 26.1357 244.022 26.2668C243.973 26.3979 243.968 26.5411 244.008 26.6752C244.047 26.8093 244.129 26.9271 244.24 27.0112C244.28 27.0402 244.322 27.0643 244.368 27.0832C244.659 27.2103 244.894 27.4402 245.027 27.7293C245.16 28.0183 245.182 28.3463 245.089 28.6507C245.074 28.6974 245.065 28.7457 245.061 28.7946C245.053 28.934 245.089 29.0725 245.166 29.1896C245.242 29.3066 245.354 29.3959 245.485 29.4442C245.616 29.4926 245.759 29.4975 245.893 29.4581C246.027 29.4187 246.144 29.3372 246.228 29.2256C246.257 29.186 246.281 29.1431 246.3 29.0979C246.427 28.8061 246.657 28.5712 246.946 28.4379C247.234 28.3047 247.562 28.2823 247.866 28.3752C247.913 28.3902 247.961 28.3997 248.01 28.4034C248.149 28.4119 248.287 28.3752 248.404 28.2988C248.521 28.2225 248.61 28.1104 248.659 27.9793C248.707 27.8482 248.712 27.705 248.673 27.571C248.633 27.4369 248.552 27.3191 248.44 27.2349C248.401 27.206 248.358 27.1818 248.313 27.163Z" fill="#4D8AF0"/>
<path opacity="0.5" d="M283.57 248.827C283.278 248.7 283.044 248.47 282.91 248.181C282.777 247.892 282.755 247.564 282.848 247.26C282.863 247.213 282.872 247.165 282.876 247.116C282.884 246.976 282.848 246.838 282.771 246.721C282.695 246.604 282.583 246.514 282.452 246.466C282.321 246.418 282.178 246.413 282.044 246.452C281.91 246.492 281.793 246.573 281.709 246.685C281.68 246.724 281.656 246.767 281.637 246.812C281.51 247.104 281.28 247.339 280.991 247.472C280.703 247.606 280.375 247.628 280.071 247.535C280.024 247.52 279.976 247.511 279.927 247.507C279.788 247.498 279.65 247.535 279.533 247.611C279.416 247.688 279.327 247.8 279.278 247.931C279.23 248.062 279.225 248.205 279.265 248.339C279.304 248.473 279.385 248.591 279.497 248.675C279.536 248.704 279.579 248.728 279.624 248.747C279.916 248.874 280.151 249.104 280.284 249.393C280.417 249.682 280.439 250.01 280.346 250.315C280.331 250.361 280.322 250.41 280.318 250.459C280.31 250.598 280.346 250.737 280.423 250.854C280.499 250.971 280.611 251.06 280.742 251.108C280.873 251.157 281.016 251.162 281.15 251.122C281.284 251.083 281.401 251.001 281.485 250.89C281.514 250.85 281.538 250.807 281.557 250.762C281.684 250.47 281.914 250.235 282.203 250.102C282.491 249.969 282.819 249.946 283.123 250.039C283.17 250.054 283.218 250.064 283.267 250.067C283.406 250.076 283.544 250.039 283.661 249.963C283.778 249.887 283.867 249.775 283.916 249.643C283.964 249.512 283.969 249.369 283.929 249.235C283.89 249.101 283.809 248.983 283.697 248.899C283.658 248.87 283.615 248.846 283.57 248.827Z" fill="#4D8AF0"/>
<path opacity="0.5" d="M4.33232 64.577C4.04084 64.4499 3.80621 64.22 3.6731 63.9309C3.53999 63.6419 3.51769 63.3139 3.61044 63.0095C3.62545 62.9628 3.6349 62.9146 3.63861 62.8657C3.64709 62.7262 3.61047 62.5877 3.53418 62.4707C3.45788 62.3536 3.34597 62.2643 3.21501 62.216C3.08405 62.1676 2.94102 62.1628 2.80709 62.2021C2.67316 62.2415 2.55547 62.323 2.47144 62.4346C2.44255 62.4742 2.41841 62.5171 2.39955 62.5623C2.2726 62.8541 2.0429 63.089 1.75418 63.2223C1.46546 63.3555 1.13787 63.3779 0.833776 63.285C0.787155 63.27 0.738929 63.2605 0.690092 63.2568C0.550766 63.2483 0.412412 63.285 0.295525 63.3614C0.178638 63.4377 0.0894332 63.5498 0.0411242 63.6809C-0.00718468 63.812 -0.0120293 63.9552 0.0273089 64.0892C0.066647 64.2233 0.148077 64.3411 0.259534 64.4253C0.299078 64.4542 0.341895 64.4784 0.387095 64.4972C0.67858 64.6243 0.91321 64.8543 1.04632 65.1433C1.17943 65.4324 1.20173 65.7603 1.10898 66.0647C1.09397 66.1114 1.08451 66.1597 1.08081 66.2086C1.07232 66.3481 1.10894 66.4866 1.18524 66.6036C1.26154 66.7206 1.37345 66.8099 1.50441 66.8583C1.63537 66.9066 1.7784 66.9115 1.91233 66.8721C2.04625 66.8327 2.16395 66.7512 2.24798 66.6396C2.27688 66.6 2.30101 66.5572 2.31987 66.5119C2.44682 66.2201 2.67651 65.9852 2.96523 65.852C3.25396 65.7187 3.58154 65.6964 3.88564 65.7892C3.93226 65.8043 3.98049 65.8137 4.02933 65.8174C4.16865 65.8259 4.30701 65.7893 4.42389 65.7129C4.54078 65.6365 4.62998 65.5245 4.67829 65.3934C4.7266 65.2623 4.73144 65.1191 4.6921 64.985C4.65277 64.8509 4.57134 64.7331 4.45988 64.649C4.42034 64.6201 4.37752 64.5959 4.33232 64.577Z" fill="#4D8AF0"/>
<path opacity="0.5" d="M27.9934 102.361C29.1617 102.361 30.1088 101.412 30.1088 100.243C30.1088 99.0732 29.1617 98.125 27.9934 98.125C26.825 98.125 25.8779 99.0732 25.8779 100.243C25.8779 101.412 26.825 102.361 27.9934 102.361Z" fill="#47E6B1"/>
<path opacity="0.5" d="M300.884 119.302C302.052 119.302 303 118.354 303 117.184C303 116.015 302.052 115.066 300.884 115.066C299.716 115.066 298.769 116.015 298.769 117.184C298.769 118.354 299.716 119.302 300.884 119.302Z" fill="#47E6B1"/>
<g opacity="0.5">
<path opacity="0.5" d="M206.748 0H205.69V6.00039H206.748V0Z" fill="#47E6B1"/>
<path opacity="0.5" d="M209.216 3.52959V2.4707L203.222 2.4707V3.52959L209.216 3.52959Z" fill="#47E6B1"/>
</g>
<g opacity="0.5">
<path opacity="0.5" d="M210.626 235.074H209.568V241.075H210.626V235.074Z" fill="#47E6B1"/>
<path opacity="0.5" d="M213.094 238.604V237.545H207.1V238.604H213.094Z" fill="#47E6B1"/>
</g>
<g opacity="0.5">
<path opacity="0.5" d="M10.3653 247.781H9.30762V253.782H10.3653V247.781Z" fill="#47E6B1"/>
<path opacity="0.5" d="M12.833 251.311V250.252H6.83929V251.311H12.833Z" fill="#47E6B1"/>
</g>
<g opacity="0.5">
<path opacity="0.5" d="M251.172 139.773H250.114V145.774H251.172V139.773Z" fill="#47E6B1"/>
<path opacity="0.5" d="M253.64 143.303V142.244H247.646V143.303H253.64Z" fill="#47E6B1"/>
</g>
<path opacity="0.5" d="M280.508 43.4212L282.78 45.5058L285.998 40.7676L287.134 41.7153L282.78 47.4012L279.562 43.8002L280.508 43.4212Z" fill="#47E6B1"/>
<path d="M215.657 84.4536L207.821 84.7578L208.212 94.844L216.048 94.5398L215.657 84.4536Z" fill="#008FFF"/>
<path d="M180.309 119.778C180.309 119.778 169.457 114.587 169.631 119.07C169.805 123.553 180.57 126.502 180.57 126.502L180.309 119.778Z" fill="#FFB9B9"/>
<path d="M186.262 157.708C186.262 157.708 181.142 170.253 179.251 179.306C177.359 188.358 174.478 200.816 178.184 209.651C181.89 218.486 192.425 244.453 192.534 247.255C192.642 250.057 191.631 252.902 193.87 252.815C196.109 252.728 208.293 248.888 208.787 247.185C209.282 245.482 204.63 241.173 204.63 241.173L193.145 205.142L205.128 181.668L213.772 216.687L215.465 260.394C215.465 260.394 223.774 257.827 224.98 260.025C224.98 260.025 228.703 254.83 229.176 252.567C229.649 250.303 227.418 207.179 227.418 207.179C227.418 207.179 235.045 158.059 228.888 158.298C222.731 158.537 198.615 143.76 186.262 157.708Z" fill="#008FFF"/>
<path d="M193.784 250.573C193.784 250.573 188.105 263.139 187.567 263.721C187.029 264.304 183.328 270.059 186.126 269.95C188.925 269.842 195.533 266.779 200.397 262.101C205.261 257.423 211.674 249.317 211.092 248.778C210.511 248.24 206.528 246.711 206.528 246.711L193.784 250.573Z" fill="#575A89"/>
<path d="M216.477 257.549C216.477 257.549 216.134 263.175 215.102 265.459C214.069 267.744 214.199 271.106 216.998 270.998C219.797 270.889 227.03 269.486 227.03 269.486C227.03 269.486 227.459 266.102 226.878 265.563C226.296 265.025 223.819 258.948 224.873 257.223C225.927 255.499 216.477 257.549 216.477 257.549Z" fill="#575A89"/>
<path d="M220.616 75.002C220.616 75.002 226.582 84.3105 228.908 86.465C231.234 88.6195 224.691 93.363 224.691 93.363L212.98 94.94C212.98 94.94 213.127 84.2717 212.524 83.1727C211.921 82.0737 220.616 75.002 220.616 75.002Z" fill="#FFB9B9"/>
<path d="M210.437 87.1816C210.437 87.1816 212.849 91.5774 215.088 91.4905C217.327 91.4036 228.908 86.4645 229.402 84.7618C229.897 83.059 233.238 96.959 233.238 96.959L204.901 146.882L197.989 142.1L201.338 112.788L204.089 96.9682L210.437 87.1816Z" fill="#008FFF"/>
<path d="M230.448 131.862C229.318 134.229 228.612 136.698 228.71 139.225C228.714 139.337 228.718 139.449 228.728 139.561C228.996 144.747 230.905 150.745 231.59 155.107C232.086 158.236 231.945 160.52 230.116 161.057C225.682 162.351 230.762 163.277 213.606 168.993C196.45 174.71 193.456 169.776 193.413 168.655C193.37 167.534 195.843 159.02 195.261 158.482C194.68 157.943 187.126 165.532 184.843 164.498C182.561 163.464 184.583 157.774 184.583 157.774C184.583 157.774 189.724 145.789 189.616 142.988C189.507 140.186 197.404 126.972 197.404 126.972L202.775 91.9699C202.775 91.9699 204.84 87.4002 207.617 86.7312C210.394 86.0622 212.698 87.6563 212.698 87.6563L208.051 97.9381L203.149 116.086L203.969 122.789C203.969 122.789 209.67 110.783 213.414 106.148C217.159 101.513 225.142 90.5403 225.142 90.5403C225.142 90.5403 227.006 84.2444 225.599 82.3629C224.192 80.4759 231.468 80.1934 234.571 87.9296C236.215 92.0297 238.885 98.1441 240.557 103.837C242.047 108.88 242.751 113.595 241.275 116.29C239.018 120.407 233.342 125.818 230.448 131.862Z" fill="#575A89"/>
<path opacity="0.1" d="M241.276 116.289C239.019 120.406 233.343 125.817 230.449 131.861C229.693 129.135 228.771 126.315 228.771 126.315C228.771 126.315 225.234 107.372 235.695 102.476C237.429 102.308 239.162 102.793 240.558 103.836C242.048 108.879 242.752 113.594 241.276 116.289Z" fill="black"/>
<path d="M199.747 115.096L190.879 117.685L178.565 118.163L177.298 128.875L197.535 130.334C197.535 130.334 202.589 116.108 199.747 115.096Z" fill="#575A89"/>
<path d="M214.208 151.111C214.208 151.111 202.343 153.082 205.051 156.656C207.759 160.231 218.27 156.473 218.27 156.473L214.208 151.111Z" fill="#FFB9B9"/>
<path opacity="0.1" d="M228.729 139.561C228.997 144.747 230.905 150.745 231.59 155.107C227.81 158.688 224.216 161.847 222.862 161.899C220.063 162.008 215.563 161.621 213.906 162.247C212.248 162.872 211.276 152.247 211.276 152.247C211.276 152.247 212.266 148.842 216.678 146.987C219.657 145.732 225.366 142.329 228.729 139.561Z" fill="black"/>
<path d="M235.564 99.114C235.564 99.114 245.036 97.6239 244.524 113.357C244.013 129.09 245.523 139.133 241.713 142.087C237.904 145.041 225.529 158.428 222.731 158.537C219.932 158.646 215.433 158.259 213.775 158.885C212.118 159.51 211.146 148.885 211.146 148.885C211.146 148.885 212.135 145.48 216.547 143.625C220.96 141.77 231.356 135.193 231.269 132.952C231.182 130.711 228.64 122.953 228.64 122.953C228.64 122.953 225.103 104.01 235.564 99.114Z" fill="#575A89"/>
<path d="M212.265 88.7851C219.07 88.7851 224.588 83.2617 224.588 76.4482C224.588 69.6347 219.07 64.1113 212.265 64.1113C205.459 64.1113 199.941 69.6347 199.941 76.4482C199.941 83.2617 205.459 88.7851 212.265 88.7851Z" fill="#FFB9B9"/>
<path d="M203.968 58.765C203.67 59.0213 203.314 59.2002 202.931 59.2855C202.739 59.3198 202.541 59.2766 202.381 59.1653C202.22 59.0539 202.11 58.8836 202.075 58.6913C201.793 59.2767 201.475 59.9005 200.899 60.2009C200.323 60.5013 199.433 60.2494 199.35 59.6049C199.266 60.0942 199.05 60.5513 198.725 60.9263C198.368 61.2672 197.72 61.3533 197.408 60.9704C197.66 62.3496 197.505 63.7679 197.584 65.1678C197.663 66.5676 198.036 68.0517 199.092 68.9722C200.633 70.3146 202.95 69.9833 204.976 69.729C205.283 69.6646 205.601 69.682 205.899 69.7795C206.657 70.1031 206.623 71.1606 206.633 71.9863C206.695 73.4351 207.268 74.815 208.25 75.8811C209.232 76.9471 210.559 77.6303 211.997 77.8094C212.801 77.9337 213.622 77.7331 214.279 77.2518C214.854 76.7635 215.148 75.9677 215.807 75.6009C216.88 75.0042 218.181 75.8744 218.965 76.8192C219.749 77.764 220.522 78.9261 221.737 79.0991C223.343 79.3278 224.567 77.6886 225.167 76.1793C225.996 74.0639 226.392 71.8038 226.334 69.5324C226.276 67.2609 225.765 65.0241 224.829 62.9538C221.475 55.633 210.015 54.4751 203.968 58.765Z" fill="#2F2E41"/>
<defs>
<linearGradient id="paint0_linear" x1="121.609" y1="130.383" x2="178.189" y2="130.383" gradientUnits="userSpaceOnUse">
<stop stop-color="#808080" stop-opacity="0.25"/>
<stop offset="0.53514" stop-color="#808080" stop-opacity="0.12"/>
<stop offset="1" stop-color="#808080" stop-opacity="0.1"/>
</linearGradient>
</defs>
</svg>
