<svg width="385" height="325" viewBox="0 0 385 325" fill="none" xmlns="http://www.w3.org/2000/svg">
<path d="M42.5418 309.671C42.5418 319.905 36.4636 323.479 28.9652 323.479C28.7915 323.479 28.6181 323.477 28.4449 323.473C28.0975 323.465 27.7534 323.449 27.4134 323.426C20.6463 322.946 15.3887 319.189 15.3887 309.671C15.3887 299.821 27.9643 287.392 28.909 286.473L28.9106 286.471C28.947 286.435 28.9652 286.418 28.9652 286.418C28.9652 286.418 42.5418 299.437 42.5418 309.671Z" fill="#008FFF"/>
<path d="M28.4706 321.913L33.4362 314.968L28.4582 322.676L28.445 323.473C28.0975 323.465 27.7534 323.449 27.4135 323.426L27.9487 313.187L27.9445 313.107L27.9536 313.092L28.0041 312.125L23.0137 304.399L28.0198 311.4L28.0314 311.605L28.4359 303.869L24.1635 295.885L28.488 302.511L28.909 286.473L28.9107 286.418V286.471L28.8404 299.118L33.0937 294.104L28.823 300.208L28.7105 307.134L32.6818 300.487L28.6939 308.154L28.6311 312.004L34.3965 302.752L28.6096 313.348L28.4706 321.913Z" fill="#3F3D56"/>
<path d="M333.609 179.637C333.609 259.883 297.207 323.188 252.379 324.935C193.919 327.214 117.516 268.872 171.149 179.637C212.477 110.874 207.517 34.3379 252.379 34.3379C297.241 34.3379 333.609 99.3904 333.609 179.637Z" fill="#F2F2F2"/>
<path d="M286.45 222.297H170.628V322.97H286.45V222.297Z" fill="#008FFF"/>
<path d="M0 322.971H385" stroke="#3F3D56" stroke-width="2" stroke-miterlimit="10"/>
<path d="M244.576 122.123C244.576 122.123 263.847 122.647 267.03 123.806C270.212 124.965 271.635 133.253 271.635 133.253L256.673 137.96L245.482 137.326L237.06 137.921L241.762 125.593L244.576 122.123Z" fill="#2F2E41"/>
<path d="M245.408 115.795C245.408 115.795 246.676 120.696 243.862 124.167C241.048 127.637 255.959 140.004 255.959 140.004L263.825 138.65C263.825 138.65 262.091 123.59 264.42 119.777C266.749 115.963 245.408 115.795 245.408 115.795Z" fill="#9F616A"/>
<path opacity="0.1" d="M245.408 115.795C245.408 115.795 246.676 120.696 243.862 124.167C241.048 127.637 255.959 140.004 255.959 140.004L263.825 138.65C263.825 138.65 262.091 123.59 264.42 119.777C266.749 115.963 245.408 115.795 245.408 115.795Z" fill="black"/>
<path d="M297.722 259.098L280.366 282.135L292.21 289.056L308.512 262.361L297.722 259.098Z" fill="#9F616A"/>
<path d="M285.548 282.522C285.548 282.522 279.157 275.089 279.441 276.747C279.726 278.404 274.894 292.461 279.39 293.821C283.885 295.18 322.44 298.787 322.97 294.429C323.501 290.072 311.469 287.022 311.469 287.022C311.469 287.022 304.32 280.146 302.736 280.845C301.151 281.545 285.548 282.522 285.548 282.522Z" fill="#2F2E41"/>
<path d="M293.827 281.099L307.69 304.738L318.157 298.671L304.177 279.318L293.827 281.099Z" fill="#9F616A"/>
<path d="M315.712 224.859L311.597 230.686C311.597 230.686 291.984 257.951 294.067 260.152C296.15 262.354 304.825 270.674 309.236 269.061C313.648 267.449 329.322 239.582 329.322 239.582L325.234 223.221L315.712 224.859Z" fill="#2F2E41"/>
<path d="M231.222 219.343C231.222 219.343 235.614 227.546 246.747 230.324C257.88 233.101 269.511 238.779 269.925 238.708C270.339 238.637 271.51 238.009 271.795 239.666C272.079 241.324 275.133 244.212 275.133 244.212C275.133 244.212 287.43 286.038 292.126 286.083C296.823 286.128 306.474 282.762 306.675 281.447C306.875 280.133 292.294 237.42 292.152 236.591L290.444 226.646C290.444 226.646 309.728 229.728 311.526 230.272C313.325 230.815 329.322 239.582 329.322 239.582C329.322 239.582 345.63 227.818 330.376 215.937C315.123 204.056 288.905 195.341 288.905 195.341L279.499 192.693L271.302 192.203L270.095 187.57L250.68 188.691L230.42 197.296L231.222 219.343Z" fill="#2F2E41"/>
<path d="M256.844 125.55C265.196 125.55 271.967 118.773 271.967 110.414C271.967 102.054 265.196 95.2773 256.844 95.2773C248.492 95.2773 241.722 102.054 241.722 110.414C241.722 118.773 248.492 125.55 256.844 125.55Z" fill="#9F616A"/>
<path d="M243.163 122.58L244.982 122.268C244.982 122.268 248.267 134.928 258.43 137.019C258.43 137.019 263.444 131.006 263.23 129.992C263.016 128.977 267.201 123.565 269.427 126.595C271.652 129.625 268.883 183.002 270.753 183.96C272.622 184.918 276.633 185.935 273.405 189.477C270.177 193.018 257.356 197.784 254.516 196.139C251.676 194.495 245.874 180.561 243.364 175.873C240.854 171.186 236.837 155.239 236.837 155.239C236.837 155.239 231.707 137.777 234.864 133.821C238.02 129.865 243.163 122.58 243.163 122.58Z" fill="#D0CDE1"/>
<path d="M257.636 188.292C257.298 192.011 256.719 195.703 255.904 199.346C255.162 202.31 254.299 204.1 253.313 204.024C250.799 203.836 249.656 207.527 249.066 211.783C248.436 216.298 248.436 221.448 248.091 223.269C247.634 225.674 244.708 227.509 238.861 226.97C235.379 226.574 231.961 225.735 228.691 224.474C220.797 221.601 221.03 198.304 222.351 181.016C223.159 170.42 224.373 162.077 224.373 162.077C224.373 162.077 221.975 154.918 221.208 150.011C221.055 149.116 220.979 148.209 220.979 147.301C221.096 143.015 228.914 131.433 233.639 124.218C238.368 117.003 244.82 122.296 244.82 122.296L242.574 129.078C242.574 129.078 246.054 134.453 246.079 139.568C246.105 144.683 254.41 148.374 257.392 150.85C259.267 152.406 259.221 173.176 257.636 188.292Z" fill="#2F2E41"/>
<path d="M264.203 124.719C264.203 124.719 264.748 125.363 267.244 125.049C270.236 124.672 274.351 125.708 275.307 128.568C277.06 133.812 282.002 155.146 282.002 155.146C282.002 155.146 284.06 179.536 284.985 184.923C285.91 190.31 285.45 195.082 286.363 197.911C287.275 200.741 277.358 192.635 273.703 193.69C270.048 194.745 267.7 181.071 268.159 176.299C268.618 171.527 269.007 166.341 267.739 161.44C266.471 156.538 268.719 143.566 268.635 140.595C268.55 137.623 260.576 130.133 264.203 124.719Z" fill="#2F2E41"/>
<path d="M274.903 200.523C274.903 200.523 290.916 209.267 292.448 221.711C293.98 234.156 271.031 209.662 271.031 209.662L274.903 200.523Z" fill="#9F616A"/>
<path d="M284.044 191.698C284.044 191.698 288.95 216.451 296.594 215.136C304.237 213.821 292.324 190.273 292.324 190.273L284.044 191.698Z" fill="#9F616A"/>
<path d="M310.219 299.61C310.219 299.61 306.306 304.123 305.335 303.437C304.365 302.751 302.133 312.094 304.145 313.881C306.157 315.668 313.906 318.601 313.991 321.573C314.075 324.544 334.859 323.955 335.603 320.841C336.347 317.726 332.996 310.624 330.641 309.322C328.287 308.021 319.58 296.043 319.58 296.043C319.58 296.043 312.761 297.04 310.219 299.61Z" fill="#2F2E41"/>
<path opacity="0.1" d="M272.353 215.661C268.64 213.038 258.272 212.387 249.067 211.782C245.029 211.522 241.214 211.268 238.283 210.856C235.458 210.465 232.918 207.882 230.663 204.033C227.244 198.201 224.48 189.456 222.352 181.016C223.16 170.419 224.374 162.076 224.374 162.076C224.374 162.076 221.976 154.917 221.209 150.01C221.75 149.257 222.446 148.629 223.251 148.17C233.015 143.975 242.336 185.256 243.52 191.734C243.54 191.84 243.556 191.942 243.571 192.028C244.145 195.364 250.347 198.216 255.905 199.345C259.329 200.042 262.514 200.087 263.982 199.182C267.837 196.813 279.694 206.296 280.593 206.565C281.492 206.84 277.687 219.439 272.353 215.661Z" fill="black"/>
<path d="M223.253 145.629C223.253 145.629 216.156 148.983 219.274 164.658C222.392 180.333 228.674 206.983 238.28 208.317C247.886 209.65 267.014 209.346 272.351 213.121C277.688 216.895 281.492 204.296 280.592 204.024C279.693 203.752 267.836 194.273 263.98 196.643C260.125 199.012 244.496 194.875 243.571 189.488C242.646 184.101 233.176 141.362 223.253 145.629Z" fill="#2F2E41"/>
<path d="M274.389 138.111L282.188 156.225C282.188 156.225 282.973 155.832 283.885 158.662C284.797 161.491 285.224 163.978 286.822 165.836C288.42 167.694 295.529 194.201 295.742 195.444C295.956 196.688 285.923 200.973 283.682 197.519C281.44 194.065 274.389 138.111 274.389 138.111Z" fill="#2F2E41"/>
<path d="M248.241 110.203C248.82 110.048 248.905 109.278 248.925 108.678C249.029 105.464 250.962 102.167 254.036 101.231C255.215 100.907 256.45 100.839 257.657 101.032C259.381 101.261 261.046 101.817 262.562 102.669C263.363 103.12 264.148 103.662 265.056 103.8C265.655 103.891 268.252 104.646 268.849 104.753C270.162 104.986 271.382 106.162 272.641 105.725C273.847 105.306 274.113 103.744 274.142 102.468C274.209 99.5597 272.003 95.5349 270.06 93.3715C268.586 91.7298 266.366 90.9719 264.196 90.5779C261.662 90.1702 259.093 90.0138 256.527 90.1109C253.054 90.1729 249.486 90.4412 246.354 91.9452C243.223 93.4491 240.592 96.4424 240.442 99.9155C240.411 100.639 240.486 101.366 240.425 102.087C240.277 103.847 239.343 105.437 238.904 107.149C238.591 108.404 238.544 109.712 238.767 110.987C238.99 112.262 239.477 113.476 240.197 114.551C241.359 116.262 243.186 117.811 243.118 119.879L245.638 117.266C246.015 116.978 246.281 116.57 246.393 116.11C246.505 115.649 246.456 115.164 246.254 114.736L245.362 111.253C245.132 110.632 245.105 109.953 245.285 109.315C246.241 106.951 247.274 110.461 248.241 110.203Z" fill="#2F2E41"/>
<path d="M133.146 213.592C133.146 261.85 104.483 278.699 69.1263 278.699C33.7691 278.699 5.10645 261.85 5.10645 213.592C5.10645 165.334 69.1263 103.942 69.1263 103.942C69.1263 103.942 133.146 165.334 133.146 213.592Z" fill="#F2F2F2"/>
<path d="M66.7941 271.316L67.4499 230.929L94.7365 180.964L67.5528 224.593L67.8472 206.433L86.6535 170.284L67.9255 201.628L68.4556 168.966L88.5934 140.187L68.5389 163.83L68.8702 103.941L66.7887 183.224L66.9593 179.953L46.4852 148.585L66.6312 186.232L64.7236 222.709L64.6667 221.74L41.0635 188.731L64.5952 225.161L64.3568 229.723L64.314 229.791L64.3336 230.166L59.4934 322.711H65.96L66.7359 274.909L90.2099 238.569L66.7941 271.316Z" fill="#3F3D56"/>
</svg>
