<svg width="738" height="199" viewBox="0 0 738 199" fill="none" xmlns="http://www.w3.org/2000/svg">
<rect x="0.5" y="0.5" width="737" height="198" stroke-opacity="0.1"/>
<path d="M185 126C92 126 92 199 0 199H185H369H554H738C646 199 646 146 554 146C461 146 461 107 369 107C277 107 277 126 185 126Z" fill="#A6CEE3"/>
<path d="M185 114C92 114 92 199 0 199C92 199 92 126 185 126C277 126 277 107 369 107C461 107 461 146 554 146C646 146 646 199 738 199C646 199 646 82 554 82C461 82 461 91 369 91C277 91 277 114 185 114Z" fill="#1F78B4"/>
<path d="M185 90C92 90 92 199 0 199C92 199 92 114 185 114C277 114 277 91 369 91C461 91 461 82 554 82C646 82 646 199 738 199C646 199 646 48 554 48C461 48 461 77 369 77C277 77 277 90 185 90Z" fill="#B2DF8A"/>
</svg>
