<svg width="24" height="24" viewBox="0 0 24 24" fill="none" xmlns="http://www.w3.org/2000/svg">
<g clip-path="url(#clip0)">
<g clip-path="url(#clip1)">
<path d="M23.9937 4.47379C23.9953 4.4642 23.9981 4.45461 23.9989 4.44502C24.0017 4.41545 23.9985 4.38548 23.9949 4.35551C23.9941 4.34792 23.9953 4.34073 23.9941 4.33313C23.9869 4.29358 23.9737 4.25482 23.9541 4.21765C23.9509 4.21126 23.9465 4.20527 23.9429 4.19887C23.9421 4.19807 23.9421 4.19688 23.9417 4.19568C23.9413 4.19488 23.9401 4.19448 23.9397 4.19328C23.9369 4.18888 23.9345 4.18409 23.9317 4.18009C23.907 4.14373 23.877 4.11376 23.8434 4.08819C23.8358 4.08259 23.8271 4.0794 23.8191 4.0742C23.7895 4.05462 23.7583 4.03864 23.7248 4.02785C23.71 4.02306 23.6952 4.02066 23.68 4.01786C23.6508 4.01187 23.6217 4.00907 23.5913 4.00987C23.5753 4.01027 23.5601 4.01107 23.5441 4.01347C23.5338 4.01506 23.5238 4.01347 23.5134 4.01586L0.318947 8.80931C0.153917 8.84367 0.0276476 8.97754 0.00407197 9.14456C-0.0195037 9.31159 0.06401 9.47542 0.213056 9.55414L6.85899 13.0597L8.02458 19.5278C8.02378 19.5326 8.02498 19.5378 8.02458 19.5426C8.02059 19.5746 8.02019 19.6058 8.02418 19.6373C8.02618 19.6533 8.02818 19.6685 8.03218 19.6841C8.04137 19.722 8.05615 19.7576 8.07613 19.7912C8.08013 19.7976 8.08013 19.8051 8.08452 19.8115C8.08572 19.8135 8.08772 19.8151 8.08932 19.8167C8.09451 19.8243 8.1017 19.8303 8.1077 19.8379C8.12648 19.8611 8.14606 19.8823 8.16844 19.9002C8.17203 19.903 8.17443 19.9074 8.17842 19.9102C8.18442 19.9146 8.19121 19.9158 8.19721 19.9198C8.22158 19.9358 8.24675 19.949 8.27353 19.9594C8.28432 19.9634 8.2943 19.9682 8.30549 19.9714C8.34146 19.9818 8.37862 19.989 8.41618 19.989C8.41658 19.989 8.41698 19.989 8.41738 19.989C8.41898 19.989 8.42057 19.9882 8.42217 19.9882C8.42897 19.9886 8.43576 19.989 8.44255 19.989C8.55324 19.989 8.65313 19.9394 8.72706 19.8631L13.1541 16.9117L17.7893 19.9246C17.8548 19.967 17.9307 19.989 18.0071 19.989C18.049 19.989 18.0918 19.9822 18.1329 19.9686C18.248 19.9302 18.3399 19.8415 18.3819 19.7272L23.9745 4.54731C23.9797 4.53373 23.9841 4.51974 23.9877 4.50536C23.9893 4.49936 23.9897 4.49337 23.9909 4.48778C23.9921 4.48338 23.9929 4.47858 23.9937 4.47379ZM19.3657 7.02435L9.77837 14.0735C9.76279 14.0851 9.7504 14.0994 9.73681 14.113C9.73162 14.1178 9.72643 14.1218 9.72203 14.127C9.71364 14.1362 9.70605 14.1454 9.69845 14.1554C9.69126 14.165 9.68567 14.175 9.67927 14.185C9.66449 14.2089 9.6521 14.2337 9.64251 14.2601C9.64051 14.2653 9.63732 14.2693 9.63572 14.2745C9.63532 14.2761 9.63372 14.2769 9.63332 14.2785L8.53446 17.8496L7.66376 13.0182L19.3657 7.02435ZM9.15382 18.6184L10.2431 15.0205L11.9389 16.123L12.424 16.4382L10.7761 17.5367L9.15382 18.6184ZM20.7962 5.39364L7.22101 12.3469L1.57085 9.36673L20.7962 5.39364ZM17.8053 18.982L11.6496 14.9813L10.7174 14.3752L22.7665 5.51551L17.8053 18.982Z" fill="black"/>
</g>
</g>
<defs>
<clipPath id="clip0">
<rect width="24" height="24" fill="white"/>
</clipPath>
<clipPath id="clip1">
<rect width="24" height="24" fill="white"/>
</clipPath>
</defs>
</svg>
