<svg width="25" height="24" viewBox="0 0 25 24" fill="none" xmlns="http://www.w3.org/2000/svg">
<g clip-path="url(#clip0)">
<g clip-path="url(#clip1)">
<path d="M2 12C2 17.5142 6.48579 22 12 22C17.5142 22 22 17.5142 22 12C22.0024 10.6774 21.7409 9.36759 21.2304 8.14739C21.1448 7.9481 20.9146 7.85475 20.7145 7.93839C20.5143 8.02225 20.4187 8.25155 20.5006 8.4526C20.9707 9.57615 21.2115 10.7822 21.209 12C21.209 17.0779 17.0779 21.209 12 21.209C6.9221 21.209 2.79096 17.0779 2.79096 12C2.79096 6.9221 6.9221 2.79097 12 2.79097C13.032 2.78964 14.0569 2.96245 15.0314 3.30165C15.1649 3.3491 15.3139 3.32129 15.4214 3.22904C15.5289 3.13657 15.5787 2.99356 15.552 2.85431C15.5253 2.71505 15.426 2.60073 15.2918 2.55483C14.2336 2.18627 13.1207 1.99868 12 2.00001C6.48579 2.00001 2 6.48579 2 12H2Z" fill="black"/>
<path d="M15.1899 7.71384C15.1899 7.49535 15.0129 7.31836 14.7944 7.31836H9.2056C8.98711 7.31836 8.81012 7.49535 8.81012 7.71384C8.81012 7.93232 8.98711 8.10932 9.2056 8.10932H10.8047C11.7579 8.11042 12.5784 8.78221 12.7678 9.7164H9.2056C8.98711 9.7164 8.81012 9.89339 8.81012 10.1119C8.81012 10.3301 8.98711 10.5074 9.2056 10.5074H12.7678C12.5784 11.4413 11.7579 12.1129 10.8047 12.1142H9.2056C9.04361 12.1142 8.89818 12.2131 8.83815 12.3634C8.77834 12.5139 8.8163 12.6856 8.93393 12.797L12.9311 16.5742C13.0337 16.6717 13.1807 16.707 13.3164 16.6666C13.4519 16.6263 13.5559 16.5164 13.5886 16.3786C13.621 16.2409 13.5775 16.0962 13.4745 15.9993L10.1998 12.905H10.8047C12.194 12.9032 13.3714 11.882 13.5698 10.5071H14.7944C15.0129 10.5071 15.1899 10.3299 15.1899 10.1117C15.1899 9.89317 15.0129 9.71618 14.7944 9.71618H13.5698C13.482 9.10442 13.1935 8.53901 12.7497 8.1091H14.7944C15.0129 8.1091 15.1899 7.9321 15.1899 7.71384Z" fill="black"/>
<path d="M15.9206 4.57145C15.7661 4.41697 15.5156 4.41697 15.3612 4.57145C15.2069 4.72594 15.2069 4.97642 15.3612 5.13091L17.2015 6.97126C17.3536 7.12332 17.599 7.12597 17.7543 6.97766L20.9987 3.8787C21.1567 3.72775 21.1625 3.47748 21.0117 3.31947C20.8608 3.16167 20.6105 3.15594 20.4525 3.30667L17.4875 6.13859L15.9206 4.57145Z" fill="black"/>
</g>
</g>
<defs>
<clipPath id="clip0">
<rect width="20" height="20" fill="white" transform="translate(2 2)"/>
</clipPath>
<clipPath id="clip1">
<rect width="20" height="20" fill="white" transform="translate(2 2)"/>
</clipPath>
</defs>
</svg>
