<svg width="20" height="20" viewBox="0 0 20 20" fill="none" xmlns="http://www.w3.org/2000/svg">
<g clip-path="url(#clip0)">
<path d="M7.8099 5.66667H15.6669C15.8509 5.66667 16.0002 5.51767 16.0002 5.33333C16.0002 5.149 15.8509 5 15.6669 5H7.8099C7.6259 5 7.47656 5.149 7.47656 5.33333C7.47656 5.51767 7.6259 5.66667 7.8099 5.66667Z" fill="#757575"/>
<path d="M7.8099 10.6667H15.6669C15.8509 10.6667 16.0002 10.5177 16.0002 10.3333C16.0002 10.149 15.8509 10 15.6669 10H7.8099C7.6259 10 7.47656 10.149 7.47656 10.3333C7.47656 10.5177 7.6259 10.6667 7.8099 10.6667Z" fill="#757575"/>
<path d="M7.8099 15.6667H15.6669C15.8509 15.6667 16.0002 15.5177 16.0002 15.3333C16.0002 15.149 15.8509 15 15.6669 15H7.8099C7.6259 15 7.47656 15.149 7.47656 15.3333C7.47656 15.5177 7.6259 15.6667 7.8099 15.6667Z" fill="#757575"/>
<path d="M19.6667 0H0.333333C0.149333 0 0 0.149 0 0.333333V19.6667C0 19.851 0.149333 20 0.333333 20H19.6667C19.8507 20 20 19.851 20 19.6667V0.333333C20 0.149 19.8507 0 19.6667 0ZM19.3333 19.3333H0.666667V0.666667H19.3333V19.3333Z" fill="#757575"/>
<path d="M4.16733 6.15808L4.97666 5.73241L5.78599 6.15808L5.63166 5.25675L6.28633 4.61808L5.38133 4.48675L4.97666 3.66675L4.57199 4.48675L3.66699 4.61808L4.32199 5.25675L4.16733 6.15808Z" fill="#757575"/>
<path d="M4.16733 11.1857L4.97666 10.76L5.78599 11.1857L5.63166 10.2843L6.28633 9.646L5.38133 9.51434L4.97666 8.69434L4.57199 9.51434L3.66699 9.646L4.32199 10.2843L4.16733 11.1857Z" fill="#757575"/>
<path d="M4.16733 16.3334L4.97666 15.9077L5.78599 16.3334L5.63166 15.432L6.28633 14.7937L5.38133 14.662L4.97666 13.842L4.57199 14.662L3.66699 14.7937L4.32199 15.432L4.16733 16.3334Z" fill="#757575"/>
</g>
<defs>
<clipPath id="clip0">
<rect width="20" height="20" fill="white"/>
</clipPath>
</defs>
</svg>
