<svg width="25" height="24" viewBox="0 0 25 24" fill="none" xmlns="http://www.w3.org/2000/svg">
<g clip-path="url(#clip0)">
<path d="M22.3308 6.45439L14.0623 2.04848C13.9396 1.98301 13.7926 1.98393 13.6708 2.05077L5.63105 6.45669C5.4992 6.52905 5.41742 6.66734 5.41742 6.8178V12.5731C5.42224 17.304 8.22522 21.5841 12.5599 23.4794L13.6759 23.9657C13.7802 24.0112 13.8989 24.0114 14.0034 23.9662L15.2609 23.4231C19.676 21.5689 22.5483 17.2475 22.5488 12.4589V6.8178C22.5488 6.66573 22.465 6.52584 22.3308 6.45439ZM21.7255 12.4589C21.7246 16.9174 19.0496 20.9404 14.9386 22.6658L14.9359 22.6672L13.8408 23.1399L12.8893 22.7248C8.8544 20.9606 6.24508 16.9769 6.24049 12.5731V7.06153L13.8714 2.87935L21.7255 7.06451V12.4589Z" fill="black"/>
<path d="M10.8343 12.3059C10.6866 12.1329 10.4268 12.1125 10.2538 12.2602C10.0809 12.4077 10.0604 12.6677 10.2081 12.8405L12.3826 15.3868C12.5278 15.5568 12.7821 15.58 12.9553 15.439L18.0195 11.3188C18.1959 11.1755 18.2226 10.9162 18.079 10.7397C17.9357 10.5635 17.6763 10.5367 17.4999 10.6802L12.7476 14.5463L10.8343 12.3059Z" fill="black"/>
</g>
<defs>
<clipPath id="clip0">
<rect width="22" height="22" fill="white" transform="translate(3 2)"/>
</clipPath>
</defs>
</svg>
