<svg width="24" height="24" viewBox="0 0 24 24" fill="none" xmlns="http://www.w3.org/2000/svg">
<g clip-path="url(#clip0)">
<path d="M20.9704 9.77778H19.0993C18.7985 9.77778 18.5507 9.61222 18.4356 9.33444C18.3204 9.05667 18.3789 8.76407 18.5911 8.55148L19.9141 7.22889C20.1085 7.03444 20.2156 6.77556 20.2156 6.50074C20.2156 6.22556 20.1085 5.96704 19.9141 5.77222L18.2278 4.08593C17.8389 3.69704 17.1607 3.6963 16.7711 4.08593L15.4485 5.40852C15.2359 5.62074 14.9426 5.68 14.6656 5.56444C14.3878 5.44926 14.2222 5.20148 14.2222 4.90074V3.02963C14.2222 2.46185 13.7604 2 13.1926 2H10.8074C10.2396 2 9.77778 2.46185 9.77778 3.02963V4.90074C9.77778 5.20148 9.61222 5.44926 9.33444 5.56444C9.05741 5.68037 8.76407 5.62074 8.55148 5.40852L7.22889 4.08593C6.83926 3.6963 6.16111 3.69704 5.77222 4.08593L4.08593 5.77222C3.89148 5.96667 3.78444 6.22556 3.78444 6.50074C3.78444 6.77556 3.89148 7.03407 4.08593 7.22889L5.40889 8.55148C5.62111 8.76407 5.67926 9.05667 5.56444 9.33444C5.44963 9.61222 5.20148 9.77778 4.90074 9.77778H3.02963C2.46185 9.77778 2 10.2396 2 10.8074V13.1922C2 13.7604 2.46185 14.2222 3.02963 14.2222H4.90074C5.20148 14.2222 5.44926 14.3878 5.56444 14.6656C5.67963 14.9433 5.62111 15.2359 5.40889 15.4485L4.08593 16.7711C3.89148 16.9656 3.78444 17.2244 3.78444 17.4993C3.78444 17.7744 3.89148 18.033 4.08593 18.2278L5.77222 19.9141C6.16148 20.3033 6.83926 20.3041 7.22889 19.9141L8.55148 18.5911C8.76407 18.3789 9.0563 18.3204 9.33444 18.4356C9.61222 18.5507 9.77778 18.7985 9.77778 19.0993V20.9704C9.77778 21.5381 10.2396 22 10.8074 22H13.1922C13.76 22 14.2219 21.5381 14.2219 20.9704V19.0993C14.2219 18.7985 14.3874 18.5507 14.6652 18.4356C14.9433 18.32 15.2356 18.3789 15.4481 18.5911L16.7707 19.9141C17.1604 20.3037 17.8385 20.303 18.2274 19.9141L19.9137 18.2278C20.1081 18.0333 20.2152 17.7744 20.2152 17.4993C20.2152 17.2244 20.1081 16.9659 19.9137 16.7711L18.5907 15.4485C18.3785 15.2359 18.3204 14.9433 18.4352 14.6656C18.55 14.3878 18.7985 14.2222 19.0993 14.2222H20.9704C21.5381 14.2222 22 13.7604 22 13.1926V10.8074C22 10.2396 21.5381 9.77778 20.9704 9.77778ZM21.2593 13.1926C21.2593 13.3519 21.1296 13.4815 20.9704 13.4815H19.0993C18.4978 13.4815 17.9811 13.8267 17.7511 14.3822C17.5207 14.9378 17.6419 15.5474 18.0674 15.9726L19.3904 17.2952C19.5033 17.4081 19.5033 17.5915 19.3904 17.7041L17.7041 19.3904C17.5915 19.503 17.4081 19.5037 17.2952 19.3904L15.9726 18.0674C15.547 17.6419 14.9378 17.5215 14.3822 17.7511C13.8267 17.9811 13.4815 18.4978 13.4815 19.0993V20.9704C13.4815 21.1296 13.3519 21.2593 13.1926 21.2593H10.8074C10.6481 21.2593 10.5185 21.1296 10.5185 20.9704V19.0993C10.5185 18.4978 10.1733 17.9811 9.61778 17.7511C9.43148 17.6737 9.23963 17.6359 9.05 17.6359C8.67444 17.6359 8.31037 17.7841 8.02741 18.067L6.70481 19.39C6.59148 19.5033 6.40815 19.5026 6.29593 19.39L4.60963 17.7037C4.49667 17.5907 4.49667 17.4074 4.60963 17.2948L5.93259 15.9722C6.35778 15.547 6.47926 14.9374 6.24889 14.3819C6.01889 13.8267 5.50222 13.4815 4.90074 13.4815H3.02963C2.87037 13.4815 2.74074 13.3519 2.74074 13.1926V10.8074C2.74074 10.6481 2.87037 10.5185 3.02963 10.5185H4.90074C5.50222 10.5185 6.01889 10.1733 6.24889 9.61778C6.47926 9.06222 6.35815 8.45259 5.93259 8.02741L4.60963 6.70481C4.49667 6.59185 4.49667 6.40852 4.60963 6.29593L6.29593 4.60963C6.40852 4.49667 6.59185 4.49667 6.70481 4.60963L8.02741 5.93222C8.45222 6.35704 9.06148 6.47889 9.61778 6.24852C10.1733 6.01889 10.5185 5.50222 10.5185 4.90074V3.02963C10.5185 2.87037 10.6481 2.74074 10.8074 2.74074H13.1922C13.3519 2.74074 13.4815 2.87037 13.4815 3.02963V4.90074C13.4815 5.50222 13.8267 6.01889 14.3822 6.24889C14.9385 6.47926 15.5474 6.35778 15.9726 5.93259L17.2952 4.61C17.4085 4.49704 17.5919 4.49704 17.7041 4.61L19.3904 6.2963C19.5033 6.40926 19.5033 6.59259 19.3904 6.70519L18.0674 8.02778C17.6422 8.45296 17.5207 9.06259 17.7511 9.61815C17.9811 10.1737 18.4978 10.5189 19.0993 10.5189H20.9704C21.1296 10.5185 21.2593 10.6481 21.2593 10.8074V13.1926Z" fill="black"/>
<path d="M12 8.66666C10.1618 8.66666 8.66663 10.1618 8.66663 12C8.66663 13.8381 10.1618 15.3333 12 15.3333C13.8381 15.3333 15.3333 13.8381 15.3333 12C15.3333 10.1618 13.8381 8.66666 12 8.66666ZM12 14.5926C10.5707 14.5926 9.40737 13.4293 9.40737 12C9.40737 10.5707 10.5707 9.4074 12 9.4074C13.4292 9.4074 14.5926 10.5707 14.5926 12C14.5926 13.4293 13.4292 14.5926 12 14.5926Z" fill="black"/>
</g>
<defs>
<clipPath id="clip0">
<rect width="20" height="20" fill="white" transform="translate(2 2)"/>
</clipPath>
</defs>
</svg>
