<svg width="442" height="352" viewBox="0 0 442 352" fill="none" xmlns="http://www.w3.org/2000/svg">
<g clip-path="url(#clip0)">
<path d="M331.3 39.5458C339.153 39.5458 345.519 33.177 345.519 25.3208C345.519 17.4645 339.153 11.0957 331.3 11.0957C323.447 11.0957 317.081 17.4645 317.081 25.3208C317.081 33.177 323.447 39.5458 331.3 39.5458Z" fill="#2F2E41"/>
<path d="M321.251 34.0006C321.251 34.0006 319.194 59.9113 316.726 59.9113C314.258 59.9113 345.52 58.692 345.52 58.692C345.52 58.692 332.357 41.6214 338.939 36.1345C345.52 30.6475 321.251 34.0006 321.251 34.0006Z" fill="#9F616A"/>
<path opacity="0.1" d="M321.251 34.0006C321.251 34.0006 319.194 59.9113 316.726 59.9113C314.258 59.9113 345.52 58.692 345.52 58.692C345.52 58.692 332.357 41.6214 338.939 36.1345C345.52 30.6475 321.251 34.0006 321.251 34.0006Z" fill="black"/>
<path d="M263.732 331.937C235.126 331.937 207.405 322.014 185.292 303.86C163.18 285.705 148.043 260.442 142.463 232.375C136.882 204.307 141.202 175.172 154.686 149.934C168.171 124.696 189.986 104.916 216.414 93.9646C242.843 83.0132 272.249 81.5679 299.623 89.875C326.998 98.1821 350.646 115.728 366.538 139.522C382.431 163.316 389.585 191.887 386.781 220.367C383.977 248.846 371.389 275.472 351.162 295.708C339.707 307.23 326.082 316.364 311.074 322.583C296.067 328.802 279.976 331.981 263.732 331.937ZM263.732 85.8318C196.261 85.8318 141.369 140.745 141.369 208.243C141.369 275.741 196.261 330.655 263.732 330.655C331.203 330.655 386.095 275.741 386.095 208.243C386.095 140.745 331.203 85.8318 263.732 85.8318Z" fill="#3F3D56"/>
<path d="M358.185 90.6895L343.812 94.8039L363.889 93.8878C368.402 93.6424 372.837 95.1353 376.284 98.0598C379.86 101.157 382.743 106.071 379.967 113.335C374.415 127.862 365.873 141.534 365.873 141.534L360.321 152.216C360.321 152.216 348.789 153.925 348.362 150.507C347.935 147.089 348.362 145.379 350.498 143.67C352.633 141.961 353.914 138.543 353.914 136.834C353.914 135.125 353.487 133.416 354.769 132.561C356.05 131.707 356.477 130.425 356.477 127.862C356.477 125.298 363.886 114.031 363.886 114.031C363.886 114.031 348.362 108.635 341.677 113.176C334.992 117.718 321.455 137.689 321.455 137.689C320.567 138.618 319.823 139.675 319.248 140.825C318.562 142.16 317.612 143.342 316.456 144.299C315.214 145.391 316.358 148.399 316.757 148.798C317.184 149.225 321.455 166.315 321.455 166.315C321.455 166.315 326.153 174.434 321.028 174.861C315.903 175.288 311.205 175.715 310.778 174.861C310.303 173.676 309.732 172.533 309.069 171.443C307.788 169.306 309.069 164.606 309.069 164.606C309.069 164.606 296.684 148.798 300.527 138.97C304.371 129.143 312.486 106.926 312.486 106.926L324.872 101.798L347.508 93.6803L358.185 90.6895Z" fill="#2F2E41"/>
<path d="M271.912 44.5458L254.401 41.1277C254.401 41.1277 250.13 26.6006 245.005 28.3097C239.88 30.0188 248.422 44.5458 248.422 44.5458L272.766 55.6547L271.912 44.5458Z" fill="#A0616A"/>
<path d="M378.259 59.0723L385.946 68.8994C385.946 68.8994 397.051 68.4721 393.634 74.4538C390.217 80.4356 382.53 77.0174 382.102 75.7356C381.675 74.4538 369.29 63.3449 369.29 63.3449L378.259 59.0723Z" fill="#A0616A"/>
<path d="M338.26 46.0954L327.156 54.6407L320.322 44.3864L267.362 41.3955V58.9134C280.396 55.1486 292.392 53.9824 301.957 58.9134C314.063 75.0403 316.727 92.5526 309.069 111.579L371.574 89.6765C352.84 82.6979 344.144 72.5808 346.802 58.9134L368.584 66.6042L381.824 56.7771C369.984 48.8069 352.364 43.8081 338.26 46.0954Z" fill="#008FFF"/>
<path d="M220.809 352C342.758 352 441.617 344.54 441.617 335.337C441.617 326.134 342.758 318.674 220.809 318.674C98.8594 318.674 0 326.134 0 335.337C0 344.54 98.8594 352 220.809 352Z" fill="#3F3D56"/>
<path opacity="0.1" d="M159.093 346.018C241.533 346.018 308.363 341.044 308.363 334.909C308.363 328.773 241.533 323.8 159.093 323.8C76.6537 323.8 9.82324 328.773 9.82324 334.909C9.82324 341.044 76.6537 346.018 159.093 346.018Z" fill="black"/>
<path d="M399.404 312.718C397.981 325.19 405.645 336.308 405.645 336.308C405.645 336.308 415.617 327.204 417.039 314.732C418.462 302.26 410.798 291.143 410.798 291.143C410.798 291.143 400.826 300.246 399.404 312.718Z" fill="#2F2E41"/>
<path d="M404.839 312.074C409.967 323.53 406.025 336.447 406.025 336.447C406.025 336.447 393.767 330.788 388.639 319.331C383.511 307.874 387.453 294.958 387.453 294.958C387.453 294.958 399.711 300.617 404.839 312.074Z" fill="#008FFF"/>
<path d="M267.173 334.679C293.605 334.679 315.032 313.243 315.032 286.801C315.032 260.359 293.605 238.924 267.173 238.924C240.742 238.924 219.315 260.359 219.315 286.801C219.315 313.243 240.742 334.679 267.173 334.679Z" fill="#F2F2F2"/>
<path d="M267.173 212.99L255.384 242.477L212.751 242.819L198.863 242.931L165.904 243.196L152.022 243.308L119.063 243.573L105.181 243.686L72.2219 243.957L58.3393 244.069L36.0918 244.246L31.7885 235.435L26.206 224.024L23.123 217.708L21.3545 212.99L31.9359 179.464C32.9704 176.188 35.0213 173.328 37.7911 171.297C40.5609 169.266 43.9054 168.171 47.3394 168.171H239.856C243.191 168.173 246.443 169.206 249.167 171.13C251.891 173.054 253.953 175.773 255.071 178.916L256.297 182.372L267.173 212.99Z" fill="#008FFF"/>
<path d="M267.173 212.989H21.3545V274.911H267.173V212.989Z" fill="#008FFF"/>
<path opacity="0.1" d="M267.173 212.989H21.3545V274.911H267.173V212.989Z" fill="black"/>
<path d="M270.799 127.935H263.548V135.189H270.799V127.935Z" fill="#3F3D56"/>
<path d="M290.377 283.174H283.126V290.428H290.377V283.174Z" fill="#3F3D56"/>
<path d="M222.667 133.081H65.272V331.23H222.667V133.081Z" fill="#F2F2F2"/>
<path d="M144.265 147.235H98.2842V153.722H144.265V147.235Z" fill="#3F3D56"/>
<path d="M212.645 173.773H74.1143V176.722H212.645V173.773Z" fill="#E6E6E6"/>
<path d="M212.645 183.209H74.1143V186.158H212.645V183.209Z" fill="#E6E6E6"/>
<path d="M212.645 192.645H74.1143V195.593H212.645V192.645Z" fill="#E6E6E6"/>
<path d="M212.645 202.079H74.1143V205.028H212.645V202.079Z" fill="#E6E6E6"/>
<path d="M212.645 211.516H74.1143V214.464H212.645V211.516Z" fill="#E6E6E6"/>
<path d="M212.645 220.951H74.1143V223.9H212.645V220.951Z" fill="#E6E6E6"/>
<path d="M80.0097 159.029C78.0276 159.029 76.0901 158.441 74.4421 157.34C72.7941 156.238 71.5096 154.672 70.7511 152.84C69.9926 151.009 69.7942 148.993 70.1808 147.048C70.5675 145.103 71.522 143.317 72.9235 141.915C74.325 140.513 76.1106 139.558 78.0546 139.171C79.9986 138.784 82.0135 138.983 83.8447 139.742C85.6759 140.5 87.241 141.785 88.3421 143.434C89.4433 145.083 90.0311 147.021 90.0311 149.004C90.0281 151.662 88.9713 154.21 87.0926 156.09C85.2139 157.969 82.6666 159.026 80.0097 159.029ZM80.0097 140.158C78.2608 140.158 76.5512 140.677 75.0971 141.649C73.643 142.621 72.5096 144.002 71.8404 145.619C71.1711 147.235 70.996 149.014 71.3372 150.73C71.6784 152.446 72.5205 154.022 73.7571 155.259C74.9938 156.496 76.5694 157.339 78.2846 157.68C79.9999 158.021 81.7778 157.846 83.3935 157.176C85.0092 156.507 86.3902 155.373 87.3619 153.918C88.3335 152.464 88.8521 150.753 88.8521 149.004C88.8494 146.659 87.917 144.41 86.2593 142.752C84.6016 141.093 82.354 140.161 80.0097 140.158Z" fill="#008FFF"/>
<path d="M267.174 336.243H21.3545V212.99L53.1872 237.759L236.52 236.579L267.174 212.99V336.243Z" fill="#3F3D56"/>
<path d="M80.0093 307.641H34.0288V314.128H80.0093V307.641Z" fill="#F2F2F2"/>
<path d="M58.1588 295.459C57.1452 295.459 56.1543 295.159 55.3115 294.595C54.4686 294.032 53.8117 293.231 53.4238 292.294C53.0359 291.358 52.9344 290.327 53.1322 289.332C53.3299 288.337 53.818 287.424 54.5348 286.707C55.2516 285.99 56.1648 285.501 57.159 285.304C58.1532 285.106 59.1837 285.207 60.1202 285.595C61.0567 285.983 61.8571 286.641 62.4203 287.484C62.9834 288.327 63.284 289.318 63.284 290.332C63.2824 291.692 62.742 292.995 61.7812 293.956C60.8203 294.917 59.5176 295.458 58.1588 295.459ZM58.1588 286.06C57.3141 286.06 56.4884 286.31 55.786 286.78C55.0837 287.249 54.5363 287.916 54.213 288.697C53.8897 289.478 53.8052 290.337 53.9699 291.166C54.1347 291.995 54.5415 292.756 55.1388 293.354C55.7361 293.951 56.4971 294.358 57.3256 294.523C58.1541 294.688 59.0129 294.603 59.7933 294.28C60.5737 293.956 61.2407 293.409 61.71 292.706C62.1793 292.003 62.4298 291.177 62.4298 290.332C62.4285 289.199 61.9782 288.113 61.1775 287.312C60.3768 286.511 59.2912 286.061 58.1588 286.06Z" fill="white"/>
<path d="M359.04 150.08C359.04 150.08 361.602 159.907 362.456 160.334C363.311 160.762 372.707 168.88 366.3 170.161C359.894 171.443 355.196 171.016 353.915 169.734C352.633 168.452 353.06 167.171 350.925 166.743C348.789 166.316 344.946 165.034 345.373 162.043C345.8 159.053 347.935 150.935 349.217 150.08C350.498 149.225 359.04 150.08 359.04 150.08Z" fill="#2F2E41"/>
<path d="M321.882 171.871C321.882 171.871 325.726 174.862 323.591 180.416C321.455 185.971 318.466 191.953 318.466 191.953C318.466 191.953 315.049 202.634 309.497 200.925C307.241 200.231 306.113 198.338 305.569 196.335C305.177 194.821 305.112 193.241 305.38 191.7C305.647 190.159 306.241 188.693 307.12 187.401L310.351 182.553L313.768 173.58L321.882 171.871Z" fill="#2F2E41"/>
<path d="M312.508 213.236C320.164 213.236 329.636 210.698 338.867 201.528C361.465 179.075 382.934 176.823 383.148 176.803L383.068 175.952C382.851 175.973 361.078 178.255 338.265 200.921C326.543 212.568 314.443 213.281 306.358 211.828C301.017 210.858 295.931 208.807 291.41 205.801L290.905 206.49C295.522 209.566 300.717 211.666 306.173 212.663C308.263 213.042 310.383 213.234 312.508 213.236Z" fill="#2F2E41"/>
<path d="M371.639 194.73C374.469 194.73 376.764 192.434 376.764 189.603C376.764 186.771 374.469 184.476 371.639 184.476C368.808 184.476 366.514 186.771 366.514 189.603C366.514 192.434 368.808 194.73 371.639 194.73Z" fill="#2F2E41"/>
<path d="M335.336 218.657C338.166 218.657 340.461 216.361 340.461 213.53C340.461 210.698 338.166 208.402 335.336 208.402C332.505 208.402 330.21 210.698 330.21 213.53C330.21 216.361 332.505 218.657 335.336 218.657Z" fill="#2F2E41"/>
<path d="M330.148 43.6292C335.809 43.6292 340.397 39.039 340.397 33.3766C340.397 27.7143 335.809 23.124 330.148 23.124C324.488 23.124 319.9 27.7143 319.9 33.3766C319.9 39.039 324.488 43.6292 330.148 43.6292Z" fill="#A0616A"/>
<path d="M338.722 0C337.648 1.53521 336.055 2.63052 334.237 3.08435C331.101 3.92447 334.212 8.63912 334.212 8.63912C334.212 8.63912 333.081 6.9247 334.712 5.10909C336.344 3.29347 338.969 2.05218 338.722 0Z" fill="#2F2E41"/>
<path d="M333.656 13.7344C335.844 13.7344 337.618 11.9595 337.618 9.77002C337.618 7.58057 335.844 5.80566 333.656 5.80566C331.467 5.80566 329.693 7.58057 329.693 9.77002C329.693 11.9595 331.467 13.7344 333.656 13.7344Z" fill="#2F2E41"/>
<path d="M338.715 13.0924C335.485 11.87 330.106 11.2502 327.338 11.6739L327.718 8.90137C330.378 10.277 335.733 10.9234 339.095 10.3199L338.715 13.0924Z" fill="#3F3D56"/>
<path d="M331.61 16.2217C331.61 16.2217 327.561 22.9588 318.146 25.4808C308.732 28.0028 318.069 42.1561 318.069 42.1561C318.069 42.1561 314.674 37.0095 319.571 31.559C324.469 26.1086 332.351 22.3823 331.61 16.2217Z" fill="#2F2E41"/>
<path d="M331.931 15.8125C331.931 15.8125 335.821 25.0662 340.091 25.9411C344.361 26.8159 344.037 41.4377 337.359 43.6303C337.359 43.6303 342.228 35.0584 338.066 29.3096C333.904 23.5608 331.275 19.0163 331.931 15.8125Z" fill="#2F2E41"/>
</g>
<defs>
<clipPath id="clip0">
<rect width="441.617" height="352" fill="white"/>
</clipPath>
</defs>
</svg>
