<svg width="638" height="352" viewBox="0 0 638 352" fill="none" xmlns="http://www.w3.org/2000/svg">
<g clip-path="url(#clip0)">
<path d="M637.498 0V352H524.045C522.441 352 520.836 351.989 519.232 351.968L518.084 351.952C516.783 351.936 515.481 351.91 514.18 351.873C510.195 351.777 506.218 351.625 502.248 351.416C435.889 347.976 371.274 328.794 313.203 296.062C174.669 217.969 0 252.798 0 252.798V0H637.498Z" fill="#008FFF"/>
<path opacity="0.1" d="M134.066 0L100.018 23.3605L62.1773 49.3225L58.1186 52.1098L27.0937 73.3944L0 91.9819V43.8328L12.2187 35.4495L14.8165 33.6656L27.0937 25.2453L29.8349 23.3605L63.888 0H134.066Z" fill="black"/>
<path opacity="0.1" d="M225.781 0L172.125 36.814L120.615 72.152L116.556 74.9394L112.8 77.5143L0 154.901V106.747L42.6168 77.5143L70.6561 58.2791L73.2539 56.4952L121.55 23.3605L155.603 0H225.781Z" fill="black"/>
<path d="M609.874 177.327H413.312V46.1895H609.874V177.327ZM414.374 176.265H608.811V47.2513H414.374V176.265Z" fill="#D0CDE1"/>
<path d="M480.249 101.406H456.874V162.993H480.249V101.406Z" fill="#3F3D56"/>
<path d="M523.28 125.297H499.905V162.992H523.28V125.297Z" fill="#3F3D56"/>
<path d="M566.311 75.9219H542.936V162.993H566.311V75.9219Z" fill="#3F3D56"/>
<path d="M511.592 113.086C518.047 113.086 523.28 107.857 523.28 101.406C523.28 94.955 518.047 89.7256 511.592 89.7256C505.137 89.7256 499.905 94.955 499.905 101.406C499.905 107.857 505.137 113.086 511.592 113.086Z" fill="#3F3D56"/>
<path d="M172.656 78.0448H26.5625V22.8291H172.656V78.0448ZM27.625 76.983H171.593V23.8909H27.625V76.983Z" fill="#D0CDE1"/>
<path d="M334.687 170.426H254.999V131.669H334.687V170.426ZM256.062 169.364H333.624V132.731H256.062V169.364Z" fill="#D0CDE1"/>
<path d="M85.7966 38.4912L113.422 50.7024L85.7966 62.3826V38.4912Z" fill="#3F3D56"/>
<path d="M276.78 156.887C280.008 156.887 282.624 154.273 282.624 151.047C282.624 147.822 280.008 145.207 276.78 145.207C273.553 145.207 270.937 147.822 270.937 151.047C270.937 154.273 273.553 156.887 276.78 156.887Z" fill="#3F3D56"/>
<path d="M294.843 156.887C298.07 156.887 300.686 154.273 300.686 151.047C300.686 147.822 298.07 145.207 294.843 145.207C291.615 145.207 288.999 147.822 288.999 151.047C288.999 154.273 291.615 156.887 294.843 156.887Z" fill="#3F3D56"/>
<path d="M312.906 156.887C316.133 156.887 318.749 154.273 318.749 151.047C318.749 147.822 316.133 145.207 312.906 145.207C309.678 145.207 307.062 147.822 307.062 151.047C307.062 154.273 309.678 156.887 312.906 156.887Z" fill="#3F3D56"/>
<path d="M293.917 89.6516L288.499 96.5766C279.861 84.3285 269.518 74.3997 257.725 67.0608C247.821 60.9139 236.917 56.5461 225.506 54.1548C205.832 49.9831 190.658 52.7969 190.507 52.8255L190.871 54.7285C191.019 54.7001 205.808 51.9586 225.104 56.0499C242.581 59.7556 267.326 69.9944 286.841 97.5933L278.297 99.4403C283.674 101.065 290.255 104.998 294.91 108.574C293.715 102.83 293.039 95.1963 293.917 89.6516Z" fill="#D0CDE1"/>
<path d="M441.331 205.603C441.214 205.696 429.344 215.037 410.341 220.384C393.163 225.218 366.522 227.651 336.428 212.323L343.128 206.715C337.613 207.779 329.956 207.361 324.171 206.36C327.904 210.889 332.059 217.33 333.865 222.646L335.434 213.994C348.785 220.814 362.564 224.789 376.42 225.796C378.797 225.969 381.177 226.056 383.56 226.056C392.822 226.045 402.038 224.756 410.947 222.226C430.302 216.763 442.42 207.213 442.54 207.117L441.331 205.603Z" fill="#D0CDE1"/>
<path d="M147.823 192.33C147.941 192.424 159.81 201.765 178.814 207.112C195.991 211.945 222.632 214.378 252.726 199.051L246.026 193.442C251.542 194.506 259.198 194.088 264.984 193.087C261.25 197.616 257.095 204.057 255.289 209.373L253.72 200.722C240.369 207.542 226.59 211.516 212.734 212.524C210.357 212.697 207.978 212.783 205.595 212.783C196.333 212.772 187.117 211.484 178.208 208.954C158.852 203.491 146.734 193.94 146.614 193.845L147.823 192.33Z" fill="#D0CDE1"/>
<path d="M120.859 216.993H39.0469V135.231H120.859V216.993ZM40.1832 215.858H119.723V136.367H40.1832V215.858Z" fill="#D0CDE1"/>
<path d="M104.951 161.091H54.9548V165.648H104.951V161.091Z" fill="#3F3D56"/>
<path d="M104.951 173.834H54.9548V178.391H104.951V173.834Z" fill="#3F3D56"/>
<path d="M104.951 186.575H54.9548V191.133H104.951V186.575Z" fill="#3F3D56"/>
<path d="M364.382 58.4726C364.382 57.2125 364.755 55.9808 365.456 54.933C366.156 53.8853 367.152 53.0687 368.317 52.5865C369.482 52.1043 370.764 51.9782 372 52.224C373.237 52.4698 374.373 53.0766 375.264 53.9676C376.156 54.8586 376.763 55.9938 377.009 57.2297C377.255 58.4655 377.129 59.7465 376.646 60.9107C376.164 62.0749 375.347 63.0699 374.298 63.7699C373.25 64.47 372.017 64.8437 370.757 64.8437C369.066 64.8418 367.446 64.1699 366.251 62.9755C365.056 61.7811 364.383 60.1617 364.382 58.4726ZM365.444 58.4726C365.444 59.5227 365.756 60.5491 366.339 61.4222C366.923 62.2953 367.753 62.9758 368.724 63.3777C369.694 63.7795 370.762 63.8847 371.793 63.6798C372.824 63.4749 373.77 62.9693 374.513 62.2268C375.256 61.4843 375.762 60.5383 375.967 59.5084C376.172 58.4785 376.067 57.411 375.665 56.4409C375.263 55.4707 374.582 54.6416 373.708 54.0582C372.834 53.4748 371.807 53.1634 370.757 53.1634C369.348 53.165 367.998 53.7249 367.002 54.7202C366.006 55.7155 365.446 57.065 365.444 58.4726Z" fill="#3F3D56"/>
<path d="M438.589 292.469L429.205 282.414L439.265 273.036L448.649 283.091L438.589 292.469ZM430.701 282.466L438.641 290.974L447.154 283.039L439.213 274.531L430.701 282.466Z" fill="#3F3D56"/>
<path d="M189.965 118.327L180.581 108.273L190.642 98.8945L200.025 108.949L189.965 118.327ZM182.077 108.325L190.017 116.832L198.53 108.897L190.589 100.389L182.077 108.325Z" fill="#3F3D56"/>
<path d="M533.391 239.094C553.032 239.094 568.955 223.181 568.955 203.552C568.955 183.922 553.032 168.01 533.391 168.01C513.749 168.01 497.827 183.922 497.827 203.552C497.827 223.181 513.749 239.094 533.391 239.094Z" fill="#2F2E41"/>
<path d="M581.016 352H524.045C522.441 352 520.836 351.989 519.232 351.968L518.085 351.952C516.783 351.936 515.481 351.909 514.18 351.872L512.916 346.876L515.444 346.446L518.483 345.931L547.638 340.983L571.916 336.863C572.676 336.731 573.456 336.769 574.2 336.975C575.263 337.262 576.211 337.871 576.912 338.72C577.614 339.568 578.034 340.613 578.116 341.71C578.36 345.018 579.093 349.058 581.016 352Z" fill="#2F2E41"/>
<path d="M527.058 239.93C539.964 239.93 550.427 229.474 550.427 216.575C550.427 203.676 539.964 193.22 527.058 193.22C514.151 193.22 503.688 203.676 503.688 216.575C503.688 229.474 514.151 239.93 527.058 239.93Z" fill="#A0616A"/>
<path d="M527.057 237.472C527.057 237.472 535.257 258.369 528.697 262.057C522.137 265.745 518.857 266.154 518.857 266.154L511.888 278.037L507.788 290.329L540.587 291.558L563.547 255.091C563.547 255.091 552.477 249.355 546.737 224.771L527.057 237.472Z" fill="#A0616A"/>
<path d="M569.902 255.705C569.902 255.705 565.732 252.967 561.872 253.927C559.986 254.34 558.144 254.936 556.373 255.705C556.373 255.705 535.053 284.797 523.573 285.616C523.573 285.616 508.403 289.714 512.093 283.568C515.783 277.422 523.868 264.485 523.868 264.485C523.868 264.485 509.223 267.998 509.223 272.914C509.223 277.831 506.353 286.846 506.353 286.846C506.353 286.846 492.414 300.777 506.353 317.166C520.293 333.556 514.963 348.307 514.963 348.307L576.462 337.244L569.902 255.705Z" fill="#D0CDE1"/>
<path d="M514.179 351.873C510.195 351.777 506.218 351.625 502.248 351.416L504.628 314.953L505.122 307.334L516.193 328.231C516.193 328.231 517.181 335.531 518.483 345.932C518.557 346.489 518.626 347.052 518.7 347.631C518.87 349.032 519.051 350.482 519.232 351.968L518.084 351.952C516.783 351.937 515.481 351.91 514.179 351.873Z" fill="#D0CDE1"/>
<path d="M548.126 185.939C556.254 185.939 562.842 179.354 562.842 171.231C562.842 163.109 556.254 156.524 548.126 156.524C539.999 156.524 533.41 163.109 533.41 171.231C533.41 179.354 539.999 185.939 548.126 185.939Z" fill="#2F2E41"/>
<path d="M528.505 163.267C528.505 159.631 529.852 156.125 532.287 153.424C534.721 150.723 538.07 149.018 541.688 148.639C541.179 148.586 540.667 148.56 540.155 148.56C536.252 148.56 532.509 150.109 529.749 152.867C526.989 155.625 525.439 159.366 525.439 163.267C525.439 167.167 526.989 170.908 529.749 173.666C532.509 176.424 536.252 177.974 540.155 177.974C540.667 177.974 541.179 177.947 541.688 177.894C538.07 177.515 534.721 175.811 532.287 173.109C529.852 170.408 528.505 166.902 528.505 163.267Z" fill="#2F2E41"/>
<path d="M553.196 209.726C555.283 201.876 546.363 192.694 533.271 189.217C520.18 185.741 507.875 189.286 505.787 197.136C503.7 204.986 512.621 214.168 525.712 217.645C538.804 221.122 551.109 217.576 553.196 209.726Z" fill="#2F2E41"/>
<path d="M575.47 324.876C574.992 329.749 574.54 333.944 574.2 336.975C574.168 337.214 574.147 337.442 574.12 337.665C573.796 340.506 573.594 342.162 573.594 342.162L568.723 352H542.755C544.253 348.581 545.667 345.39 546.931 342.555C547.175 342.019 547.409 341.493 547.638 340.984C550.48 334.682 552.477 330.477 552.886 330.073C554.528 328.433 559.654 258.165 559.654 258.165C559.654 258.165 563.628 254.762 567.984 254.714H567.99C571.034 254.677 574.269 256.286 576.463 261.85C580.044 270.939 577.515 304.117 575.47 324.876Z" fill="#D0CDE1"/>
<path opacity="0.1" d="M507.586 318.675C507.586 318.675 516.634 337.848 515.901 342.975C515.168 348.101 507.586 318.675 507.586 318.675Z" fill="black"/>
<path d="M552.068 219.444C553.2 219.444 554.117 217.609 554.117 215.346C554.117 213.083 553.2 211.249 552.068 211.249C550.935 211.249 550.018 213.083 550.018 215.346C550.018 217.609 550.935 219.444 552.068 219.444Z" fill="#A0616A"/>
</g>
<defs>
<clipPath id="clip0">
<rect width="637.498" height="352" fill="white"/>
</clipPath>
</defs>
</svg>
