<svg width="497" height="352" viewBox="0 0 497 352" fill="none" xmlns="http://www.w3.org/2000/svg">
<g clip-path="url(#clip0)">
<path d="M136.314 351.537L123.405 308.873C123.405 308.873 137.605 317.253 138.25 327.92C138.25 327.92 135.023 274.589 128.569 263.161C128.569 263.161 138.895 264.684 150.513 324.11C150.513 324.11 152.449 255.542 135.023 235.733C135.023 235.733 158.904 258.589 160.84 308.111V351.537H136.314Z" fill="#F2F2F2"/>
<path d="M378.398 351.538L375.294 341.28C375.294 341.28 378.708 343.295 378.863 345.86C378.863 345.86 378.087 333.037 376.535 330.289C376.535 330.289 379.018 330.655 381.812 344.944C381.812 344.944 382.277 328.457 378.087 323.694C378.087 323.694 383.829 329.19 384.295 341.097V351.538L378.398 351.538Z" fill="#F2F2F2"/>
<path d="M320.897 263.307C352.236 263.307 377.642 233.318 377.642 196.325C377.642 159.332 352.236 129.344 320.897 129.344C289.559 129.344 264.153 159.332 264.153 196.325C264.153 233.318 289.559 263.307 320.897 263.307Z" fill="#F2F2F2"/>
<path d="M133.838 5.08203H0V92.8511H133.838V5.08203Z" fill="#F2F2F2"/>
<path d="M315.419 5.08203H181.581V92.8511H315.419V5.08203Z" fill="#F2F2F2"/>
<path d="M497 5.08203H363.163V92.8511H497V5.08203Z" fill="#F2F2F2"/>
<path d="M344.044 351.78C343.954 351.607 341.837 347.433 341.102 338.766C340.429 330.815 340.862 317.412 346.75 298.716C357.906 263.299 344.18 234.722 344.039 234.437L344.717 233.974C344.752 234.046 348.294 241.332 350.386 252.934C353.151 268.315 352.144 284.308 347.484 299.038C336.348 334.396 344.627 351.133 344.712 351.298L344.044 351.78Z" fill="#3F3D56"/>
<path d="M339.682 232.358C342.492 232.358 344.77 229.67 344.77 226.353C344.77 223.036 342.492 220.348 339.682 220.348C336.872 220.348 334.595 223.036 334.595 226.353C334.595 229.67 336.872 232.358 339.682 232.358Z" fill="#008FFF"/>
<path d="M355.727 254.529C358.536 254.529 360.814 251.84 360.814 248.524C360.814 245.207 358.536 242.519 355.727 242.519C352.917 242.519 350.639 245.207 350.639 248.524C350.639 251.84 352.917 254.529 355.727 254.529Z" fill="#3F3D56"/>
<path d="M344.769 269.311C347.579 269.311 349.856 266.623 349.856 263.306C349.856 259.989 347.579 257.301 344.769 257.301C341.959 257.301 339.682 259.989 339.682 263.306C339.682 266.623 341.959 269.311 344.769 269.311Z" fill="#008FFF"/>
<path d="M358.075 281.785C360.885 281.785 363.163 279.096 363.163 275.78C363.163 272.463 360.885 269.774 358.075 269.774C355.265 269.774 352.988 272.463 352.988 275.78C352.988 279.096 355.265 281.785 358.075 281.785Z" fill="#008FFF"/>
<path d="M340.856 301.186C343.666 301.186 345.943 298.498 345.943 295.181C345.943 291.864 343.666 289.176 340.856 289.176C338.046 289.176 335.769 291.864 335.769 295.181C335.769 298.498 338.046 301.186 340.856 301.186Z" fill="#3F3D56"/>
<path d="M347.117 352C347.117 352 342.029 337.217 357.292 326.131L347.117 352Z" fill="#3F3D56"/>
<path d="M340.861 351.732C340.861 351.732 338.546 336.013 320.625 336.147L340.861 351.732Z" fill="#3F3D56"/>
<path d="M133.642 0H0.195801V7.85302H133.642V0Z" fill="#3F3D56"/>
<path d="M315.614 0H181.776V7.85302H315.614V0Z" fill="#3F3D56"/>
<path d="M496.804 0H363.358V7.85302H496.804V0Z" fill="#3F3D56"/>
<path d="M34.4378 20.0947H10.1748V40.4202H34.4378V20.0947Z" fill="white"/>
<path d="M123.663 20.0947H56.7441V22.4044H123.663V20.0947Z" fill="white"/>
<path d="M123.663 29.333H56.7441V31.6427H123.663V29.333Z" fill="white"/>
<path d="M123.663 38.5723H56.7441V40.882H123.663V38.5723Z" fill="white"/>
<path d="M216.019 20.0947H191.756V40.4202H216.019V20.0947Z" fill="white"/>
<path d="M305.244 20.0947H238.325V22.4044H305.244V20.0947Z" fill="white"/>
<path d="M305.244 29.333H238.325V31.6427H305.244V29.333Z" fill="white"/>
<path d="M305.244 38.5723H238.325V40.882H305.244V38.5723Z" fill="white"/>
<path d="M397.6 20.0947H373.337V40.4202H397.6V20.0947Z" fill="white"/>
<path d="M486.825 20.0947H419.906V22.4044H486.825V20.0947Z" fill="white"/>
<path d="M486.825 29.333H419.906V31.6427H486.825V29.333Z" fill="white"/>
<path d="M486.825 38.5723H419.906V40.882H486.825V38.5723Z" fill="white"/>
<path d="M22.3063 39.7277C26.6289 39.7277 30.133 35.5913 30.133 30.4888C30.133 25.3864 26.6289 21.25 22.3063 21.25C17.9837 21.25 14.4795 25.3864 14.4795 30.4888C14.4795 35.5913 17.9837 39.7277 22.3063 39.7277Z" fill="#008FFF"/>
<path d="M385.468 39.7277C389.791 39.7277 393.295 35.5913 393.295 30.4888C393.295 25.3864 389.791 21.25 385.468 21.25C381.146 21.25 377.642 25.3864 377.642 30.4888C377.642 35.5913 381.146 39.7277 385.468 39.7277Z" fill="#008FFF"/>
<path d="M62.5249 92.8496H61.7422V95.6212H62.5249V92.8496Z" fill="#3F3D56"/>
<path d="M62.5249 206.488H61.7422V200.945H62.5249V206.488ZM62.5249 195.401H61.7422V189.858H62.5249V195.401ZM62.5249 184.315H61.7422V178.771H62.5249V184.315ZM62.5249 173.228H61.7422V167.685H62.5249V173.228ZM62.5249 162.141H61.7422V156.598H62.5249V162.141ZM62.5249 151.055H61.7422V145.512H62.5249V151.055ZM62.5249 139.968H61.7422V134.425H62.5249V139.968ZM62.5249 128.882H61.7422V123.338H62.5249V128.882ZM62.5249 117.795H61.7422V112.252H62.5249V117.795ZM62.5249 106.708H61.7422V101.165H62.5249V106.708Z" fill="#3F3D56"/>
<path d="M64.4815 215.266H61.7422V212.032H62.5247V214.342H64.4815V215.266Z" fill="#3F3D56"/>
<path d="M423.016 215.266H418.298V214.342H423.016V215.266ZM413.581 215.266H408.863V214.342H413.581V215.266ZM404.146 215.266H399.428V214.342H404.146V215.266ZM394.711 215.266H389.993V214.342H394.711V215.266ZM385.276 215.266H380.558V214.342H385.276V215.266ZM375.84 215.266H371.123V214.342H375.84V215.266ZM366.405 215.266H361.688V214.342H366.405V215.266ZM356.97 215.266H352.253V214.342H356.97V215.266ZM347.535 215.266H342.817V214.342H347.535V215.266ZM338.1 215.266H333.382V214.342H338.1L338.1 215.266ZM328.665 215.266H323.947V214.342H328.665V215.266ZM319.23 215.266H314.512V214.342H319.23V215.266ZM309.795 215.266H305.077V214.342H309.795V215.266ZM300.359 215.266H295.642V214.342H300.359V215.266ZM290.924 215.266H286.207V214.342H290.924V215.266ZM281.489 215.266H276.772V214.342H281.489V215.266ZM272.054 215.266H267.336V214.342H272.054V215.266ZM262.619 215.266H257.901V214.342H262.619V215.266ZM253.184 215.266H248.466V214.342H253.184V215.266ZM243.749 215.266H239.031V214.342H243.749V215.266ZM234.314 215.266H229.596V214.342H234.314V215.266ZM224.879 215.266H220.161V214.342H224.879V215.266ZM215.444 215.266H210.726V214.342H215.444V215.266ZM206.008 215.266H201.291V214.342H206.008V215.266ZM196.573 215.266H191.856V214.342H196.573V215.266ZM187.138 215.266H182.421V214.342H187.138V215.266ZM177.703 215.266H172.985V214.342H177.703V215.266ZM168.268 215.266H163.55V214.342H168.268V215.266ZM158.833 215.266H154.115V214.342H158.833V215.266ZM149.398 215.266H144.68V214.342H149.398V215.266ZM139.963 215.266H135.245V214.342H139.963V215.266ZM130.527 215.266H125.81V214.342H130.527V215.266ZM121.092 215.266H116.375V214.342H121.092V215.266ZM111.657 215.266H106.94V214.342H111.657V215.266ZM102.222 215.266H97.5046V214.342H102.222V215.266ZM92.7869 215.266H88.0695V214.342H92.7869V215.266ZM83.3518 215.266H78.6343V214.342H83.3518V215.266ZM73.9167 215.266H69.1992V214.342H73.9167L73.9167 215.266Z" fill="#3F3D56"/>
<path d="M430.473 215.266H427.733V214.342H429.69V212.032H430.473V215.266Z" fill="#3F3D56"/>
<path d="M430.473 206.488H429.69V200.945H430.473V206.488ZM430.473 195.401H429.69V189.858H430.473V195.401ZM430.473 184.315H429.69V178.771H430.473V184.315ZM430.473 173.228H429.69V167.685H430.473V173.228ZM430.473 162.141H429.69V156.598H430.473V162.141ZM430.473 151.055H429.69V145.512H430.473V151.055ZM430.473 139.968H429.69V134.425H430.473V139.968ZM430.473 128.882H429.69V123.338H430.473V128.882ZM430.473 117.795H429.69V112.252H430.473V117.795ZM430.473 106.708H429.69V101.165H430.473V106.708Z" fill="#3F3D56"/>
<path d="M430.473 92.8496H429.69V95.6212H430.473V92.8496Z" fill="#3F3D56"/>
<path d="M315.419 187.087H181.581V351.538H315.419V187.087Z" fill="#3F3D56"/>
<path d="M216.019 208.568H191.756V228.894H216.019V208.568Z" fill="white"/>
<path d="M305.244 208.568H238.325V210.878H305.244V208.568Z" fill="white"/>
<path d="M305.244 217.807H238.325V220.116H305.244V217.807Z" fill="white"/>
<path d="M305.244 227.045H238.325V229.355H305.244V227.045Z" fill="white"/>
<path d="M216.019 281.784H191.756V302.11H216.019V281.784Z" fill="white"/>
<path d="M305.244 281.784H238.325V284.094H305.244V281.784Z" fill="white"/>
<path d="M305.244 291.023H238.325V293.333H305.244V291.023Z" fill="white"/>
<path d="M305.244 300.263H238.325V302.572H305.244V300.263Z" fill="white"/>
<path d="M203.991 223.87L195.686 210.799L197.653 209.057L204.419 219.706L221.664 203.219L223.221 205.465L203.991 223.87Z" fill="#008FFF"/>
<path d="M203.991 296.396L195.686 283.325L197.653 281.583L204.419 292.231L221.664 275.744L223.221 277.991L203.991 296.396Z" fill="#008FFF"/>
<path d="M486.826 351.075H3.52246V351.999H486.826V351.075Z" fill="#3F3D56"/>
<path d="M265.346 97.9313C265.346 97.9313 278.26 91.2888 284.326 98.3056C290.391 105.322 268.085 103.013 265.346 97.9313Z" fill="#3F3D56"/>
<path d="M287.646 66.429C283.306 57.773 274.72 57.3696 274.72 57.3696C274.72 57.3696 266.353 56.1066 260.986 69.2899C255.983 81.5778 249.079 93.4421 259.874 96.3186L261.824 89.1545L263.032 96.8519C264.569 96.9824 266.111 97.0135 267.651 96.9451C279.212 96.5045 290.222 97.074 289.867 92.177C289.396 85.6671 291.821 74.7579 287.646 66.429Z" fill="#2F2E41"/>
<path d="M293.718 223.35C293.718 223.35 288.239 235.36 284.717 235.36C281.195 235.36 281.587 243.213 282.369 245.061C283.152 246.909 285.109 251.066 281.978 257.071C280.884 259.169 281.08 261.549 281.798 263.757C283.808 269.945 291.629 268.07 291.38 261.449C291.377 261.376 291.374 261.303 291.37 261.229C290.979 253.838 294.109 242.289 297.24 239.518C300.371 236.746 303.11 229.355 303.11 229.355L293.718 223.35Z" fill="#FFB8B8"/>
<path d="M256.149 220.577C256.149 220.577 261.628 232.588 265.15 232.588C268.672 232.588 268.281 240.441 267.498 242.288C266.716 244.136 264.759 248.294 267.89 254.299C268.983 256.397 268.788 258.776 268.07 260.984C266.059 267.172 258.238 265.297 258.487 258.677C258.49 258.604 258.494 258.53 258.497 258.456C258.889 251.065 255.758 239.517 252.627 236.745C249.497 233.973 246.757 226.582 246.757 226.582L256.149 220.577Z" fill="#FFB8B8"/>
<path d="M260.454 161.449L258.106 167.454C258.106 167.454 223.668 180.85 226.799 196.556C229.93 212.262 245.192 236.745 247.54 235.821C249.888 234.897 262.411 232.126 262.802 224.273C263.193 216.42 253.801 202.561 253.801 202.561L266.715 188.703L285.508 188.241L301.545 202.561C301.545 202.561 284.717 220.115 292.152 227.044C299.588 233.974 310.545 238.593 312.111 235.821C313.676 233.05 331.286 191.937 328.547 188.241C325.808 184.546 298.022 170.687 298.022 170.687L290.587 158.215L261.628 156.367L260.454 161.449Z" fill="#2F2E41"/>
<path d="M267.499 85.2285C267.499 85.2285 269.456 100.473 265.542 102.32C261.629 104.168 273.369 112.021 273.369 112.021H280.022L284.327 101.396C284.327 101.396 280.413 93.0815 282.761 85.2285C285.109 77.3755 267.499 85.2285 267.499 85.2285Z" fill="#FFB8B8"/>
<path opacity="0.1" d="M267.499 85.2285C267.499 85.2285 269.456 100.473 265.542 102.32C261.629 104.168 273.369 112.021 273.369 112.021H280.022L284.327 101.396C284.327 101.396 280.413 93.0815 282.761 85.2285C285.109 77.3755 267.499 85.2285 267.499 85.2285Z" fill="black"/>
<path d="M264.76 98.1621C264.76 98.1621 269.064 103.705 269.847 104.629C270.63 105.553 274.152 110.635 281.587 103.243C289.022 95.8524 289.805 104.629 289.805 104.629V160.062C289.805 160.062 283.544 156.829 278.456 160.062C273.369 163.296 262.803 159.139 262.803 159.139L260.846 101.858L264.76 98.1621Z" fill="white"/>
<path d="M267.634 98.1621C267.634 98.1621 263.977 96.3143 260.846 98.1621C257.715 100.01 246.758 109.249 247.541 113.406C248.323 117.564 258.498 146.666 251.454 160.524C244.41 174.382 243.236 178.078 243.236 178.078L260.455 167.453C260.455 167.453 273.76 157.753 272.586 151.747C271.412 145.742 267.634 98.1621 267.634 98.1621Z" fill="#008FFF"/>
<path d="M283.157 98.1621C283.157 98.1621 291.37 99.086 291.761 100.01C292.153 100.934 304.089 104.86 303.306 109.018C302.523 113.175 291.761 150.362 296.457 157.291C301.153 164.22 308.98 173.921 306.241 174.844C303.502 175.768 298.805 173.459 294.109 174.844C289.413 176.23 278.456 164.682 279.63 152.209C280.804 139.737 279.639 101.396 283.157 98.1621Z" fill="#008FFF"/>
<path d="M263.585 186.394V191.013C263.585 191.013 261.629 201.638 267.89 201.176C274.152 200.714 270.238 188.241 270.238 188.241L269.847 184.084L263.585 186.394Z" fill="#FFB8B8"/>
<path d="M281.195 186.854C281.195 186.854 276.891 197.479 281.195 198.403C285.5 199.327 288.631 192.398 288.631 190.55C288.631 188.702 281.195 186.854 281.195 186.854Z" fill="#FFB8B8"/>
<path d="M286.87 80.8401C287.302 80.8401 287.653 80.0128 287.653 78.9923C287.653 77.9718 287.302 77.1445 286.87 77.1445C286.438 77.1445 286.087 77.9718 286.087 78.9923C286.087 80.0128 286.438 80.8401 286.87 80.8401Z" fill="#FFB8B8"/>
<path d="M263.781 80.8401C264.213 80.8401 264.564 80.0128 264.564 78.9923C264.564 77.9718 264.213 77.1445 263.781 77.1445C263.349 77.1445 262.999 77.9718 262.999 78.9923C262.999 80.0128 263.349 80.8401 263.781 80.8401Z" fill="#FFB8B8"/>
<path d="M293.718 104.168C293.718 104.168 303.502 104.168 303.11 108.787C302.719 113.407 289.805 192.861 289.805 192.861C289.805 192.861 284.326 186.856 279.63 188.241L293.718 104.168Z" fill="#008FFF"/>
<path d="M255.758 105.554C255.758 105.554 245.975 107.863 245.975 114.793C245.975 121.722 260.063 188.241 262.019 188.241C263.976 188.241 271.412 186.856 271.412 184.546C271.412 182.236 255.758 105.554 255.758 105.554Z" fill="#008FFF"/>
<path opacity="0.2" d="M257.911 119.182L266.716 159.828C266.716 159.828 262.607 124.263 257.911 119.182Z" fill="black"/>
<path opacity="0.2" d="M292.16 113.47L283.254 166.613C283.254 166.613 286.101 116.535 292.16 113.47Z" fill="black"/>
<path d="M275.325 92.6198C281.593 92.6198 286.674 86.622 286.674 79.2235C286.674 71.8249 281.593 65.8271 275.325 65.8271C269.058 65.8271 263.977 71.8249 263.977 79.2235C263.977 86.622 269.058 92.6198 275.325 92.6198Z" fill="#FFB8B8"/>
<path d="M285.727 65.5945L277.244 60.3496L265.53 62.495L263.106 75.1308L269.14 74.857L270.825 70.2148V74.7805L273.609 74.6539L275.224 67.2631L276.235 75.1308L286.131 74.8926L285.727 65.5945Z" fill="#2F2E41"/>
</g>
<defs>
<clipPath id="clip0">
<rect width="497" height="352" fill="white"/>
</clipPath>
</defs>
</svg>
