<svg width="316" height="352" viewBox="0 0 316 352" fill="none" xmlns="http://www.w3.org/2000/svg">
<g clip-path="url(#clip0)">
<path opacity="0.4" d="M74.1469 306.696C78.6056 306.696 82.2201 303.09 82.2201 298.641C82.2201 294.192 78.6056 290.586 74.1469 290.586C69.6882 290.586 66.0737 294.192 66.0737 298.641C66.0737 303.09 69.6882 306.696 74.1469 306.696Z" fill="#008FFF"/>
<path opacity="0.4" d="M59.2053 308.138C62.333 308.138 64.8686 305.608 64.8686 302.487C64.8686 299.367 62.333 296.837 59.2053 296.837C56.0775 296.837 53.542 299.367 53.542 302.487C53.542 305.608 56.0775 308.138 59.2053 308.138Z" fill="#008FFF"/>
<path d="M287.321 188.558C295.121 168.941 298.303 147.799 296.624 126.761C294.944 105.723 288.448 85.35 277.635 67.2114L56.8149 97.7178L268.431 53.7148C255.556 36.9909 238.997 23.4475 220.035 14.133C201.073 4.81846 180.217 -0.0172971 159.081 4.64881e-05C82.8779 4.64881e-05 21.1028 61.6364 21.1028 137.669C21.1043 143.953 21.5334 150.229 22.387 156.455L287.321 188.558Z" fill="#F2F2F2"/>
<path d="M30.3254 187.235C50.269 238.774 100.392 275.338 159.081 275.338C214.153 275.338 261.682 243.143 283.811 196.591L30.3254 187.235Z" fill="#F2F2F2"/>
<path d="M57.3557 66.9444C60.9417 66.9444 63.8488 64.0438 63.8488 60.4658C63.8488 56.8878 60.9417 53.9873 57.3557 53.9873C53.7696 53.9873 50.8625 56.8878 50.8625 60.4658C50.8625 64.0438 53.7696 66.9444 57.3557 66.9444Z" fill="#3F3D56"/>
<path d="M291.108 142.527C294.694 142.527 297.601 139.627 297.601 136.049C297.601 132.471 294.694 129.57 291.108 129.57C287.522 129.57 284.615 132.471 284.615 136.049C284.615 139.627 287.522 142.527 291.108 142.527Z" fill="#008FFF"/>
<path d="M67.6363 183.019H56.8145V193.816H67.6363V183.019Z" fill="#008FFF"/>
<path d="M145.013 104.196C145.013 104.196 162.869 96.4332 171.256 104.634C179.643 112.834 148.801 110.135 145.013 104.196Z" fill="#3F3D56"/>
<path d="M175.845 67.379C169.845 57.2626 157.973 56.7911 157.973 56.7911C157.973 56.7911 146.405 55.3151 138.984 70.7225C132.067 85.0835 122.52 98.9494 137.447 102.311L140.143 93.9384L141.813 102.935C143.938 103.087 146.07 103.123 148.199 103.043C164.184 102.529 179.407 103.194 178.917 97.4709C178.266 89.8627 181.619 77.113 175.845 67.379Z" fill="#2F2E41"/>
<path d="M159.352 221.889C176.087 221.889 189.653 218.747 189.653 214.871C189.653 210.995 176.087 207.853 159.352 207.853C142.617 207.853 129.051 210.995 129.051 214.871C129.051 218.747 142.617 221.889 159.352 221.889Z" fill="#3F3D56"/>
<path d="M183.661 300.985L154.442 303.141L154.521 304.217L183.741 302.061L183.661 300.985Z" fill="#2F2E41"/>
<path d="M135.263 297.27L134.742 298.216L145.564 304.154L146.085 303.209L135.263 297.27Z" fill="#2F2E41"/>
<path d="M165.845 293.423H156.105V294.503H165.845V293.423Z" fill="#2F2E41"/>
<path d="M130.673 351.227L129.593 351.154L137.709 225.902L138.789 225.976L130.673 351.227Z" fill="#2F2E41"/>
<path d="M170.715 351.217L165.304 228.125L166.386 228.072L171.796 351.164L170.715 351.217Z" fill="#2F2E41"/>
<path d="M181.535 226.974L180.457 227.062L190.737 351.234L191.816 351.145L181.535 226.974Z" fill="#2F2E41"/>
<path d="M184.242 250.773C184.242 250.773 176.666 264.81 171.796 264.81C166.927 264.81 167.468 273.988 168.55 276.148C169.632 278.307 172.338 283.166 168.009 290.184C166.497 292.636 166.767 295.417 167.76 297.998C170.54 305.23 181.354 303.039 181.009 295.301C181.005 295.216 181 295.13 180.995 295.043C180.454 286.405 184.783 272.908 189.111 269.669C193.44 266.43 197.228 257.792 197.228 257.792L184.242 250.773Z" fill="#FFB8B8"/>
<path d="M132.297 247.533C132.297 247.533 139.872 261.57 144.742 261.57C149.612 261.57 149.071 270.748 147.989 272.907C146.906 275.067 144.201 279.926 148.53 286.944C150.042 289.396 149.771 292.177 148.779 294.758C145.999 301.989 135.185 299.798 135.53 292.061C135.534 291.975 135.538 291.89 135.544 291.803C136.085 283.165 131.756 269.668 127.427 266.429C123.098 263.19 119.311 254.552 119.311 254.552L132.297 247.533Z" fill="#FFB8B8"/>
<path d="M138.249 178.43L135.003 185.448C135.003 185.448 87.3865 201.105 91.7152 219.461C96.044 237.816 117.147 266.43 120.393 265.35C123.64 264.27 140.955 261.031 141.496 251.853C142.037 242.675 129.051 226.479 129.051 226.479L146.907 210.283L172.89 209.743L195.064 226.479C195.064 226.479 171.797 246.994 182.078 255.092C192.358 263.191 207.509 268.589 209.673 265.35C211.838 262.111 236.187 214.062 232.399 209.743C228.612 205.424 190.194 189.227 190.194 189.227L179.913 174.651L139.872 172.491L138.249 178.43Z" fill="#2F2E41"/>
<path d="M147.989 89.3496C147.989 89.3496 150.694 107.166 145.283 109.325C139.872 111.485 156.105 120.662 156.105 120.662H165.304L171.256 108.245C171.256 108.245 165.845 98.5275 169.091 89.3496C172.338 80.1717 147.989 89.3496 147.989 89.3496Z" fill="#FFB8B8"/>
<path opacity="0.1" d="M147.989 89.3496C147.989 89.3496 150.694 107.166 145.283 109.325C139.872 111.485 156.105 120.662 156.105 120.662H165.304L171.256 108.245C171.256 108.245 165.845 98.5275 169.091 89.3496C172.338 80.1717 147.989 89.3496 147.989 89.3496Z" fill="black"/>
<path d="M144.201 104.466C144.201 104.466 150.153 110.944 151.235 112.024C152.318 113.104 157.187 119.043 167.468 110.404C177.749 101.766 178.831 112.024 178.831 112.024V176.809C178.831 176.809 170.174 173.03 163.139 176.809C156.105 180.589 141.496 175.73 141.496 175.73L138.79 108.785L144.201 104.466Z" fill="#D0CDE1"/>
<path d="M148.176 104.467C148.176 104.467 143.119 102.307 138.79 104.467C134.461 106.626 119.311 117.424 120.393 122.283C121.475 127.141 135.544 161.154 125.804 177.35C116.064 193.546 114.441 197.865 114.441 197.865L138.249 185.448C138.249 185.448 156.646 174.111 155.023 167.092C153.4 160.074 148.176 104.467 148.176 104.467Z" fill="#3F3D56"/>
<path d="M169.639 104.466C169.639 104.466 180.995 105.546 181.537 106.625C182.078 107.705 198.581 112.294 197.499 117.153C196.417 122.012 181.537 165.472 188.03 173.57C194.523 181.668 205.345 193.006 201.557 194.085C197.769 195.165 191.276 192.466 184.783 194.085C178.29 195.705 163.139 182.208 164.763 167.631C166.386 153.055 164.775 108.245 169.639 104.466Z" fill="#3F3D56"/>
<path d="M142.578 207.582V212.981C142.578 212.981 139.872 225.398 148.53 224.858C157.187 224.318 151.776 209.742 151.776 209.742L151.235 204.883L142.578 207.582Z" fill="#FFB8B8"/>
<path d="M166.927 208.123C166.927 208.123 160.975 220.54 166.927 221.62C172.879 222.7 177.208 214.602 177.208 212.442C177.208 210.283 166.927 208.123 166.927 208.123Z" fill="#FFB8B8"/>
<path d="M147.448 351.203L146.365 351.177L149.612 227.005L150.694 227.031L147.448 351.203Z" fill="#2F2E41"/>
<path d="M174.773 84.2204C175.371 84.2204 175.855 83.2535 175.855 82.0609C175.855 80.8682 175.371 79.9014 174.773 79.9014C174.175 79.9014 173.691 80.8682 173.691 82.0609C173.691 83.2535 174.175 84.2204 174.773 84.2204Z" fill="#FFB8B8"/>
<path d="M142.848 84.2204C143.446 84.2204 143.93 83.2535 143.93 82.0609C143.93 80.8682 143.446 79.9014 142.848 79.9014C142.251 79.9014 141.766 80.8682 141.766 82.0609C141.766 83.2535 142.251 84.2204 142.848 84.2204Z" fill="#FFB8B8"/>
<path d="M184.242 111.484C184.242 111.484 197.769 111.484 197.228 116.883C196.687 122.282 178.831 215.141 178.831 215.141C178.831 215.141 171.256 208.122 164.762 209.742L184.242 111.484Z" fill="#3F3D56"/>
<path d="M131.756 113.104C131.756 113.104 118.229 115.804 118.229 123.902C118.229 132 137.708 209.743 140.414 209.743C143.119 209.743 153.4 208.123 153.4 205.424C153.4 202.724 131.756 113.104 131.756 113.104Z" fill="#3F3D56"/>
<path opacity="0.2" d="M134.732 129.03L146.907 176.535C146.907 176.535 141.225 134.969 134.732 129.03Z" fill="black"/>
<path opacity="0.2" d="M182.087 122.355L169.774 184.465C169.774 184.465 173.709 125.938 182.087 122.355Z" fill="black"/>
<path d="M158.811 97.9877C167.477 97.9877 174.502 90.9781 174.502 82.3312C174.502 73.6844 167.477 66.6748 158.811 66.6748C150.144 66.6748 143.119 73.6844 143.119 82.3312C143.119 90.9781 150.144 97.9877 158.811 97.9877Z" fill="#FFB8B8"/>
<path d="M173.192 66.4042L161.464 60.2744L145.267 62.7821L141.916 77.5494L150.258 77.2293L152.588 71.804V77.1402L156.438 76.9923L158.671 68.3548L160.068 77.5494L173.751 77.2708L173.192 66.4042Z" fill="#2F2E41"/>
<path d="M300.847 350.921H5.41089V352.001H300.847V350.921Z" fill="#2F2E41"/>
<path d="M251.382 350.931L250.3 350.91C250.718 338.904 252.002 326.944 254.141 315.123C258.821 289.813 266.602 273.191 277.269 265.718L277.891 266.601C252.973 284.058 251.395 350.264 251.382 350.931Z" fill="#2F2E41"/>
<path d="M264.909 350.673L263.827 350.652C263.85 349.456 264.527 321.275 275.646 313.485L276.268 314.369C265.597 321.844 264.915 350.385 264.909 350.673Z" fill="#2F2E41"/>
<path d="M284.074 266.159C287.062 266.159 289.484 263.742 289.484 260.76C289.484 257.778 287.062 255.361 284.074 255.361C281.085 255.361 278.663 257.778 278.663 260.76C278.663 263.742 281.085 266.159 284.074 266.159Z" fill="#008FFF"/>
<path d="M281.368 313.129C284.356 313.129 286.779 310.711 286.779 307.73C286.779 304.748 284.356 302.331 281.368 302.331C278.38 302.331 275.957 304.748 275.957 307.73C275.957 310.711 278.38 313.129 281.368 313.129Z" fill="#008FFF"/>
<path d="M262.387 269.936C263.404 276.416 260.754 282.213 260.754 282.213C260.754 282.213 256.455 277.502 255.438 271.021C254.421 264.541 257.071 258.744 257.071 258.744C257.071 258.744 261.371 263.455 262.387 269.936Z" fill="#2F2E41"/>
<path d="M280.074 285.675C273.855 287.803 267.673 286.209 267.673 286.209C267.673 286.209 271.573 281.165 277.792 279.036C284.011 276.908 290.193 278.502 290.193 278.502C290.193 278.502 286.293 283.547 280.074 285.675Z" fill="#2F2E41"/>
<path d="M280.274 326.792C277.459 327.675 274.462 327.804 271.582 327.167C273.41 324.844 275.873 323.098 278.674 322.139C281.475 321.181 284.493 321.051 287.366 321.765C285.484 324.031 283.038 325.765 280.274 326.792Z" fill="#2F2E41"/>
<path d="M1.08218 103.657H0V33.4727H69.2598V34.5524H1.08218V103.657Z" fill="#2F2E41"/>
<path d="M315.946 103.657H314.864V34.5524H246.687V33.4727H315.946V103.657Z" fill="#2F2E41"/>
<path d="M1.08218 163.043H0V233.227H69.2598V232.147H1.08218V163.043Z" fill="#2F2E41"/>
<path d="M315.946 163.043H314.864V232.147H246.687V233.227H315.946V163.043Z" fill="#2F2E41"/>
<path d="M95.2324 66.4043H19.4795V67.484H95.2324V66.4043Z" fill="#3F3D56"/>
<path d="M41.123 56.6875H40.0408V66.6752H41.123V56.6875Z" fill="#3F3D56"/>
<path d="M74.1295 56.6875H73.0474V66.6752H74.1295V56.6875Z" fill="#3F3D56"/>
<path d="M299.765 142.527H224.012V143.607H299.765V142.527Z" fill="#3F3D56"/>
<path d="M245.656 132.81H244.574V142.797H245.656V132.81Z" fill="#3F3D56"/>
<path d="M278.663 132.81H277.581V142.797H278.663V132.81Z" fill="#3F3D56"/>
<path d="M100.102 193.276H24.3491V194.356H100.102V193.276Z" fill="#3F3D56"/>
<path d="M45.9928 183.558H44.9106V193.545H45.9928V183.558Z" fill="#3F3D56"/>
<path d="M78.9994 183.558H77.9172V193.545H78.9994V183.558Z" fill="#3F3D56"/>
</g>
<defs>
<clipPath id="clip0">
<rect width="315.946" height="352" fill="white"/>
</clipPath>
</defs>
</svg>
