<svg width="400" height="352" viewBox="0 0 400 352" fill="none" xmlns="http://www.w3.org/2000/svg">
<g clip-path="url(#clip0)">
<path d="M200.445 351.796C200.347 351.636 198.045 347.793 197.247 339.812C196.515 332.49 196.986 320.148 203.387 302.933C215.514 270.318 200.592 244.004 200.44 243.741L201.176 243.314C201.215 243.381 205.065 250.09 207.339 260.774C210.345 274.938 209.25 289.665 204.185 303.229C192.079 335.788 201.079 351.2 201.171 351.353L200.445 351.796Z" fill="#3F3D56"/>
<path d="M195.703 241.827C198.757 241.827 201.233 239.352 201.233 236.297C201.233 233.243 198.757 230.768 195.703 230.768C192.648 230.768 190.172 233.243 190.172 236.297C190.172 239.352 192.648 241.827 195.703 241.827Z" fill="#008FFF"/>
<path d="M213.144 262.245C216.198 262.245 218.674 259.77 218.674 256.715C218.674 253.661 216.198 251.186 213.144 251.186C210.09 251.186 207.614 253.661 207.614 256.715C207.614 259.77 210.09 262.245 213.144 262.245Z" fill="#3F3D56"/>
<path d="M201.233 275.858C204.287 275.858 206.763 273.382 206.763 270.328C206.763 267.274 204.287 264.798 201.233 264.798C198.179 264.798 195.703 267.274 195.703 270.328C195.703 273.382 198.179 275.858 201.233 275.858Z" fill="#008FFF"/>
<path d="M215.697 287.343C218.751 287.343 221.227 284.867 221.227 281.813C221.227 278.759 218.751 276.283 215.697 276.283C212.643 276.283 210.167 278.759 210.167 281.813C210.167 284.867 212.643 287.343 215.697 287.343Z" fill="#008FFF"/>
<path d="M196.979 305.208C200.033 305.208 202.509 302.732 202.509 299.678C202.509 296.624 200.033 294.148 196.979 294.148C193.924 294.148 191.448 296.624 191.448 299.678C191.448 302.732 193.924 305.208 196.979 305.208Z" fill="#3F3D56"/>
<path d="M203.785 352.001C203.785 352.001 198.255 338.389 214.846 328.18L203.785 352.001Z" fill="#3F3D56"/>
<path d="M196.984 351.753C196.984 351.753 194.467 337.278 174.986 337.402L196.984 351.753Z" fill="#3F3D56"/>
<path d="M70.2073 194.627H69.3564V301.363H70.2073V194.627Z" fill="#3F3D56"/>
<path d="M96.1565 178.203H95.3057V317.787H96.1565V178.203Z" fill="#3F3D56"/>
<path d="M122.107 173.554H121.256V322.436H122.107V173.554Z" fill="#3F3D56"/>
<path d="M148.056 178.203H147.206V317.787H148.056V178.203Z" fill="#3F3D56"/>
<path d="M174.007 194.627H173.156V301.363H174.007V194.627Z" fill="#3F3D56"/>
<path d="M187.237 212.264H56.126V213.114H187.237V212.264Z" fill="#3F3D56"/>
<path d="M196.128 247.57H47.2349V248.421H196.128V247.57Z" fill="#3F3D56"/>
<path d="M187.237 282.876H56.126V283.727H187.237V282.876Z" fill="#3F3D56"/>
<path d="M325.027 213.115C366.143 213.115 399.474 179.786 399.474 138.674C399.474 97.5608 366.143 64.2324 325.027 64.2324C283.911 64.2324 250.581 97.5608 250.581 138.674C250.581 179.786 283.911 213.115 325.027 213.115Z" fill="#008FFF"/>
<path d="M199.105 124.015H198.254V230.75H199.105V124.015Z" fill="#3F3D56"/>
<path d="M225.056 107.591H224.205V247.174H225.056V107.591Z" fill="#3F3D56"/>
<path d="M251.006 102.941H250.155V251.824H251.006V102.941Z" fill="#3F3D56"/>
<path d="M276.956 107.591H276.105V247.174H276.956V107.591Z" fill="#3F3D56"/>
<path d="M302.906 124.015H302.055V230.75H302.906V124.015Z" fill="#3F3D56"/>
<path d="M316.135 141.651H185.024V142.502H316.135V141.651Z" fill="#3F3D56"/>
<path d="M325.027 176.957H176.134V177.808H325.027V176.957Z" fill="#3F3D56"/>
<path d="M316.135 212.264H185.024V213.114H316.135V212.264Z" fill="#3F3D56"/>
<path d="M308.123 14.0703H308.123C287.644 14.0703 271.043 32.4929 271.043 55.2184V84.0913H279.924L285.065 73.3937L283.78 84.0913H340.861L345.535 74.3662L344.367 84.0913H350.793V61.4209C350.793 35.2699 331.689 14.0703 308.123 14.0703Z" fill="#2F2E41"/>
<path d="M290.225 65.9649C290.225 65.9649 301.799 92.9681 286.367 98.3687L301.799 149.289L328.032 147.746L334.976 130.772L333.433 105.312L331.119 88.339C331.119 88.339 314.915 92.1965 316.459 63.6504L290.225 65.9649Z" fill="#FFB8B8"/>
<path d="M284.053 97.5975C284.053 97.5975 258.591 95.2829 260.906 113.799C263.22 132.316 265.535 136.173 265.535 136.173L267.85 163.948L253.961 172.435H240.845C240.845 172.435 200.723 181.693 220.784 191.723C240.845 201.752 247.789 184.007 247.789 184.007C247.789 184.007 284.824 184.007 287.139 177.835C289.454 171.663 284.053 97.5975 284.053 97.5975Z" fill="#FFB8B8"/>
<path d="M333.433 89.8816C333.433 89.8816 357.352 81.3949 358.895 99.9114C360.438 118.428 360.438 119.971 360.438 119.971L365.068 146.202C365.068 146.202 374.327 169.348 374.327 176.292C374.327 183.235 381.271 204.838 381.271 204.838C381.271 204.838 390.53 234.927 380.499 234.155C370.469 233.384 368.926 201.752 368.926 201.752L348.093 160.09L341.92 134.63L333.433 89.8816Z" fill="#FFB8B8"/>
<path d="M287.911 94.5111H281.738L280.966 126.915C280.966 126.915 270.936 140.802 283.281 153.146L286.367 173.206L342.692 170.891L346.55 150.06C346.55 150.06 354.266 133.087 343.464 117.657L333.434 86.0244H328.033C328.033 86.0244 340.542 132.144 314.144 133.087C292.54 133.859 287.911 94.5111 287.911 94.5111Z" fill="white"/>
<path d="M377.509 286.101C360.113 305.671 338.929 321.512 315.238 332.667C315.229 294.06 315.685 262.701 315.685 262.701C315.685 262.701 312.409 295.838 308.248 335.785C284.48 345.818 258.937 350.971 233.138 350.937C232.679 350.937 232.219 350.937 231.76 350.928C252.988 274.658 283.953 187.243 284.808 184.831C284.815 184.815 284.821 184.797 284.825 184.78L286.693 178.553L287.488 175.903L288.322 173.125L289.454 169.347L339.605 167.808L341.009 170.96L345.778 181.692C346.194 181.813 346.589 181.998 346.948 182.241C355.975 188.166 367.355 233.392 377.509 286.101Z" fill="#2F2E41"/>
<path d="M345.007 161.633L284.052 163.947C284.052 163.947 281.27 184.778 284.052 184.778C284.824 184.778 348.093 190.179 347.322 180.921C346.55 171.663 345.007 161.633 345.007 161.633Z" fill="#3F3D56"/>
<path d="M302.15 74.8011C314.123 74.8011 323.829 65.0956 323.829 53.1232C323.829 41.1508 314.123 31.4453 302.15 31.4453C290.176 31.4453 280.47 41.1508 280.47 53.1232C280.47 65.0956 290.176 74.8011 302.15 74.8011Z" fill="#FFB8B8"/>
<path d="M318.665 25.4059C314.942 20.6123 309.451 17.5762 303.321 17.5762H302.593C288.556 17.5762 277.178 30.2765 277.178 45.9431V45.9432H281.881L282.64 40.1622L283.754 45.9432H311.649L313.986 41.0523L313.401 45.9432H318.889C321.45 58.6595 317.77 71.3757 307.851 84.092H317.199L321.873 74.3102L320.705 84.092H338.524L342.03 61.5939C342.03 44.745 332.239 30.4574 318.665 25.4059Z" fill="#2F2E41"/>
<path d="M323.788 27.7746C331.459 27.7746 337.677 21.5571 337.677 13.8873C337.677 6.21757 331.459 0 323.788 0C316.118 0 309.9 6.21757 309.9 13.8873C309.9 21.5571 316.118 27.7746 323.788 27.7746Z" fill="#2F2E41"/>
<path d="M222.327 184.314C226.184 184.314 229.31 181.188 229.31 177.332C229.31 173.476 226.184 170.35 222.327 170.35C218.471 170.35 215.345 173.476 215.345 177.332C215.345 181.188 218.471 184.314 222.327 184.314Z" fill="#008FFF"/>
<path d="M222.328 177.331H70.1089V115.89H196.725L222.328 177.331Z" fill="#EFEFEF"/>
<path d="M223.023 177.797H51.4893V102.392H191.916L192.035 102.68L223.023 177.797ZM52.4203 176.866H221.632L191.293 103.323H52.4203V176.866Z" fill="#3F3D56"/>
<path d="M171.122 125.664H95.2451V132.646H171.122V125.664Z" fill="#3F3D56"/>
<path d="M171.122 140.094H95.2451V147.076H171.122V140.094Z" fill="#3F3D56"/>
<path d="M171.122 154.523H95.2451V161.505H171.122V154.523Z" fill="#3F3D56"/>
<path d="M5.10492 249.418C4.09526 249.418 3.10828 249.119 2.26878 248.558C1.42928 247.997 0.774972 247.2 0.388593 246.267C0.0022143 245.334 -0.0988833 244.308 0.0980909 243.318C0.295065 242.327 0.781264 241.418 1.4952 240.704C2.20913 239.99 3.11874 239.504 4.109 239.307C5.09925 239.11 6.12568 239.211 7.05849 239.598C7.99129 239.984 8.78857 240.638 9.3495 241.478C9.91044 242.317 10.2098 243.304 10.2098 244.313C10.2083 245.667 9.66995 246.964 8.71292 247.921C7.7559 248.878 6.45835 249.416 5.10492 249.418ZM5.10492 240.06C4.26354 240.06 3.44105 240.309 2.74147 240.777C2.04189 241.244 1.49663 241.908 1.17465 242.686C0.852667 243.463 0.76842 244.318 0.932565 245.143C1.09671 245.969 1.50187 246.726 2.09682 247.321C2.69177 247.916 3.44977 248.321 4.27499 248.486C5.1002 248.65 5.95556 248.565 6.73289 248.243C7.51023 247.921 8.17462 247.376 8.64207 246.677C9.10951 245.977 9.35901 245.155 9.35901 244.313C9.35776 243.186 8.90915 242.104 8.11163 241.307C7.3141 240.51 6.23279 240.061 5.10492 240.06Z" fill="#2F2E41"/>
<path d="M184.554 57.2705H176.156V48.873H184.554V57.2705ZM176.802 56.6245H183.908V49.519H176.802V56.6245Z" fill="#3F3D56"/>
<path d="M25.7257 59.0073L19.9976 52.8664L26.1389 47.1387L31.867 53.2795L25.7257 59.0073ZM20.9106 52.8982L25.7575 58.0943L30.954 53.2477L26.1071 48.0516L20.9106 52.8982Z" fill="#2F2E41"/>
</g>
<defs>
<clipPath id="clip0">
<rect width="399.474" height="352" fill="white"/>
</clipPath>
</defs>
</svg>
