<svg width="452" height="352" viewBox="0 0 452 352" fill="none" xmlns="http://www.w3.org/2000/svg">
<g clip-path="url(#clip0)">
<path d="M225.123 348.109C283.038 348.109 329.987 301.643 329.987 244.325C329.987 187.007 283.038 140.541 225.123 140.541C167.208 140.541 120.258 187.007 120.258 244.325C120.258 301.643 167.208 348.109 225.123 348.109Z" fill="#F2F2F2"/>
<path d="M232.551 349.406C231.338 349.406 230.114 349.387 228.912 349.35L228.939 348.486C230.665 348.539 232.426 348.553 234.161 348.53L234.172 349.395C233.633 349.402 233.092 349.406 232.551 349.406ZM239.43 349.205L239.379 348.342C241.108 348.241 242.858 348.099 244.582 347.92L244.674 348.78C242.936 348.961 241.172 349.104 239.43 349.205H239.43ZM223.659 349.07C221.916 348.938 220.154 348.765 218.423 348.555L218.53 347.697C220.248 347.905 221.995 348.077 223.725 348.208L223.659 349.07ZM249.892 348.119L249.761 347.265C251.478 347.007 253.209 346.707 254.903 346.374L255.074 347.222C253.366 347.558 251.623 347.86 249.892 348.119H249.892ZM213.218 347.803C211.496 347.514 209.758 347.182 208.052 346.816L208.237 345.97C209.93 346.334 211.655 346.664 213.364 346.95L213.218 347.803ZM260.209 346.09L259.999 345.25C261.685 344.838 263.381 344.382 265.038 343.895L265.287 344.725C263.616 345.215 261.908 345.674 260.209 346.09ZM202.938 345.594C201.249 345.149 199.549 344.66 197.886 344.14L198.149 343.315C199.799 343.832 201.486 344.317 203.162 344.758L202.938 345.594ZM270.295 343.129L270.008 342.312C271.644 341.749 273.289 341.141 274.899 340.503L275.223 341.306C273.602 341.948 271.943 342.562 270.295 343.129ZM192.894 342.451C191.253 341.855 189.603 341.211 187.988 340.537L188.327 339.74C189.929 340.408 191.567 341.047 193.195 341.64L192.894 342.451ZM280.051 339.265L279.689 338.478C281.26 337.771 282.84 337.017 284.383 336.236L284.781 337.007C283.225 337.793 281.634 338.553 280.051 339.265ZM183.178 338.403C181.601 337.659 180.018 336.868 178.474 336.051L178.886 335.289C180.419 336.099 181.989 336.884 183.554 337.622L183.178 338.403ZM289.401 334.535L288.968 333.784C290.475 332.933 291.979 332.039 293.438 331.125L293.905 331.856C292.435 332.776 290.919 333.678 289.401 334.535V334.535ZM173.886 333.489C172.386 332.606 170.884 331.675 169.422 330.722L169.903 330C171.353 330.946 172.844 331.87 174.332 332.746L173.886 333.489ZM298.281 328.975L297.781 328.266C299.199 327.285 300.615 326.258 301.989 325.213L302.521 325.899C301.137 326.952 299.711 327.987 298.281 328.975H298.281ZM165.092 327.757C163.681 326.743 162.272 325.681 160.904 324.6L161.449 323.924C162.807 324.997 164.205 326.051 165.605 327.057L165.092 327.757ZM306.616 322.635L306.053 321.973C307.375 320.869 308.691 319.718 309.965 318.553L310.558 319.188C309.275 320.362 307.949 321.522 306.616 322.635ZM156.866 321.257C155.553 320.119 154.248 318.934 152.988 317.737L153.593 317.113C154.843 318.301 156.138 319.477 157.442 320.607L156.866 321.257ZM314.338 315.566L313.716 314.958C314.935 313.736 316.141 312.471 317.299 311.198L317.949 311.777C316.781 313.059 315.567 314.334 314.338 315.566ZM149.276 314.047C148.071 312.793 146.88 311.497 145.738 310.194L146.398 309.627C147.532 310.92 148.713 312.206 149.909 313.451L149.276 314.047ZM321.381 307.829L320.706 307.28C321.808 305.953 322.892 304.585 323.93 303.211L324.63 303.729C323.584 305.113 322.491 306.493 321.381 307.829ZM142.382 306.187C141.3 304.834 140.234 303.436 139.214 302.034L139.924 301.529C140.935 302.92 141.993 304.307 143.067 305.651L142.382 306.187ZM327.686 299.486L326.963 299C327.938 297.58 328.892 296.118 329.8 294.655L330.545 295.108C329.63 296.582 328.668 298.055 327.686 299.486ZM136.242 297.743C135.29 296.298 134.358 294.812 133.472 293.324L134.225 292.885C135.104 294.361 136.029 295.837 136.974 297.27L136.242 297.743ZM333.198 290.603L332.433 290.185C333.272 288.683 334.087 287.14 334.856 285.599L335.64 285.982C334.865 287.535 334.043 289.089 333.198 290.603H333.198ZM130.91 288.785C130.095 287.26 129.305 285.696 128.561 284.136L129.351 283.767C130.089 285.315 130.873 286.868 131.682 288.38L130.91 288.785ZM337.865 281.254L337.064 280.907C337.761 279.333 338.429 277.721 339.052 276.116L339.868 276.426C339.24 278.043 338.566 279.668 337.865 281.254ZM126.431 279.388C125.761 277.796 125.119 276.168 124.524 274.548L125.346 274.253C125.936 275.861 126.573 277.476 127.237 279.055L126.431 279.388ZM341.644 271.51L340.814 271.238C341.359 269.612 341.874 267.95 342.343 266.298L343.185 266.532C342.712 268.197 342.193 269.872 341.644 271.51ZM122.841 269.615C122.321 267.967 121.832 266.283 121.389 264.61L122.234 264.391C122.674 266.051 123.159 267.722 123.675 269.358L122.841 269.615ZM344.492 261.488L343.64 261.292C344.032 259.625 344.389 257.923 344.704 256.233L345.563 256.389C345.247 258.092 344.886 259.807 344.492 261.488ZM120.172 259.544C119.808 257.855 119.478 256.134 119.192 254.429L120.054 254.287C120.338 255.98 120.665 257.687 121.027 259.363L120.172 259.544ZM346.396 251.249L345.53 251.131C345.765 249.437 345.963 247.71 346.12 245.997L346.99 246.075C346.833 247.801 346.632 249.542 346.396 251.249H346.396ZM118.45 249.274C118.244 247.562 118.075 245.818 117.947 244.092L118.818 244.028C118.945 245.742 119.113 247.472 119.318 249.172L118.45 249.274ZM347.346 240.881L346.473 240.842C346.551 239.128 346.591 237.39 346.591 235.676H347.465C347.464 237.403 347.425 239.154 347.346 240.881ZM117.682 238.891C117.652 237.831 117.637 236.749 117.637 235.676C117.637 235.01 117.642 234.346 117.654 233.683L118.528 233.698C118.516 234.356 118.511 235.016 118.511 235.676C118.511 236.741 118.526 237.815 118.555 238.867L117.682 238.891ZM346.584 234.47C346.566 232.755 346.508 231.017 346.412 229.304L347.284 229.255C347.381 230.982 347.44 232.733 347.458 234.46L346.584 234.47ZM118.735 228.535L117.863 228.481C117.972 226.753 118.123 225.008 118.31 223.293L119.179 223.387C118.993 225.088 118.844 226.82 118.735 228.535ZM346.003 224.153C345.829 222.448 345.612 220.722 345.358 219.025L346.223 218.899C346.478 220.609 346.697 222.347 346.873 224.065L346.003 224.153ZM119.859 218.264L118.996 218.131C119.263 216.421 119.575 214.696 119.92 213.005L120.777 213.177C120.434 214.855 120.125 216.566 119.859 218.264ZM344.476 213.933C344.143 212.245 343.767 210.547 343.358 208.885L344.208 208.681C344.619 210.355 344.998 212.067 345.334 213.767L344.476 213.933ZM121.929 208.137L121.082 207.927C121.506 206.252 121.976 204.563 122.479 202.907L123.315 203.156C122.817 204.799 122.35 206.475 121.929 208.137ZM342.007 203.894C341.519 202.247 340.987 200.59 340.424 198.97L341.25 198.688C341.818 200.322 342.354 201.991 342.846 203.65L342.007 203.894ZM124.937 198.229L124.113 197.942C124.694 196.307 125.321 194.664 125.977 193.059L126.787 193.384C126.136 194.976 125.514 196.607 124.937 198.229ZM338.613 194.123C337.976 192.531 337.293 190.934 336.584 189.375L337.381 189.02C338.096 190.591 338.783 192.201 339.426 193.804L338.613 194.123ZM128.86 188.63L128.066 188.269C128.795 186.696 129.572 185.118 130.374 183.58L131.151 183.977C130.355 185.503 129.584 187.069 128.86 188.63ZM334.336 184.723C333.554 183.196 332.726 181.666 331.874 180.176L332.634 179.75C333.493 181.251 334.327 182.793 335.116 184.332L334.336 184.723ZM133.656 179.434L132.898 179.003C133.77 177.505 134.69 176.005 135.631 174.546L136.368 175.011C135.433 176.459 134.521 177.948 133.656 179.434ZM329.202 175.743C328.279 174.289 327.312 172.839 326.329 171.436L327.046 170.943C328.038 172.357 329.012 173.818 329.942 175.283L329.202 175.743ZM139.281 170.717L138.566 170.219C139.574 168.805 140.627 167.395 141.698 166.029L142.388 166.559C141.326 167.915 140.28 169.314 139.281 170.717ZM323.258 167.261C322.205 165.896 321.108 164.539 319.998 163.228L320.668 162.672C321.786 163.993 322.892 165.361 323.953 166.736L323.258 167.261ZM145.683 162.548L145.018 161.987C146.148 160.673 147.327 159.365 148.52 158.099L149.159 158.689C147.975 159.945 146.805 161.244 145.683 162.548ZM316.555 159.344C315.381 158.08 314.164 156.826 312.936 155.619L313.553 155.006C314.789 156.222 316.016 157.485 317.199 158.759L316.555 159.344ZM152.807 154.992L152.196 154.374C153.446 153.164 154.739 151.968 156.039 150.819L156.621 151.464C155.331 152.604 154.047 153.792 152.807 154.992ZM309.15 152.061C307.864 150.906 306.536 149.767 305.203 148.675L305.76 148.009C307.103 149.109 308.441 150.256 309.737 151.42L309.15 152.061ZM160.593 148.112L160.041 147.441C161.392 146.352 162.789 145.277 164.193 144.248L164.713 144.942C163.32 145.964 161.934 147.031 160.593 148.112ZM301.103 145.471C299.715 144.436 298.287 143.421 296.858 142.454L297.351 141.74C298.791 142.715 300.23 143.737 301.629 144.78L301.103 145.471ZM168.974 141.964L168.486 141.246C169.933 140.283 171.422 139.34 172.913 138.442L173.367 139.181C171.887 140.072 170.41 141.008 168.974 141.964ZM292.478 139.632C291.001 138.728 289.484 137.846 287.971 137.011L288.395 136.256C289.921 137.097 291.449 137.986 292.938 138.897L292.478 139.632ZM177.882 136.601L177.463 135.842C178.993 135.013 180.562 134.209 182.126 133.452L182.51 134.229C180.958 134.98 179.401 135.778 177.882 136.601V136.601ZM283.345 134.597C281.79 133.83 280.197 133.09 278.611 132.396L278.964 131.605C280.563 132.304 282.168 133.05 283.735 133.823L283.345 134.597ZM187.242 132.07L186.895 131.276C188.494 130.59 190.13 129.932 191.757 129.321L192.067 130.129C190.453 130.736 188.829 131.389 187.242 132.07V132.07ZM273.778 130.412C272.16 129.791 270.504 129.198 268.855 128.651L269.134 127.831C270.794 128.383 272.463 128.979 274.094 129.605L273.778 130.412ZM196.989 128.407L196.717 127.585C198.378 127.046 200.072 126.539 201.753 126.077L201.987 126.91C200.319 127.368 198.637 127.872 196.989 128.407V128.407ZM263.868 127.121C262.202 126.65 260.502 126.213 258.816 125.819L259.016 124.978C260.715 125.374 262.428 125.815 264.108 126.289L263.868 127.121ZM207.049 125.644L206.854 124.801C208.557 124.416 210.291 124.065 212.008 123.758L212.164 124.609C210.459 124.914 208.738 125.262 207.049 125.644V125.644ZM253.708 124.75C252.006 124.434 250.273 124.153 248.556 123.914L248.677 123.058C250.407 123.298 252.154 123.581 253.869 123.9L253.708 124.75ZM217.322 123.809L217.206 122.952C218.936 122.723 220.695 122.531 222.435 122.381L222.511 123.243C220.785 123.392 219.039 123.582 217.322 123.809V123.809ZM243.37 123.313C241.649 123.152 239.897 123.028 238.162 122.945L238.205 122.081C239.952 122.165 241.718 122.29 243.452 122.452L243.37 123.313ZM227.722 122.911L227.685 122.047C229.291 121.98 230.928 121.947 232.551 121.946L232.946 121.947L232.944 122.812L232.551 122.811C230.94 122.812 229.315 122.845 227.722 122.911V122.911Z" fill="#3F3D56"/>
<path d="M227.415 352C266.991 352 299.073 350.257 299.073 348.108C299.073 345.958 266.991 344.216 227.415 344.216C187.84 344.216 155.758 345.958 155.758 348.108C155.758 350.257 187.84 352 227.415 352Z" fill="#3F3D56"/>
<path d="M232.568 59.6016C232.568 59.6016 225.902 66.8582 225.569 72.1357C225.235 77.4132 213.8 90.4902 225.132 94.7782C225.132 94.7782 227.131 93.4588 229.131 94.7782C231.131 96.0976 244.525 93.259 244.525 93.259L232.568 59.6016Z" fill="#2F2E41"/>
<path d="M238.399 88.8818C238.399 88.8818 245.707 99.0075 239.13 101.177C232.553 103.347 243.515 146.743 243.515 146.743L271.285 104.07C271.285 104.07 256.669 88.1585 256.669 80.9258L238.399 88.8818Z" fill="#FFB9B9"/>
<path d="M304.171 140.233C304.171 140.233 313.671 149.636 310.748 151.806C307.825 153.976 278.593 167.718 278.593 168.441C278.593 169.164 274.208 172.781 274.208 172.781L269.092 164.825L288.824 152.529L304.171 140.233Z" fill="#FFB9B9"/>
<path d="M199.667 135.171C199.667 135.171 192.359 146.743 198.205 151.806C204.051 156.869 221.591 170.611 221.591 170.611C221.591 170.611 217.77 182.358 221.507 182.994C225.245 183.63 231.091 166.995 230.36 165.548C229.629 164.102 210.158 151.566 210.158 151.566L199.667 135.171Z" fill="#FFB9B9"/>
<path d="M192.946 311.932L187.55 331.675L198.036 332.108L202.447 316.271L192.946 311.932Z" fill="#FFB9B9"/>
<path d="M256.669 313.096V329.008H263.977L267.631 313.096H256.669Z" fill="#FFB9B9"/>
<path d="M243.515 93.2214C252.394 93.2214 259.592 86.0973 259.592 77.3094C259.592 68.5215 252.394 61.3975 243.515 61.3975C234.635 61.3975 227.437 68.5215 227.437 77.3094C227.437 86.0973 234.635 93.2214 243.515 93.2214Z" fill="#FFB9B9"/>
<path d="M248.63 133.724L239.129 101.177C239.129 101.177 221.59 99.0073 213.551 109.133C205.513 119.259 196.743 138.064 196.743 138.064C196.743 138.064 201.128 144.573 201.859 148.913C202.589 153.253 214.282 151.083 214.282 151.083C214.282 151.083 225.244 153.253 225.244 162.655C225.244 172.058 190.896 315.988 190.896 315.988C190.896 315.988 232.552 325.391 235.475 318.158C238.399 310.926 253.015 224.133 253.015 224.133L254.476 321.051C254.476 321.051 289.555 326.114 291.016 317.435C292.478 308.756 285.17 200.988 285.17 200.988C285.17 200.988 283.708 176.397 272.015 161.932C272.015 161.932 271.285 157.592 271.285 156.869C271.285 156.146 289.555 153.253 289.555 153.253C289.555 153.253 309.286 157.592 308.556 142.404C307.825 127.215 285.17 106.24 277.131 104.07C269.092 101.9 266.948 99.0078 266.948 99.0078L248.63 133.724Z" fill="#2F2E41"/>
<path d="M188.86 327.784C188.86 327.784 191.211 326.479 185.365 328.649C179.519 330.819 166.577 336.865 166.577 336.865C166.577 336.865 144.856 339.26 163.857 347.939C163.857 347.939 178.473 348.961 178.473 347.514C178.473 346.068 183.589 343.898 185.05 346.068C186.512 348.237 201.095 347.676 201.136 345.635C201.182 343.348 199.674 327.255 199.674 327.255C199.674 327.255 190.322 332.847 188.86 327.784Z" fill="#2F2E41"/>
<path d="M266.169 324.667C266.169 324.667 253.745 319.604 253.015 322.497C252.284 325.39 250.822 336.24 250.822 337.686C250.822 339.133 247.899 349.982 258.13 351.428C268.361 352.875 270.554 343.472 269.823 342.749C269.092 342.026 266.169 324.667 266.169 324.667Z" fill="#2F2E41"/>
<path d="M245.082 53.4988C245.082 53.4988 256.673 41.9363 271.004 68.324C271.004 68.324 285.476 90.896 266.479 97.4929C266.479 97.4929 250.031 94.2699 249.581 86.3184C249.581 86.3184 255.58 85.6588 250.915 80.7111C246.249 75.7634 241.916 73.4545 241.916 73.4545C241.916 73.4545 238.25 71.1456 238.25 68.8366C238.25 68.8366 238.25 72.7948 238.916 72.7948C238.916 72.7948 232.584 72.1351 232.251 69.4963C231.918 66.8576 230.584 62.5696 230.584 62.5696C230.584 62.5696 232.584 51.6846 245.082 53.4988Z" fill="#2F2E41"/>
<path d="M322.56 80.0002C328.834 80.0002 333.92 74.9664 333.92 68.7569C333.92 62.5474 328.834 57.5137 322.56 57.5137C316.285 57.5137 311.199 62.5474 311.199 68.7569C311.199 74.9664 316.285 80.0002 322.56 80.0002Z" fill="#F2F2F2"/>
<path d="M323.87 80.8648C321.018 80.8648 318.231 80.0278 315.859 78.4598C313.488 76.8918 311.64 74.663 310.549 72.0555C309.457 69.4479 309.172 66.5787 309.728 63.8105C310.285 61.0423 311.658 58.4996 313.674 56.5039C315.691 54.5082 318.26 53.149 321.057 52.5984C323.854 52.0478 326.753 52.3304 329.388 53.4105C332.023 54.4906 334.275 56.3196 335.859 58.6664C337.443 61.0131 338.289 63.7721 338.289 66.5945C338.285 70.3779 336.764 74.0051 334.061 76.6804C331.358 79.3557 327.693 80.8605 323.87 80.8648ZM323.87 53.1891C321.191 53.1891 318.572 53.9753 316.345 55.4483C314.117 56.9213 312.381 59.015 311.356 61.4645C310.331 63.914 310.063 66.6094 310.585 69.2098C311.108 71.8102 312.398 74.1988 314.292 76.0735C316.187 77.9483 318.6 79.2251 321.228 79.7423C323.855 80.2596 326.578 79.9941 329.053 78.9795C331.529 77.9649 333.644 76.2466 335.132 74.0421C336.621 71.8376 337.415 69.2458 337.415 66.5945C337.411 63.0404 335.983 59.633 333.443 57.1199C330.904 54.6068 327.461 53.1931 323.87 53.1891Z" fill="#3F3D56"/>
<path d="M330.477 90.7255H312.43C311.198 83.6792 311.198 76.476 312.43 69.4297H330.477C328.444 76.3857 328.444 83.7695 330.477 90.7255Z" fill="#FF6584"/>
<path d="M158.927 102.703C165.201 102.703 170.288 97.6695 170.288 91.46C170.288 85.2506 165.201 80.2168 158.927 80.2168C152.653 80.2168 147.567 85.2506 147.567 91.46C147.567 97.6695 152.653 102.703 158.927 102.703Z" fill="#F2F2F2"/>
<path d="M157.616 103.568C154.764 103.568 151.977 102.731 149.605 101.163C147.234 99.5949 145.386 97.3662 144.295 94.7586C143.204 92.1511 142.918 89.2818 143.474 86.5136C144.031 83.7455 145.404 81.2028 147.42 79.207C149.437 77.2113 152.006 75.8522 154.803 75.3015C157.6 74.7509 160.499 75.0335 163.134 76.1136C165.769 77.1937 168.021 79.0228 169.605 81.3695C171.189 83.7162 172.035 86.4752 172.035 89.2976C172.031 93.081 170.51 96.7082 167.807 99.3835C165.104 102.059 161.439 103.564 157.616 103.568ZM157.616 75.8922C154.937 75.8922 152.318 76.6784 150.091 78.1514C147.863 79.6244 146.127 81.7181 145.102 84.1676C144.077 86.6171 143.809 89.3125 144.331 91.9129C144.854 94.5133 146.144 96.9019 148.038 98.7767C149.933 100.651 152.346 101.928 154.974 102.445C157.601 102.963 160.325 102.697 162.8 101.683C165.275 100.668 167.39 98.9498 168.878 96.7453C170.367 94.5408 171.161 91.949 171.161 89.2976C171.157 85.7435 169.729 82.3362 167.189 79.823C164.65 77.3099 161.207 75.8963 157.616 75.8922Z" fill="#3F3D56"/>
<path d="M148.606 111.041H166.653C167.885 103.995 167.885 96.7914 166.653 89.7451H148.606C150.639 96.7011 150.639 104.085 148.606 111.041Z" fill="#008FFF"/>
<path d="M226.434 27.6759C232.708 27.6759 237.794 22.6422 237.794 16.4327C237.794 10.2232 232.708 5.18945 226.434 5.18945C220.159 5.18945 215.073 10.2232 215.073 16.4327C215.073 22.6422 220.159 27.6759 226.434 27.6759Z" fill="white"/>
<path d="M227.745 28.5405C224.893 28.5405 222.105 27.7036 219.734 26.1356C217.363 24.5675 215.515 22.3388 214.423 19.7313C213.332 17.1237 213.046 14.2544 213.603 11.4863C214.159 8.71812 215.532 6.17541 217.549 4.17967C219.565 2.18394 222.135 0.824827 224.932 0.274206C227.729 -0.276416 230.628 0.00618249 233.262 1.08627C235.897 2.16635 238.149 3.99541 239.733 6.34214C241.318 8.68887 242.163 11.4479 242.163 14.2703C242.159 18.0537 240.639 21.6809 237.935 24.3562C235.232 27.0314 231.567 28.5363 227.745 28.5405ZM227.745 0.864871C225.066 0.864871 222.447 1.65108 220.219 3.12409C217.992 4.59709 216.256 6.69073 215.231 9.14025C214.205 11.5898 213.937 14.2851 214.46 16.8855C214.982 19.4859 216.272 21.8745 218.167 23.7493C220.061 25.6241 222.475 26.9008 225.102 27.4181C227.73 27.9354 230.453 27.6699 232.928 26.6553C235.403 25.6406 237.518 23.9224 239.007 21.7179C240.495 19.5134 241.29 16.9216 241.29 14.2703C241.286 10.7162 239.857 7.30878 237.318 4.79565C234.779 2.28251 231.336 0.868877 227.745 0.864871Z" fill="#3F3D56"/>
<path d="M217.642 35.3642H235.689C236.921 28.3179 236.921 21.1147 235.689 14.0684H217.642C219.675 21.0244 219.675 28.4082 217.642 35.3642Z" fill="#008FFF"/>
<path d="M45.5237 237.081C60.5366 281.798 55.264 323.784 55.264 323.784C55.264 323.784 25.6508 293.27 10.6379 248.553C-4.37498 203.837 0.89757 161.851 0.89757 161.851C0.89757 161.851 30.5108 192.364 45.5237 237.081Z" fill="#008FFF"/>
<path d="M65.0041 237.081C49.9912 281.798 55.2638 323.784 55.2638 323.784C55.2638 323.784 84.877 293.27 99.8899 248.553C114.903 203.837 109.63 161.851 109.63 161.851C109.63 161.851 80.017 192.364 65.0041 237.081Z" fill="#008FFF"/>
<path d="M71.0509 237.564C72.0572 284.674 54.4965 323.249 54.4965 323.249C54.4965 323.249 35.3043 285.443 34.298 238.333C33.2917 191.223 50.8524 152.648 50.8524 152.648C50.8524 152.648 70.0446 190.454 71.0509 237.564Z" fill="#3F3D56"/>
<path d="M54.4868 326.086C77.9349 326.086 96.9434 325.054 96.9434 323.781C96.9434 322.507 77.9349 321.475 54.4868 321.475C31.0387 321.475 12.0303 322.507 12.0303 323.781C12.0303 325.054 31.0387 326.086 54.4868 326.086Z" fill="#3F3D56"/>
<path d="M52.6745 200.542C55.2481 200.542 57.3344 198.477 57.3344 195.93C57.3344 193.383 55.2481 191.318 52.6745 191.318C50.1009 191.318 48.0146 193.383 48.0146 195.93C48.0146 198.477 50.1009 200.542 52.6745 200.542Z" fill="#008FFF"/>
<path d="M43.6137 235.387C45.0435 235.387 46.2025 234.24 46.2025 232.825C46.2025 231.41 45.0435 230.263 43.6137 230.263C42.184 230.263 41.0249 231.41 41.0249 232.825C41.0249 234.24 42.184 235.387 43.6137 235.387Z" fill="#008FFF"/>
<path d="M12.0302 210.021C13.46 210.021 14.619 208.874 14.619 207.459C14.619 206.044 13.46 204.896 12.0302 204.896C10.6005 204.896 9.44141 206.044 9.44141 207.459C9.44141 208.874 10.6005 210.021 12.0302 210.021Z" fill="#3F3D56"/>
<path d="M103.415 185.168C104.845 185.168 106.004 184.021 106.004 182.606C106.004 181.191 104.845 180.044 103.415 180.044C101.986 180.044 100.827 181.191 100.827 182.606C100.827 184.021 101.986 185.168 103.415 185.168Z" fill="#3F3D56"/>
<path d="M25.4921 234.107C26.9219 234.107 28.0809 232.96 28.0809 231.545C28.0809 230.13 26.9219 228.982 25.4921 228.982C24.0624 228.982 22.9033 230.13 22.9033 231.545C22.9033 232.96 24.0624 234.107 25.4921 234.107Z" fill="#3F3D56"/>
<path d="M79.8574 219.244C81.2871 219.244 82.4462 218.097 82.4462 216.682C82.4462 215.267 81.2871 214.12 79.8574 214.12C78.4276 214.12 77.2686 215.267 77.2686 216.682C77.2686 218.097 78.4276 219.244 79.8574 219.244Z" fill="#3F3D56"/>
<path d="M27.0454 271.769C28.4751 271.769 29.6342 270.622 29.6342 269.207C29.6342 267.792 28.4751 266.645 27.0454 266.645C25.6156 266.645 24.4565 267.792 24.4565 269.207C24.4565 270.622 25.6156 271.769 27.0454 271.769Z" fill="#3F3D56"/>
<path d="M82.4458 257.164C83.8755 257.164 85.0346 256.017 85.0346 254.602C85.0346 253.187 83.8755 252.04 82.4458 252.04C81.016 252.04 79.8569 253.187 79.8569 254.602C79.8569 256.017 81.016 257.164 82.4458 257.164Z" fill="#3F3D56"/>
<path d="M57.3344 259.728C58.7642 259.728 59.9232 258.581 59.9232 257.166C59.9232 255.751 58.7642 254.604 57.3344 254.604C55.9047 254.604 54.7456 255.751 54.7456 257.166C54.7456 258.581 55.9047 259.728 57.3344 259.728Z" fill="#008FFF"/>
<path d="M398.551 266.893C410.895 303.661 406.56 338.183 406.56 338.183C406.56 338.183 382.211 313.094 369.866 276.326C357.522 239.559 361.858 205.036 361.858 205.036C361.858 205.036 386.207 230.126 398.551 266.893Z" fill="#008FFF"/>
<path d="M414.569 266.893C402.225 303.661 406.56 338.183 406.56 338.183C406.56 338.183 430.909 313.094 443.253 276.326C455.598 239.559 451.262 205.036 451.262 205.036C451.262 205.036 426.913 230.126 414.569 266.893Z" fill="#008FFF"/>
<path d="M419.54 267.289C420.368 306.025 405.929 337.742 405.929 337.742C405.929 337.742 390.148 306.657 389.321 267.922C388.493 229.186 402.932 197.469 402.932 197.469C402.932 197.469 418.713 228.554 419.54 267.289Z" fill="#3F3D56"/>
<path d="M405.921 340.076C425.2 340.076 440.83 339.227 440.83 338.18C440.83 337.133 425.2 336.284 405.921 336.284C386.641 336.284 371.011 337.133 371.011 338.18C371.011 339.227 386.641 340.076 405.921 340.076Z" fill="#3F3D56"/>
<path d="M404.43 236.849C406.546 236.849 408.262 235.151 408.262 233.057C408.262 230.962 406.546 229.265 404.43 229.265C402.314 229.265 400.599 230.962 400.599 233.057C400.599 235.151 402.314 236.849 404.43 236.849Z" fill="#008FFF"/>
<path d="M396.981 265.498C398.156 265.498 399.109 264.555 399.109 263.392C399.109 262.228 398.156 261.285 396.981 261.285C395.805 261.285 394.852 262.228 394.852 263.392C394.852 264.555 395.805 265.498 396.981 265.498Z" fill="#008FFF"/>
<path d="M371.011 244.644C372.187 244.644 373.14 243.701 373.14 242.537C373.14 241.374 372.187 240.431 371.011 240.431C369.836 240.431 368.883 241.374 368.883 242.537C368.883 243.701 369.836 244.644 371.011 244.644Z" fill="#3F3D56"/>
<path d="M446.152 224.208C447.327 224.208 448.28 223.265 448.28 222.102C448.28 220.938 447.327 219.995 446.152 219.995C444.976 219.995 444.023 220.938 444.023 222.102C444.023 223.265 444.976 224.208 446.152 224.208Z" fill="#3F3D56"/>
<path d="M382.08 264.447C383.255 264.447 384.208 263.504 384.208 262.34C384.208 261.177 383.255 260.233 382.08 260.233C380.904 260.233 379.951 261.177 379.951 262.34C379.951 263.504 380.904 264.447 382.08 264.447Z" fill="#3F3D56"/>
<path d="M426.782 252.228C427.957 252.228 428.91 251.285 428.91 250.121C428.91 248.958 427.957 248.015 426.782 248.015C425.606 248.015 424.653 248.958 424.653 250.121C424.653 251.285 425.606 252.228 426.782 252.228Z" fill="#3F3D56"/>
<path d="M383.357 295.415C384.533 295.415 385.486 294.471 385.486 293.308C385.486 292.144 384.533 291.201 383.357 291.201C382.182 291.201 381.229 292.144 381.229 293.308C381.229 294.471 382.182 295.415 383.357 295.415Z" fill="#3F3D56"/>
<path d="M428.91 283.407C430.085 283.407 431.038 282.463 431.038 281.3C431.038 280.137 430.085 279.193 428.91 279.193C427.734 279.193 426.781 280.137 426.781 281.3C426.781 282.463 427.734 283.407 428.91 283.407Z" fill="#3F3D56"/>
<path d="M408.262 285.512C409.438 285.512 410.391 284.569 410.391 283.406C410.391 282.242 409.438 281.299 408.262 281.299C407.086 281.299 406.133 282.242 406.133 283.406C406.133 284.569 407.086 285.512 408.262 285.512Z" fill="#008FFF"/>
</g>
<defs>
<clipPath id="clip0">
<rect width="452" height="352" fill="white"/>
</clipPath>
</defs>
</svg>
