<svg width="42" height="36" viewBox="0 0 42 36" fill="none" xmlns="http://www.w3.org/2000/svg">
<rect x="0.5" y="0.5" width="41" height="35"/>
<path d="M16.6284 18.2341C16.6284 17 15.608 15.9903 14.3609 15.9903C13.1137 15.9903 12.0934 17 12.0934 18.2341C12.0934 19.4682 13.1137 20.4779 14.3609 20.4779C15.608 20.4779 16.6284 19.4682 16.6284 18.2341ZM18.8959 18.2341C18.8959 19.4682 19.9162 20.4779 21.1634 20.4779C22.4105 20.4779 23.4309 19.4682 23.4309 18.2341C23.4309 17 22.4105 15.9903 21.1634 15.9903C19.9162 15.9903 18.8959 17 18.8959 18.2341ZM25.6984 18.2341C25.6984 19.4682 26.7188 20.4779 27.9659 20.4779C29.213 20.4779 30.2334 19.4682 30.2334 18.2341C30.2334 17 29.213 15.9903 27.9659 15.9903C26.7188 15.9903 25.6984 17 25.6984 18.2341Z" fill="#757575"/>
</svg>
