<svg width="42" height="36" viewBox="0 0 42 36" fill="none" xmlns="http://www.w3.org/2000/svg">
<rect x="0.5" y="0.5" width="41" height="35" stroke="#BCC6CA"/>
<path d="M16.6284 18.2342C16.6284 17.0001 15.608 15.9904 14.3609 15.9904C13.1137 15.9904 12.0934 17.0001 12.0934 18.2342C12.0934 19.4683 13.1137 20.478 14.3609 20.478C15.608 20.478 16.6284 19.4683 16.6284 18.2342ZM18.8959 18.2342C18.8959 19.4683 19.9162 20.478 21.1634 20.478C22.4105 20.478 23.4309 19.4683 23.4309 18.2342C23.4309 17.0001 22.4105 15.9904 21.1634 15.9904C19.9162 15.9904 18.8959 17.0001 18.8959 18.2342ZM25.6984 18.2342C25.6984 19.4683 26.7188 20.478 27.9659 20.478C29.213 20.478 30.2334 19.4683 30.2334 18.2342C30.2334 17.0001 29.213 15.9904 27.9659 15.9904C26.7188 15.9904 25.6984 17.0001 25.6984 18.2342Z" fill="#757575"/>
</svg>
