<svg width="24" height="24" viewBox="0 0 24 24" fill="none" xmlns="http://www.w3.org/2000/svg">
<path d="M12 3.77246C10.085 3.77208 8.20074 4.25475 6.52172 5.17583C4.84271 6.0969 3.42315 7.42661 2.39442 9.04191C1.36568 10.6572 0.761011 12.5059 0.63636 14.4169C0.511708 16.3279 0.871103 18.2395 1.68129 19.9747C1.71125 20.0428 1.76037 20.1006 1.82265 20.1413C1.88494 20.1819 1.95769 20.2035 2.03205 20.2035H21.968C22.0424 20.2035 22.1151 20.1819 22.1774 20.1413C22.2397 20.1006 22.2888 20.0428 22.3188 19.9747C23.1282 18.2394 23.4871 16.328 23.3621 14.4173C23.2372 12.5065 22.6324 10.6581 21.6038 9.04306C20.5752 7.42797 19.156 6.09832 17.4773 5.17707C15.7987 4.25583 13.9148 3.77273 12 3.77246ZM4.69408 19.4535C3.92652 18.152 3.52215 16.6685 3.52315 15.1576C3.52315 10.4849 7.32583 6.6834 12 6.6834C16.6742 6.6834 20.4769 10.4874 20.4769 15.1631C20.4775 16.6722 20.0731 18.1539 19.306 19.4535H4.69408ZM21.7322 19.4535H20.1648C20.8628 18.1311 21.2274 16.6583 21.2269 15.163C21.2269 10.0738 17.0878 5.93335 12 5.93335C10.4111 5.93267 8.84903 6.34247 7.4651 7.12304C6.08117 7.90361 4.92237 9.02847 4.10101 10.3886C3.27966 11.7487 2.82361 13.2979 2.77707 14.8861C2.73053 16.4743 3.09508 18.0476 3.83538 19.4535H2.26793C1.55317 17.8343 1.2538 16.0623 1.39695 14.2981C1.54011 12.534 2.12127 10.8334 3.08776 9.35065C4.05424 7.86786 5.37549 6.64971 6.93175 5.80662C8.48801 4.96352 10.2301 4.52213 12 4.52246C17.8658 4.52246 22.6378 9.29584 22.6378 15.1631C22.6409 16.641 22.3323 18.1029 21.7322 19.4535Z" fill="black"/>
<path d="M12 8.90625C12.0995 8.90625 12.1948 8.86674 12.2652 8.79642C12.3355 8.72609 12.375 8.63071 12.375 8.53125V7.21875C12.375 7.11929 12.3355 7.02391 12.2652 6.95358C12.1948 6.88326 12.0995 6.84375 12 6.84375C11.9005 6.84375 11.8052 6.88326 11.7348 6.95358C11.6645 7.02391 11.625 7.11929 11.625 7.21875V8.53125C11.625 8.63071 11.6645 8.72609 11.7348 8.79642C11.8052 8.86674 11.9005 8.90625 12 8.90625Z" fill="black"/>
<path d="M19.9219 14.7656H18.6094C18.5099 14.7656 18.4145 14.8051 18.3442 14.8755C18.2739 14.9458 18.2344 15.0412 18.2344 15.1406C18.2344 15.2401 18.2739 15.3355 18.3442 15.4058C18.4145 15.4761 18.5099 15.5156 18.6094 15.5156H19.9219C20.0213 15.5156 20.1167 15.4761 20.187 15.4058C20.2574 15.3355 20.2969 15.2401 20.2969 15.1406C20.2969 15.0412 20.2574 14.9458 20.187 14.8755C20.1167 14.8051 20.0213 14.7656 19.9219 14.7656Z" fill="black"/>
<path d="M5.39062 14.7656H4.07812C3.97867 14.7656 3.88329 14.8051 3.81296 14.8755C3.74263 14.9458 3.70312 15.0412 3.70312 15.1406C3.70312 15.2401 3.74263 15.3355 3.81296 15.4058C3.88329 15.4761 3.97867 15.5156 4.07812 15.5156H5.39062C5.49008 15.5156 5.58546 15.4761 5.65579 15.4058C5.72612 15.3355 5.76562 15.2401 5.76562 15.1406C5.76562 15.0412 5.72612 14.9458 5.65579 14.8755C5.58546 14.8051 5.49008 14.7656 5.39062 14.7656Z" fill="black"/>
<path d="M17.3364 9.29569L16.4083 10.2238C16.338 10.2941 16.2985 10.3895 16.2985 10.489C16.2985 10.5885 16.338 10.6838 16.4083 10.7542C16.4786 10.8245 16.574 10.864 16.6735 10.864C16.7729 10.864 16.8683 10.8245 16.9386 10.7542L17.8668 9.82604C17.9364 9.75556 17.9753 9.66041 17.975 9.56135C17.9747 9.46228 17.9352 9.36737 17.8651 9.29732C17.7951 9.22728 17.7002 9.1878 17.6011 9.1875C17.5021 9.18721 17.4069 9.22612 17.3364 9.29574V9.29569Z" fill="black"/>
<path d="M6.66355 9.29672C6.59309 9.22709 6.49793 9.18818 6.39887 9.18848C6.29981 9.18877 6.20489 9.22826 6.13484 9.2983C6.06479 9.36834 6.0253 9.46326 6.025 9.56232C6.02469 9.66138 6.06359 9.75654 6.13321 9.82701L7.06133 10.7551C7.09616 10.79 7.1375 10.8176 7.18299 10.8364C7.22849 10.8553 7.27726 10.865 7.3265 10.865C7.37575 10.865 7.42452 10.8553 7.47001 10.8364C7.51551 10.8176 7.55685 10.79 7.59167 10.7551C7.6265 10.7203 7.65412 10.679 7.67297 10.6335C7.69181 10.588 7.70151 10.5392 7.70151 10.49C7.70151 10.4407 7.69181 10.392 7.67297 10.3465C7.65412 10.301 7.6265 10.2596 7.59167 10.2248L6.66355 9.29672Z" fill="black"/>
<path d="M12 13.8269C11.9542 13.8269 11.9084 13.8293 11.8628 13.834L9.95559 9.25335C9.91736 9.16152 9.84422 9.08865 9.75226 9.05075C9.6603 9.01285 9.55705 9.01304 9.46523 9.05127C9.37341 9.0895 9.30053 9.16264 9.26263 9.2546C9.22474 9.34656 9.22492 9.4498 9.26315 9.54163L11.1688 14.1184C10.9224 14.3151 10.7535 14.5926 10.6921 14.9019C10.6307 15.2112 10.6807 15.5322 10.8334 15.8081C10.986 16.0839 11.2314 16.2969 11.5261 16.4092C11.8207 16.5214 12.1456 16.5258 12.4431 16.4215C12.7406 16.3171 12.9916 16.1108 13.1516 15.8391C13.3116 15.5674 13.3703 15.2479 13.3172 14.9371C13.2641 14.6263 13.1027 14.3443 12.8616 14.1411C12.6205 13.9379 12.3153 13.8266 12 13.8269ZM12 15.7488C11.8841 15.7488 11.7708 15.7144 11.6745 15.6501C11.5781 15.5857 11.503 15.4942 11.4587 15.3871C11.4143 15.28 11.4027 15.1622 11.4253 15.0486C11.4479 14.9349 11.5037 14.8305 11.5857 14.7486C11.6676 14.6666 11.772 14.6108 11.8857 14.5882C11.9993 14.5656 12.1172 14.5772 12.2242 14.6215C12.3313 14.6659 12.4228 14.741 12.4872 14.8373C12.5516 14.9337 12.5859 15.047 12.5859 15.1629C12.5858 15.3182 12.524 15.4672 12.4141 15.577C12.3043 15.6869 12.1553 15.7486 12 15.7488Z" fill="black"/>
</svg>
